<?xml version="1.0" encoding="UTF-8" standalone="no"?>
<svg
   xmlns:dc="http://purl.org/dc/elements/1.1/"
   xmlns:cc="http://creativecommons.org/ns#"
   xmlns:rdf="http://www.w3.org/1999/02/22-rdf-syntax-ns#"
   xmlns:svg="http://www.w3.org/2000/svg"
   xmlns="http://www.w3.org/2000/svg"
   xmlns:sodipodi="http://sodipodi.sourceforge.net/DTD/sodipodi-0.dtd"
   xmlns:inkscape="http://www.inkscape.org/namespaces/inkscape"
   width="297mm"
   height="210mm"
   viewBox="0 0 297 210"
   version="1.1"
   id="svg4852"
   sodipodi:docname="comp2.svg"
   inkscape:version="1.0.1 (3bc2e813f5, 2020-09-07)">
  <defs
     id="defs4846">
    <clipPath
       id="clip1">
      <path
         d="m 717,168.67187 h 96.03516 v 1.03907 H 717 Z m 0,0"
         id="path2" />
    </clipPath>
  </defs>
  <sodipodi:namedview
     id="base"
     pagecolor="#ffffff"
     bordercolor="#666666"
     borderopacity="1.0"
     inkscape:pageopacity="0.0"
     inkscape:pageshadow="2"
     inkscape:zoom="1.0356548"
     inkscape:cx="561.25984"
     inkscape:cy="396.85039"
     inkscape:document-units="mm"
     inkscape:current-layer="layer1"
     inkscape:document-rotation="0"
     showgrid="false"
     inkscape:window-width="1920"
     inkscape:window-height="1015"
     inkscape:window-x="0"
     inkscape:window-y="0"
     inkscape:window-maximized="1" />
  <metadata
     id="metadata4849">
    <rdf:RDF>
      <cc:Work
         rdf:about="">
        <dc:format>image/svg+xml</dc:format>
        <dc:type
           rdf:resource="http://purl.org/dc/dcmitype/StillImage" />
        <dc:title />
      </cc:Work>
    </rdf:RDF>
  </metadata>
  <g
     inkscape:label="Layer 1"
     inkscape:groupmode="layer"
     id="layer1">
    <rect
       style="fill:#ffffff;stroke:none;stroke-width:0.396875"
       id="rect1065"
       width="296.75247"
       height="209.80966"
       x="0.1916682"
       y="0.71027321" />
    <path
       style="fill:#ffffff;fill-opacity:0.5;fill-rule:nonzero;stroke:#000000;stroke-width:0.743518;stroke-linecap:butt;stroke-linejoin:round;stroke-miterlimit:10;stroke-opacity:0.5"
       d="m 216.23151,98.228351 c 0.31227,0 0.61059,-0.125441 0.83086,-0.345732 0.22025,-0.217478 0.34294,-0.518577 0.34294,-0.830865 0,-0.312248 -0.1226,-0.610575 -0.34294,-0.830846 -0.22027,-0.22027 -0.51859,-0.345732 -0.83086,-0.345732 -0.31227,0 -0.61339,0.125442 -0.83364,0.345732 -0.22027,0.220271 -0.34294,0.518598 -0.34294,0.830846 0,0.312288 0.12261,0.613387 0.34294,0.830865 0.22025,0.220271 0.52137,0.345732 0.83364,0.345732 z m 0,0"
       id="path2093" />
    <path
       style="fill:#ffffff;fill-opacity:0.5;fill-rule:nonzero;stroke:#000000;stroke-width:0.743518;stroke-linecap:butt;stroke-linejoin:round;stroke-miterlimit:10;stroke-opacity:0.5"
       d="m 235.43321,95.554553 c 0.31227,0 0.61339,-0.122609 0.83364,-0.345732 0.22027,-0.220251 0.34294,-0.518578 0.34294,-0.828074 0,-0.312267 -0.12261,-0.610595 -0.34294,-0.830845 -0.22025,-0.223043 -0.52137,-0.345732 -0.83364,-0.345732 -0.31226,0 -0.61059,0.122608 -0.83086,0.345732 -0.22025,0.22025 -0.34294,0.518578 -0.34294,0.830845 0,0.309496 0.12261,0.607823 0.34294,0.828074 0.22027,0.223042 0.5186,0.345732 0.83086,0.345732 z m 0,0"
       id="path2095" />
    <path
       style="fill:#ffffff;fill-opacity:0.5;fill-rule:nonzero;stroke:#000000;stroke-width:0.743518;stroke-linecap:butt;stroke-linejoin:round;stroke-miterlimit:10;stroke-opacity:0.5"
       d="m 227.61256,90.21254 c 0.30948,0 0.60781,-0.125442 0.83087,-0.345732 0.22025,-0.220251 0.34015,-0.52137 0.34015,-0.830866 0,-0.312268 -0.11998,-0.610575 -0.34015,-0.830845 -0.22306,-0.220251 -0.52139,-0.345733 -0.83087,-0.345733 -0.31506,0 -0.61336,0.125442 -0.83363,0.345733 -0.22025,0.22027 -0.34294,0.518577 -0.34294,0.830845 0,0.309496 0.1226,0.610615 0.34294,0.830866 0.22027,0.22027 0.51857,0.345732 0.83363,0.345732 z m 0,0"
       id="path2097" />
    <path
       style="fill:#ffffff;fill-opacity:0.5;fill-rule:nonzero;stroke:#000000;stroke-width:0.743518;stroke-linecap:butt;stroke-linejoin:round;stroke-miterlimit:10;stroke-opacity:0.5"
       d="m 226.8988,96.446743 c 0.31227,0 0.61062,-0.125441 0.83087,-0.345732 0.22027,-0.22025 0.34573,-0.518578 0.34573,-0.830845 0,-0.309476 -0.12544,-0.607803 -0.34573,-0.830866 -0.22025,-0.22025 -0.5186,-0.345712 -0.83087,-0.345712 -0.31226,0 -0.61059,0.125441 -0.83084,0.345712 -0.22027,0.223063 -0.34573,0.52139 -0.34573,0.830866 0,0.312267 0.12544,0.610595 0.34573,0.830845 0.22025,0.220271 0.51858,0.345732 0.83084,0.345732 z m 0,0"
       id="path2099" />
    <path
       style="fill:#ffffff;fill-opacity:0.5;fill-rule:nonzero;stroke:#000000;stroke-width:0.743518;stroke-linecap:butt;stroke-linejoin:round;stroke-miterlimit:10;stroke-opacity:0.5"
       d="m 230.45364,100.45604 c 0.31506,0 0.61339,-0.12544 0.83087,-0.34573 0.22304,-0.220247 0.34573,-0.521367 0.34573,-0.830842 0,-0.312268 -0.12261,-0.610595 -0.34573,-0.830866 -0.21748,-0.220251 -0.51581,-0.345712 -0.83087,-0.345712 -0.30947,0 -0.6078,0.125441 -0.83084,0.345712 -0.22027,0.220271 -0.34294,0.518598 -0.34294,0.830866 0,0.309475 0.12261,0.610595 0.34294,0.830842 0.22304,0.22027 0.52137,0.34573 0.83084,0.34573 z m 0,0"
       id="path2101" />
    <path
       style="fill:#ffffff;fill-opacity:0.5;fill-rule:nonzero;stroke:#000000;stroke-width:0.743518;stroke-linecap:butt;stroke-linejoin:round;stroke-miterlimit:10;stroke-opacity:0.5"
       d="m 228.32353,79.076824 c 0.3095,0 0.6106,-0.125441 0.83087,-0.345712 0.22025,-0.220271 0.34294,-0.52139 0.34294,-0.830866 0,-0.312267 -0.12261,-0.610595 -0.34294,-0.830845 -0.22027,-0.220271 -0.52137,-0.345732 -0.83087,-0.345732 -0.31506,0 -0.61339,0.125441 -0.83364,0.345732 -0.22027,0.22025 -0.34294,0.518578 -0.34294,0.830845 0,0.309476 0.12261,0.610595 0.34294,0.830866 0.22025,0.22025 0.51858,0.345712 0.83364,0.345712 z m 0,0"
       id="path2103" />
    <path
       style="fill:#ffffff;fill-opacity:0.5;fill-rule:nonzero;stroke:#000000;stroke-width:0.743518;stroke-linecap:butt;stroke-linejoin:round;stroke-miterlimit:10;stroke-opacity:0.5"
       d="m 226.18785,106.24416 c 0.31227,0 0.6106,-0.12261 0.83085,-0.34294 0.22025,-0.22027 0.34573,-0.51858 0.34573,-0.83085 0,-0.31228 -0.12544,-0.61338 -0.34573,-0.83365 -0.22025,-0.21748 -0.51858,-0.34294 -0.83085,-0.34294 -0.30949,0 -0.61061,0.12544 -0.83086,0.34294 -0.22025,0.22027 -0.34573,0.52137 -0.34573,0.83365 0,0.31227 0.12544,0.61058 0.34573,0.83085 0.22025,0.22025 0.52137,0.34294 0.83086,0.34294 z m 0,0"
       id="path2105" />
    <path
       style="fill:#ffffff;fill-opacity:0.5;fill-rule:nonzero;stroke:#000000;stroke-width:0.743518;stroke-linecap:butt;stroke-linejoin:round;stroke-miterlimit:10;stroke-opacity:0.5"
       d="m 223.34119,98.671644 c 0.31506,0 0.61339,-0.122608 0.83364,-0.342919 0.22027,-0.220271 0.34294,-0.518598 0.34294,-0.830866 0,-0.312268 -0.12261,-0.610595 -0.34294,-0.833637 -0.22025,-0.217479 -0.51858,-0.34294 -0.83364,-0.34294 -0.3095,0 -0.60782,0.125441 -0.83087,0.34294 -0.22025,0.223042 -0.34294,0.521369 -0.34294,0.833637 0,0.312268 0.12261,0.610595 0.34294,0.830866 0.22305,0.22025 0.52137,0.342919 0.83087,0.342919 z m 0,0"
       id="path2107" />
    <path
       style="fill:#ffffff;fill-opacity:0.5;fill-rule:nonzero;stroke:#000000;stroke-width:0.743518;stroke-linecap:butt;stroke-linejoin:round;stroke-miterlimit:10;stroke-opacity:0.5"
       d="m 215.52054,115.15495 c 0.30948,0 0.6106,-0.12544 0.83087,-0.34573 0.22025,-0.22025 0.34294,-0.52137 0.34294,-0.83086 0,-0.31504 -0.12261,-0.61337 -0.34294,-0.83085 -0.22027,-0.22025 -0.52139,-0.34573 -0.83087,-0.34573 -0.31506,0 -0.61339,0.12544 -0.83364,0.34573 -0.21748,0.21748 -0.34294,0.51581 -0.34294,0.83085 0,0.30949 0.12544,0.61061 0.34294,0.83086 0.22025,0.22027 0.51858,0.34573 0.83364,0.34573 z m 0,0"
       id="path2109" />
    <path
       style="fill:#ffffff;fill-opacity:0.5;fill-rule:nonzero;stroke:#000000;stroke-width:0.743518;stroke-linecap:butt;stroke-linejoin:round;stroke-miterlimit:10;stroke-opacity:0.5"
       d="m 214.80957,88.877036 c 0.30948,0 0.6106,-0.125441 0.83087,-0.345732 0.22025,-0.223042 0.34571,-0.52137 0.34571,-0.830845 0,-0.31506 -0.12544,-0.610595 -0.34571,-0.830866 -0.22027,-0.22027 -0.52139,-0.345732 -0.83087,-0.345732 -0.31506,0 -0.61338,0.125441 -0.83084,0.345732 -0.22027,0.220271 -0.34573,0.515806 -0.34573,0.830866 0,0.309475 0.12544,0.607803 0.34573,0.830845 0.21746,0.220251 0.51578,0.345732 0.83084,0.345732 z m 0,0"
       id="path2111" />
    <path
       style="fill:#ffffff;fill-opacity:0.5;fill-rule:nonzero;stroke:#000000;stroke-width:0.743518;stroke-linecap:butt;stroke-linejoin:round;stroke-miterlimit:10;stroke-opacity:0.5"
       d="m 228.32353,100.00717 c 0.3095,0 0.6106,-0.119981 0.83087,-0.342942 0.22025,-0.220271 0.34294,-0.518598 0.34294,-0.828074 0,-0.315059 -0.12261,-0.613387 -0.34294,-0.833637 -0.22027,-0.220271 -0.52137,-0.34294 -0.83087,-0.34294 -0.31506,0 -0.61339,0.122609 -0.83364,0.34294 -0.22027,0.22025 -0.34294,0.518578 -0.34294,0.833637 0,0.309476 0.12261,0.607803 0.34294,0.828074 0.22025,0.223042 0.51858,0.342942 0.83364,0.342942 z m 0,0"
       id="path2113" />
    <path
       style="fill:#ffffff;fill-opacity:0.5;fill-rule:nonzero;stroke:#000000;stroke-width:0.743518;stroke-linecap:butt;stroke-linejoin:round;stroke-miterlimit:10;stroke-opacity:0.5"
       d="m 217.65345,104.90866 c 0.31226,0 0.61059,-0.12261 0.83363,-0.34294 0.21748,-0.22027 0.34015,-0.52137 0.34015,-0.83087 0,-0.31504 -0.12261,-0.61337 -0.34015,-0.83364 -0.22304,-0.22025 -0.52137,-0.34294 -0.83363,-0.34294 -0.31227,0 -0.6106,0.12261 -0.83087,0.34294 -0.22025,0.22027 -0.34292,0.5186 -0.34292,0.83364 0,0.3095 0.12261,0.6106 0.34292,0.83087 0.22027,0.22025 0.5186,0.34294 0.83087,0.34294 z m 0,0"
       id="path2115" />
    <path
       style="fill:#ffffff;fill-opacity:0.5;fill-rule:nonzero;stroke:#000000;stroke-width:0.743518;stroke-linecap:butt;stroke-linejoin:round;stroke-miterlimit:10;stroke-opacity:0.5"
       d="m 234.72504,106.24416 c 0.30947,0 0.6078,-0.12261 0.83084,-0.34294 0.22027,-0.22027 0.34294,-0.51858 0.34294,-0.83085 0,-0.31228 -0.12261,-0.61338 -0.34294,-0.83365 -0.22304,-0.21748 -0.52137,-0.34294 -0.83084,-0.34294 -0.31506,0 -0.61339,0.12544 -0.83364,0.34294 -0.22027,0.22027 -0.34294,0.52137 -0.34294,0.83365 0,0.31227 0.12261,0.61058 0.34294,0.83085 0.22025,0.22025 0.51858,0.34294 0.83364,0.34294 z m 0,0"
       id="path2117" />
    <path
       style="fill:#ffffff;fill-opacity:0.5;fill-rule:nonzero;stroke:#000000;stroke-width:0.743518;stroke-linecap:butt;stroke-linejoin:round;stroke-miterlimit:10;stroke-opacity:0.5"
       d="m 241.8347,102.23486 c 0.31227,0 0.61339,-0.11998 0.83366,-0.34294 0.21747,-0.22025 0.34294,-0.5186 0.34294,-0.83364 0,-0.30947 -0.12545,-0.60782 -0.34294,-0.82807 -0.22027,-0.22304 -0.52139,-0.34294 -0.83366,-0.34294 -0.31227,0 -0.6106,0.11998 -0.83085,0.34294 -0.22025,0.22025 -0.34294,0.5186 -0.34294,0.82807 0,0.31504 0.12261,0.61339 0.34294,0.83364 0.22025,0.22304 0.51858,0.34294 0.83085,0.34294 z m 0,0"
       id="path2119" />
    <path
       style="fill:#ffffff;fill-opacity:0.5;fill-rule:nonzero;stroke:#000000;stroke-width:0.743518;stroke-linecap:butt;stroke-linejoin:round;stroke-miterlimit:10;stroke-opacity:0.5"
       d="m 189.20358,74.621437 c 0.31227,0 0.6106,-0.122609 0.83087,-0.34294 0.22025,-0.220271 0.34573,-0.52137 0.34573,-0.833658 0,-0.309475 -0.12544,-0.610575 -0.34573,-0.830845 -0.22027,-0.220251 -0.5186,-0.34294 -0.83087,-0.34294 -0.30947,0 -0.61059,0.122608 -0.83084,0.34294 -0.22027,0.22027 -0.34573,0.52137 -0.34573,0.830845 0,0.312288 0.12544,0.613387 0.34573,0.833658 0.22025,0.220271 0.52137,0.34294 0.83084,0.34294 z m 0,0"
       id="path2121" />
    <path
       style="fill:#ffffff;fill-opacity:0.5;fill-rule:nonzero;stroke:#000000;stroke-width:0.743518;stroke-linecap:butt;stroke-linejoin:round;stroke-miterlimit:10;stroke-opacity:0.5"
       d="m 263.88307,67.497815 c 0.31226,0 0.61059,-0.125441 0.83086,-0.345712 0.22025,-0.223062 0.34292,-0.52139 0.34292,-0.830865 0,-0.31506 -0.12261,-0.613387 -0.34292,-0.830846 -0.22027,-0.22027 -0.5186,-0.345732 -0.83086,-0.345732 -0.31227,0 -0.6106,0.125441 -0.83364,0.345732 -0.21748,0.217459 -0.34294,0.515786 -0.34294,0.830846 0,0.309475 0.12544,0.607803 0.34294,0.830865 0.22304,0.220251 0.52137,0.345712 0.83364,0.345712 z m 0,0"
       id="path2123" />
    <path
       style="fill:#ffffff;fill-opacity:0.5;fill-rule:nonzero;stroke:#000000;stroke-width:0.743518;stroke-linecap:butt;stroke-linejoin:round;stroke-miterlimit:10;stroke-opacity:0.5"
       d="m 231.1674,100.89936 c 0.30948,0 0.60781,-0.12261 0.83087,-0.34294 0.22025,-0.22027 0.34571,-0.5186 0.34571,-0.833639 0,-0.309496 -0.12544,-0.607803 -0.34571,-0.830866 -0.22306,-0.220271 -0.52139,-0.34294 -0.83087,-0.34294 -0.31226,0 -0.61059,0.122609 -0.83084,0.34294 -0.22027,0.223063 -0.34573,0.52137 -0.34573,0.830866 0,0.315039 0.12544,0.613369 0.34573,0.833639 0.22025,0.22027 0.51858,0.34294 0.83084,0.34294 z m 0,0"
       id="path2125" />
    <path
       style="fill:#ffffff;fill-opacity:0.5;fill-rule:nonzero;stroke:#000000;stroke-width:0.743518;stroke-linecap:butt;stroke-linejoin:round;stroke-miterlimit:10;stroke-opacity:0.5"
       d="m 228.32353,101.79155 c 0.3095,0 0.6106,-0.12544 0.83087,-0.34573 0.22025,-0.22025 0.34294,-0.51858 0.34294,-0.83085 0,-0.3095 -0.12261,-0.61059 -0.34294,-0.830845 -0.22027,-0.22027 -0.52137,-0.345732 -0.83087,-0.345732 -0.31506,0 -0.61339,0.125442 -0.83364,0.345732 -0.22027,0.220255 -0.34294,0.521345 -0.34294,0.830845 0,0.31227 0.12261,0.6106 0.34294,0.83085 0.22025,0.22027 0.51858,0.34573 0.83364,0.34573 z m 0,0"
       id="path2127" />
    <path
       style="fill:#ffffff;fill-opacity:0.5;fill-rule:nonzero;stroke:#000000;stroke-width:0.743518;stroke-linecap:butt;stroke-linejoin:round;stroke-miterlimit:10;stroke-opacity:0.5"
       d="m 230.45364,105.35474 c 0.31506,0 0.61339,-0.12544 0.83087,-0.34571 0.22304,-0.22027 0.34573,-0.5186 0.34573,-0.83087 0,-0.30947 -0.12261,-0.61059 -0.34573,-0.83084 -0.21748,-0.22027 -0.51581,-0.34573 -0.83087,-0.34573 -0.30947,0 -0.6078,0.12544 -0.83084,0.34573 -0.22027,0.22025 -0.34294,0.52137 -0.34294,0.83084 0,0.31227 0.12261,0.6106 0.34294,0.83087 0.22304,0.22025 0.52137,0.34571 0.83084,0.34571 z m 0,0"
       id="path2129" />
    <path
       style="fill:#ffffff;fill-opacity:0.5;fill-rule:nonzero;stroke:#000000;stroke-width:0.743518;stroke-linecap:butt;stroke-linejoin:round;stroke-miterlimit:10;stroke-opacity:0.5"
       d="m 202.00658,118.27205 c 0.30948,0 0.61062,-0.12545 0.83087,-0.34572 0.22027,-0.22027 0.34573,-0.51859 0.34573,-0.83086 0,-0.31227 -0.12544,-0.6106 -0.34573,-0.83085 -0.22025,-0.22027 -0.52139,-0.34573 -0.83087,-0.34573 -0.30947,0 -0.61059,0.12544 -0.83084,0.34573 -0.22028,0.22025 -0.34574,0.51858 -0.34574,0.83085 0,0.31227 0.12544,0.61059 0.34574,0.83086 0.22025,0.22025 0.52137,0.34572 0.83084,0.34572 z m 0,0"
       id="path2131" />
    <path
       style="fill:#ffffff;fill-opacity:0.5;fill-rule:nonzero;stroke:#000000;stroke-width:0.743518;stroke-linecap:butt;stroke-linejoin:round;stroke-miterlimit:10;stroke-opacity:0.5"
       d="m 219.07538,101.34823 c 0.30948,0 0.6106,-0.12544 0.83087,-0.34571 0.22025,-0.22306 0.34571,-0.52139 0.34571,-0.83086 0,-0.315062 -0.12544,-0.613389 -0.34571,-0.830868 -0.22027,-0.22025 -0.52139,-0.345712 -0.83087,-0.345712 -0.30947,0 -0.61059,0.125441 -0.83084,0.345712 -0.22027,0.217479 -0.34574,0.515806 -0.34574,0.830868 0,0.30947 0.12545,0.6078 0.34574,0.83086 0.22025,0.22025 0.52137,0.34571 0.83084,0.34571 z m 0,0"
       id="path2133" />
    <path
       style="fill:#ffffff;fill-opacity:0.5;fill-rule:nonzero;stroke:#000000;stroke-width:0.743518;stroke-linecap:butt;stroke-linejoin:round;stroke-miterlimit:10;stroke-opacity:0.5"
       d="m 236.85515,105.35474 c 0.31227,0 0.61059,-0.12544 0.83084,-0.34571 0.22028,-0.22027 0.34574,-0.5186 0.34574,-0.83087 0,-0.30947 -0.12544,-0.61059 -0.34574,-0.83084 -0.22025,-0.22027 -0.51857,-0.34573 -0.83084,-0.34573 -0.30948,0 -0.6078,0.12544 -0.83087,0.34573 -0.22025,0.22025 -0.34571,0.52137 -0.34571,0.83084 0,0.31227 0.12544,0.6106 0.34571,0.83087 0.22307,0.22025 0.52139,0.34571 0.83087,0.34571 z m 0,0"
       id="path2135" />
    <path
       style="fill:#ffffff;fill-opacity:0.5;fill-rule:nonzero;stroke:#000000;stroke-width:0.743518;stroke-linecap:butt;stroke-linejoin:round;stroke-miterlimit:10;stroke-opacity:0.5"
       d="m 228.32353,103.12705 c 0.3095,0 0.6106,-0.12544 0.83087,-0.34573 0.22025,-0.22025 0.34294,-0.51579 0.34294,-0.83085 0,-0.30947 -0.12261,-0.6078 -0.34294,-0.83086 -0.22027,-0.22025 -0.52137,-0.34573 -0.83087,-0.34573 -0.31506,0 -0.61339,0.12544 -0.83364,0.34573 -0.22027,0.22306 -0.34294,0.52139 -0.34294,0.83086 0,0.31506 0.12261,0.6106 0.34294,0.83085 0.22025,0.22027 0.51858,0.34573 0.83364,0.34573 z m 0,0"
       id="path2137" />
    <path
       style="fill:#ffffff;fill-opacity:0.5;fill-rule:nonzero;stroke:#000000;stroke-width:0.743518;stroke-linecap:butt;stroke-linejoin:round;stroke-miterlimit:10;stroke-opacity:0.5"
       d="m 224.76592,105.80085 c 0.31227,0 0.6078,-0.12544 0.83084,-0.34294 0.22027,-0.22305 0.34574,-0.52137 0.34574,-0.83364 0,-0.31227 -0.12545,-0.6106 -0.34574,-0.83087 -0.22304,-0.22025 -0.51857,-0.34294 -0.83084,-0.34294 -0.31227,0 -0.61062,0.12261 -0.83087,0.34294 -0.22027,0.22027 -0.34573,0.5186 -0.34573,0.83087 0,0.31227 0.12544,0.61059 0.34573,0.83364 0.22025,0.21747 0.5186,0.34294 0.83087,0.34294 z m 0,0"
       id="path2139" />
    <path
       style="fill:#ffffff;fill-opacity:0.5;fill-rule:nonzero;stroke:#000000;stroke-width:0.743518;stroke-linecap:butt;stroke-linejoin:round;stroke-miterlimit:10;stroke-opacity:0.5"
       d="m 238.27986,97.336161 c 0.30949,0 0.61061,-0.122608 0.83086,-0.34294 0.22027,-0.22027 0.34573,-0.518598 0.34573,-0.830865 0,-0.312268 -0.12544,-0.613387 -0.34573,-0.833638 -0.22025,-0.22027 -0.52137,-0.34294 -0.83086,-0.34294 -0.31227,0 -0.61058,0.122609 -0.83085,0.34294 -0.22025,0.220251 -0.34571,0.52137 -0.34571,0.833638 0,0.312267 0.12544,0.610595 0.34571,0.830865 0.22027,0.220251 0.51858,0.34294 0.83085,0.34294 z m 0,0"
       id="path2141" />
    <path
       style="fill:#ffffff;fill-opacity:0.5;fill-rule:nonzero;stroke:#000000;stroke-width:0.743518;stroke-linecap:butt;stroke-linejoin:round;stroke-miterlimit:10;stroke-opacity:0.5"
       d="m 219.07538,100.89936 c 0.30948,0 0.6106,-0.12261 0.83087,-0.34294 0.22025,-0.22027 0.34571,-0.5186 0.34571,-0.833639 0,-0.309496 -0.12544,-0.607803 -0.34571,-0.830866 -0.22027,-0.220271 -0.52139,-0.34294 -0.83087,-0.34294 -0.30947,0 -0.61059,0.122609 -0.83084,0.34294 -0.22027,0.223063 -0.34574,0.52137 -0.34574,0.830866 0,0.315039 0.12545,0.613369 0.34574,0.833639 0.22025,0.22027 0.52137,0.34294 0.83084,0.34294 z m 0,0"
       id="path2143" />
    <path
       style="fill:#ffffff;fill-opacity:0.5;fill-rule:nonzero;stroke:#000000;stroke-width:0.743518;stroke-linecap:butt;stroke-linejoin:round;stroke-miterlimit:10;stroke-opacity:0.5"
       d="m 222.63301,112.47836 c 0.31227,0 0.6106,-0.11998 0.83085,-0.34015 0.22027,-0.22304 0.34294,-0.52137 0.34294,-0.83084 0,-0.31506 -0.12261,-0.61339 -0.34294,-0.83366 -0.22025,-0.22025 -0.51858,-0.34294 -0.83085,-0.34294 -0.31226,0 -0.61338,0.12261 -0.83365,0.34294 -0.22025,0.22027 -0.34292,0.5186 -0.34292,0.83366 0,0.30947 0.12261,0.6078 0.34292,0.83084 0.22027,0.22026 0.52139,0.34015 0.83365,0.34015 z m 0,0"
       id="path2145" />
    <path
       style="fill:#ffffff;fill-opacity:0.5;fill-rule:nonzero;stroke:#000000;stroke-width:0.743518;stroke-linecap:butt;stroke-linejoin:round;stroke-miterlimit:10;stroke-opacity:0.5"
       d="m 229.03171,100.89936 c 0.31226,0 0.61338,-0.12261 0.83366,-0.34294 0.22025,-0.22027 0.34291,-0.5186 0.34291,-0.833639 0,-0.309496 -0.1226,-0.607803 -0.34291,-0.830866 -0.22028,-0.220271 -0.5214,-0.34294 -0.83366,-0.34294 -0.30948,0 -0.6106,0.122609 -0.83085,0.34294 -0.22027,0.223063 -0.34294,0.52137 -0.34294,0.830866 0,0.315039 0.12261,0.613369 0.34294,0.833639 0.22025,0.22027 0.52137,0.34294 0.83085,0.34294 z m 0,0"
       id="path2147" />
    <path
       style="fill:#ffffff;fill-opacity:0.5;fill-rule:nonzero;stroke:#000000;stroke-width:0.743518;stroke-linecap:butt;stroke-linejoin:round;stroke-miterlimit:10;stroke-opacity:0.5"
       d="m 226.8988,68.384441 c 0.31227,0 0.61062,-0.119978 0.83087,-0.34294 0.22027,-0.22025 0.34573,-0.518577 0.34573,-0.833637 0,-0.309475 -0.12544,-0.607803 -0.34573,-0.828074 -0.22025,-0.223042 -0.5186,-0.342939 -0.83087,-0.342939 -0.31226,0 -0.61059,0.119978 -0.83084,0.342939 -0.22027,0.220271 -0.34573,0.518599 -0.34573,0.828074 0,0.31506 0.12544,0.613387 0.34573,0.833637 0.22025,0.223043 0.51858,0.34294 0.83084,0.34294 z m 0,0"
       id="path2149" />
    <path
       style="fill:#ffffff;fill-opacity:0.5;fill-rule:nonzero;stroke:#000000;stroke-width:0.743518;stroke-linecap:butt;stroke-linejoin:round;stroke-miterlimit:10;stroke-opacity:0.5"
       d="m 230.45364,108.02854 c 0.31506,0 0.61339,-0.12544 0.83087,-0.34571 0.22304,-0.22306 0.34573,-0.52139 0.34573,-0.83087 0,-0.31227 -0.12261,-0.61059 -0.34573,-0.83084 -0.21748,-0.22027 -0.51581,-0.34574 -0.83087,-0.34574 -0.30947,0 -0.6078,0.12545 -0.83084,0.34574 -0.22027,0.22025 -0.34294,0.51857 -0.34294,0.83084 0,0.30948 0.12261,0.60781 0.34294,0.83087 0.22304,0.22025 0.52137,0.34571 0.83084,0.34571 z m 0,0"
       id="path2151" />
    <path
       style="fill:#ffffff;fill-opacity:0.5;fill-rule:nonzero;stroke:#000000;stroke-width:0.743518;stroke-linecap:butt;stroke-linejoin:round;stroke-miterlimit:10;stroke-opacity:0.5"
       d="m 210.54376,90.655832 c 0.30948,0 0.60783,-0.125441 0.82808,-0.345711 0.22304,-0.217479 0.34294,-0.515806 0.34294,-0.830846 0,-0.309495 -0.11998,-0.610615 -0.34294,-0.830865 -0.22025,-0.220271 -0.5186,-0.345732 -0.82808,-0.345732 -0.31506,0 -0.61338,0.125441 -0.83363,0.345732 -0.22305,0.22025 -0.34294,0.52137 -0.34294,0.830865 0,0.31504 0.11997,0.613367 0.34294,0.830846 0.22025,0.22025 0.51857,0.345711 0.83363,0.345711 z m 0,0"
       id="path2153" />
    <path
       style="fill:#ffffff;fill-opacity:0.5;fill-rule:nonzero;stroke:#000000;stroke-width:0.743518;stroke-linecap:butt;stroke-linejoin:round;stroke-miterlimit:10;stroke-opacity:0.5"
       d="m 217.65345,95.11124 c 0.31226,0 0.61059,-0.125441 0.83363,-0.345712 0.21748,-0.220271 0.34015,-0.518598 0.34015,-0.830866 0,-0.312267 -0.12261,-0.613387 -0.34015,-0.830865 -0.22304,-0.220251 -0.52137,-0.345712 -0.83363,-0.345712 -0.31227,0 -0.6106,0.125441 -0.83087,0.345712 -0.22025,0.217478 -0.34292,0.518598 -0.34292,0.830865 0,0.312268 0.12261,0.610595 0.34292,0.830866 0.22027,0.22025 0.5186,0.345712 0.83087,0.345712 z m 0,0"
       id="path2155" />
    <path
       style="fill:#ffffff;fill-opacity:0.5;fill-rule:nonzero;stroke:#000000;stroke-width:0.743518;stroke-linecap:butt;stroke-linejoin:round;stroke-miterlimit:10;stroke-opacity:0.5"
       d="m 210.54376,90.655832 c 0.30948,0 0.60783,-0.125441 0.82808,-0.345711 0.22304,-0.217479 0.34294,-0.515806 0.34294,-0.830846 0,-0.309495 -0.11998,-0.610615 -0.34294,-0.830865 -0.22025,-0.220271 -0.5186,-0.345732 -0.82808,-0.345732 -0.31506,0 -0.61338,0.125441 -0.83363,0.345732 -0.22305,0.22025 -0.34294,0.52137 -0.34294,0.830865 0,0.31504 0.11997,0.613367 0.34294,0.830846 0.22025,0.22025 0.51857,0.345711 0.83363,0.345711 z m 0,0"
       id="path2157" />
    <path
       style="fill:#ffffff;fill-opacity:0.5;fill-rule:nonzero;stroke:#000000;stroke-width:0.743518;stroke-linecap:butt;stroke-linejoin:round;stroke-miterlimit:10;stroke-opacity:0.5"
       d="m 210.54376,99.563855 c 0.30948,0 0.60783,-0.125441 0.82808,-0.34294 0.22304,-0.220271 0.34294,-0.518598 0.34294,-0.833658 0,-0.309475 -0.11998,-0.610575 -0.34294,-0.830845 -0.22025,-0.220251 -0.5186,-0.34294 -0.82808,-0.34294 -0.31506,0 -0.61338,0.122608 -0.83363,0.34294 -0.22305,0.22027 -0.34294,0.52137 -0.34294,0.830845 0,0.31506 0.11997,0.613387 0.34294,0.833658 0.22025,0.217478 0.51857,0.34294 0.83363,0.34294 z m 0,0"
       id="path2159" />
    <path
       style="fill:#ffffff;fill-opacity:0.5;fill-rule:nonzero;stroke:#000000;stroke-width:0.743518;stroke-linecap:butt;stroke-linejoin:round;stroke-miterlimit:10;stroke-opacity:0.5"
       d="m 203.42854,99.563855 c 0.31227,0 0.61057,-0.125441 0.83084,-0.34294 0.22025,-0.220271 0.34294,-0.518598 0.34294,-0.833658 0,-0.309475 -0.1226,-0.610575 -0.34294,-0.830845 -0.22027,-0.220251 -0.51857,-0.34294 -0.83084,-0.34294 -0.31229,0 -0.61062,0.122608 -0.83366,0.34294 -0.21748,0.22027 -0.34015,0.52137 -0.34015,0.830845 0,0.31506 0.12261,0.613387 0.34015,0.833658 0.22304,0.217478 0.52137,0.34294 0.83366,0.34294 z m 0,0"
       id="path2161" />
    <path
       style="fill:#ffffff;fill-opacity:0.5;fill-rule:nonzero;stroke:#000000;stroke-width:0.743518;stroke-linecap:butt;stroke-linejoin:round;stroke-miterlimit:10;stroke-opacity:0.5"
       d="m 210.54376,99.563855 c 0.30948,0 0.60783,-0.125441 0.82808,-0.34294 0.22304,-0.220271 0.34294,-0.518598 0.34294,-0.833658 0,-0.309475 -0.11998,-0.610575 -0.34294,-0.830845 -0.22025,-0.220251 -0.5186,-0.34294 -0.82808,-0.34294 -0.31506,0 -0.61338,0.122608 -0.83363,0.34294 -0.22305,0.22027 -0.34294,0.52137 -0.34294,0.830845 0,0.31506 0.11997,0.613387 0.34294,0.833658 0.22025,0.217478 0.51857,0.34294 0.83363,0.34294 z m 0,0"
       id="path2163" />
    <path
       style="fill:#ffffff;fill-opacity:0.5;fill-rule:nonzero;stroke:#000000;stroke-width:0.743518;stroke-linecap:butt;stroke-linejoin:round;stroke-miterlimit:10;stroke-opacity:0.5"
       d="m 210.54376,95.11124 c 0.30948,0 0.60783,-0.125441 0.82808,-0.345712 0.22304,-0.220271 0.34294,-0.518598 0.34294,-0.830866 0,-0.312267 -0.11998,-0.613387 -0.34294,-0.830865 -0.22025,-0.220251 -0.5186,-0.345712 -0.82808,-0.345712 -0.31506,0 -0.61338,0.125441 -0.83363,0.345712 -0.22305,0.217478 -0.34294,0.518598 -0.34294,0.830865 0,0.312268 0.11997,0.610595 0.34294,0.830866 0.22025,0.22025 0.51857,0.345712 0.83363,0.345712 z m 0,0"
       id="path2165" />
    <path
       style="fill:#ffffff;fill-opacity:0.5;fill-rule:nonzero;stroke:#000000;stroke-width:0.743518;stroke-linecap:butt;stroke-linejoin:round;stroke-miterlimit:10;stroke-opacity:0.5"
       d="m 196.31606,95.11124 c 0.31226,0 0.61059,-0.125441 0.83084,-0.345712 0.22027,-0.220271 0.34573,-0.518598 0.34573,-0.830866 0,-0.312267 -0.12544,-0.613387 -0.34573,-0.830865 -0.22025,-0.220251 -0.51858,-0.345712 -0.83084,-0.345712 -0.30948,0 -0.60781,0.125441 -0.83087,0.345712 -0.22025,0.217478 -0.34571,0.518598 -0.34571,0.830865 0,0.312268 0.12544,0.610595 0.34571,0.830866 0.22306,0.22025 0.52139,0.345712 0.83087,0.345712 z m 0,0"
       id="path2167" />
    <path
       style="fill:#ffffff;fill-opacity:0.5;fill-rule:nonzero;stroke:#000000;stroke-width:0.743518;stroke-linecap:butt;stroke-linejoin:round;stroke-miterlimit:10;stroke-opacity:0.5"
       d="m 210.54376,90.655832 c 0.30948,0 0.60783,-0.125441 0.82808,-0.345711 0.22304,-0.217479 0.34294,-0.515806 0.34294,-0.830846 0,-0.309495 -0.11998,-0.610615 -0.34294,-0.830865 -0.22025,-0.220271 -0.5186,-0.345732 -0.82808,-0.345732 -0.31506,0 -0.61338,0.125441 -0.83363,0.345732 -0.22305,0.22025 -0.34294,0.52137 -0.34294,0.830865 0,0.31504 0.11997,0.613367 0.34294,0.830846 0.22025,0.22025 0.51857,0.345711 0.83363,0.345711 z m 0,0"
       id="path2169" />
    <path
       style="fill:#ffffff;fill-opacity:0.5;fill-rule:nonzero;stroke:#000000;stroke-width:0.743518;stroke-linecap:butt;stroke-linejoin:round;stroke-miterlimit:10;stroke-opacity:0.5"
       d="m 210.54376,95.11124 c 0.30948,0 0.60783,-0.125441 0.82808,-0.345712 0.22304,-0.220271 0.34294,-0.518598 0.34294,-0.830866 0,-0.312267 -0.11998,-0.613387 -0.34294,-0.830865 -0.22025,-0.220251 -0.5186,-0.345712 -0.82808,-0.345712 -0.31506,0 -0.61338,0.125441 -0.83363,0.345712 -0.22305,0.217478 -0.34294,0.518598 -0.34294,0.830865 0,0.312268 0.11997,0.610595 0.34294,0.830866 0.22025,0.22025 0.51857,0.345712 0.83363,0.345712 z m 0,0"
       id="path2171" />
    <path
       style="fill:#ffffff;fill-opacity:0.5;fill-rule:nonzero;stroke:#000000;stroke-width:0.743518;stroke-linecap:butt;stroke-linejoin:round;stroke-miterlimit:10;stroke-opacity:0.5"
       d="m 210.54376,90.655832 c 0.30948,0 0.60783,-0.125441 0.82808,-0.345711 0.22304,-0.217479 0.34294,-0.515806 0.34294,-0.830846 0,-0.309495 -0.11998,-0.610615 -0.34294,-0.830865 -0.22025,-0.220271 -0.5186,-0.345732 -0.82808,-0.345732 -0.31506,0 -0.61338,0.125441 -0.83363,0.345732 -0.22305,0.22025 -0.34294,0.52137 -0.34294,0.830865 0,0.31504 0.11997,0.613367 0.34294,0.830846 0.22025,0.22025 0.51857,0.345711 0.83363,0.345711 z m 0,0"
       id="path2173" />
    <path
       style="fill:#ffffff;fill-opacity:0.5;fill-rule:nonzero;stroke:#000000;stroke-width:0.743518;stroke-linecap:butt;stroke-linejoin:round;stroke-miterlimit:10;stroke-opacity:0.5"
       d="m 217.65345,95.11124 c 0.31226,0 0.61059,-0.125441 0.83363,-0.345712 0.21748,-0.220271 0.34015,-0.518598 0.34015,-0.830866 0,-0.312267 -0.12261,-0.613387 -0.34015,-0.830865 -0.22304,-0.220251 -0.52137,-0.345712 -0.83363,-0.345712 -0.31227,0 -0.6106,0.125441 -0.83087,0.345712 -0.22025,0.217478 -0.34292,0.518598 -0.34292,0.830865 0,0.312268 0.12261,0.610595 0.34292,0.830866 0.22027,0.22025 0.5186,0.345712 0.83087,0.345712 z m 0,0"
       id="path2175" />
    <path
       style="fill:#ffffff;fill-opacity:0.5;fill-rule:nonzero;stroke:#000000;stroke-width:0.743518;stroke-linecap:butt;stroke-linejoin:round;stroke-miterlimit:10;stroke-opacity:0.5"
       d="m 217.65345,99.563855 c 0.31226,0 0.61059,-0.125441 0.83363,-0.34294 0.21748,-0.220271 0.34015,-0.518598 0.34015,-0.833658 0,-0.309475 -0.12261,-0.610575 -0.34015,-0.830845 -0.22304,-0.220251 -0.52137,-0.34294 -0.83363,-0.34294 -0.31227,0 -0.6106,0.122608 -0.83087,0.34294 -0.22025,0.22027 -0.34292,0.52137 -0.34292,0.830845 0,0.31506 0.12261,0.613387 0.34292,0.833658 0.22027,0.217478 0.5186,0.34294 0.83087,0.34294 z m 0,0"
       id="path2177" />
    <path
       style="fill:#ffffff;fill-opacity:0.5;fill-rule:nonzero;stroke:#000000;stroke-width:0.743518;stroke-linecap:butt;stroke-linejoin:round;stroke-miterlimit:10;stroke-opacity:0.5"
       d="m 203.42854,104.01924 c 0.31227,0 0.61057,-0.12544 0.83084,-0.34573 0.22025,-0.22025 0.34294,-0.51858 0.34294,-0.83085 0,-0.30947 -0.1226,-0.61059 -0.34294,-0.83084 -0.22027,-0.22027 -0.51857,-0.34573 -0.83084,-0.34573 -0.31229,0 -0.61062,0.12544 -0.83366,0.34573 -0.21748,0.22025 -0.34015,0.52137 -0.34015,0.83084 0,0.31227 0.12261,0.6106 0.34015,0.83085 0.22304,0.22027 0.52137,0.34573 0.83366,0.34573 z m 0,0"
       id="path2179" />
    <path
       style="fill:#ffffff;fill-opacity:0.5;fill-rule:nonzero;stroke:#000000;stroke-width:0.743518;stroke-linecap:butt;stroke-linejoin:round;stroke-miterlimit:10;stroke-opacity:0.5"
       d="m 210.54376,86.200446 c 0.30948,0 0.60783,-0.122609 0.82808,-0.34294 0.22304,-0.220251 0.34294,-0.518578 0.34294,-0.830846 0,-0.312288 -0.11998,-0.613387 -0.34294,-0.833637 -0.22025,-0.217479 -0.5186,-0.34294 -0.82808,-0.34294 -0.31506,0 -0.61338,0.125441 -0.83363,0.34294 -0.22305,0.22025 -0.34294,0.521349 -0.34294,0.833637 0,0.312268 0.11997,0.610595 0.34294,0.830846 0.22025,0.22027 0.51857,0.34294 0.83363,0.34294 z m 0,0"
       id="path2181" />
    <path
       style="fill:none;stroke:#000000;stroke-width:0.594818;stroke-linecap:butt;stroke-linejoin:round;stroke-miterlimit:10;stroke-opacity:1"
       d="m 73.274065,175.81025 v -2.6041"
       id="path2183" />
    <path
       style="fill:none;stroke:#000000;stroke-width:0.594818;stroke-linecap:butt;stroke-linejoin:round;stroke-miterlimit:10;stroke-opacity:1"
       d="m 73.274065,14.136216 v 2.604098"
       id="path2185" />
    <path
       style="fill:#000000;fill-opacity:1;fill-rule:nonzero;stroke:none;stroke-width:0.713754"
       d="m 73.784286,184.26379 c 0.220251,0 0.440521,0 0.440521,-0.25651 0,-0.25371 -0.22027,-0.25371 -0.440521,-0.25371 h -6.808562 c -0.22027,0 -0.440521,0 -0.440521,0.25371 0,0.25651 0.220251,0.25651 0.440521,0.25651 z m 0,0"
       id="path2187" />
    <path
       style="fill:#000000;fill-opacity:1;fill-rule:nonzero;stroke:none;stroke-width:0.713754"
       d="m 80.534296,185.20338 h -0.220271 c -0.128274,0.89499 -0.231398,1.04554 -0.278803,1.11526 -0.0696,0.10602 -0.975851,0.10602 -1.151489,0.10602 h -2.4145 c 0.451669,-0.48793 1.335503,-1.38291 2.403352,-2.4173 0.766728,-0.73049 1.661711,-1.59201 1.661711,-2.83551 0,-1.48606 -1.184954,-2.3448 -2.509289,-2.3448 -1.382908,0 -2.230506,1.22956 -2.230506,2.35874 0,0.48792 0.370821,0.55762 0.524162,0.55762 0.125441,0 0.499074,-0.0836 0.499074,-0.52416 0,-0.38197 -0.326208,-0.49907 -0.499074,-0.49907 -0.08356,0 -0.153362,0.0101 -0.197873,0.0334 0.231419,-1.06783 0.964683,-1.58922 1.731412,-1.58922 1.090144,0 1.812281,0.85875 1.812281,2.00745 0,1.09293 -0.641268,2.04647 -1.360592,2.8606 l -2.509309,2.83271 v 0.28997 h 4.438675 z m 0,0"
       id="path2189" />
    <path
       style="fill:none;stroke:#000000;stroke-width:0.594818;stroke-linecap:butt;stroke-linejoin:round;stroke-miterlimit:10;stroke-opacity:1"
       d="m 144.3959,175.81025 v -2.6041"
       id="path2191" />
    <path
       style="fill:none;stroke:#000000;stroke-width:0.594818;stroke-linecap:butt;stroke-linejoin:round;stroke-miterlimit:10;stroke-opacity:1"
       d="m 144.3959,14.136216 v 2.604098"
       id="path2193" />
    <path
       style="fill:#000000;fill-opacity:1;fill-rule:nonzero;stroke:none;stroke-width:0.713754"
       d="m 144.90612,184.26379 c 0.22027,0 0.44331,0 0.44331,-0.25651 0,-0.25371 -0.22304,-0.25371 -0.44331,-0.25371 h -6.80576 c -0.22305,0 -0.44332,0 -0.44332,0.25371 0,0.25651 0.22027,0.25651 0.44332,0.25651 z m 0,0"
       id="path2195" />
    <path
       style="fill:#000000;fill-opacity:1;fill-rule:nonzero;stroke:none;stroke-width:0.713754"
       d="m 149.75185,179.10579 c 0,-0.25651 -0.0101,-0.27882 -0.18674,-0.27882 -0.48791,0.59109 -1.22955,0.78904 -1.93773,0.81134 -0.0362,0 -0.10601,0 -0.11714,0.0251 -0.0101,0.0222 -0.0101,0.0445 -0.0101,0.31228 0.39312,0 1.04553,-0.0698 1.55575,-0.37082 v 6.63291 c 0,0.44331 -0.0334,0.59386 -1.11523,0.59386 h -0.37082 v 0.32342 c 0.60222,-0.0101 1.22955,-0.0223 1.83458,-0.0223 0.60501,0 1.23234,0.0101 1.83456,0.0223 v -0.32342 h -0.37082 c -1.07898,0 -1.11524,-0.1394 -1.11524,-0.59386 z m 0,0"
       id="path2197" />
    <path
       style="fill:none;stroke:#000000;stroke-width:0.594818;stroke-linecap:butt;stroke-linejoin:round;stroke-miterlimit:10;stroke-opacity:1"
       d="m 215.52054,175.81025 v -2.6041"
       id="path2199" />
    <path
       style="fill:none;stroke:#000000;stroke-width:0.594818;stroke-linecap:butt;stroke-linejoin:round;stroke-miterlimit:10;stroke-opacity:1"
       d="m 215.52054,14.136216 v 2.604098"
       id="path2201" />
    <path
       style="fill:#000000;fill-opacity:1;fill-rule:nonzero;stroke:none;stroke-width:0.713754"
       d="m 217.91831,183.1123 c 0,-0.76673 -0.0101,-2.07992 -0.53531,-3.08923 -0.46282,-0.87267 -1.20725,-1.1961 -1.87082,-1.1961 -0.60223,0 -1.36896,0.27882 -1.84572,1.18495 -0.49907,0.95074 -0.55763,2.1134 -0.55763,3.10038 0,0.72214 0.0101,1.81228 0.40706,2.77696 0.53254,1.29089 1.50837,1.46376 1.99629,1.46376 0.58272,0 1.46376,-0.23142 1.97678,-1.42752 0.38196,-0.87267 0.42935,-1.89313 0.42935,-2.8132 z m -2.40613,4.04277 c -0.80019,0 -1.27697,-0.69703 -1.46375,-1.64777 -0.12828,-0.74444 -0.12828,-1.82343 -0.12828,-2.5344 0,-0.96468 0,-1.77603 0.16449,-2.54275 0.23142,-1.07064 0.9396,-1.39406 1.42752,-1.39406 0.52417,0 1.18494,0.33736 1.4303,1.36897 0.16165,0.72211 0.17278,1.55854 0.17278,2.56784 0,0.82528 0,1.82622 -0.15053,2.56784 -0.26765,1.37176 -1.00927,1.61433 -1.45259,1.61433 z m 0,0"
       id="path2203" />
    <path
       style="fill:none;stroke:#000000;stroke-width:0.594818;stroke-linecap:butt;stroke-linejoin:round;stroke-miterlimit:10;stroke-opacity:1"
       d="m 286.6424,175.81025 v -2.6041"
       id="path2205" />
    <path
       style="fill:none;stroke:#000000;stroke-width:0.594818;stroke-linecap:butt;stroke-linejoin:round;stroke-miterlimit:10;stroke-opacity:1"
       d="m 286.6424,14.136216 v 2.604098"
       id="path2207" />
    <path
       style="fill:#000000;fill-opacity:1;fill-rule:nonzero;stroke:none;stroke-width:0.713754"
       d="m 287.09964,179.10579 c 0,-0.25651 -0.0121,-0.27882 -0.18392,-0.27882 -0.48792,0.59109 -1.23235,0.78904 -1.94053,0.81134 -0.0362,0 -0.10602,0 -0.11715,0.0251 -0.0121,0.0222 -0.0121,0.0445 -0.0121,0.31228 0.39591,0 1.04554,-0.0698 1.55578,-0.37082 v 6.63291 c 0,0.44331 -0.0334,0.59386 -1.11525,0.59386 h -0.36985 v 0.32342 c 0.60501,-0.0101 1.23233,-0.0223 1.83457,-0.0223 0.60503,0 1.23234,0.0101 1.83737,0.0223 v -0.32342 h -0.37361 c -1.079,0 -1.11525,-0.1394 -1.11525,-0.59386 z m 0,0"
       id="path2209" />
    <path
       style="fill:none;stroke:#000000;stroke-width:0.446111;stroke-linecap:butt;stroke-linejoin:round;stroke-miterlimit:10;stroke-opacity:1"
       d="M 44.82419,175.81025 V 174.3214"
       id="path2211" />
    <path
       style="fill:none;stroke:#000000;stroke-width:0.446111;stroke-linecap:butt;stroke-linejoin:round;stroke-miterlimit:10;stroke-opacity:1"
       d="m 44.82419,14.136216 v 1.488845"
       id="path2213" />
    <path
       style="fill:none;stroke:#000000;stroke-width:0.446111;stroke-linecap:butt;stroke-linejoin:round;stroke-miterlimit:10;stroke-opacity:1"
       d="M 59.049138,175.81025 V 174.3214"
       id="path2215" />
    <path
       style="fill:none;stroke:#000000;stroke-width:0.446111;stroke-linecap:butt;stroke-linejoin:round;stroke-miterlimit:10;stroke-opacity:1"
       d="m 59.049138,14.136216 v 1.488845"
       id="path2217" />
    <path
       style="fill:none;stroke:#000000;stroke-width:0.446111;stroke-linecap:butt;stroke-linejoin:round;stroke-miterlimit:10;stroke-opacity:1"
       d="M 87.498971,175.81025 V 174.3214"
       id="path2219" />
    <path
       style="fill:none;stroke:#000000;stroke-width:0.446111;stroke-linecap:butt;stroke-linejoin:round;stroke-miterlimit:10;stroke-opacity:1"
       d="m 87.498971,14.136216 v 1.488845"
       id="path2221" />
    <path
       style="fill:none;stroke:#000000;stroke-width:0.446111;stroke-linecap:butt;stroke-linejoin:round;stroke-miterlimit:10;stroke-opacity:1"
       d="M 101.72391,175.81025 V 174.3214"
       id="path2223" />
    <path
       style="fill:none;stroke:#000000;stroke-width:0.446111;stroke-linecap:butt;stroke-linejoin:round;stroke-miterlimit:10;stroke-opacity:1"
       d="m 101.72391,14.136216 v 1.488845"
       id="path2225" />
    <path
       style="fill:none;stroke:#000000;stroke-width:0.446111;stroke-linecap:butt;stroke-linejoin:round;stroke-miterlimit:10;stroke-opacity:1"
       d="M 115.94605,175.81025 V 174.3214"
       id="path2227" />
    <path
       style="fill:none;stroke:#000000;stroke-width:0.446111;stroke-linecap:butt;stroke-linejoin:round;stroke-miterlimit:10;stroke-opacity:1"
       d="m 115.94605,14.136216 v 1.488845"
       id="path2229" />
    <path
       style="fill:none;stroke:#000000;stroke-width:0.446111;stroke-linecap:butt;stroke-linejoin:round;stroke-miterlimit:10;stroke-opacity:1"
       d="M 130.17377,175.81025 V 174.3214"
       id="path2231" />
    <path
       style="fill:none;stroke:#000000;stroke-width:0.446111;stroke-linecap:butt;stroke-linejoin:round;stroke-miterlimit:10;stroke-opacity:1"
       d="m 130.17377,14.136216 v 1.488845"
       id="path2233" />
    <path
       style="fill:none;stroke:#000000;stroke-width:0.446111;stroke-linecap:butt;stroke-linejoin:round;stroke-miterlimit:10;stroke-opacity:1"
       d="M 158.62082,175.81025 V 174.3214"
       id="path2235" />
    <path
       style="fill:none;stroke:#000000;stroke-width:0.446111;stroke-linecap:butt;stroke-linejoin:round;stroke-miterlimit:10;stroke-opacity:1"
       d="m 158.62082,14.136216 v 1.488845"
       id="path2237" />
    <path
       style="fill:none;stroke:#000000;stroke-width:0.446111;stroke-linecap:butt;stroke-linejoin:round;stroke-miterlimit:10;stroke-opacity:1"
       d="M 172.84575,175.81025 V 174.3214"
       id="path2239" />
    <path
       style="fill:none;stroke:#000000;stroke-width:0.446111;stroke-linecap:butt;stroke-linejoin:round;stroke-miterlimit:10;stroke-opacity:1"
       d="m 172.84575,14.136216 v 1.488845"
       id="path2241" />
    <path
       style="fill:none;stroke:#000000;stroke-width:0.446111;stroke-linecap:butt;stroke-linejoin:round;stroke-miterlimit:10;stroke-opacity:1"
       d="M 187.07068,175.81025 V 174.3214"
       id="path2243" />
    <path
       style="fill:none;stroke:#000000;stroke-width:0.446111;stroke-linecap:butt;stroke-linejoin:round;stroke-miterlimit:10;stroke-opacity:1"
       d="m 187.07068,14.136216 v 1.488845"
       id="path2245" />
    <path
       style="fill:none;stroke:#000000;stroke-width:0.446111;stroke-linecap:butt;stroke-linejoin:round;stroke-miterlimit:10;stroke-opacity:1"
       d="M 201.29563,175.81025 V 174.3214"
       id="path2247" />
    <path
       style="fill:none;stroke:#000000;stroke-width:0.446111;stroke-linecap:butt;stroke-linejoin:round;stroke-miterlimit:10;stroke-opacity:1"
       d="m 201.29563,14.136216 v 1.488845"
       id="path2249" />
    <path
       style="fill:none;stroke:#000000;stroke-width:0.446111;stroke-linecap:butt;stroke-linejoin:round;stroke-miterlimit:10;stroke-opacity:1"
       d="M 229.7427,175.81025 V 174.3214"
       id="path2251" />
    <path
       style="fill:none;stroke:#000000;stroke-width:0.446111;stroke-linecap:butt;stroke-linejoin:round;stroke-miterlimit:10;stroke-opacity:1"
       d="m 229.7427,14.136216 v 1.488845"
       id="path2253" />
    <path
       style="fill:none;stroke:#000000;stroke-width:0.446111;stroke-linecap:butt;stroke-linejoin:round;stroke-miterlimit:10;stroke-opacity:1"
       d="M 243.9676,175.81025 V 174.3214"
       id="path2255" />
    <path
       style="fill:none;stroke:#000000;stroke-width:0.446111;stroke-linecap:butt;stroke-linejoin:round;stroke-miterlimit:10;stroke-opacity:1"
       d="m 243.9676,14.136216 v 1.488845"
       id="path2257" />
    <path
       style="fill:none;stroke:#000000;stroke-width:0.446111;stroke-linecap:butt;stroke-linejoin:round;stroke-miterlimit:10;stroke-opacity:1"
       d="M 258.19532,175.81025 V 174.3214"
       id="path2259" />
    <path
       style="fill:none;stroke:#000000;stroke-width:0.446111;stroke-linecap:butt;stroke-linejoin:round;stroke-miterlimit:10;stroke-opacity:1"
       d="m 258.19532,14.136216 v 1.488845"
       id="path2261" />
    <path
       style="fill:none;stroke:#000000;stroke-width:0.446111;stroke-linecap:butt;stroke-linejoin:round;stroke-miterlimit:10;stroke-opacity:1"
       d="M 272.41748,175.81025 V 174.3214"
       id="path2263" />
    <path
       style="fill:none;stroke:#000000;stroke-width:0.446111;stroke-linecap:butt;stroke-linejoin:round;stroke-miterlimit:10;stroke-opacity:1"
       d="m 272.41748,14.136216 v 1.488845"
       id="path2265" />
    <path
       style="fill:#000000;fill-opacity:1;fill-rule:nonzero;stroke:none;stroke-width:0.713754"
       d="m 133.51671,193.27496 -1.50001,0.1394 v 0.32621 c 0.74443,0 0.85875,0.0698 0.85875,0.67473 v 6.72492 c 0,0.47676 -0.0558,0.54646 -0.85875,0.54646 v 0.3262 c 0.30112,-0.0223 0.85875,-0.0223 1.17381,-0.0223 0.3262,0 0.88383,0 1.18493,0.0223 v -0.3262 c -0.81411,0 -0.85873,-0.0585 -0.85873,-0.54646 z m 0,0"
       id="path2267" />
    <path
       style="fill:#000000;fill-opacity:1;fill-rule:nonzero;stroke:none;stroke-width:0.713754"
       d="m 140.14683,199.31679 c 0,-1.61431 -1.171,-2.86896 -2.54276,-2.86896 -1.37174,0 -2.54554,1.25465 -2.54554,2.86896 0,1.59201 1.1738,2.79926 2.54554,2.79926 1.37176,0 2.54276,-1.20725 2.54276,-2.79926 z m -2.54276,2.56784 c -0.59386,0 -1.09293,-0.3485 -1.3829,-0.83643 -0.31227,-0.56877 -0.34851,-1.27695 -0.34851,-1.83458 0,-0.52416 0.0223,-1.18493 0.34851,-1.74256 0.2565,-0.41822 0.74443,-0.82528 1.3829,-0.82528 0.56878,0 1.04556,0.31227 1.34666,0.75558 0.39592,0.59107 0.39592,1.4275 0.39592,1.81226 0,0.49908 -0.0223,1.25466 -0.37082,1.8569 -0.34852,0.58271 -0.89498,0.81411 -1.37176,0.81411 z m 0,0"
       id="path2269" />
    <path
       style="fill:#000000;fill-opacity:1;fill-rule:nonzero;stroke:none;stroke-width:0.713754"
       d="m 141.88382,199.74616 c 0.24536,0.18675 0.66357,0.40706 1.16263,0.40706 0.99815,0 1.84573,-0.78903 1.84573,-1.83458 0,-0.32621 -0.0921,-0.82528 -0.47676,-1.22119 0.36245,-0.37082 0.87269,-0.49907 1.16264,-0.49907 0.0473,0 0.12827,0 0.18674,0.0362 -0.0473,0.0101 -0.16165,0.0698 -0.16165,0.26766 0,0.16166 0.11431,0.27882 0.27882,0.27882 0.18412,0 0.28995,-0.12827 0.28995,-0.29276 0,-0.24255 -0.18674,-0.48791 -0.59386,-0.48791 -0.49907,0 -0.9396,0.23419 -1.30204,0.55763 -0.37082,-0.33458 -0.82251,-0.46284 -1.22957,-0.46284 -1.00093,0 -1.84851,0.77788 -1.84851,1.82343 0,0.71933 0.40706,1.17379 0.53533,1.30204 -0.37082,0.44052 -0.37082,0.95074 -0.37082,1.02044 0,0.32621 0.12544,0.80299 0.54367,1.07065 -0.64962,0.16165 -1.15985,0.66077 -1.15985,1.29926 0,0.90613 1.19611,1.5697 2.6236,1.5697 1.38291,0 2.63756,-0.63848 2.63756,-1.58087 0,-1.72026 -1.87081,-1.72026 -2.83272,-1.72026 -0.29275,0 -0.80296,0 -0.87268,-0.0101 -0.39591,-0.0585 -0.64963,-0.41822 -0.64963,-0.85874 0,-0.10602 0,-0.38474 0.23142,-0.66357 z m 1.16263,0.18675 c -1.10407,0 -1.10407,-1.35782 -1.10407,-1.61433 0,-0.24534 0,-1.60316 1.10407,-1.60316 1.10411,0 1.10411,1.35782 1.10411,1.60316 0,0.25651 0,1.61433 -1.10411,1.61433 z m 0.32342,4.43865 c -1.25465,0 -2.12452,-0.67471 -2.12452,-1.36059 0,-0.39311 0.2091,-0.75558 0.48792,-0.96468 0.31227,-0.2091 0.44052,-0.2091 1.30204,-0.2091 1.03159,0 2.4619,0 2.4619,1.17378 0,0.68588 -0.85875,1.36059 -2.12734,1.36059 z m 0,0"
       id="path2271" />
    <path
       style="fill:#000000;fill-opacity:1;fill-rule:nonzero;stroke:none;stroke-width:0.713754"
       d="m 149.03532,199.25545 c 0,-0.20911 0,-0.22026 -0.19524,-0.22026 -0.54648,0.55761 -1.32436,0.55761 -1.60316,0.55761 v 0.27882 c 0.17278,0 0.69703,0 1.14869,-0.23141 v 4.56413 c 0,0.31506 -0.0223,0.41823 -0.82528,0.41823 h -0.2788 v 0.2788 c 0.31504,-0.0223 1.08177,-0.0223 1.43029,-0.0223 0.34851,0 1.11523,0 1.4275,0.0223 v -0.2788 h -0.2788 c -0.80019,0 -0.82528,-0.0921 -0.82528,-0.41823 z m 0,0"
       id="path2273" />
    <path
       style="fill:#000000;fill-opacity:1;fill-rule:nonzero;stroke:none;stroke-width:0.713754"
       d="m 154.90708,202.07981 c 0,-0.70819 -0.0473,-1.4052 -0.34853,-2.05764 -0.40705,-0.84757 -1.1264,-0.98698 -1.49722,-0.98698 -0.53531,0 -1.17378,0.22026 -1.53345,1.04554 -0.29275,0.60503 -0.32621,1.29089 -0.32621,1.99908 0,0.66078 0.0334,1.45259 0.39591,2.12453 0.37082,0.72212 1.02046,0.89498 1.44981,0.89498 0.47678,0 1.15149,-0.18391 1.53348,-1.02044 0.2788,-0.61618 0.32621,-1.30206 0.32621,-1.99907 z m -1.85969,2.82156 c -0.3485,0 -0.85872,-0.22027 -1.02044,-1.06785 -0.0949,-0.52137 -0.0949,-1.3355 -0.0949,-1.85966 0,-0.56878 0,-1.1487 0.0698,-1.62546 0.16449,-1.04555 0.82528,-1.12642 1.04553,-1.12642 0.29277,0 0.87269,0.16166 1.04553,1.0344 0.0836,0.49908 0.0836,1.15985 0.0836,1.71748 0,0.66356 0,1.26859 -0.0949,1.8262 -0.1394,0.83645 -0.63847,1.10131 -1.03438,1.10131 z m 0,0"
       id="path2275" />
    <path
       style="fill:#000000;fill-opacity:1;fill-rule:nonzero;stroke:none;stroke-width:0.713754"
       d="m 159.48793,205.0798 c 0,-0.0101 0,-0.0362 -0.0473,-0.0696 -0.56877,-0.59386 -2.12453,-2.20817 -2.12453,-6.13383 0,-3.92845 1.52231,-5.53161 2.14962,-6.15894 0,-0.0101 0.0223,-0.0334 0.0223,-0.0698 0,-0.0445 -0.0473,-0.0696 -0.0921,-0.0696 -0.1394,0 -1.21002,0.93124 -1.8262,2.32527 -0.62733,1.39406 -0.8002,2.75188 -0.8002,3.96192 0,0.90613 0.0809,2.43959 0.83643,4.06504 0.60504,1.31321 1.63663,2.23049 1.78997,2.23049 0.0698,0 0.0921,-0.0223 0.0921,-0.0809 z m 0,0"
       id="path2277" />
    <path
       style="fill:#000000;fill-opacity:1;fill-rule:nonzero;stroke:none;stroke-width:0.713754"
       d="m 165.60784,193.46176 c 0,-0.23142 -0.0142,-0.24256 -0.0949,-0.24256 -0.0698,0 -0.0921,0.0558 -0.15053,0.16165 l -0.37082,0.83643 c -0.48793,-0.69703 -1.21005,-1.01208 -2.01024,-1.01208 -1.27695,0 -2.31133,1.02323 -2.31133,2.31412 0,0.38197 0.0809,0.9396 0.51022,1.46376 0.46563,0.57992 0.90613,0.68588 1.91822,0.95074 0.38197,0.0949 1.00929,0.26766 1.13755,0.31506 0.70817,0.30112 1.09293,1.0567 1.09293,1.76488 0,0.90613 -0.64126,1.87081 -1.74256,1.87081 -1.34944,0 -2.6041,-0.75556 -2.69611,-2.52044 -0.0121,-0.19787 -0.0223,-0.20912 -0.10602,-0.20912 -0.10319,0 -0.11431,0.0101 -0.11431,0.26766 v 2.54275 c 0,0.22027 0.0101,0.23421 0.0809,0.23421 0.0921,0 0.11714,-0.0585 0.28997,-0.45446 0.0101,-0.0334 0.0101,-0.0585 0.2565,-0.53531 0.62733,0.82528 1.68401,1.00092 2.28904,1.00092 1.38012,0 2.3448,-1.14032 2.3448,-2.47583 0,-0.66079 -0.24257,-1.15986 -0.38197,-1.3829 -0.52416,-0.81134 -1.09293,-0.96189 -1.69796,-1.11526 -0.0809,-0.0334 -0.11432,-0.0334 -0.81135,-0.2091 -0.68588,-0.17278 -0.97583,-0.26486 -1.29089,-0.60224 -0.3485,-0.39591 -0.47675,-0.80296 -0.47675,-1.19608 0,-0.8253 0.65241,-1.72026 1.72024,-1.72026 1.33552,0 2.17195,0.95074 2.35874,2.52043 0.0334,0.23142 0.0473,0.24536 0.1394,0.24536 0.11715,0 0.11715,-0.0473 0.11715,-0.2565 z m 0,0"
       id="path2279" />
    <path
       style="fill:#000000;fill-opacity:1;fill-rule:nonzero;stroke:none;stroke-width:0.713754"
       d="m 168.4043,199.03799 c 0,-1.20727 0.51023,-2.33365 1.45261,-2.33365 0.0921,0 0.18675,0.0101 0.26766,0.0445 0,0 -0.27882,0.0836 -0.27882,0.4182 0,0.30391 0.24256,0.43217 0.42937,0.43217 0.15053,0 0.42937,-0.0947 0.42937,-0.44332 0,-0.40705 -0.40706,-0.66077 -0.83643,-0.66077 -0.95353,0 -1.37176,0.92843 -1.49722,1.36895 h -0.0142 v -1.36895 l -1.44982,0.1394 v 0.32342 c 0.74164,0 0.8476,0.0836 0.8476,0.68586 v 3.49631 c 0,0.47676 -0.0473,0.54646 -0.8476,0.54646 v 0.3262 c 0.30112,-0.0223 0.86989,-0.0223 1.20725,-0.0223 0.35967,0 0.99815,0 1.34665,0.0223 v -0.3262 c -0.90613,0 -1.05668,0 -1.05668,-0.56878 z m 0,0"
       id="path2281" />
    <path
       style="fill:#000000;fill-opacity:1;fill-rule:nonzero;stroke:none;stroke-width:0.713754"
       d="m 176.09112,193.02124 c 0.0696,-0.16449 0.0696,-0.18674 0.0696,-0.20912 0,-0.15053 -0.11432,-0.23419 -0.22025,-0.23419 -0.15053,0 -0.19788,0.10602 -0.25651,0.25651 l -4.07621,11.87454 c -0.0585,0.16166 -0.0585,0.18411 -0.0585,0.20912 0,0.15053 0.11714,0.2314 0.2091,0.2314 0.15053,0 0.2091,-0.10602 0.25651,-0.25651 z m 0,0"
       id="path2283" />
    <path
       style="fill:#000000;fill-opacity:1;fill-rule:nonzero;stroke:none;stroke-width:0.713754"
       d="m 183.23145,193.65972 c 0,-0.23142 -0.0142,-0.24536 -0.2788,-0.24536 h -5.34481 l -0.12827,2.77696 h 0.22027 c 0.0809,-1.42752 0.45446,-2.45075 2.49814,-2.45075 h 2.07994 l -4.8792,7.86526 c -0.0809,0.1394 -0.0809,0.15053 -0.0809,0.24536 0,0.16165 0.0223,0.16165 0.2788,0.16165 h 5.52882 l 0.17562,-3.28718 h -0.23419 c -0.11431,1.64777 -0.19787,2.93866 -2.60131,2.93866 h -2.19702 z m 0,0"
       id="path2285" />
    <path
       style="fill:#000000;fill-opacity:1;fill-rule:nonzero;stroke:none;stroke-width:0.713754"
       d="m 185.71846,199.03799 c 0,-1.20727 0.51302,-2.33365 1.45259,-2.33365 0.0921,0 0.18675,0.0101 0.26766,0.0445 0,0 -0.27881,0.0836 -0.27881,0.4182 0,0.30391 0.24257,0.43217 0.42938,0.43217 0.15053,0 0.42937,-0.0947 0.42937,-0.44332 0,-0.40705 -0.40708,-0.66077 -0.83643,-0.66077 -0.95074,0 -1.36897,0.92843 -1.49722,1.36895 h -0.0101 v -1.36895 l -1.45261,0.1394 v 0.32342 c 0.74162,0 0.84758,0.0836 0.84758,0.68586 v 3.49631 c 0,0.47676 -0.0473,0.54646 -0.84758,0.54646 v 0.3262 c 0.30112,-0.0223 0.8699,-0.0223 1.20725,-0.0223 0.35966,0 0.99815,0 1.34665,0.0223 v -0.3262 c -0.90613,0 -1.05667,0 -1.05667,-0.56878 z m 0,0"
       id="path2287" />
    <path
       style="fill:#000000;fill-opacity:1;fill-rule:nonzero;stroke:none;stroke-width:0.713754"
       d="m 191.59299,198.87627 c 0,-0.90613 -0.0809,-2.43959 -0.84757,-4.06786 -0.60224,-1.31041 -1.62548,-2.23048 -1.77603,-2.23048 -0.0473,0 -0.0949,0.0142 -0.0949,0.0836 0,0.0223 0.0142,0.0334 0.0251,0.0558 0.60222,0.62733 2.1357,2.23049 2.1357,6.14779 0,3.92564 -1.51954,5.52882 -2.1357,6.15613 -0.0101,0.0223 -0.0251,0.0362 -0.0251,0.0585 0,0.0698 0.0473,0.0809 0.0949,0.0809 0.12828,0 1.20725,-0.92843 1.82341,-2.31134 0.62733,-1.4052 0.80019,-2.76579 0.80019,-3.97304 z m 0,0"
       id="path2289" />
    <path
       style="fill:none;stroke:#000000;stroke-width:0.594818;stroke-linecap:butt;stroke-linejoin:round;stroke-miterlimit:10;stroke-opacity:1"
       d="m 37.711737,168.31581 h 2.601306"
       id="path2291" />
    <path
       style="fill:none;stroke:#000000;stroke-width:0.594818;stroke-linecap:butt;stroke-linejoin:round;stroke-miterlimit:10;stroke-opacity:1"
       d="m 286.6424,168.31581 h -2.6013"
       id="path2293" />
    <path
       style="fill:#000000;fill-opacity:1;fill-rule:nonzero;stroke:none;stroke-width:0.713754"
       d="m 27.83626,169.7963 c 0.22025,0 0.440521,0 0.440521,-0.25651 0,-0.25372 -0.220271,-0.25372 -0.440521,-0.25372 h -6.808562 c -0.220271,0 -0.440521,0 -0.440521,0.25372 0,0.25651 0.22025,0.25651 0.440521,0.25651 z m 0,0"
       id="path2295" />
    <path
       style="fill:#000000;fill-opacity:1;fill-rule:nonzero;stroke:none;stroke-width:0.713754"
       d="m 34.586269,170.73589 h -0.22025 c -0.128274,0.89498 -0.234211,1.04553 -0.278824,1.11523 -0.0696,0.10602 -0.975831,0.10602 -1.151489,0.10602 h -2.417292 c 0.454462,-0.4879 1.338296,-1.38289 2.406144,-2.41729 0.766729,-0.73047 1.661711,-1.59199 1.661711,-2.8355 0,-1.48605 -1.184954,-2.3448 -2.509289,-2.3448 -1.382908,0 -2.230485,1.22957 -2.230485,2.35874 0,0.48793 0.3708,0.55763 0.52137,0.55763 0.128273,0 0.501845,-0.0836 0.501845,-0.52416 0,-0.38197 -0.326207,-0.49908 -0.501845,-0.49908 -0.08093,0 -0.15053,0.0101 -0.197874,0.0334 0.234191,-1.06783 0.964683,-1.58922 1.731412,-1.58922 1.092937,0 1.812261,0.85875 1.812261,2.00744 0,1.09294 -0.638475,2.04647 -1.3578,2.86059 l -2.509308,2.83272 v 0.28997 h 4.438674 z m 0,0"
       id="path2297" />
    <path
       style="fill:none;stroke:#000000;stroke-width:0.594818;stroke-linecap:butt;stroke-linejoin:round;stroke-miterlimit:10;stroke-opacity:1"
       d="m 37.711737,123.77857 h 2.601306"
       id="path2299" />
    <path
       style="fill:none;stroke:#000000;stroke-width:0.594818;stroke-linecap:butt;stroke-linejoin:round;stroke-miterlimit:10;stroke-opacity:1"
       d="m 286.6424,123.77857 h -2.6013"
       id="path2301" />
    <path
       style="fill:#000000;fill-opacity:1;fill-rule:nonzero;stroke:none;stroke-width:0.713754"
       d="m 27.83626,125.25627 c 0.22025,0 0.440521,0 0.440521,-0.25651 0,-0.25372 -0.220271,-0.25372 -0.440521,-0.25372 h -6.808562 c -0.220271,0 -0.440521,0 -0.440521,0.25372 0,0.25651 0.22025,0.25651 0.440521,0.25651 z m 0,0"
       id="path2303" />
    <path
       style="fill:#000000;fill-opacity:1;fill-rule:nonzero;stroke:none;stroke-width:0.713754"
       d="m 32.681991,120.09827 c 0,-0.25651 -0.01416,-0.27881 -0.186745,-0.27881 -0.487926,0.59107 -1.232338,0.78903 -1.940535,0.81412 -0.03622,0 -0.106018,0 -0.117145,0.0222 -0.01012,0.0223 -0.01012,0.0473 -0.01012,0.31227 0.395909,0 1.045552,-0.0698 1.558566,-0.37082 v 6.63292 c 0,0.4433 -0.03622,0.59387 -1.115253,0.59387 h -0.373612 v 0.32341 c 0.605031,-0.0121 1.232338,-0.0222 1.837369,-0.0222 0.602239,0 1.229566,0.0101 1.834577,0.0222 v -0.32341 h -0.37082 c -1.081788,0 -1.115253,-0.13941 -1.115253,-0.59387 z m 0,0"
       id="path2305" />
    <path
       style="fill:none;stroke:#000000;stroke-width:0.594818;stroke-linecap:butt;stroke-linejoin:round;stroke-miterlimit:10;stroke-opacity:1"
       d="m 37.711737,79.23575 h 2.601306"
       id="path2307" />
    <path
       style="fill:none;stroke:#000000;stroke-width:0.594818;stroke-linecap:butt;stroke-linejoin:round;stroke-miterlimit:10;stroke-opacity:1"
       d="m 286.6424,79.23575 h -2.6013"
       id="path2309" />
    <path
       style="fill:#000000;fill-opacity:1;fill-rule:nonzero;stroke:none;stroke-width:0.713754"
       d="m 34.619734,79.56475 c 0,-0.766729 -0.01012,-2.077144 -0.532539,-3.089212 -0.465609,-0.869894 -1.210042,-1.196101 -1.870813,-1.196101 -0.605031,0 -1.37176,0.278803 -1.848517,1.184933 -0.499074,0.953535 -0.557627,2.1134 -0.557627,3.10038 0,0.722116 0.01012,1.81226 0.407057,2.776963 0.53533,1.290891 1.511161,1.463757 1.999087,1.463757 0.579923,0 1.463757,-0.231419 1.973979,-1.42752 0.38476,-0.872666 0.429373,-1.89313 0.429373,-2.8132 z m -2.403352,4.042766 c -0.802985,0 -1.276951,-0.697028 -1.463757,-1.647771 -0.128274,-0.744433 -0.128274,-1.823429 -0.128274,-2.534397 0,-0.961911 0,-1.776024 0.161658,-2.542753 0.23419,-1.067848 0.942366,-1.394056 1.430292,-1.394056 0.52139,0 1.184954,0.337356 1.42752,1.371739 0.16449,0.719345 0.175618,1.555774 0.175618,2.56507 0,0.825281 0,1.826201 -0.150529,2.567841 -0.267655,1.37176 -1.012088,1.614327 -1.452609,1.614327 z m 0,0"
       id="path2311" />
    <path
       style="fill:none;stroke:#000000;stroke-width:0.594818;stroke-linecap:butt;stroke-linejoin:round;stroke-miterlimit:10;stroke-opacity:1"
       d="m 37.711737,34.698511 h 2.601306"
       id="path2313" />
    <path
       style="fill:none;stroke:#000000;stroke-width:0.594818;stroke-linecap:butt;stroke-linejoin:round;stroke-miterlimit:10;stroke-opacity:1"
       d="m 286.6424,34.698511 h -2.6013"
       id="path2315" />
    <path
       style="fill:#000000;fill-opacity:1;fill-rule:nonzero;stroke:none;stroke-width:0.713754"
       d="m 32.681991,31.018209 c 0,-0.256507 -0.01416,-0.278803 -0.186745,-0.278803 -0.487926,0.591071 -1.232338,0.789025 -1.940535,0.814113 -0.03622,0 -0.106018,0 -0.117145,0.02226 -0.01012,0.02226 -0.01012,0.04734 -0.01012,0.312288 0.395909,0 1.045552,-0.0696 1.558566,-0.370821 v 6.632904 c 0,0.443314 -0.03622,0.593863 -1.115253,0.593863 h -0.373612 v 0.323416 c 0.605031,-0.01214 1.232338,-0.02226 1.837369,-0.02226 0.602239,0 1.229566,0.01012 1.834577,0.02226 v -0.323416 h -0.37082 c -1.081788,0 -1.115253,-0.139401 -1.115253,-0.593863 z m 0,0"
       id="path2317" />
    <path
       style="fill:none;stroke:#000000;stroke-width:0.446111;stroke-linecap:butt;stroke-linejoin:round;stroke-miterlimit:10;stroke-opacity:1"
       d="M 37.711737,159.4078 H 39.19779"
       id="path2319" />
    <path
       style="fill:none;stroke:#000000;stroke-width:0.446111;stroke-linecap:butt;stroke-linejoin:round;stroke-miterlimit:10;stroke-opacity:1"
       d="m 286.6424,159.4078 h -1.48607"
       id="path2321" />
    <path
       style="fill:none;stroke:#000000;stroke-width:0.446111;stroke-linecap:butt;stroke-linejoin:round;stroke-miterlimit:10;stroke-opacity:1"
       d="M 37.711737,150.4998 H 39.19779"
       id="path2323" />
    <path
       style="fill:none;stroke:#000000;stroke-width:0.446111;stroke-linecap:butt;stroke-linejoin:round;stroke-miterlimit:10;stroke-opacity:1"
       d="m 286.6424,150.4998 h -1.48607"
       id="path2325" />
    <path
       style="fill:none;stroke:#000000;stroke-width:0.446111;stroke-linecap:butt;stroke-linejoin:round;stroke-miterlimit:10;stroke-opacity:1"
       d="M 37.711737,141.59178 H 39.19779"
       id="path2327" />
    <path
       style="fill:none;stroke:#000000;stroke-width:0.446111;stroke-linecap:butt;stroke-linejoin:round;stroke-miterlimit:10;stroke-opacity:1"
       d="m 286.6424,141.59178 h -1.48607"
       id="path2329" />
    <path
       style="fill:none;stroke:#000000;stroke-width:0.446111;stroke-linecap:butt;stroke-linejoin:round;stroke-miterlimit:10;stroke-opacity:1"
       d="M 37.711737,132.68657 H 39.19779"
       id="path2331" />
    <path
       style="fill:none;stroke:#000000;stroke-width:0.446111;stroke-linecap:butt;stroke-linejoin:round;stroke-miterlimit:10;stroke-opacity:1"
       d="m 286.6424,132.68657 h -1.48607"
       id="path2333" />
    <path
       style="fill:none;stroke:#000000;stroke-width:0.446111;stroke-linecap:butt;stroke-linejoin:round;stroke-miterlimit:10;stroke-opacity:1"
       d="M 37.711737,114.86777 H 39.19779"
       id="path2335" />
    <path
       style="fill:none;stroke:#000000;stroke-width:0.446111;stroke-linecap:butt;stroke-linejoin:round;stroke-miterlimit:10;stroke-opacity:1"
       d="m 286.6424,114.86777 h -1.48607"
       id="path2337" />
    <path
       style="fill:none;stroke:#000000;stroke-width:0.446111;stroke-linecap:butt;stroke-linejoin:round;stroke-miterlimit:10;stroke-opacity:1"
       d="M 37.711737,105.95977 H 39.19779"
       id="path2339" />
    <path
       style="fill:none;stroke:#000000;stroke-width:0.446111;stroke-linecap:butt;stroke-linejoin:round;stroke-miterlimit:10;stroke-opacity:1"
       d="m 286.6424,105.95977 h -1.48607"
       id="path2341" />
    <path
       style="fill:none;stroke:#000000;stroke-width:0.446111;stroke-linecap:butt;stroke-linejoin:round;stroke-miterlimit:10;stroke-opacity:1"
       d="M 37.711737,97.051754 H 39.19779"
       id="path2343" />
    <path
       style="fill:none;stroke:#000000;stroke-width:0.446111;stroke-linecap:butt;stroke-linejoin:round;stroke-miterlimit:10;stroke-opacity:1"
       d="m 286.6424,97.051754 h -1.48607"
       id="path2345" />
    <path
       style="fill:none;stroke:#000000;stroke-width:0.446111;stroke-linecap:butt;stroke-linejoin:round;stroke-miterlimit:10;stroke-opacity:1"
       d="M 37.711737,88.143752 H 39.19779"
       id="path2347" />
    <path
       style="fill:none;stroke:#000000;stroke-width:0.446111;stroke-linecap:butt;stroke-linejoin:round;stroke-miterlimit:10;stroke-opacity:1"
       d="m 286.6424,88.143752 h -1.48607"
       id="path2349" />
    <path
       style="fill:none;stroke:#000000;stroke-width:0.446111;stroke-linecap:butt;stroke-linejoin:round;stroke-miterlimit:10;stroke-opacity:1"
       d="M 37.711737,70.327748 H 39.19779"
       id="path2351" />
    <path
       style="fill:none;stroke:#000000;stroke-width:0.446111;stroke-linecap:butt;stroke-linejoin:round;stroke-miterlimit:10;stroke-opacity:1"
       d="m 286.6424,70.327748 h -1.48607"
       id="path2353" />
    <path
       style="fill:none;stroke:#000000;stroke-width:0.446111;stroke-linecap:butt;stroke-linejoin:round;stroke-miterlimit:10;stroke-opacity:1"
       d="M 37.711737,61.419746 H 39.19779"
       id="path2355" />
    <path
       style="fill:none;stroke:#000000;stroke-width:0.446111;stroke-linecap:butt;stroke-linejoin:round;stroke-miterlimit:10;stroke-opacity:1"
       d="m 286.6424,61.419746 h -1.48607"
       id="path2357" />
    <path
       style="fill:none;stroke:#000000;stroke-width:0.446111;stroke-linecap:butt;stroke-linejoin:round;stroke-miterlimit:10;stroke-opacity:1"
       d="M 37.711737,52.511744 H 39.19779"
       id="path2359" />
    <path
       style="fill:none;stroke:#000000;stroke-width:0.446111;stroke-linecap:butt;stroke-linejoin:round;stroke-miterlimit:10;stroke-opacity:1"
       d="m 286.6424,52.511744 h -1.48607"
       id="path2361" />
    <path
       style="fill:none;stroke:#000000;stroke-width:0.446111;stroke-linecap:butt;stroke-linejoin:round;stroke-miterlimit:10;stroke-opacity:1"
       d="M 37.711737,43.606513 H 39.19779"
       id="path2363" />
    <path
       style="fill:none;stroke:#000000;stroke-width:0.446111;stroke-linecap:butt;stroke-linejoin:round;stroke-miterlimit:10;stroke-opacity:1"
       d="m 286.6424,43.606513 h -1.48607"
       id="path2365" />
    <path
       style="fill:none;stroke:#000000;stroke-width:0.446111;stroke-linecap:butt;stroke-linejoin:round;stroke-miterlimit:10;stroke-opacity:1"
       d="M 37.711737,25.787717 H 39.19779"
       id="path2367" />
    <path
       style="fill:none;stroke:#000000;stroke-width:0.446111;stroke-linecap:butt;stroke-linejoin:round;stroke-miterlimit:10;stroke-opacity:1"
       d="m 286.6424,25.787717 h -1.48607"
       id="path2369" />
    <path
       style="fill:none;stroke:#000000;stroke-width:0.446111;stroke-linecap:butt;stroke-linejoin:round;stroke-miterlimit:10;stroke-opacity:1"
       d="M 37.711737,16.879715 H 39.19779"
       id="path2371" />
    <path
       style="fill:none;stroke:#000000;stroke-width:0.446111;stroke-linecap:butt;stroke-linejoin:round;stroke-miterlimit:10;stroke-opacity:1"
       d="m 286.6424,16.879715 h -1.48607"
       id="path2373" />
    <path
       style="fill:#000000;fill-opacity:1;fill-rule:nonzero;stroke:none;stroke-width:0.713754"
       d="m 4.6921618,126.43007 0.1394016,1.4972 h 0.3262077 c 0,-0.74443 0.069802,-0.85874 0.6719195,-0.85874 h 6.7277134 c 0.476777,0 0.546458,0.0585 0.546458,0.85874 H 13.43009 C 13.405,127.62615 13.405,127.06853 13.405,126.75349 c 0,-0.32342 0,-0.88105 0.02509,-1.18496 h -0.326228 c 0,0.81414 -0.05847,0.86154 -0.546458,0.86154 z m 0,0"
       id="path2375" />
    <path
       style="fill:#000000;fill-opacity:1;fill-rule:nonzero;stroke:none;stroke-width:0.713754"
       d="m 10.733995,119.79715 c -1.6143063,0 -2.8689607,1.1738 -2.8689607,2.54275 0,1.37174 1.2546544,2.54554 2.8689607,2.54554 1.59201,0 2.79926,-1.1738 2.79926,-2.54554 0,-1.36895 -1.20725,-2.54275 -2.79926,-2.54275 z m 2.567861,2.54275 c 0,0.59386 -0.348524,1.09294 -0.836449,1.38291 -0.568755,0.31506 -1.279743,0.3485 -1.837349,0.3485 -0.52137,0 -1.1849537,-0.0223 -1.7425801,-0.3485 -0.4182047,-0.25651 -0.8252612,-0.74443 -0.8252612,-1.38291 0,-0.56877 0.3150394,-1.04553 0.7555604,-1.34665 0.5938628,-0.39591 1.4303129,-0.39591 1.8122809,-0.39591 0.501846,0 1.254654,0.0251 1.859665,0.37361 0.579923,0.34851 0.814133,0.89219 0.814133,1.36895 z m 0,0"
       id="path2377" />
    <path
       style="fill:#000000;fill-opacity:1;fill-rule:nonzero;stroke:none;stroke-width:0.713754"
       d="m 11.163368,118.06015 c 0.186746,-0.24257 0.407077,-0.66077 0.407077,-1.16264 0,-0.99814 -0.789045,-1.84572 -1.8345974,-1.84572 -0.3262077,0 -0.8252815,0.0921 -1.2211697,0.47678 -0.3708203,-0.36247 -0.4990738,-0.87269 -0.4990738,-1.16266 0,-0.0473 0,-0.12828 0.033384,-0.18675 0.010116,0.0473 0.069802,0.16449 0.267655,0.16449 0.1616572,0 0.2788233,-0.11714 0.2788233,-0.2788 0,-0.18675 -0.1282737,-0.29274 -0.2899714,-0.29274 -0.2453386,0 -0.4879257,0.18674 -0.4879257,0.59386 0,0.49907 0.2314188,0.93959 0.5576265,1.30204 -0.3373558,0.37082 -0.4656093,0.82528 -0.4656093,1.22956 0,1.00092 0.7778769,1.8485 1.8262008,1.8485 0.7193447,0 1.1710137,-0.40706 1.2992667,-0.53531 0.443292,0.37361 0.953514,0.37361 1.023215,0.37361 0.326208,0 0.800193,-0.12827 1.067848,-0.54648 0.16449,0.64965 0.663564,1.15987 1.302039,1.15987 0.906131,0 1.566922,-1.1961 1.566922,-2.62362 0,-1.38289 -0.638475,-2.63754 -1.57807,-2.63754 -1.720264,0 -1.720264,1.87081 -1.720264,2.83551 0,0.28995 0,0.80018 -0.01012,0.86988 -0.05847,0.3959 -0.418225,0.64962 -0.858746,0.64962 -0.106018,0 -0.38474,0 -0.663563,-0.2314 z m 0.186746,-1.16264 c 0,1.10409 -1.360592,1.10409 -1.6143271,1.10409 -0.2453386,0 -1.6059504,0 -1.6059504,-1.10409 0,-1.10129 1.3606118,-1.10129 1.6059504,-1.10129 0.2537351,0 1.6143271,0 1.6143271,1.10129 z m 4.435882,-0.32341 c 0,1.25465 -0.67194,2.12455 -1.35782,2.12455 -0.395908,0 -0.75556,-0.20913 -0.964683,-0.48793 -0.209102,-0.31227 -0.209102,-0.44052 -0.209102,-1.29927 0,-1.03438 0,-2.46469 1.173785,-2.46469 0.68588,0 1.35782,0.85874 1.35782,2.12734 z m 0,0"
       id="path2379" />
    <path
       style="fill:#000000;fill-opacity:1;fill-rule:nonzero;stroke:none;stroke-width:0.713754"
       d="m 10.67265,110.90867 c -0.209102,0 -0.22025,0 -0.22025,0.19787 0.557626,0.54367 0.557626,1.32434 0.557626,1.60314 h 0.278804 c 0,-0.17562 0,-0.69701 -0.231399,-1.15149 h 4.564116 c 0.315059,0 0.418225,0.0223 0.418225,0.82528 v 0.27883 h 0.278803 c -0.02226,-0.31506 -0.02226,-1.08179 -0.02226,-1.4303 0,-0.34852 0,-1.11525 0.02226,-1.42752 h -0.278803 v 0.27881 c 0,0.80019 -0.09206,0.82528 -0.418225,0.82528 z m 0,0"
       id="path2381" />
    <path
       style="fill:#000000;fill-opacity:1;fill-rule:nonzero;stroke:none;stroke-width:0.713754"
       d="m 13.497019,105.03691 c -0.710969,0 -1.407997,0.0473 -2.05762,0.3485 -0.847597,0.40706 -0.986999,1.1264 -0.986999,1.5 0,0.53253 0.22025,1.17101 1.045532,1.53347 0.605031,0.28996 1.288118,0.32342 1.999087,0.32342 0.660771,0 1.449816,-0.0334 2.124528,-0.39312 0.719344,-0.37361 0.894982,-1.02323 0.894982,-1.45261 0,-0.47677 -0.186745,-1.15148 -1.023236,-1.53345 -0.616159,-0.27881 -1.299246,-0.32621 -1.996274,-0.32621 z m 2.821556,1.85966 c 0,0.34851 -0.220251,0.85873 -1.067828,1.02045 -0.524182,0.0949 -1.335524,0.0949 -1.859686,0.0949 -0.568774,0 -1.148697,0 -1.625454,-0.0698 -1.045552,-0.16449 -1.126401,-0.82528 -1.126401,-1.04554 0,-0.28997 0.161657,-0.87268 1.031592,-1.04555 0.501865,-0.0809 1.162657,-0.0809 1.720263,-0.0809 0.663584,0 1.265803,0 1.823429,0.0921 0.83643,0.1394 1.104085,0.6385 1.104085,1.0344 z m 0,0"
       id="path2383" />
    <path
       style="fill:#000000;fill-opacity:1;fill-rule:nonzero;stroke:none;stroke-width:0.713754"
       d="m 17.238756,99.808558 c -0.01416,0 -0.03622,0 -0.0698,0.04734 -0.593863,0.568772 -2.208169,2.124552 -6.13383,2.124552 -3.9284531,0 -5.5316114,-1.51954 -6.1589386,-2.146869 -0.010116,0 -0.033384,-0.02509 -0.069802,-0.02509 -0.047344,0 -0.0696,0.04734 -0.0696,0.09489 0,0.139399 0.9284265,1.207269 2.3224825,1.823429 1.394056,0.62733 2.7546475,0.80019 3.9618971,0.80019 0.906131,0 2.439609,-0.0809 4.067855,-0.83642 1.313207,-0.60224 2.230486,-1.63663 2.230486,-1.787199 0,-0.0698 -0.02509,-0.09489 -0.08093,-0.09489 z m 0,0"
       id="path2385" />
    <path
       style="fill:#000000;fill-opacity:1;fill-rule:nonzero;stroke:none;stroke-width:0.713754"
       d="m 7.2080631,97.545835 c -0.1867455,0.08093 -0.1978734,0.09206 -0.1978734,0.359672 v 1.614307 h 0.3262078 c 0,-0.869895 0,-1.009296 0.5687745,-1.009296 h 6.471186 c 0.312267,0 0.90613,0 0.90613,1.009296 h 0.326228 c -0.02509,-0.289972 -0.02509,-0.825282 -0.02509,-1.13755 0,-0.315059 0,-0.847577 0.02509,-1.137549 h -0.326228 c 0,1.009296 -0.593863,1.009296 -0.90613,1.009296 H 7.3809898 v -0.01012 l 8.0297512,-2.96377 c 0.114314,-0.04451 0.197874,-0.0698 0.197874,-0.172785 0,-0.106018 -0.08356,-0.128274 -0.197874,-0.175618 L 7.3252494,91.945676 v -0.01012 h 7.3884846 c 0.568754,0 0.568754,0.139401 0.568754,1.012087 h 0.326228 c -0.02509,-0.348524 -0.02509,-1.023256 -0.02509,-1.394056 0,-0.359672 0,-1.0567 0.02509,-1.394056 h -0.326228 c 0,0.869874 0,1.009296 -0.568754,1.009296 H 7.905172 c -0.5687745,0 -0.5687745,-0.139402 -0.5687745,-1.009296 H 7.0101897 v 1.603159 c 0,0.267655 0.010116,0.278803 0.1978734,0.348504 l 7.3773359,2.718411 z m 0,0"
       id="path2387" />
    <path
       style="fill:#000000;fill-opacity:1;fill-rule:nonzero;stroke:none;stroke-width:0.713754"
       d="m 12.91252,84.054172 c -1.614306,0 -2.86896,1.173786 -2.86896,2.542753 0,1.37176 1.254654,2.545546 2.86896,2.545546 1.59201,0 2.79926,-1.173786 2.79926,-2.545546 0,-1.368967 -1.20725,-2.542753 -2.79926,-2.542753 z m 2.567861,2.542753 c 0,0.593863 -0.348524,1.092937 -0.836449,1.382908 -0.568755,0.31506 -1.279743,0.348504 -1.837349,0.348504 -0.52137,0 -1.184953,-0.02226 -1.74258,-0.348504 -0.418205,-0.256507 -0.825261,-0.744432 -0.825261,-1.382908 0,-0.568774 0.315039,-1.045532 0.75556,-1.346651 0.593863,-0.395909 1.430313,-0.395909 1.812281,-0.395909 0.501846,0 1.254654,0.02509 1.859665,0.373593 0.579923,0.348524 0.814133,0.89221 0.814133,1.368967 z m 0,0"
       id="path2389" />
    <path
       style="fill:#000000;fill-opacity:1;fill-rule:nonzero;stroke:none;stroke-width:0.713754"
       d="m 5.238338,78.294526 c -0.1616573,-0.0698 -0.1841153,-0.0698 -0.2091024,-0.0698 -0.1505294,0 -0.2313984,0.114313 -0.2313984,0.22027 0,0.15053 0.106018,0.197873 0.2564867,0.253715 l 11.8717721,4.079003 c 0.164489,0.05847 0.186745,0.05847 0.209102,0.05847 0.150529,0 0.234211,-0.117146 0.234211,-0.209123 0,-0.150529 -0.106018,-0.209082 -0.256507,-0.256487 z m 0,0"
       id="path2391" />
    <path
       style="fill:#000000;fill-opacity:1;fill-rule:nonzero;stroke:none;stroke-width:0.713754"
       d="m 7.2554475,71.449136 c -0.2341906,0 -0.2453387,0.01012 -0.2453387,0.278803 v 5.344805 l 2.7769437,0.128274 v -0.220251 c -1.4302923,-0.08093 -2.450736,-0.454461 -2.450736,-2.49814 v -2.079936 l 7.8652415,4.879196 c 0.139402,0.08093 0.150529,0.08093 0.242567,0.08093 0.16449,0 0.16449,-0.02226 0.16449,-0.278824 v -5.528819 l -3.289978,-0.175618 v 0.234211 c 1.650563,0.114313 2.941454,0.195243 2.941454,2.601306 v 2.197021 z m 0,0"
       id="path2393" />
    <path
       style="fill:#000000;fill-opacity:1;fill-rule:nonzero;stroke:none;stroke-width:0.713754"
       d="m 12.633717,68.962143 c -1.20725,0 -2.336443,-0.513014 -2.336443,-1.452588 0,-0.09489 0.01012,-0.186746 0.04734,-0.267655 0,0 0.08093,0.278803 0.418205,0.278803 0.30112,0 0.429373,-0.245359 0.429373,-0.429373 0,-0.15053 -0.09206,-0.432165 -0.440521,-0.432165 -0.407057,0 -0.663564,0.407077 -0.663564,0.839221 0,0.950743 0.931219,1.368968 1.37174,1.497222 v 0.01012 h -1.37174 l 0.139402,1.452609 h 0.326208 c 0,-0.744433 0.08093,-0.847578 0.68588,-0.847578 h 3.496287 c 0.476757,0 0.546458,0.04734 0.546458,0.847578 h 0.326208 c -0.02509,-0.30112 -0.02509,-0.869894 -0.02509,-1.20725 0,-0.359672 0,-1.00094 0.02509,-1.349444 h -0.326208 c 0,0.906131 0,1.059472 -0.568774,1.059472 z m 0,0"
       id="path2395" />
    <path
       style="fill:#000000;fill-opacity:1;fill-rule:nonzero;stroke:none;stroke-width:0.713754"
       d="m 11.035205,61.969992 c -0.90613,0 -2.44238,0.08093 -4.0678345,0.847578 -1.3132071,0.605031 -2.2304855,1.628266 -2.2304855,1.778816 0,0.04734 0.010116,0.09206 0.08093,0.09206 0.025088,0 0.036216,-0.01012 0.058472,-0.02226 0.627307,-0.605031 2.2304856,-2.138468 6.144978,-2.138468 3.928454,0 5.531612,1.522289 6.158939,2.138468 0.02226,0.01214 0.03338,0.02226 0.05847,0.02226 0.0698,0 0.08093,-0.04451 0.08093,-0.09206 0,-0.128274 -0.931239,-1.20725 -2.311335,-1.823429 -1.407996,-0.627307 -2.765815,-0.802965 -3.973065,-0.802965 z m 0,0"
       id="path2397" />
    <path
       style="fill:none;stroke:#000000;stroke-width:0.371759;stroke-linecap:butt;stroke-linejoin:round;stroke-miterlimit:10;stroke-opacity:1"
       d="m 209.11904,76.564743 h 61.16553"
       id="path2399" />
    <path
       style="fill:none;stroke:#000000;stroke-width:0.371759;stroke-linecap:butt;stroke-linejoin:round;stroke-miterlimit:10;stroke-opacity:1"
       d="m 213.38486,109.07966 h 46.94057"
       id="path2401" />
    <path
       style="fill:none;stroke:#000000;stroke-width:0.371759;stroke-linecap:butt;stroke-linejoin:round;stroke-miterlimit:10;stroke-opacity:1"
       d="m 219.07538,118.87708 h 45.52145"
       id="path2403" />
    <path
       style="fill:none;stroke:#000000;stroke-width:0.371759;stroke-linecap:butt;stroke-linejoin:round;stroke-miterlimit:10;stroke-opacity:1"
       d="m 202.71755,111.75066 h 52.63113"
       id="path2405" />
    <path
       style="fill:none;stroke:#000000;stroke-width:0.371759;stroke-linecap:butt;stroke-linejoin:round;stroke-miterlimit:10;stroke-opacity:1"
       d="m 198.45175,115.75996 h 55.4722"
       id="path2407" />
    <path
       style="fill:none;stroke:#000000;stroke-width:0.371759;stroke-linecap:butt;stroke-linejoin:round;stroke-miterlimit:10;stroke-opacity:1"
       d="m 204.14228,112.19398 h 55.47221"
       id="path2409" />
    <path
       style="fill:none;stroke:#000000;stroke-width:0.371759;stroke-linecap:butt;stroke-linejoin:round;stroke-miterlimit:10;stroke-opacity:1"
       d="M 181.38016,109.52297 H 243.9676"
       id="path2411" />
    <g
       clip-path="url(#clip1)"
       clip-rule="nonzero"
       id="g2415"
       transform="matrix(0.71375572,0,0,0.71375572,-293.66609,-13.460479)">
      <path
         style="fill:none;stroke:#000000;stroke-width:0.52085;stroke-linecap:butt;stroke-linejoin:round;stroke-miterlimit:10;stroke-opacity:1"
         d="m 717.375,-169.18359 h 97.65625"
         transform="scale(1,-1)"
         id="path2413" />
    </g>
    <path
       style="fill:none;stroke:#000000;stroke-width:0.371759;stroke-linecap:butt;stroke-linejoin:round;stroke-miterlimit:10;stroke-opacity:1"
       d="m 193.46939,62.311936 h 62.59026"
       id="path2417" />
    <path
       style="fill:none;stroke:#000000;stroke-width:0.371759;stroke-linecap:butt;stroke-linejoin:round;stroke-miterlimit:10;stroke-opacity:1"
       d="M 241.8347,136.247 V 101.50716"
       id="path2419" />
    <path
       style="fill:none;stroke:#000000;stroke-width:0.371759;stroke-linecap:butt;stroke-linejoin:round;stroke-miterlimit:10;stroke-opacity:1"
       d="M 229.03171,125.47095 V 98.030377"
       id="path2421" />
    <path
       style="fill:none;stroke:#000000;stroke-width:0.371759;stroke-linecap:butt;stroke-linejoin:round;stroke-miterlimit:10;stroke-opacity:1"
       d="M 226.18785,130.01836 V 101.4988"
       id="path2423" />
    <path
       style="fill:none;stroke:#000000;stroke-width:0.371759;stroke-linecap:butt;stroke-linejoin:round;stroke-miterlimit:10;stroke-opacity:1"
       d="M 231.87837,126.5388 V 97.851947"
       id="path2425" />
    <path
       style="fill:none;stroke:#000000;stroke-width:0.371759;stroke-linecap:butt;stroke-linejoin:round;stroke-miterlimit:10;stroke-opacity:1"
       d="M 212.67388,119.91982 V 99.126126"
       id="path2427" />
    <path
       style="fill:none;stroke:#000000;stroke-width:0.371759;stroke-linecap:butt;stroke-linejoin:round;stroke-miterlimit:10;stroke-opacity:1"
       d="M 253.21298,119.33154 V 95.26181"
       id="path2429" />
    <path
       style="fill:none;stroke:#7d7d7d;stroke-width:0.371759;stroke-linecap:butt;stroke-linejoin:round;stroke-miterlimit:10;stroke-opacity:1"
       d="m 213.38486,107.29528 h 35.56231"
       id="path2431" />
    <path
       style="fill:none;stroke:#000000;stroke-width:0.371759;stroke-linecap:butt;stroke-linejoin:round;stroke-miterlimit:10;stroke-opacity:1"
       d="m 223.34119,114.86777 h 25.60598"
       id="path2433" />
    <path
       style="fill:none;stroke:#7d7d7d;stroke-width:0.371759;stroke-linecap:butt;stroke-linejoin:round;stroke-miterlimit:10;stroke-opacity:1"
       d="m 199.8709,108.18747 h 39.83091"
       id="path2435" />
    <path
       style="fill:none;stroke:#7d7d7d;stroke-width:0.371759;stroke-linecap:butt;stroke-linejoin:round;stroke-miterlimit:10;stroke-opacity:1"
       d="M 231.1674,117.68377 V 96.90958"
       id="path2437" />
    <path
       style="fill:none;stroke:#7d7d7d;stroke-width:0.371759;stroke-linecap:butt;stroke-linejoin:round;stroke-miterlimit:10;stroke-opacity:1"
       d="M 236.14418,126.7284 V 103.00715"
       id="path2439" />
    <path
       style="fill:none;stroke:#7d7d7d;stroke-width:0.371759;stroke-linecap:butt;stroke-linejoin:round;stroke-miterlimit:10;stroke-opacity:1"
       d="M 219.78635,114.48581 V 101.88636"
       id="path2441" />
    <path
       style="fill:#000000;fill-opacity:1;fill-rule:nonzero;stroke:#000000;stroke-width:0.0557639;stroke-linecap:butt;stroke-linejoin:bevel;stroke-miterlimit:10;stroke-opacity:1"
       d="m 239.70181,75.075898 -0.33458,1.02882 h -1.079 l 0.87269,0.632891 -0.33179,1.0288 0.87268,-0.632891 0.87546,0.632891 -0.33458,-1.0288 0.87268,-0.632891 h -1.07899 z m 0,0"
       id="path2519" />
    <path
       style="fill:#000000;fill-opacity:1;fill-rule:nonzero;stroke:#000000;stroke-width:0.0557639;stroke-linecap:butt;stroke-linejoin:bevel;stroke-miterlimit:10;stroke-opacity:1"
       d="m 236.85515,107.59081 -0.33179,1.02882 h -1.08179 l 0.87548,0.63289 -0.33459,1.02882 0.87269,-0.6357 0.87546,0.6357 -0.33457,-1.02882 0.87546,-0.63289 h -1.08179 z m 0,0"
       id="path2521" />
    <path
       style="fill:#000000;fill-opacity:1;fill-rule:nonzero;stroke:#000000;stroke-width:0.0557639;stroke-linecap:butt;stroke-linejoin:bevel;stroke-miterlimit:10;stroke-opacity:1"
       d="m 241.8347,117.391 -0.33457,1.02603 h -1.08178 l 0.87547,0.63568 -0.33458,1.02882 0.87546,-0.63847 0.87268,0.63847 -0.33179,-1.02882 0.87269,-0.63568 h -1.079 z m 0,0"
       id="path2523" />
    <path
       style="fill:#000000;fill-opacity:1;fill-rule:nonzero;stroke:#000000;stroke-width:0.0557639;stroke-linecap:butt;stroke-linejoin:bevel;stroke-miterlimit:10;stroke-opacity:1"
       d="m 229.03171,110.26461 -0.33457,1.02603 h -1.0762 l 0.86987,0.63289 -0.33177,1.02882 0.87267,-0.63291 0.87548,0.63291 -0.33459,-1.02882 0.87269,-0.63289 h -1.079 z m 0,0"
       id="path2525" />
    <path
       style="fill:#000000;fill-opacity:1;fill-rule:nonzero;stroke:#000000;stroke-width:0.0557639;stroke-linecap:butt;stroke-linejoin:bevel;stroke-miterlimit:10;stroke-opacity:1"
       d="m 226.18785,114.27112 -0.33458,1.02882 h -1.079 l 0.87267,0.63568 -0.33177,1.02603 0.87268,-0.63291 0.87546,0.63291 -0.33458,-1.02603 0.87269,-0.63568 h -1.079 z m 0,0"
       id="path2527" />
    <path
       style="fill:#000000;fill-opacity:1;fill-rule:nonzero;stroke:#000000;stroke-width:0.0557639;stroke-linecap:butt;stroke-linejoin:bevel;stroke-miterlimit:10;stroke-opacity:1"
       d="m 231.87837,110.70792 -0.33458,1.0288 h -1.079 l 0.87269,0.63569 -0.33457,1.02882 0.87546,-0.63569 0.87269,0.63569 -0.33179,-1.02882 0.87268,-0.63569 h -1.07901 z m 0,0"
       id="path2529" />
    <path
       style="fill:#000000;fill-opacity:1;fill-rule:nonzero;stroke:#000000;stroke-width:0.0557639;stroke-linecap:butt;stroke-linejoin:bevel;stroke-miterlimit:10;stroke-opacity:1"
       d="m 212.67388,108.03692 -0.33457,1.02602 h -1.07899 l 0.87266,0.63848 -0.33177,1.02321 0.87267,-0.63289 0.87547,0.63289 -0.33456,-1.02321 0.87267,-0.63848 h -1.079 z m 0,0"
       id="path2531" />
    <path
       style="fill:#000000;fill-opacity:1;fill-rule:nonzero;stroke:#000000;stroke-width:0.0557639;stroke-linecap:butt;stroke-linejoin:bevel;stroke-miterlimit:10;stroke-opacity:1"
       d="m 253.21298,105.8092 -0.33458,1.02603 h -1.07621 l 0.8699,0.63848 -0.3318,1.02602 0.87269,-0.63568 0.87546,0.63568 -0.33457,-1.02602 0.87269,-0.63848 h -1.07902 z m 0,0"
       id="path2533" />
    <path
       style="fill:#000000;fill-opacity:1;fill-rule:nonzero;stroke:#000000;stroke-width:0.0557639;stroke-linecap:butt;stroke-linejoin:bevel;stroke-miterlimit:10;stroke-opacity:1"
       d="m 224.76592,60.825883 -0.33459,1.026028 h -1.08178 l 0.87547,0.635683 -0.33458,1.026028 0.87548,-0.635684 0.87266,0.635684 -0.33456,-1.026028 0.87546,-0.635683 h -1.079 z m 0,0"
       id="path2535" />
    <path
       style="fill:#7d7d7d;fill-opacity:1;fill-rule:nonzero;stroke:#7d7d7d;stroke-width:0.0557639;stroke-linecap:butt;stroke-linejoin:bevel;stroke-miterlimit:10;stroke-opacity:1"
       d="m 231.1674,105.8092 -0.33456,1.02603 h -1.08179 l 0.87546,0.63848 -0.33456,1.02602 0.87545,-0.63568 0.87269,0.63568 -0.33458,-1.02602 0.87547,-0.63848 h -1.08178 z m 0,0"
       id="path2537" />
    <path
       style="fill:#7d7d7d;fill-opacity:1;fill-rule:nonzero;stroke:#7d7d7d;stroke-width:0.0557639;stroke-linecap:butt;stroke-linejoin:bevel;stroke-miterlimit:10;stroke-opacity:1"
       d="m 236.14418,113.37893 -0.33456,1.0288 h -1.07902 l 0.87269,0.6357 -0.3318,1.0288 0.87269,-0.63568 0.87546,0.63568 -0.33456,-1.0288 0.87266,-0.6357 h -1.07898 z m 0,0"
       id="path2539" />
    <path
       style="fill:#7d7d7d;fill-opacity:1;fill-rule:nonzero;stroke:#7d7d7d;stroke-width:0.0557639;stroke-linecap:butt;stroke-linejoin:bevel;stroke-miterlimit:10;stroke-opacity:1"
       d="m 219.78635,106.69862 -0.33456,1.0288 h -1.07902 l 0.87269,0.6357 -0.3318,1.02601 0.87269,-0.63289 0.87546,0.63289 -0.33457,-1.02601 0.87546,-0.6357 h -1.08177 z m 0,0"
       id="path2541" />
    <path
       style="fill:none;stroke:#000000;stroke-width:0.594818;stroke-linecap:square;stroke-linejoin:miter;stroke-miterlimit:10;stroke-opacity:1"
       d="M 37.711737,175.81025 V 14.136216"
       id="path2543" />
    <path
       style="fill:none;stroke:#000000;stroke-width:0.594818;stroke-linecap:square;stroke-linejoin:miter;stroke-miterlimit:10;stroke-opacity:1"
       d="M 286.6424,175.81025 V 14.136216"
       id="path2545" />
    <path
       style="fill:none;stroke:#000000;stroke-width:0.594818;stroke-linecap:square;stroke-linejoin:miter;stroke-miterlimit:10;stroke-opacity:1"
       d="M 37.711737,175.81025 H 286.6424"
       id="path2547" />
    <path
       style="fill:none;stroke:#000000;stroke-width:0.594818;stroke-linecap:square;stroke-linejoin:miter;stroke-miterlimit:10;stroke-opacity:1"
       d="M 37.711737,14.136216 H 286.6424"
       id="path2549" />
    <path
       style="fill:none;stroke:#000000;stroke-width:0.366074;stroke-linecap:butt;stroke-linejoin:round;stroke-miterlimit:10;stroke-opacity:1"
       d="M 224.76592,70.33054 V 62.877938"
       id="path3689" />
    <path
       style="fill:#000000;fill-opacity:1;fill-rule:evenodd;stroke:#000000;stroke-width:0.195239;stroke-linecap:butt;stroke-linejoin:miter;stroke-miterlimit:4;stroke-opacity:1"
       d="m 224.76592,68.866783 -0.73329,-0.733264 0.73329,2.562257 0.73326,-2.562257 z m 0,0"
       id="path3691" />
    <path
       style="fill:none;stroke:#000000;stroke-width:0.366074;stroke-linecap:butt;stroke-linejoin:round;stroke-miterlimit:10;stroke-opacity:1"
       d="M 239.70181,84.586139 V 77.133518"
       id="path3693" />
    <path
       style="fill:#000000;fill-opacity:1;fill-rule:evenodd;stroke:#000000;stroke-width:0.195239;stroke-linecap:butt;stroke-linejoin:miter;stroke-miterlimit:4;stroke-opacity:1"
       d="m 239.70181,83.122382 -0.73328,-0.733284 0.73328,2.562277 0.73327,-2.562277 z m 0,0"
       id="path3695" />
    <circle
       style="fill:#2e4578;stroke:#000000;stroke-width:0.280416;stroke-opacity:1;fill-opacity:0.50196081"
       id="path1066"
       cx="94.665672"
       cy="138.21751"
       r="1.9739839" />
    <circle
       style="fill:#61171c;stroke:#000000;stroke-width:0.280416;stroke-opacity:1;fill-opacity:0.50196081"
       id="path1066-3"
       cx="80.98954"
       cy="104.00838"
       r="1.973984" />
    <circle
       style="fill:#4a1733;stroke:#000000;stroke-width:0.280416;stroke-opacity:1;fill-opacity:0.50196081"
       id="path1066-3-6"
       cx="103.29903"
       cy="87.220901"
       r="1.9739841" />
    <circle
       style="fill:#6194b3;stroke:#000000;stroke-width:0.280416;stroke-opacity:1;fill-opacity:0.50196081"
       id="path1066-3-7"
       cx="101.64744"
       cy="91.491028"
       r="1.9739841" />
    <circle
       style="fill:#45194a;stroke:#000000;stroke-width:0.280416;stroke-opacity:1;fill-opacity:0.50196081"
       id="path1066-3-5"
       cx="127.89801"
       cy="55.488029"
       r="1.9739841" />
    <circle
       style="fill:#731917;stroke:#000000;stroke-width:0.280416;stroke-opacity:1;fill-opacity:0.50196081"
       id="path1066-3-3"
       cx="192.66467"
       cy="53.563972"
       r="1.9739841" />
    <circle
       style="fill:#8a2e19;stroke:#000000;stroke-width:0.280416;stroke-opacity:1;fill-opacity:0.50196081"
       id="path1066-3-56"
       cx="189.40343"
       cy="61.727737"
       r="1.9739841" />
    <circle
       style="fill:#d7a185;stroke:#000000;stroke-width:0.280416;stroke-opacity:1;fill-opacity:0.50196081"
       id="path1066-3-2"
       cx="169.8425"
       cy="53.209579"
       r="1.9739841" />
    <circle
       style="fill:#d7b8a6;stroke:#000000;stroke-width:0.280416;stroke-opacity:1;fill-opacity:0.50196081"
       id="path1066-3-9"
       cx="147.12659"
       cy="139.52386"
       r="1.9739841" />
    <circle
       style="fill:#8aaec2;stroke:#000000;stroke-width:0.280416;stroke-opacity:1;fill-opacity:0.50196081"
       id="path1066-3-1"
       cx="151.62337"
       cy="145.26869"
       r="1.9739841" />
    <circle
       style="fill:#b0bdc7;stroke:#000000;stroke-width:0.280416;stroke-opacity:1;fill-opacity:0.50196081"
       id="path1066-3-27"
       cx="161.80991"
       cy="156.09322"
       r="1.9739841" />
    <circle
       style="fill:#bd6e4a;stroke:#000000;stroke-width:0.280416;stroke-opacity:1;fill-opacity:0.50196081"
       id="path1066-3-0"
       cx="200.95329"
       cy="147.58534"
       r="1.9739841" />
    <circle
       style="fill:#cf8a61;stroke:#000000;stroke-width:0.280416;stroke-opacity:1;fill-opacity:0.50196081"
       id="path1066-3-93"
       cx="230.88123"
       cy="145.17371"
       r="1.9739841" />
    <circle
       style="fill:#a64a2e;stroke:#000000;stroke-width:0.280416;stroke-opacity:1;fill-opacity:0.50196081"
       id="path1066-3-60"
       cx="218.14841"
       cy="118.72106"
       r="1.9739841" />
    <circle
       style="fill:#4a78a1;stroke:#000000;stroke-width:0.280416;stroke-opacity:1;fill-opacity:0.50196081"
       id="path1066-3-62"
       cx="219.95769"
       cy="121.3989"
       r="1.9739841" />
    <circle
       style="fill:#570c2e;stroke:#000000;stroke-width:0.280416;stroke-opacity:1;fill-opacity:0.50196081"
       id="path1066-3-61"
       cx="190.13829"
       cy="126.97533"
       r="1.9739841" />
    <circle
       style="fill:#332e61;stroke:#000000;stroke-width:0.280416;stroke-opacity:1;fill-opacity:0.50196081"
       id="path1066-3-8"
       cx="196.37701"
       cy="124.86475"
       r="1.9739841" />
    <circle
       style="fill:#2e5c8f;stroke:#000000;stroke-width:0.280416;stroke-opacity:1;fill-opacity:0.50196081"
       id="path1066-3-79"
       cx="179.56758"
       cy="128.43005"
       r="1.9739841" />
    <circle
       style="fill:#4a1733;stroke:#000000;stroke-width:0.280416;stroke-opacity:1;fill-opacity:0.50196081"
       id="path1066-3-20"
       cx="197.89999"
       cy="73.062576"
       r="1.9739841" />
  </g>
</svg>
