<?xml version="1.0" encoding="UTF-8" standalone="no"?>
<svg
   xmlns:dc="http://purl.org/dc/elements/1.1/"
   xmlns:cc="http://creativecommons.org/ns#"
   xmlns:rdf="http://www.w3.org/1999/02/22-rdf-syntax-ns#"
   xmlns:svg="http://www.w3.org/2000/svg"
   xmlns="http://www.w3.org/2000/svg"
   xmlns:xlink="http://www.w3.org/1999/xlink"
   xmlns:sodipodi="http://sodipodi.sourceforge.net/DTD/sodipodi-0.dtd"
   xmlns:inkscape="http://www.inkscape.org/namespaces/inkscape"
   width="450.679993pt"
   height="450.679993pt"
   viewBox="0 0 450.679993 450.679993"
   version="1.2"
   id="svg329"
   sodipodi:docname="fig5.svg"
   inkscape:version="1.0.1 (3bc2e813f5, 2020-09-07)">
  <metadata
     id="metadata333">
    <rdf:RDF>
      <cc:Work
         rdf:about="">
        <dc:format>image/svg+xml</dc:format>
        <dc:type
           rdf:resource="http://purl.org/dc/dcmitype/StillImage" />
        <dc:title></dc:title>
      </cc:Work>
    </rdf:RDF>
  </metadata>
  <sodipodi:namedview
     pagecolor="#ffffff"
     bordercolor="#666666"
     borderopacity="1"
     objecttolerance="10"
     gridtolerance="10"
     guidetolerance="10"
     inkscape:pageopacity="0"
     inkscape:pageshadow="2"
     inkscape:window-width="1920"
     inkscape:window-height="1015"
     id="namedview331"
     showgrid="false"
     inkscape:zoom="1.1898687"
     inkscape:cx="300.45333"
     inkscape:cy="300.45333"
     inkscape:window-x="0"
     inkscape:window-y="0"
     inkscape:window-maximized="1"
     inkscape:current-layer="svg329" />
  <defs
     id="defs114">
    <clipPath
       id="clip1">
      <path
         d="M 65.855469 9.371094 L 400.652344 9.371094 L 400.652344 76.460938 L 65.855469 76.460938 Z M 65.855469 9.371094 "
         id="path2" />
    </clipPath>
    <clipPath
       id="clip3">
      <path
         d="M 0.855469 0.371094 L 335.652344 0.371094 L 335.652344 67.460938 L 0.855469 67.460938 Z M 0.855469 0.371094 "
         id="path5" />
    </clipPath>
    <clipPath
       id="clip5">
      <path
         d="M 102 3 L 237 3 L 237 67.460938 L 102 67.460938 Z M 102 3 "
         id="path8" />
    </clipPath>
    <clipPath
       id="clip7">
      <path
         d="M 0 0 L 135 0 L 135 64.460938 L 0 64.460938 Z M 0 0 "
         id="path11" />
    </clipPath>
    <clipPath
       id="clip6">
      <rect
         x="0"
         y="0"
         width="135"
         height="65"
         id="rect14" />
    </clipPath>
    <g
       id="surface540"
       clip-path="url(#clip6)">
      <g
         clip-path="url(#clip7)"
         clip-rule="nonzero"
         id="g19">
        <path
           style=" stroke:none;fill-rule:nonzero;fill:rgb(72.155762%,4.705811%,12.940979%);fill-opacity:0.6;"
           d="M 0.578125 64.457031 L 0.578125 64.460938 L 134.320312 64.460938 L 134.320312 64.457031 L 132.976562 64.457031 L 130.960938 64.445312 L 129.617188 64.429688 L 128.945312 64.425781 L 127.601562 64.433594 L 126.925781 64.4375 L 125.582031 64.453125 L 124.910156 64.457031 L 122.894531 64.457031 L 122.222656 64.460938 L 119.535156 64.460938 L 118.863281 64.457031 L 117.519531 64.457031 L 116.175781 64.449219 L 115.503906 64.4375 L 114.832031 64.429688 L 114.160156 64.417969 L 113.484375 64.40625 L 112.140625 64.382812 L 111.46875 64.367188 L 110.796875 64.347656 L 110.125 64.320312 L 109.453125 64.285156 L 108.78125 64.253906 L 108.109375 64.226562 L 107.4375 64.214844 L 106.765625 64.21875 L 106.09375 64.230469 L 105.421875 64.253906 L 104.75 64.273438 L 104.078125 64.28125 L 103.40625 64.277344 L 102.734375 64.257812 L 102.0625 64.230469 L 100.71875 64.167969 L 100.042969 64.140625 L 99.371094 64.117188 L 98.699219 64.085938 L 98.027344 64.050781 L 97.355469 64.007812 L 96.683594 63.96875 L 96.011719 63.9375 L 95.339844 63.921875 L 94.667969 63.917969 L 93.996094 63.921875 L 93.324219 63.910156 L 92.652344 63.882812 L 91.980469 63.820312 L 91.308594 63.730469 L 90.636719 63.613281 L 89.964844 63.488281 L 89.292969 63.375 L 88.621094 63.289062 L 87.949219 63.230469 L 87.277344 63.199219 L 86.601562 63.171875 L 85.929688 63.132812 L 85.257812 63.058594 L 84.585938 62.953125 L 83.914062 62.816406 L 83.242188 62.667969 L 82.570312 62.515625 L 81.898438 62.371094 L 81.226562 62.230469 L 80.554688 62.097656 L 79.882812 61.972656 L 79.210938 61.863281 L 78.539062 61.769531 L 77.867188 61.691406 L 77.195312 61.605469 L 76.523438 61.488281 L 75.851562 61.328125 L 75.179688 61.113281 L 74.507812 60.839844 L 73.835938 60.507812 L 73.160156 60.125 L 72.488281 59.691406 L 71.144531 58.761719 L 70.472656 58.332031 L 69.800781 57.949219 L 69.128906 57.601562 L 68.457031 57.238281 L 67.785156 56.820312 L 67.113281 56.320312 L 66.441406 55.742188 L 65.769531 55.109375 L 65.097656 54.449219 L 64.425781 53.785156 L 63.753906 53.128906 L 63.082031 52.46875 L 62.410156 51.789062 L 61.738281 51.054688 L 61.066406 50.238281 L 60.394531 49.324219 L 59.71875 48.289062 L 59.046875 47.117188 L 58.375 45.800781 L 57.703125 44.332031 L 57.03125 42.703125 L 56.359375 40.925781 L 55.6875 39.003906 L 55.015625 36.933594 L 54.34375 34.710938 L 53.671875 32.332031 L 53 29.816406 L 52.328125 27.195312 L 51.65625 24.503906 L 50.984375 21.785156 L 50.3125 19.050781 L 49.640625 16.328125 L 48.96875 13.628906 L 48.296875 10.996094 L 47.625 8.5 L 46.953125 6.214844 L 46.277344 4.234375 L 45.605469 2.640625 L 44.933594 1.488281 L 44.261719 0.792969 L 43.589844 0.566406 L 42.917969 0.808594 L 42.246094 1.539062 L 41.574219 2.753906 L 40.902344 4.410156 L 40.230469 6.414062 L 39.558594 8.660156 L 38.886719 11.066406 L 38.214844 13.601562 L 37.542969 16.28125 L 36.871094 19.101562 L 36.199219 22.054688 L 35.527344 25.109375 L 34.855469 28.21875 L 34.183594 31.339844 L 33.511719 34.410156 L 32.835938 37.359375 L 32.164062 40.128906 L 31.492188 42.6875 L 30.820312 45.019531 L 30.148438 47.136719 L 29.476562 49.0625 L 28.804688 50.816406 L 28.132812 52.421875 L 27.460938 53.898438 L 26.789062 55.25 L 26.117188 56.472656 L 25.445312 57.5625 L 24.773438 58.515625 L 24.101562 59.34375 L 23.429688 60.050781 L 22.757812 60.644531 L 22.085938 61.144531 L 21.414062 61.566406 L 20.742188 61.945312 L 20.070312 62.292969 L 19.394531 62.628906 L 18.722656 62.9375 L 18.050781 63.210938 L 17.378906 63.441406 L 16.707031 63.625 L 16.035156 63.769531 L 15.363281 63.882812 L 14.691406 63.972656 L 14.019531 64.046875 L 13.347656 64.097656 L 12.675781 64.140625 L 11.332031 64.203125 L 10.660156 64.238281 L 9.988281 64.277344 L 8.644531 64.347656 L 7.972656 64.375 L 7.300781 64.394531 L 6.628906 64.40625 L 5.953125 64.417969 L 3.265625 64.449219 L 1.921875 64.457031 Z M 0.578125 64.457031 "
           id="path17" />
      </g>
    </g>
    <clipPath
       id="clip4">
      <rect
         x="0"
         y="0"
         width="336"
         height="68"
         id="rect22" />
    </clipPath>
    <g
       id="surface542"
       clip-path="url(#clip4)">
      <g
         clip-path="url(#clip5)"
         clip-rule="nonzero"
         id="g27">
        <use
           xlink:href="#surface540"
           transform="matrix(1,0,0,1,102,3)"
           id="use25" />
      </g>
    </g>
    <clipPath
       id="clip2">
      <rect
         x="0"
         y="0"
         width="336"
         height="68"
         id="rect30" />
    </clipPath>
    <g
       id="surface544"
       clip-path="url(#clip2)">
      <g
         clip-path="url(#clip3)"
         clip-rule="nonzero"
         id="g35">
        <use
           xlink:href="#surface542"
           id="use33" />
      </g>
    </g>
    <clipPath
       id="clip8">
      <path
         d="M 381.457031 53.378906 L 442.605469 53.378906 L 442.605469 415.230469 L 381.457031 415.230469 Z M 381.457031 53.378906 "
         id="path38" />
    </clipPath>
    <clipPath
       id="clip10">
      <path
         d="M 0.457031 0.378906 L 61.605469 0.378906 L 61.605469 362.230469 L 0.457031 362.230469 Z M 0.457031 0.378906 "
         id="path41" />
    </clipPath>
    <clipPath
       id="clip12">
      <path
         d="M 0.457031 85 L 59 85 L 59 250 L 0.457031 250 Z M 0.457031 85 "
         id="path44" />
    </clipPath>
    <clipPath
       id="clip14">
      <path
         d="M 0.457031 0 L 59 0 L 59 165 L 0.457031 165 Z M 0.457031 0 "
         id="path47" />
    </clipPath>
    <clipPath
       id="clip13">
      <rect
         x="0"
         y="0"
         width="59"
         height="165"
         id="rect50" />
    </clipPath>
    <g
       id="surface549"
       clip-path="url(#clip13)">
      <g
         clip-path="url(#clip14)"
         clip-rule="nonzero"
         id="g55">
        <path
           style=" stroke:none;fill-rule:nonzero;fill:rgb(72.155762%,4.705811%,12.940979%);fill-opacity:0.6;"
           d="M 0.457031 164.523438 L 0.457031 0.148438 L 0.457031 0.972656 L 0.460938 1.800781 L 0.460938 2.625 L 0.464844 3.449219 L 0.472656 4.277344 L 0.480469 5.101562 L 0.492188 5.929688 L 0.503906 6.753906 L 0.523438 7.582031 L 0.539062 8.40625 L 0.554688 9.234375 L 0.574219 10.058594 L 0.597656 10.886719 L 0.625 11.710938 L 0.660156 12.535156 L 0.703125 13.363281 L 0.761719 14.1875 L 0.832031 15.015625 L 0.914062 15.839844 L 1.011719 16.667969 L 1.121094 17.492188 L 1.246094 18.320312 L 1.390625 19.144531 L 1.550781 19.972656 L 1.738281 20.796875 L 1.945312 21.621094 L 2.183594 22.449219 L 2.457031 23.273438 L 2.761719 24.101562 L 3.101562 24.925781 L 3.476562 25.753906 L 3.882812 26.578125 L 4.308594 27.40625 L 4.757812 28.230469 L 5.230469 29.058594 L 5.734375 29.882812 L 6.277344 30.710938 L 6.875 31.535156 L 7.535156 32.359375 L 8.261719 33.1875 L 9.046875 34.011719 L 9.875 34.839844 L 10.726562 35.664062 L 11.589844 36.492188 L 12.449219 37.316406 L 13.308594 38.144531 L 14.183594 38.96875 L 15.089844 39.796875 L 16.046875 40.621094 L 17.070312 41.445312 L 18.164062 42.273438 L 19.320312 43.097656 L 20.527344 43.925781 L 21.777344 44.75 L 23.046875 45.578125 L 24.332031 46.402344 L 25.617188 47.230469 L 26.890625 48.054688 L 28.140625 48.882812 L 29.375 49.707031 L 30.597656 50.535156 L 31.839844 51.359375 L 33.125 52.183594 L 34.480469 53.011719 L 35.929688 53.835938 L 37.460938 54.664062 L 39.070312 55.488281 L 40.71875 56.316406 L 42.382812 57.140625 L 44.015625 57.96875 L 45.59375 58.792969 L 47.085938 59.621094 L 48.480469 60.445312 L 49.769531 61.269531 L 50.960938 62.097656 L 52.070312 62.921875 L 53.105469 63.75 L 54.078125 64.574219 L 54.988281 65.402344 L 55.835938 66.226562 L 56.609375 67.054688 L 57.289062 67.878906 L 57.859375 68.707031 L 58.300781 69.53125 L 58.585938 70.355469 L 58.695312 71.183594 L 58.613281 72.007812 L 58.328125 72.835938 L 57.847656 73.660156 L 57.183594 74.488281 L 56.367188 75.3125 L 55.433594 76.140625 L 54.414062 76.964844 L 53.347656 77.792969 L 52.242188 78.617188 L 51.113281 79.445312 L 49.957031 80.269531 L 48.769531 81.09375 L 47.550781 81.921875 L 46.300781 82.746094 L 45.015625 83.574219 L 43.707031 84.398438 L 42.371094 85.226562 L 41.003906 86.050781 L 39.601562 86.878906 L 38.152344 87.703125 L 36.648438 88.53125 L 35.09375 89.355469 L 33.496094 90.179688 L 31.890625 91.007812 L 30.316406 91.832031 L 28.8125 92.660156 L 27.421875 93.484375 L 26.148438 94.3125 L 24.984375 95.136719 L 23.902344 95.964844 L 22.875 96.789062 L 21.867188 97.617188 L 20.863281 98.441406 L 19.871094 99.265625 L 18.886719 100.09375 L 17.925781 100.917969 L 16.988281 101.746094 L 16.066406 102.570312 L 15.152344 103.398438 L 14.234375 104.222656 L 13.320312 105.050781 L 12.417969 105.875 L 11.539062 106.703125 L 10.703125 107.527344 L 9.917969 108.355469 L 9.191406 109.179688 L 8.507812 110.003906 L 7.863281 110.832031 L 7.246094 111.65625 L 6.652344 112.484375 L 6.082031 113.308594 L 5.542969 114.136719 L 5.042969 114.960938 L 4.601562 115.789062 L 4.214844 116.613281 L 3.890625 117.441406 L 3.617188 118.265625 L 3.382812 119.089844 L 3.175781 119.917969 L 2.988281 120.742188 L 2.800781 121.570312 L 2.621094 122.394531 L 2.445312 123.222656 L 2.277344 124.046875 L 2.125 124.875 L 1.992188 125.699219 L 1.878906 126.527344 L 1.785156 127.351562 L 1.707031 128.175781 L 1.644531 129.003906 L 1.585938 129.828125 L 1.527344 130.65625 L 1.464844 131.480469 L 1.390625 132.308594 L 1.308594 133.132812 L 1.222656 133.960938 L 1.136719 134.785156 L 1.054688 135.613281 L 0.980469 136.4375 L 0.921875 137.265625 L 0.878906 138.089844 L 0.851562 138.914062 L 0.835938 139.742188 L 0.824219 140.566406 L 0.8125 141.394531 L 0.792969 142.21875 L 0.769531 143.046875 L 0.738281 143.871094 L 0.703125 144.699219 L 0.667969 145.523438 L 0.632812 146.351562 L 0.605469 147.175781 L 0.585938 148 L 0.570312 148.828125 L 0.554688 149.652344 L 0.546875 150.480469 L 0.542969 151.304688 L 0.539062 152.132812 L 0.539062 152.957031 L 0.535156 153.785156 L 0.53125 154.609375 L 0.527344 155.4375 L 0.519531 156.261719 L 0.507812 157.089844 L 0.484375 158.738281 L 0.476562 159.566406 L 0.46875 160.390625 L 0.464844 161.21875 L 0.460938 162.042969 L 0.460938 162.871094 L 0.457031 163.695312 Z M 0.457031 164.523438 "
           id="path53" />
      </g>
    </g>
    <clipPath
       id="clip11">
      <rect
         x="0"
         y="0"
         width="62"
         height="363"
         id="rect58" />
    </clipPath>
    <g
       id="surface551"
       clip-path="url(#clip11)">
      <g
         clip-path="url(#clip12)"
         clip-rule="nonzero"
         id="g63">
        <use
           xlink:href="#surface549"
           transform="matrix(1,0,0,1,0,85)"
           id="use61" />
      </g>
    </g>
    <clipPath
       id="clip9">
      <rect
         x="0"
         y="0"
         width="62"
         height="363"
         id="rect66" />
    </clipPath>
    <g
       id="surface553"
       clip-path="url(#clip9)">
      <g
         clip-path="url(#clip10)"
         clip-rule="nonzero"
         id="g71">
        <use
           xlink:href="#surface551"
           id="use69" />
      </g>
    </g>
    <clipPath
       id="clip15">
      <path
         d="M 84.859375 76.445312 L 380.664062 76.445312 L 380.664062 387.464844 L 84.859375 387.464844 Z M 84.859375 76.445312 "
         id="path74" />
    </clipPath>
    <clipPath
       id="clip17">
      <path
         d="M 0.859375 0.445312 L 296.664062 0.445312 L 296.664062 311.464844 L 0.859375 311.464844 Z M 0.859375 0.445312 "
         id="path77" />
    </clipPath>
    <clipPath
       id="clip18">
      <rect
         x="0"
         y="0"
         width="297"
         height="312"
         id="rect80" />
    </clipPath>
    <g
       id="surface557"
       clip-path="url(#clip18)">
      <path
         style="fill:none;stroke-width:1.5;stroke-linecap:butt;stroke-linejoin:round;stroke:rgb(72.155762%,4.705811%,12.940979%);stroke-opacity:0.5;stroke-miterlimit:4;"
         d="M 204.898438 242.546875 L 206.21875 242.582031 L 207.539062 242.398438 L 212.164062 241.292969 L 213.484375 240.839844 L 214.808594 240.105469 L 216.128906 239.257812 L 216.789062 238.960938 L 218.109375 238.75 L 220.09375 238.730469 L 220.753906 238.605469 L 221.933594 238.035156 L 222.074219 237.945312 L 222.777344 237.296875 L 224.464844 235.082031 L 225.089844 234.34375 L 225.949219 233.605469 L 226.699219 233.175781 L 228.871094 232.128906 L 230.003906 231.382812 L 231.984375 229.742188 L 233.328125 228.4375 L 235.289062 226.125 L 237.269531 223.878906 L 238.59375 222.378906 L 239.441406 221.054688 L 240.089844 219.578125 L 240.488281 218.101562 L 240.625 216.625 L 240.445312 215.148438 L 239.914062 213.464844 L 238.054688 208.503906 L 237.203125 207.027344 L 231.980469 199.644531 L 229.34375 196.542969 L 228.574219 195.214844 L 227.980469 193.738281 L 226.699219 190.0625 L 226.003906 188.570312 L 223.609375 183.402344 L 223.101562 181.925781 L 222.324219 178.972656 L 221.140625 174.542969 L 220.570312 173.066406 L 220.09375 172.175781 L 219.433594 171.378906 L 218.429688 170.851562 L 218.109375 170.769531 L 217.207031 170.851562 L 216.789062 170.949219 L 215.46875 171.640625 L 214.148438 172.738281 L 212.597656 174.542969 L 210.84375 177.074219 L 208.816406 180.449219 L 207.210938 183.402344 L 205.554688 187.09375 L 204.414062 190.046875 L 202.914062 194.128906 L 199.832031 201.859375 L 198.1875 207.027344 L 197.476562 209.980469 L 196.308594 215.210938 L 194.851562 220.316406 L 194.648438 221.792969 L 194.632812 224.007812 L 195.195312 233.605469 L 195.3125 237.296875 L 195.484375 238.773438 L 195.882812 240.25 L 196.308594 241.0625 L 196.96875 241.730469 L 197.628906 242.03125 L 198.953125 242.148438 L 201.59375 242.082031 L 203.574219 242.351562 L 204.898438 242.546875 "
         transform="matrix(1,0,0,1,-84,-76)"
         id="path83" />
    </g>
    <clipPath
       id="clip16">
      <rect
         x="0"
         y="0"
         width="297"
         height="312"
         id="rect86" />
    </clipPath>
    <g
       id="surface559"
       clip-path="url(#clip16)">
      <g
         clip-path="url(#clip17)"
         clip-rule="nonzero"
         id="g91">
        <use
           xlink:href="#surface557"
           id="use89" />
      </g>
    </g>
    <clipPath
       id="clip19">
      <path
         d="M 84.242188 79.414062 L 380.046875 79.414062 L 380.046875 390.433594 L 84.242188 390.433594 Z M 84.242188 79.414062 "
         id="path94" />
    </clipPath>
    <clipPath
       id="clip21">
      <path
         d="M 0.242188 0.414062 L 296.046875 0.414062 L 296.046875 311.433594 L 0.242188 311.433594 Z M 0.242188 0.414062 "
         id="path97" />
    </clipPath>
    <clipPath
       id="clip22">
      <rect
         x="0"
         y="0"
         width="297"
         height="312"
         id="rect100" />
    </clipPath>
    <g
       id="surface563"
       clip-path="url(#clip22)">
      <path
         style="fill:none;stroke-width:1.5;stroke-linecap:butt;stroke-linejoin:round;stroke:rgb(72.155762%,4.705811%,12.940979%);stroke-opacity:0.5;stroke-miterlimit:4;"
         d="M 210.226562 224.0625 L 212.210938 224.300781 L 213.53125 224.308594 L 214.851562 224.023438 L 216.085938 223.285156 L 216.175781 223.222656 L 217.527344 221.808594 L 219.085938 219.59375 L 220.136719 217.605469 L 220.53125 216.640625 L 221.152344 214.425781 L 221.441406 212.210938 L 221.425781 209.996094 L 221.121094 207.78125 L 220.566406 205.566406 L 219.125 201.136719 L 216.597656 193.753906 L 215.511719 191.304688 L 214.789062 190.0625 L 214.191406 189.3125 L 213.53125 188.847656 L 212.871094 188.734375 L 212.210938 188.921875 L 211.550781 189.347656 L 210.816406 190.0625 L 209.726562 191.539062 L 208.90625 192.972656 L 207.554688 195.96875 L 205.269531 201.875 L 204.28125 205.039062 L 203.828125 207.042969 L 203.390625 209.996094 L 202.878906 215.164062 L 202.816406 218.117188 L 202.960938 219.6875 L 203.304688 221.070312 L 203.621094 221.855469 L 204.28125 222.800781 L 204.941406 223.308594 L 205.601562 223.585938 L 206.925781 223.773438 L 209.972656 224.023438 L 210.226562 224.0625 "
         transform="matrix(1,0,0,1,-84,-79)"
         id="path103" />
    </g>
    <clipPath
       id="clip20">
      <rect
         x="0"
         y="0"
         width="297"
         height="312"
         id="rect106" />
    </clipPath>
    <g
       id="surface565"
       clip-path="url(#clip20)">
      <g
         clip-path="url(#clip21)"
         clip-rule="nonzero"
         id="g111">
        <use
           xlink:href="#surface563"
           id="use109" />
      </g>
    </g>
  </defs>
  <g
     id="surface534">
    <path
       style="fill:none;stroke-width:0.8;stroke-linecap:butt;stroke-linejoin:round;stroke:rgb(0%,0%,0%);stroke-opacity:1;stroke-miterlimit:4;"
       d="M 84.859375 387.464844 L 84.859375 390.964844 "
       id="path116" />
    <path
       style=" stroke:none;fill-rule:nonzero;fill:rgb(0%,0%,0%);fill-opacity:1;"
       d="M 85.550781 402.332031 C 85.835938 402.332031 86.140625 402.332031 86.140625 401.992188 C 86.140625 401.65625 85.835938 401.65625 85.550781 401.65625 L 76.386719 401.65625 C 76.097656 401.65625 75.792969 401.65625 75.792969 401.992188 C 75.792969 402.332031 76.097656 402.332031 76.386719 402.332031 Z M 85.550781 402.332031 "
       id="path118" />
    <path
       style=" stroke:none;fill-rule:nonzero;fill:rgb(0%,0%,0%);fill-opacity:1;"
       d="M 91.300781 400.519531 C 92.8125 400.519531 93.472656 401.828125 93.472656 403.34375 C 93.472656 405.382812 92.386719 406.160156 91.40625 406.160156 C 90.507812 406.160156 89.050781 405.714844 88.59375 404.394531 C 88.675781 404.429688 88.761719 404.429688 88.847656 404.429688 C 89.253906 404.429688 89.558594 404.160156 89.558594 403.71875 C 89.558594 403.230469 89.183594 403.011719 88.847656 403.011719 C 88.5625 403.011719 88.117188 403.144531 88.117188 403.777344 C 88.117188 405.339844 89.644531 406.566406 91.441406 406.566406 C 93.320312 406.566406 94.757812 405.089844 94.757812 403.355469 C 94.757812 401.710938 93.402344 400.519531 91.792969 400.335938 C 93.082031 400.066406 94.320312 398.933594 94.320312 397.417969 C 94.320312 396.117188 92.980469 395.167969 91.457031 395.167969 C 89.914062 395.167969 88.5625 396.09375 88.5625 397.417969 C 88.5625 397.996094 89 398.097656 89.21875 398.097656 C 89.578125 398.097656 89.882812 397.878906 89.882812 397.441406 C 89.882812 397.003906 89.578125 396.785156 89.21875 396.785156 C 89.152344 396.785156 89.070312 396.785156 89 396.816406 C 89.492188 395.75 90.828125 395.558594 91.421875 395.558594 C 92.015625 395.558594 93.132812 395.839844 93.132812 397.441406 C 93.132812 397.910156 93.066406 398.746094 92.488281 399.480469 C 91.980469 400.132812 91.40625 400.132812 90.847656 400.183594 C 90.761719 400.183594 90.371094 400.222656 90.304688 400.222656 C 90.183594 400.238281 90.117188 400.253906 90.117188 400.386719 C 90.117188 400.503906 90.136719 400.519531 90.472656 400.519531 Z M 91.300781 400.519531 "
       id="path120" />
    <path
       style="fill:none;stroke-width:0.8;stroke-linecap:butt;stroke-linejoin:round;stroke:rgb(0%,0%,0%);stroke-opacity:1;stroke-miterlimit:4;"
       d="M 183.460938 387.464844 L 183.460938 390.964844 "
       id="path122" />
    <path
       style=" stroke:none;fill-rule:nonzero;fill:rgb(0%,0%,0%);fill-opacity:1;"
       d="M 184.152344 402.332031 C 184.4375 402.332031 184.742188 402.332031 184.742188 401.992188 C 184.742188 401.65625 184.4375 401.65625 184.152344 401.65625 L 174.988281 401.65625 C 174.699219 401.65625 174.394531 401.65625 174.394531 401.992188 C 174.394531 402.332031 174.699219 402.332031 174.988281 402.332031 Z M 184.152344 402.332031 "
       id="path124" />
    <path
       style=" stroke:none;fill-rule:nonzero;fill:rgb(0%,0%,0%);fill-opacity:1;"
       d="M 193.226562 403.609375 L 192.921875 403.609375 C 192.75 404.808594 192.613281 405.011719 192.546875 405.117188 C 192.464844 405.25 191.242188 405.25 191.003906 405.25 L 187.753906 405.25 C 188.363281 404.589844 189.550781 403.390625 190.988281 402 C 192.019531 401.023438 193.226562 399.871094 193.226562 398.195312 C 193.226562 396.199219 191.632812 395.050781 189.855469 395.050781 C 187.992188 395.050781 186.855469 396.691406 186.855469 398.210938 C 186.855469 398.871094 187.347656 398.957031 187.550781 398.957031 C 187.71875 398.957031 188.230469 398.851562 188.230469 398.261719 C 188.230469 397.742188 187.785156 397.589844 187.550781 397.589844 C 187.449219 397.589844 187.347656 397.605469 187.277344 397.640625 C 187.601562 396.199219 188.582031 395.488281 189.617188 395.488281 C 191.089844 395.488281 192.054688 396.65625 192.054688 398.195312 C 192.054688 399.667969 191.191406 400.933594 190.226562 402.035156 L 186.855469 405.839844 L 186.855469 406.226562 L 192.816406 406.226562 Z M 193.226562 403.609375 "
       id="path126" />
    <path
       style="fill:none;stroke-width:0.8;stroke-linecap:butt;stroke-linejoin:round;stroke:rgb(0%,0%,0%);stroke-opacity:1;stroke-miterlimit:4;"
       d="M 282.0625 387.464844 L 282.0625 390.964844 "
       id="path128" />
    <path
       style=" stroke:none;fill-rule:nonzero;fill:rgb(0%,0%,0%);fill-opacity:1;"
       d="M 282.753906 402.332031 C 283.039062 402.332031 283.347656 402.332031 283.347656 401.992188 C 283.347656 401.65625 283.039062 401.65625 282.753906 401.65625 L 273.589844 401.65625 C 273.300781 401.65625 272.996094 401.65625 272.996094 401.992188 C 272.996094 402.332031 273.300781 402.332031 273.589844 402.332031 Z M 282.753906 402.332031 "
       id="path130" />
    <path
       style=" stroke:none;fill-rule:nonzero;fill:rgb(0%,0%,0%);fill-opacity:1;"
       d="M 289.269531 395.488281 C 289.269531 395.132812 289.25 395.132812 289.011719 395.132812 C 288.355469 395.863281 287.355469 396.101562 286.40625 396.101562 C 286.355469 396.101562 286.273438 396.101562 286.253906 396.152344 C 286.238281 396.183594 286.238281 396.21875 286.238281 396.574219 C 286.761719 396.574219 287.644531 396.472656 288.320312 396.070312 L 288.320312 405.007812 C 288.320312 405.601562 288.285156 405.804688 286.832031 405.804688 L 286.324219 405.804688 L 286.324219 406.226562 C 287.132812 406.226562 287.980469 406.226562 288.792969 406.226562 C 289.605469 406.226562 290.453125 406.226562 291.269531 406.226562 L 291.269531 405.804688 L 290.761719 405.804688 C 289.300781 405.804688 289.269531 405.621094 289.269531 405.015625 Z M 289.269531 395.488281 "
       id="path132" />
    <path
       style="fill:none;stroke-width:0.8;stroke-linecap:butt;stroke-linejoin:round;stroke:rgb(0%,0%,0%);stroke-opacity:1;stroke-miterlimit:4;"
       d="M 380.664062 387.464844 L 380.664062 390.964844 "
       id="path134" />
    <path
       style=" stroke:none;fill-rule:nonzero;fill:rgb(0%,0%,0%);fill-opacity:1;"
       d="M 383.890625 400.871094 C 383.890625 399.835938 383.875 398.078125 383.164062 396.726562 C 382.539062 395.539062 381.535156 395.117188 380.660156 395.117188 C 379.84375 395.117188 378.8125 395.488281 378.167969 396.710938 C 377.492188 397.976562 377.421875 399.546875 377.421875 400.871094 C 377.421875 401.832031 377.441406 403.300781 377.964844 404.589844 C 378.691406 406.332031 379.996094 406.566406 380.660156 406.566406 C 381.4375 406.566406 382.621094 406.246094 383.316406 404.640625 C 383.824219 403.46875 383.890625 402.101562 383.890625 400.871094 Z M 380.660156 406.296875 C 379.574219 406.296875 378.929688 405.367188 378.691406 404.078125 C 378.507812 403.085938 378.507812 401.628906 378.507812 400.679688 C 378.507812 399.378906 378.507812 398.296875 378.726562 397.265625 C 379.050781 395.832031 379.996094 395.390625 380.660156 395.390625 C 381.351562 395.390625 382.25 395.847656 382.570312 397.230469 C 382.792969 398.195312 382.808594 399.328125 382.808594 400.679688 C 382.808594 401.78125 382.808594 403.132812 382.605469 404.132812 C 382.25 405.976562 381.25 406.296875 380.660156 406.296875 Z M 380.660156 406.296875 "
       id="path136" />
    <path
       style="fill:none;stroke-width:0.8;stroke-linecap:butt;stroke-linejoin:round;stroke:rgb(0%,0%,0%);stroke-opacity:1;stroke-miterlimit:4;"
       d="M 84.859375 370.1875 L 81.359375 370.1875 "
       id="path138" />
    <path
       style=" stroke:none;fill-rule:nonzero;fill:rgb(0%,0%,0%);fill-opacity:1;"
       d="M 55.707031 372.171875 C 55.992188 372.171875 56.296875 372.171875 56.296875 371.835938 C 56.296875 371.496094 55.992188 371.496094 55.707031 371.496094 L 46.542969 371.496094 C 46.253906 371.496094 45.949219 371.496094 45.949219 371.835938 C 45.949219 372.171875 46.253906 372.171875 46.542969 372.171875 Z M 55.707031 372.171875 "
       id="path140" />
    <path
       style=" stroke:none;fill-rule:nonzero;fill:rgb(0%,0%,0%);fill-opacity:1;"
       d="M 64.78125 373.453125 L 64.476562 373.453125 C 64.304688 374.648438 64.167969 374.855469 64.101562 374.957031 C 64.015625 375.09375 62.796875 375.09375 62.558594 375.09375 L 59.308594 375.09375 C 59.917969 374.429688 61.105469 373.230469 62.542969 371.84375 C 63.574219 370.863281 64.78125 369.710938 64.78125 368.035156 C 64.78125 366.039062 63.1875 364.890625 61.40625 364.890625 C 59.546875 364.890625 58.410156 366.53125 58.410156 368.050781 C 58.410156 368.710938 58.902344 368.796875 59.105469 368.796875 C 59.273438 368.796875 59.78125 368.691406 59.78125 368.101562 C 59.78125 367.582031 59.339844 367.429688 59.105469 367.429688 C 59.003906 367.429688 58.902344 367.445312 58.832031 367.480469 C 59.15625 366.039062 60.136719 365.328125 61.171875 365.328125 C 62.644531 365.328125 63.609375 366.496094 63.609375 368.035156 C 63.609375 369.507812 62.746094 370.777344 61.78125 371.875 L 58.410156 375.683594 L 58.410156 376.070312 L 64.371094 376.070312 Z M 64.78125 373.453125 "
       id="path142" />
    <path
       style=" stroke:none;fill-rule:nonzero;fill:rgb(0%,0%,0%);fill-opacity:1;"
       d="M 68.601562 375.257812 C 68.601562 374.765625 68.195312 374.429688 67.785156 374.429688 C 67.296875 374.429688 66.957031 374.835938 66.957031 375.238281 C 66.957031 375.730469 67.363281 376.070312 67.769531 376.070312 C 68.261719 376.070312 68.601562 375.664062 68.601562 375.257812 Z M 68.601562 375.257812 "
       id="path144" />
    <path
       style=" stroke:none;fill-rule:nonzero;fill:rgb(0%,0%,0%);fill-opacity:1;"
       d="M 77.152344 373.453125 L 76.847656 373.453125 C 76.679688 374.648438 76.542969 374.855469 76.476562 374.957031 C 76.390625 375.09375 75.171875 375.09375 74.933594 375.09375 L 71.683594 375.09375 C 72.292969 374.429688 73.476562 373.230469 74.917969 371.84375 C 75.949219 370.863281 77.152344 369.710938 77.152344 368.035156 C 77.152344 366.039062 75.558594 364.890625 73.78125 364.890625 C 71.917969 364.890625 70.785156 366.53125 70.785156 368.050781 C 70.785156 368.710938 71.277344 368.796875 71.480469 368.796875 C 71.648438 368.796875 72.15625 368.691406 72.15625 368.101562 C 72.15625 367.582031 71.714844 367.429688 71.480469 367.429688 C 71.375 367.429688 71.277344 367.445312 71.207031 367.480469 C 71.53125 366.039062 72.511719 365.328125 73.546875 365.328125 C 75.019531 365.328125 75.984375 366.496094 75.984375 368.035156 C 75.984375 369.507812 75.121094 370.777344 74.15625 371.875 L 70.785156 375.683594 L 70.785156 376.070312 L 76.746094 376.070312 Z M 77.152344 373.453125 "
       id="path146" />
    <path
       style="fill:none;stroke-width:0.8;stroke-linecap:butt;stroke-linejoin:round;stroke:rgb(0%,0%,0%);stroke-opacity:1;stroke-miterlimit:4;"
       d="M 84.859375 335.628906 L 81.359375 335.628906 "
       id="path148" />
    <path
       style=" stroke:none;fill-rule:nonzero;fill:rgb(0%,0%,0%);fill-opacity:1;"
       d="M 55.707031 337.613281 C 55.992188 337.613281 56.296875 337.613281 56.296875 337.277344 C 56.296875 336.9375 55.992188 336.9375 55.707031 336.9375 L 46.542969 336.9375 C 46.253906 336.9375 45.949219 336.9375 45.949219 337.277344 C 45.949219 337.613281 46.253906 337.613281 46.542969 337.613281 Z M 55.707031 337.613281 "
       id="path150" />
    <path
       style=" stroke:none;fill-rule:nonzero;fill:rgb(0%,0%,0%);fill-opacity:1;"
       d="M 64.78125 338.894531 L 64.476562 338.894531 C 64.304688 340.09375 64.167969 340.296875 64.101562 340.398438 C 64.015625 340.535156 62.796875 340.535156 62.558594 340.535156 L 59.308594 340.535156 C 59.917969 339.871094 61.105469 338.671875 62.542969 337.285156 C 63.574219 336.304688 64.78125 335.152344 64.78125 333.480469 C 64.78125 331.480469 63.1875 330.332031 61.40625 330.332031 C 59.546875 330.332031 58.410156 331.972656 58.410156 333.492188 C 58.410156 334.152344 58.902344 334.238281 59.105469 334.238281 C 59.273438 334.238281 59.78125 334.136719 59.78125 333.546875 C 59.78125 333.023438 59.339844 332.871094 59.105469 332.871094 C 59.003906 332.871094 58.902344 332.890625 58.832031 332.921875 C 59.15625 331.480469 60.136719 330.773438 61.171875 330.773438 C 62.644531 330.773438 63.609375 331.9375 63.609375 333.480469 C 63.609375 334.949219 62.746094 336.21875 61.78125 337.320312 L 58.410156 341.125 L 58.410156 341.511719 L 64.371094 341.511719 Z M 64.78125 338.894531 "
       id="path152" />
    <path
       style=" stroke:none;fill-rule:nonzero;fill:rgb(0%,0%,0%);fill-opacity:1;"
       d="M 68.601562 340.699219 C 68.601562 340.207031 68.195312 339.871094 67.785156 339.871094 C 67.296875 339.871094 66.957031 340.277344 66.957031 340.683594 C 66.957031 341.171875 67.363281 341.511719 67.769531 341.511719 C 68.261719 341.511719 68.601562 341.105469 68.601562 340.699219 Z M 68.601562 340.699219 "
       id="path154" />
    <path
       style=" stroke:none;fill-rule:nonzero;fill:rgb(0%,0%,0%);fill-opacity:1;"
       d="M 77.203125 336.152344 C 77.203125 335.117188 77.1875 333.359375 76.476562 332.007812 C 75.847656 330.820312 74.847656 330.402344 73.96875 330.402344 C 73.15625 330.402344 72.121094 330.773438 71.480469 331.992188 C 70.800781 333.257812 70.734375 334.832031 70.734375 336.152344 C 70.734375 337.113281 70.75 338.582031 71.277344 339.871094 C 72.003906 341.613281 73.308594 341.847656 73.96875 341.847656 C 74.746094 341.847656 75.933594 341.527344 76.625 339.921875 C 77.136719 338.753906 77.203125 337.386719 77.203125 336.152344 Z M 73.96875 341.578125 C 72.886719 341.578125 72.242188 340.652344 72.003906 339.363281 C 71.816406 338.367188 71.816406 336.910156 71.816406 335.964844 C 71.816406 334.660156 71.816406 333.578125 72.039062 332.546875 C 72.359375 331.113281 73.308594 330.671875 73.96875 330.671875 C 74.664062 330.671875 75.558594 331.128906 75.882812 332.511719 C 76.101562 333.476562 76.117188 334.613281 76.117188 335.964844 C 76.117188 337.066406 76.117188 338.417969 75.917969 339.414062 C 75.558594 341.257812 74.5625 341.578125 73.96875 341.578125 Z M 73.96875 341.578125 "
       id="path156" />
    <path
       style="fill:none;stroke-width:0.8;stroke-linecap:butt;stroke-linejoin:round;stroke:rgb(0%,0%,0%);stroke-opacity:1;stroke-miterlimit:4;"
       d="M 84.859375 301.070312 L 81.359375 301.070312 "
       id="path158" />
    <path
       style=" stroke:none;fill-rule:nonzero;fill:rgb(0%,0%,0%);fill-opacity:1;"
       d="M 55.707031 303.058594 C 55.992188 303.058594 56.296875 303.058594 56.296875 302.71875 C 56.296875 302.378906 55.992188 302.378906 55.707031 302.378906 L 46.542969 302.378906 C 46.253906 302.378906 45.949219 302.378906 45.949219 302.71875 C 45.949219 303.058594 46.253906 303.058594 46.542969 303.058594 Z M 55.707031 303.058594 "
       id="path160" />
    <path
       style=" stroke:none;fill-rule:nonzero;fill:rgb(0%,0%,0%);fill-opacity:1;"
       d="M 62.21875 296.214844 C 62.21875 295.859375 62.203125 295.859375 61.964844 295.859375 C 61.308594 296.589844 60.308594 296.824219 59.359375 296.824219 C 59.308594 296.824219 59.226562 296.824219 59.207031 296.875 C 59.191406 296.910156 59.191406 296.945312 59.191406 297.300781 C 59.714844 297.300781 60.59375 297.199219 61.273438 296.792969 L 61.273438 305.734375 C 61.273438 306.328125 61.238281 306.53125 59.78125 306.53125 L 59.273438 306.53125 L 59.273438 306.953125 C 60.085938 306.953125 60.933594 306.953125 61.746094 306.953125 C 62.558594 306.953125 63.40625 306.953125 64.222656 306.953125 L 64.222656 306.53125 L 63.714844 306.53125 C 62.253906 306.53125 62.21875 306.34375 62.21875 305.742188 Z M 62.21875 296.214844 "
       id="path162" />
    <path
       style=" stroke:none;fill-rule:nonzero;fill:rgb(0%,0%,0%);fill-opacity:1;"
       d="M 68.601562 306.140625 C 68.601562 305.652344 68.195312 305.316406 67.785156 305.316406 C 67.296875 305.316406 66.957031 305.71875 66.957031 306.125 C 66.957031 306.613281 67.363281 306.953125 67.769531 306.953125 C 68.261719 306.953125 68.601562 306.546875 68.601562 306.140625 Z M 68.601562 306.140625 "
       id="path164" />
    <path
       style=" stroke:none;fill-rule:nonzero;fill:rgb(0%,0%,0%);fill-opacity:1;"
       d="M 74.699219 300.960938 C 75.765625 300.425781 76.847656 299.613281 76.847656 298.316406 C 76.847656 296.789062 75.355469 295.894531 73.984375 295.894531 C 72.445312 295.894531 71.089844 297.003906 71.089844 298.539062 C 71.089844 298.957031 71.191406 299.683594 71.851562 300.324219 C 72.023438 300.492188 72.730469 300.996094 73.1875 301.316406 C 72.425781 301.707031 70.648438 302.628906 70.648438 304.480469 C 70.648438 306.214844 72.308594 307.292969 73.953125 307.292969 C 75.765625 307.292969 77.289062 305.996094 77.289062 304.28125 C 77.289062 302.746094 76.257812 302.039062 75.578125 301.582031 Z M 72.476562 299.484375 C 72.34375 299.398438 71.664062 298.878906 71.664062 298.085938 C 71.664062 297.058594 72.730469 296.28125 73.953125 296.28125 C 75.289062 296.28125 76.273438 297.226562 76.273438 298.320312 C 76.273438 299.890625 74.507812 300.785156 74.425781 300.785156 C 74.410156 300.785156 74.394531 300.785156 74.253906 300.679688 Z M 75.59375 302.933594 C 75.847656 303.117188 76.660156 303.671875 76.660156 304.699219 C 76.660156 305.945312 75.410156 306.886719 73.984375 306.886719 C 72.445312 306.886719 71.277344 305.792969 71.277344 304.464844 C 71.277344 303.132812 72.308594 302.023438 73.476562 301.5 Z M 75.59375 302.933594 "
       id="path166" />
    <path
       style="fill:none;stroke-width:0.8;stroke-linecap:butt;stroke-linejoin:round;stroke:rgb(0%,0%,0%);stroke-opacity:1;stroke-miterlimit:4;"
       d="M 84.859375 266.515625 L 81.359375 266.515625 "
       id="path168" />
    <path
       style=" stroke:none;fill-rule:nonzero;fill:rgb(0%,0%,0%);fill-opacity:1;"
       d="M 55.707031 268.5 C 55.992188 268.5 56.296875 268.5 56.296875 268.160156 C 56.296875 267.820312 55.992188 267.820312 55.707031 267.820312 L 46.542969 267.820312 C 46.253906 267.820312 45.949219 267.820312 45.949219 268.160156 C 45.949219 268.5 46.253906 268.5 46.542969 268.5 Z M 55.707031 268.5 "
       id="path170" />
    <path
       style=" stroke:none;fill-rule:nonzero;fill:rgb(0%,0%,0%);fill-opacity:1;"
       d="M 62.21875 261.65625 C 62.21875 261.300781 62.203125 261.300781 61.964844 261.300781 C 61.308594 262.03125 60.308594 262.265625 59.359375 262.265625 C 59.308594 262.265625 59.226562 262.265625 59.207031 262.316406 C 59.191406 262.351562 59.191406 262.386719 59.191406 262.742188 C 59.714844 262.742188 60.59375 262.640625 61.273438 262.234375 L 61.273438 271.175781 C 61.273438 271.769531 61.238281 271.972656 59.78125 271.972656 L 59.273438 271.972656 L 59.273438 272.394531 C 60.085938 272.394531 60.933594 272.394531 61.746094 272.394531 C 62.558594 272.394531 63.40625 272.394531 64.222656 272.394531 L 64.222656 271.972656 L 63.714844 271.972656 C 62.253906 271.972656 62.21875 271.785156 62.21875 271.183594 Z M 62.21875 261.65625 "
       id="path172" />
    <path
       style=" stroke:none;fill-rule:nonzero;fill:rgb(0%,0%,0%);fill-opacity:1;"
       d="M 68.601562 271.582031 C 68.601562 271.09375 68.195312 270.757812 67.785156 270.757812 C 67.296875 270.757812 66.957031 271.160156 66.957031 271.566406 C 66.957031 272.054688 67.363281 272.394531 67.769531 272.394531 C 68.261719 272.394531 68.601562 271.988281 68.601562 271.582031 Z M 68.601562 271.582031 "
       id="path174" />
    <path
       style=" stroke:none;fill-rule:nonzero;fill:rgb(0%,0%,0%);fill-opacity:1;"
       d="M 71.882812 266.636719 C 71.882812 262.628906 73.78125 261.726562 74.882812 261.726562 C 75.238281 261.726562 76.101562 261.785156 76.441406 262.402344 C 76.171875 262.402344 75.664062 262.402344 75.664062 262.992188 C 75.664062 263.449219 76.035156 263.601562 76.273438 263.601562 C 76.425781 263.601562 76.878906 263.535156 76.878906 262.972656 C 76.878906 261.929688 76.035156 261.335938 74.867188 261.335938 C 72.851562 261.335938 70.734375 263.425781 70.734375 267.144531 C 70.734375 271.726562 72.648438 272.734375 74 272.734375 C 75.644531 272.734375 77.203125 271.265625 77.203125 269 C 77.203125 266.886719 75.832031 265.351562 74.105469 265.351562 C 73.070312 265.351562 72.308594 266.023438 71.882812 267.207031 Z M 74 272.328125 C 71.917969 272.328125 71.917969 269.21875 71.917969 268.59375 C 71.917969 267.378906 72.496094 265.621094 74.070312 265.621094 C 74.359375 265.621094 75.1875 265.621094 75.75 266.785156 C 76.050781 267.445312 76.050781 268.136719 76.050781 268.984375 C 76.050781 269.898438 76.050781 270.570312 75.695312 271.246094 C 75.324219 271.941406 74.78125 272.328125 74 272.328125 Z M 74 272.328125 "
       id="path176" />
    <path
       style="fill:none;stroke-width:0.8;stroke-linecap:butt;stroke-linejoin:round;stroke:rgb(0%,0%,0%);stroke-opacity:1;stroke-miterlimit:4;"
       d="M 84.859375 231.957031 L 81.359375 231.957031 "
       id="path178" />
    <path
       style=" stroke:none;fill-rule:nonzero;fill:rgb(0%,0%,0%);fill-opacity:1;"
       d="M 55.707031 233.941406 C 55.992188 233.941406 56.296875 233.941406 56.296875 233.601562 C 56.296875 233.265625 55.992188 233.265625 55.707031 233.265625 L 46.542969 233.265625 C 46.253906 233.265625 45.949219 233.265625 45.949219 233.601562 C 45.949219 233.941406 46.253906 233.941406 46.542969 233.941406 Z M 55.707031 233.941406 "
       id="path180" />
    <path
       style=" stroke:none;fill-rule:nonzero;fill:rgb(0%,0%,0%);fill-opacity:1;"
       d="M 62.21875 227.097656 C 62.21875 226.742188 62.203125 226.742188 61.964844 226.742188 C 61.308594 227.472656 60.308594 227.710938 59.359375 227.710938 C 59.308594 227.710938 59.226562 227.710938 59.207031 227.761719 C 59.191406 227.792969 59.191406 227.828125 59.191406 228.183594 C 59.714844 228.183594 60.59375 228.082031 61.273438 227.679688 L 61.273438 236.617188 C 61.273438 237.210938 61.238281 237.414062 59.78125 237.414062 L 59.273438 237.414062 L 59.273438 237.835938 C 60.085938 237.835938 60.933594 237.835938 61.746094 237.835938 C 62.558594 237.835938 63.40625 237.835938 64.222656 237.835938 L 64.222656 237.414062 L 63.714844 237.414062 C 62.253906 237.414062 62.21875 237.230469 62.21875 236.625 Z M 62.21875 227.097656 "
       id="path182" />
    <path
       style=" stroke:none;fill-rule:nonzero;fill:rgb(0%,0%,0%);fill-opacity:1;"
       d="M 68.601562 237.023438 C 68.601562 236.535156 68.195312 236.199219 67.785156 236.199219 C 67.296875 236.199219 66.957031 236.605469 66.957031 237.007812 C 66.957031 237.5 67.363281 237.835938 67.769531 237.835938 C 68.261719 237.835938 68.601562 237.433594 68.601562 237.023438 Z M 68.601562 237.023438 "
       id="path184" />
    <path
       style=" stroke:none;fill-rule:nonzero;fill:rgb(0%,0%,0%);fill-opacity:1;"
       d="M 75.78125 226.929688 C 75.78125 226.574219 75.765625 226.574219 75.460938 226.574219 L 70.429688 234.519531 L 70.429688 234.957031 L 74.796875 234.957031 L 74.796875 236.628906 C 74.796875 237.246094 74.761719 237.414062 73.578125 237.414062 L 73.257812 237.414062 L 73.257812 237.835938 C 73.800781 237.835938 74.714844 237.835938 75.289062 237.835938 C 75.863281 237.835938 76.78125 237.835938 77.324219 237.835938 L 77.324219 237.414062 L 77 237.414062 C 75.8125 237.414062 75.78125 237.246094 75.78125 236.628906 L 75.78125 234.957031 L 77.507812 234.957031 L 77.507812 234.519531 L 75.78125 234.519531 Z M 74.847656 228.039062 L 74.847656 234.519531 L 70.769531 234.519531 Z M 74.847656 228.039062 "
       id="path186" />
    <path
       style="fill:none;stroke-width:0.8;stroke-linecap:butt;stroke-linejoin:round;stroke:rgb(0%,0%,0%);stroke-opacity:1;stroke-miterlimit:4;"
       d="M 84.859375 197.398438 L 81.359375 197.398438 "
       id="path188" />
    <path
       style=" stroke:none;fill-rule:nonzero;fill:rgb(0%,0%,0%);fill-opacity:1;"
       d="M 55.707031 199.382812 C 55.992188 199.382812 56.296875 199.382812 56.296875 199.046875 C 56.296875 198.707031 55.992188 198.707031 55.707031 198.707031 L 46.542969 198.707031 C 46.253906 198.707031 45.949219 198.707031 45.949219 199.046875 C 45.949219 199.382812 46.253906 199.382812 46.542969 199.382812 Z M 55.707031 199.382812 "
       id="path190" />
    <path
       style=" stroke:none;fill-rule:nonzero;fill:rgb(0%,0%,0%);fill-opacity:1;"
       d="M 62.21875 192.539062 C 62.21875 192.1875 62.203125 192.1875 61.964844 192.1875 C 61.308594 192.917969 60.308594 193.152344 59.359375 193.152344 C 59.308594 193.152344 59.226562 193.152344 59.207031 193.203125 C 59.191406 193.238281 59.191406 193.269531 59.191406 193.625 C 59.714844 193.625 60.59375 193.523438 61.273438 193.121094 L 61.273438 202.058594 C 61.273438 202.65625 61.238281 202.855469 59.78125 202.855469 L 59.273438 202.855469 L 59.273438 203.28125 C 60.085938 203.28125 60.933594 203.28125 61.746094 203.28125 C 62.558594 203.28125 63.40625 203.28125 64.222656 203.28125 L 64.222656 202.855469 L 63.714844 202.855469 C 62.253906 202.855469 62.21875 202.671875 62.21875 202.066406 Z M 62.21875 192.539062 "
       id="path192" />
    <path
       style=" stroke:none;fill-rule:nonzero;fill:rgb(0%,0%,0%);fill-opacity:1;"
       d="M 68.601562 202.46875 C 68.601562 201.976562 68.195312 201.640625 67.785156 201.640625 C 67.296875 201.640625 66.957031 202.046875 66.957031 202.449219 C 66.957031 202.941406 67.363281 203.28125 67.769531 203.28125 C 68.261719 203.28125 68.601562 202.875 68.601562 202.46875 Z M 68.601562 202.46875 "
       id="path194" />
    <path
       style=" stroke:none;fill-rule:nonzero;fill:rgb(0%,0%,0%);fill-opacity:1;"
       d="M 77.152344 200.664062 L 76.847656 200.664062 C 76.679688 201.859375 76.542969 202.066406 76.476562 202.167969 C 76.390625 202.304688 75.171875 202.304688 74.933594 202.304688 L 71.683594 202.304688 C 72.292969 201.640625 73.476562 200.441406 74.917969 199.054688 C 75.949219 198.074219 77.152344 196.921875 77.152344 195.246094 C 77.152344 193.25 75.558594 192.101562 73.78125 192.101562 C 71.917969 192.101562 70.785156 193.742188 70.785156 195.261719 C 70.785156 195.921875 71.277344 196.007812 71.480469 196.007812 C 71.648438 196.007812 72.15625 195.902344 72.15625 195.3125 C 72.15625 194.792969 71.714844 194.640625 71.480469 194.640625 C 71.375 194.640625 71.277344 194.65625 71.207031 194.691406 C 71.53125 193.25 72.511719 192.539062 73.546875 192.539062 C 75.019531 192.539062 75.984375 193.707031 75.984375 195.246094 C 75.984375 196.71875 75.121094 197.988281 74.15625 199.085938 L 70.785156 202.894531 L 70.785156 203.28125 L 76.746094 203.28125 Z M 77.152344 200.664062 "
       id="path196" />
    <path
       style="fill:none;stroke-width:0.8;stroke-linecap:butt;stroke-linejoin:round;stroke:rgb(0%,0%,0%);stroke-opacity:1;stroke-miterlimit:4;"
       d="M 84.859375 162.839844 L 81.359375 162.839844 "
       id="path198" />
    <path
       style=" stroke:none;fill-rule:nonzero;fill:rgb(0%,0%,0%);fill-opacity:1;"
       d="M 55.707031 164.828125 C 55.992188 164.828125 56.296875 164.828125 56.296875 164.488281 C 56.296875 164.148438 55.992188 164.148438 55.707031 164.148438 L 46.542969 164.148438 C 46.253906 164.148438 45.949219 164.148438 45.949219 164.488281 C 45.949219 164.828125 46.253906 164.828125 46.542969 164.828125 Z M 55.707031 164.828125 "
       id="path200" />
    <path
       style=" stroke:none;fill-rule:nonzero;fill:rgb(0%,0%,0%);fill-opacity:1;"
       d="M 62.21875 157.984375 C 62.21875 157.628906 62.203125 157.628906 61.964844 157.628906 C 61.308594 158.359375 60.308594 158.59375 59.359375 158.59375 C 59.308594 158.59375 59.226562 158.59375 59.207031 158.644531 C 59.191406 158.679688 59.191406 158.714844 59.191406 159.066406 C 59.714844 159.066406 60.59375 158.96875 61.273438 158.5625 L 61.273438 167.5 C 61.273438 168.097656 61.238281 168.296875 59.78125 168.296875 L 59.273438 168.296875 L 59.273438 168.722656 C 60.085938 168.722656 60.933594 168.722656 61.746094 168.722656 C 62.558594 168.722656 63.40625 168.722656 64.222656 168.722656 L 64.222656 168.296875 L 63.714844 168.296875 C 62.253906 168.296875 62.21875 168.113281 62.21875 167.507812 Z M 62.21875 157.984375 "
       id="path202" />
    <path
       style=" stroke:none;fill-rule:nonzero;fill:rgb(0%,0%,0%);fill-opacity:1;"
       d="M 68.601562 167.910156 C 68.601562 167.417969 68.195312 167.082031 67.785156 167.082031 C 67.296875 167.082031 66.957031 167.488281 66.957031 167.894531 C 66.957031 168.382812 67.363281 168.722656 67.769531 168.722656 C 68.261719 168.722656 68.601562 168.316406 68.601562 167.910156 Z M 68.601562 167.910156 "
       id="path204" />
    <path
       style=" stroke:none;fill-rule:nonzero;fill:rgb(0%,0%,0%);fill-opacity:1;"
       d="M 77.203125 163.363281 C 77.203125 162.328125 77.1875 160.570312 76.476562 159.21875 C 75.847656 158.03125 74.847656 157.613281 73.96875 157.613281 C 73.15625 157.613281 72.121094 157.984375 71.480469 159.203125 C 70.800781 160.46875 70.734375 162.042969 70.734375 163.363281 C 70.734375 164.324219 70.75 165.792969 71.277344 167.082031 C 72.003906 168.824219 73.308594 169.058594 73.96875 169.058594 C 74.746094 169.058594 75.933594 168.738281 76.625 167.132812 C 77.136719 165.964844 77.203125 164.597656 77.203125 163.363281 Z M 73.96875 168.789062 C 72.886719 168.789062 72.242188 167.863281 72.003906 166.574219 C 71.816406 165.578125 71.816406 164.121094 71.816406 163.175781 C 71.816406 161.871094 71.816406 160.789062 72.039062 159.757812 C 72.359375 158.324219 73.308594 157.882812 73.96875 157.882812 C 74.664062 157.882812 75.558594 158.339844 75.882812 159.722656 C 76.101562 160.6875 76.117188 161.824219 76.117188 163.175781 C 76.117188 164.277344 76.117188 165.628906 75.917969 166.625 C 75.558594 168.46875 74.5625 168.789062 73.96875 168.789062 Z M 73.96875 168.789062 "
       id="path206" />
    <path
       style="fill:none;stroke-width:0.8;stroke-linecap:butt;stroke-linejoin:round;stroke:rgb(0%,0%,0%);stroke-opacity:1;stroke-miterlimit:4;"
       d="M 84.859375 128.28125 L 81.359375 128.28125 "
       id="path208" />
    <path
       style=" stroke:none;fill-rule:nonzero;fill:rgb(0%,0%,0%);fill-opacity:1;"
       d="M 55.707031 130.269531 C 55.992188 130.269531 56.296875 130.269531 56.296875 129.929688 C 56.296875 129.589844 55.992188 129.589844 55.707031 129.589844 L 46.542969 129.589844 C 46.253906 129.589844 45.949219 129.589844 45.949219 129.929688 C 45.949219 130.269531 46.253906 130.269531 46.542969 130.269531 Z M 55.707031 130.269531 "
       id="path210" />
    <path
       style=" stroke:none;fill-rule:nonzero;fill:rgb(0%,0%,0%);fill-opacity:1;"
       d="M 64.828125 128.804688 C 64.828125 127.769531 64.8125 126.011719 64.101562 124.660156 C 63.476562 123.476562 62.472656 123.054688 61.597656 123.054688 C 60.78125 123.054688 59.75 123.425781 59.105469 124.644531 C 58.429688 125.914062 58.359375 127.484375 58.359375 128.804688 C 58.359375 129.769531 58.378906 131.238281 58.902344 132.527344 C 59.628906 134.265625 60.933594 134.503906 61.597656 134.503906 C 62.375 134.503906 63.558594 134.183594 64.253906 132.574219 C 64.761719 131.40625 64.828125 130.039062 64.828125 128.804688 Z M 61.597656 134.234375 C 60.511719 134.234375 59.867188 133.304688 59.628906 132.015625 C 59.445312 131.019531 59.445312 129.566406 59.445312 128.617188 C 59.445312 127.316406 59.445312 126.234375 59.664062 125.199219 C 59.988281 123.765625 60.933594 123.324219 61.597656 123.324219 C 62.289062 123.324219 63.1875 123.78125 63.507812 125.167969 C 63.730469 126.128906 63.746094 127.265625 63.746094 128.617188 C 63.746094 129.71875 63.746094 131.070312 63.542969 132.066406 C 63.1875 133.914062 62.1875 134.234375 61.597656 134.234375 Z M 61.597656 134.234375 "
       id="path212" />
    <path
       style=" stroke:none;fill-rule:nonzero;fill:rgb(0%,0%,0%);fill-opacity:1;"
       d="M 68.601562 133.351562 C 68.601562 132.863281 68.195312 132.527344 67.785156 132.527344 C 67.296875 132.527344 66.957031 132.929688 66.957031 133.335938 C 66.957031 133.824219 67.363281 134.164062 67.769531 134.164062 C 68.261719 134.164062 68.601562 133.757812 68.601562 133.351562 Z M 68.601562 133.351562 "
       id="path214" />
    <path
       style=" stroke:none;fill-rule:nonzero;fill:rgb(0%,0%,0%);fill-opacity:1;"
       d="M 74.699219 128.171875 C 75.765625 127.636719 76.847656 126.824219 76.847656 125.527344 C 76.847656 124 75.355469 123.105469 73.984375 123.105469 C 72.445312 123.105469 71.089844 124.214844 71.089844 125.75 C 71.089844 126.167969 71.191406 126.894531 71.851562 127.535156 C 72.023438 127.703125 72.730469 128.207031 73.1875 128.527344 C 72.425781 128.917969 70.648438 129.839844 70.648438 131.691406 C 70.648438 133.425781 72.308594 134.503906 73.953125 134.503906 C 75.765625 134.503906 77.289062 133.207031 77.289062 131.492188 C 77.289062 129.957031 76.257812 129.25 75.578125 128.792969 Z M 72.476562 126.695312 C 72.34375 126.609375 71.664062 126.089844 71.664062 125.296875 C 71.664062 124.269531 72.730469 123.492188 73.953125 123.492188 C 75.289062 123.492188 76.273438 124.4375 76.273438 125.53125 C 76.273438 127.101562 74.507812 127.996094 74.425781 127.996094 C 74.410156 127.996094 74.394531 127.996094 74.253906 127.890625 Z M 75.59375 130.144531 C 75.847656 130.328125 76.660156 130.882812 76.660156 131.910156 C 76.660156 133.15625 75.410156 134.097656 73.984375 134.097656 C 72.445312 134.097656 71.277344 133.003906 71.277344 131.675781 C 71.277344 130.34375 72.308594 129.234375 73.476562 128.710938 Z M 75.59375 130.144531 "
       id="path216" />
    <path
       style="fill:none;stroke-width:0.8;stroke-linecap:butt;stroke-linejoin:round;stroke:rgb(0%,0%,0%);stroke-opacity:1;stroke-miterlimit:4;"
       d="M 84.859375 93.726562 L 81.359375 93.726562 "
       id="path218" />
    <path
       style=" stroke:none;fill-rule:nonzero;fill:rgb(0%,0%,0%);fill-opacity:1;"
       d="M 55.707031 95.710938 C 55.992188 95.710938 56.296875 95.710938 56.296875 95.371094 C 56.296875 95.03125 55.992188 95.03125 55.707031 95.03125 L 46.542969 95.03125 C 46.253906 95.03125 45.949219 95.03125 45.949219 95.371094 C 45.949219 95.710938 46.253906 95.710938 46.542969 95.710938 Z M 55.707031 95.710938 "
       id="path220" />
    <path
       style=" stroke:none;fill-rule:nonzero;fill:rgb(0%,0%,0%);fill-opacity:1;"
       d="M 64.828125 94.246094 C 64.828125 93.210938 64.8125 91.457031 64.101562 90.101562 C 63.476562 88.917969 62.472656 88.496094 61.597656 88.496094 C 60.78125 88.496094 59.75 88.867188 59.105469 90.085938 C 58.429688 91.355469 58.359375 92.925781 58.359375 94.246094 C 58.359375 95.210938 58.378906 96.679688 58.902344 97.96875 C 59.628906 99.710938 60.933594 99.945312 61.597656 99.945312 C 62.375 99.945312 63.558594 99.625 64.253906 98.019531 C 64.761719 96.847656 64.828125 95.480469 64.828125 94.246094 Z M 61.597656 99.675781 C 60.511719 99.675781 59.867188 98.746094 59.628906 97.457031 C 59.445312 96.460938 59.445312 95.007812 59.445312 94.058594 C 59.445312 92.757812 59.445312 91.675781 59.664062 90.644531 C 59.988281 89.207031 60.933594 88.765625 61.597656 88.765625 C 62.289062 88.765625 63.1875 89.222656 63.507812 90.609375 C 63.730469 91.570312 63.746094 92.707031 63.746094 94.058594 C 63.746094 95.160156 63.746094 96.511719 63.542969 97.511719 C 63.1875 99.355469 62.1875 99.675781 61.597656 99.675781 Z M 61.597656 99.675781 "
       id="path222" />
    <path
       style=" stroke:none;fill-rule:nonzero;fill:rgb(0%,0%,0%);fill-opacity:1;"
       d="M 68.601562 98.792969 C 68.601562 98.304688 68.195312 97.96875 67.785156 97.96875 C 67.296875 97.96875 66.957031 98.371094 66.957031 98.777344 C 66.957031 99.265625 67.363281 99.605469 67.769531 99.605469 C 68.261719 99.605469 68.601562 99.199219 68.601562 98.792969 Z M 68.601562 98.792969 "
       id="path224" />
    <path
       style=" stroke:none;fill-rule:nonzero;fill:rgb(0%,0%,0%);fill-opacity:1;"
       d="M 71.882812 93.847656 C 71.882812 89.839844 73.78125 88.9375 74.882812 88.9375 C 75.238281 88.9375 76.101562 88.996094 76.441406 89.613281 C 76.171875 89.613281 75.664062 89.613281 75.664062 90.203125 C 75.664062 90.660156 76.035156 90.8125 76.273438 90.8125 C 76.425781 90.8125 76.878906 90.746094 76.878906 90.183594 C 76.878906 89.140625 76.035156 88.546875 74.867188 88.546875 C 72.851562 88.546875 70.734375 90.636719 70.734375 94.355469 C 70.734375 98.9375 72.648438 99.945312 74 99.945312 C 75.644531 99.945312 77.203125 98.476562 77.203125 96.210938 C 77.203125 94.097656 75.832031 92.5625 74.105469 92.5625 C 73.070312 92.5625 72.308594 93.234375 71.882812 94.417969 Z M 74 99.539062 C 71.917969 99.539062 71.917969 96.429688 71.917969 95.804688 C 71.917969 94.589844 72.496094 92.832031 74.070312 92.832031 C 74.359375 92.832031 75.1875 92.832031 75.75 93.996094 C 76.050781 94.65625 76.050781 95.347656 76.050781 96.195312 C 76.050781 97.109375 76.050781 97.78125 75.695312 98.457031 C 75.324219 99.152344 74.78125 99.539062 74 99.539062 Z M 74 99.539062 "
       id="path226" />
    <path
       style="fill:none;stroke-width:0.8;stroke-linecap:square;stroke-linejoin:miter;stroke:rgb(0%,0%,0%);stroke-opacity:1;stroke-miterlimit:4;"
       d="M 84.859375 387.464844 L 84.859375 76.445312 "
       id="path228" />
    <path
       style="fill:none;stroke-width:0.8;stroke-linecap:square;stroke-linejoin:miter;stroke:rgb(0%,0%,0%);stroke-opacity:1;stroke-miterlimit:4;"
       d="M 84.859375 387.464844 L 380.664062 387.464844 "
       id="path230" />
    <path
       style="fill:none;stroke-width:0.8;stroke-linecap:butt;stroke-linejoin:round;stroke:rgb(0%,0%,0%);stroke-opacity:1;stroke-miterlimit:4;"
       d="M 84.859375 76.445312 L 84.859375 79.945312 "
       id="path232" />
    <path
       style="fill:none;stroke-width:0.8;stroke-linecap:butt;stroke-linejoin:round;stroke:rgb(0%,0%,0%);stroke-opacity:1;stroke-miterlimit:4;"
       d="M 183.460938 76.445312 L 183.460938 79.945312 "
       id="path234" />
    <path
       style="fill:none;stroke-width:0.8;stroke-linecap:butt;stroke-linejoin:round;stroke:rgb(0%,0%,0%);stroke-opacity:1;stroke-miterlimit:4;"
       d="M 282.0625 76.445312 L 282.0625 79.945312 "
       id="path236" />
    <path
       style="fill:none;stroke-width:0.8;stroke-linecap:butt;stroke-linejoin:round;stroke:rgb(0%,0%,0%);stroke-opacity:1;stroke-miterlimit:4;"
       d="M 380.664062 76.445312 L 380.664062 79.945312 "
       id="path238" />
    <path
       style="fill:none;stroke-width:0.8;stroke-linecap:square;stroke-linejoin:miter;stroke:rgb(0%,0%,0%);stroke-opacity:1;stroke-miterlimit:4;"
       d="M 84.859375 76.445312 L 380.664062 76.445312 "
       id="path240" />
    <path
       style="fill:none;stroke-width:0.626852;stroke-linecap:butt;stroke-linejoin:miter;stroke:rgb(70.195007%,70.195007%,70.195007%);stroke-opacity:1;stroke-miterlimit:4;"
       d="M 326.53125 355.285156 L 372.429688 355.285156 "
       id="path242" />
    <path
       style="fill:none;stroke-width:0.805313;stroke-linecap:butt;stroke-linejoin:miter;stroke:rgb(70.195007%,70.195007%,70.195007%);stroke-opacity:1;stroke-miterlimit:4;"
       d="M 349.480469 329.71875 L 349.480469 380.851562 "
       id="path244" />
    <path
       style=" stroke:none;fill-rule:nonzero;fill:rgb(0%,0%,0%);fill-opacity:1;"
       d="M 12.265625 278.902344 L 12.5 281.480469 L 13.066406 281.480469 C 13.066406 280.203125 13.195312 280.007812 14.222656 280.007812 L 25.699219 280.007812 C 26.515625 280.007812 26.617188 280.097656 26.617188 281.480469 L 27.183594 281.480469 C 27.136719 280.960938 27.136719 280.007812 27.136719 279.46875 C 27.136719 278.902344 27.136719 277.949219 27.183594 277.429688 L 26.617188 277.429688 C 26.617188 278.8125 26.539062 278.902344 25.699219 278.902344 Z M 12.265625 278.902344 "
       id="path246" />
    <path
       style=" stroke:none;fill-rule:nonzero;fill:rgb(0%,0%,0%);fill-opacity:1;"
       d="M 22.550781 267.476562 C 19.777344 267.476562 17.609375 269.496094 17.609375 271.851562 C 17.609375 274.214844 19.777344 276.226562 22.550781 276.226562 C 25.277344 276.226562 27.351562 274.214844 27.351562 271.851562 C 27.351562 269.496094 25.277344 267.476562 22.550781 267.476562 Z M 26.96875 271.851562 C 26.96875 272.871094 26.359375 273.734375 25.515625 274.234375 C 24.542969 274.773438 23.328125 274.84375 22.375 274.84375 C 21.464844 274.84375 20.335938 274.796875 19.363281 274.234375 C 18.648438 273.800781 17.953125 272.953125 17.953125 271.851562 C 17.953125 270.878906 18.5 270.054688 19.257812 269.535156 C 20.277344 268.863281 21.699219 268.863281 22.375 268.863281 C 23.222656 268.863281 24.515625 268.90625 25.558594 269.496094 C 26.554688 270.097656 26.96875 271.027344 26.96875 271.851562 Z M 26.96875 271.851562 "
       id="path248" />
    <path
       style=" stroke:none;fill-rule:nonzero;fill:rgb(0%,0%,0%);fill-opacity:1;"
       d="M 23.203125 264.476562 C 23.527344 264.066406 23.890625 263.351562 23.890625 262.484375 C 23.890625 260.773438 22.550781 259.300781 20.75 259.300781 C 20.191406 259.300781 19.324219 259.476562 18.648438 260.125 C 18.03125 259.515625 17.828125 258.632812 17.828125 258.132812 C 17.828125 258.046875 17.828125 257.914062 17.890625 257.808594 C 17.910156 257.894531 17.996094 258.085938 18.324219 258.085938 C 18.589844 258.085938 18.777344 257.894531 18.777344 257.613281 C 18.777344 257.289062 18.570312 257.113281 18.292969 257.113281 C 17.898438 257.113281 17.484375 257.4375 17.484375 258.132812 C 17.484375 258.996094 17.875 259.753906 18.410156 260.363281 C 17.824219 261.015625 17.609375 261.792969 17.609375 262.484375 C 17.609375 264.195312 18.953125 265.667969 20.75 265.667969 C 21.988281 265.667969 22.769531 264.949219 22.984375 264.734375 C 23.742188 265.382812 24.625 265.382812 24.730469 265.382812 C 25.296875 265.382812 26.121094 265.167969 26.570312 264.433594 C 26.855469 265.558594 27.710938 266.449219 28.78125 266.449219 C 30.328125 266.449219 31.46875 264.390625 31.46875 261.917969 C 31.46875 259.535156 30.375 257.398438 28.761719 257.398438 C 25.839844 257.398438 25.839844 260.601562 25.839844 262.269531 C 25.839844 262.765625 25.839844 263.652344 25.816406 263.761719 C 25.710938 264.433594 25.101562 264.882812 24.347656 264.882812 C 24.152344 264.882812 23.671875 264.882812 23.203125 264.476562 Z M 23.527344 262.484375 C 23.527344 264.390625 21.1875 264.390625 20.746094 264.390625 C 20.316406 264.390625 17.980469 264.390625 17.980469 262.484375 C 17.980469 260.578125 20.316406 260.578125 20.746094 260.578125 C 21.1875 260.578125 23.527344 260.578125 23.527344 262.484375 Z M 31.097656 261.917969 C 31.097656 264.085938 29.964844 265.578125 28.78125 265.578125 C 28.117188 265.578125 27.492188 265.210938 27.152344 264.734375 C 26.789062 264.195312 26.789062 263.976562 26.789062 262.507812 C 26.789062 260.730469 26.789062 258.261719 28.78125 258.261719 C 29.964844 258.261719 31.097656 259.753906 31.097656 261.917969 Z M 31.097656 261.917969 "
       id="path250" />
    <path
       style=" stroke:none;fill-rule:nonzero;fill:rgb(0%,0%,0%);fill-opacity:1;"
       d="M 22.5 252.632812 C 22.179688 252.632812 22.179688 252.648438 22.179688 252.863281 C 22.832031 253.453125 23.042969 254.347656 23.042969 255.195312 C 23.042969 255.242188 23.042969 255.316406 23.089844 255.332031 C 23.125 255.347656 23.152344 255.347656 23.46875 255.347656 C 23.46875 254.875 23.378906 254.085938 23.019531 253.484375 L 31.019531 253.484375 C 31.546875 253.484375 31.726562 253.511719 31.726562 254.816406 L 31.726562 255.269531 L 32.109375 255.269531 C 32.109375 254.542969 32.109375 253.789062 32.109375 253.058594 C 32.109375 252.335938 32.109375 251.574219 32.109375 250.847656 L 31.726562 250.847656 L 31.726562 251.300781 C 31.726562 252.605469 31.5625 252.632812 31.023438 252.632812 Z M 22.5 252.632812 "
       id="path252" />
    <path
       style=" stroke:none;fill-rule:nonzero;fill:rgb(0%,0%,0%);fill-opacity:1;"
       d="M 27.3125 243.351562 C 26.382812 243.351562 24.816406 243.367188 23.601562 244 C 22.542969 244.5625 22.164062 245.457031 22.164062 246.242188 C 22.164062 246.972656 22.5 247.894531 23.585938 248.472656 C 24.726562 249.078125 26.128906 249.136719 27.3125 249.136719 C 28.175781 249.136719 29.492188 249.125 30.644531 248.652344 C 32.203125 248.003906 32.414062 246.835938 32.414062 246.242188 C 32.414062 245.546875 32.128906 244.484375 30.6875 243.863281 C 29.640625 243.410156 28.417969 243.351562 27.3125 243.351562 Z M 32.171875 246.242188 C 32.171875 247.214844 31.339844 247.789062 30.183594 248.003906 C 29.296875 248.167969 27.992188 248.167969 27.144531 248.167969 C 25.980469 248.167969 25.011719 248.167969 24.085938 247.96875 C 22.804688 247.683594 22.410156 246.835938 22.410156 246.242188 C 22.410156 245.621094 22.820312 244.820312 24.058594 244.527344 C 24.917969 244.335938 25.933594 244.320312 27.144531 244.320312 C 28.132812 244.320312 29.339844 244.320312 30.234375 244.5 C 31.882812 244.820312 32.171875 245.710938 32.171875 246.242188 Z M 32.171875 246.242188 "
       id="path254" />
    <path
       style=" stroke:none;fill-rule:nonzero;fill:rgb(0%,0%,0%);fill-opacity:1;"
       d="M 32.421875 236.03125 C 32.402344 236.03125 32.355469 236.03125 32.292969 236.09375 C 31.277344 237.089844 28.515625 239.753906 21.789062 239.753906 C 15.0625 239.753906 12.328125 237.132812 11.246094 236.074219 C 11.222656 236.074219 11.183594 236.03125 11.117188 236.03125 C 11.054688 236.03125 11.007812 236.09375 11.007812 236.179688 C 11.007812 236.417969 12.605469 238.261719 14.976562 239.320312 C 17.371094 240.402344 19.699219 240.707031 21.765625 240.707031 C 23.324219 240.707031 25.949219 240.554688 28.730469 239.253906 C 30.980469 238.214844 32.550781 236.4375 32.550781 236.179688 C 32.550781 236.074219 32.507812 236.03125 32.421875 236.03125 Z M 32.421875 236.03125 "
       id="path256" />
    <path
       style=" stroke:none;fill-rule:nonzero;fill:rgb(0%,0%,0%);fill-opacity:1;"
       d="M 14.398438 222.449219 C 13.066406 221.605469 13.066406 220.4375 13.066406 220.046875 L 12.480469 220.046875 C 12.527344 220.542969 12.527344 221.113281 12.527344 221.652344 C 12.527344 222.191406 12.527344 223.058594 12.480469 223.574219 L 13.066406 223.574219 C 13.066406 223.035156 13.34375 222.753906 13.75 222.753906 C 14.007812 222.753906 14.179688 222.859375 14.464844 223.035156 L 20.671875 226.929688 L 13.90625 231.199219 C 13.644531 231.351562 13.625 231.371094 13.476562 231.371094 C 13.066406 231.371094 13.066406 230.617188 13.066406 230.3125 L 12.527344 230.3125 C 12.527344 231 12.527344 232.0625 12.527344 232.777344 C 12.527344 233.34375 12.527344 234.425781 12.480469 234.945312 L 13.066406 234.945312 C 13.066406 233.707031 13.128906 233.363281 13.75 232.972656 L 21.289062 228.1875 L 25.636719 228.1875 C 26.597656 228.1875 26.597656 228.429688 26.597656 229.921875 L 27.136719 229.921875 C 27.136719 229.292969 27.136719 228.167969 27.136719 227.5 C 27.136719 226.824219 27.136719 225.675781 27.136719 225.046875 L 26.597656 225.046875 C 26.597656 226.605469 26.597656 226.804688 25.546875 226.804688 L 21.289062 226.804688 Z M 14.398438 222.449219 "
       id="path258" />
    <path
       style=" stroke:none;fill-rule:nonzero;fill:rgb(0%,0%,0%);fill-opacity:1;"
       d="M 11.761719 211.164062 C 11.480469 211.054688 11.441406 211.054688 11.398438 211.054688 C 11.136719 211.054688 11.007812 211.25 11.007812 211.425781 C 11.007812 211.683594 11.183594 211.769531 11.441406 211.859375 L 31.796875 218.875 C 32.078125 218.980469 32.121094 218.980469 32.167969 218.980469 C 32.421875 218.980469 32.550781 218.785156 32.550781 218.609375 C 32.550781 218.351562 32.378906 218.265625 32.121094 218.179688 Z M 11.761719 211.164062 "
       id="path260" />
    <path
       style=" stroke:none;fill-rule:nonzero;fill:rgb(0%,0%,0%);fill-opacity:1;"
       d="M 12.824219 198.875 C 12.417969 198.875 12.417969 198.894531 12.417969 199.347656 L 12.417969 208.550781 L 17.164062 208.765625 L 17.164062 208.378906 C 14.703125 208.246094 12.957031 207.597656 12.957031 204.09375 L 12.957031 200.515625 L 26.449219 208.898438 C 26.683594 209.050781 26.707031 209.050781 26.859375 209.050781 C 27.136719 209.050781 27.136719 209.007812 27.136719 208.574219 L 27.136719 199.070312 L 21.5 198.765625 L 21.5 199.152344 C 24.332031 199.347656 26.539062 199.5 26.539062 203.636719 L 26.539062 207.402344 Z M 12.824219 198.875 "
       id="path262" />
    <path
       style=" stroke:none;fill-rule:nonzero;fill:rgb(0%,0%,0%);fill-opacity:1;"
       d="M 22.074219 194.605469 C 19.992188 194.605469 18.042969 193.71875 18.042969 192.09375 C 18.042969 191.941406 18.0625 191.792969 18.132812 191.636719 C 18.132812 191.636719 18.285156 192.117188 18.84375 192.117188 C 19.363281 192.117188 19.582031 191.703125 19.582031 191.378906 C 19.582031 191.117188 19.425781 190.644531 18.824219 190.644531 C 18.128906 190.644531 17.699219 191.339844 17.699219 192.070312 C 17.699219 193.71875 19.296875 194.433594 20.058594 194.648438 L 20.058594 194.667969 L 17.699219 194.667969 L 17.933594 197.179688 L 18.5 197.179688 C 18.5 195.902344 18.628906 195.707031 19.667969 195.707031 L 25.691406 195.707031 C 26.515625 195.707031 26.617188 195.796875 26.617188 197.179688 L 27.183594 197.179688 C 27.136719 196.660156 27.136719 195.667969 27.136719 195.101562 C 27.136719 194.472656 27.136719 193.371094 27.183594 192.785156 L 26.617188 192.785156 C 26.617188 194.34375 26.617188 194.605469 25.648438 194.605469 Z M 22.074219 194.605469 "
       id="path264" />
    <path
       style=" stroke:none;fill-rule:nonzero;fill:rgb(0%,0%,0%);fill-opacity:1;"
       d="M 21.789062 184.492188 C 20.238281 184.492188 17.609375 184.640625 14.828125 185.945312 C 12.582031 186.984375 11.007812 188.757812 11.007812 189.015625 C 11.007812 189.082031 11.03125 189.164062 11.136719 189.164062 C 11.183594 189.164062 11.203125 189.144531 11.246094 189.121094 C 12.328125 188.082031 15.066406 185.441406 21.78125 185.441406 C 28.515625 185.441406 31.257812 188.0625 32.335938 189.121094 C 32.378906 189.144531 32.402344 189.164062 32.441406 189.164062 C 32.550781 189.164062 32.550781 189.082031 32.550781 189.015625 C 32.550781 188.777344 30.953125 186.9375 28.582031 185.875 C 26.1875 184.789062 23.863281 184.492188 21.789062 184.492188 Z M 21.789062 184.492188 "
       id="path266" />
    <path
       style="fill:none;stroke-width:0.8;stroke-linecap:butt;stroke-linejoin:round;stroke:rgb(0%,0%,0%);stroke-opacity:1;stroke-miterlimit:4;"
       d="M 380.664062 370.1875 L 377.164062 370.1875 "
       id="path268" />
    <path
       style="fill:none;stroke-width:0.8;stroke-linecap:butt;stroke-linejoin:round;stroke:rgb(0%,0%,0%);stroke-opacity:1;stroke-miterlimit:4;"
       d="M 380.664062 335.628906 L 377.164062 335.628906 "
       id="path270" />
    <path
       style="fill:none;stroke-width:0.8;stroke-linecap:butt;stroke-linejoin:round;stroke:rgb(0%,0%,0%);stroke-opacity:1;stroke-miterlimit:4;"
       d="M 380.664062 301.070312 L 377.164062 301.070312 "
       id="path272" />
    <path
       style="fill:none;stroke-width:0.8;stroke-linecap:butt;stroke-linejoin:round;stroke:rgb(0%,0%,0%);stroke-opacity:1;stroke-miterlimit:4;"
       d="M 380.664062 266.515625 L 377.164062 266.515625 "
       id="path274" />
    <path
       style="fill:none;stroke-width:0.8;stroke-linecap:butt;stroke-linejoin:round;stroke:rgb(0%,0%,0%);stroke-opacity:1;stroke-miterlimit:4;"
       d="M 380.664062 231.957031 L 377.164062 231.957031 "
       id="path276" />
    <path
       style="fill:none;stroke-width:0.8;stroke-linecap:butt;stroke-linejoin:round;stroke:rgb(0%,0%,0%);stroke-opacity:1;stroke-miterlimit:4;"
       d="M 380.664062 197.398438 L 377.164062 197.398438 "
       id="path278" />
    <path
       style="fill:none;stroke-width:0.8;stroke-linecap:butt;stroke-linejoin:round;stroke:rgb(0%,0%,0%);stroke-opacity:1;stroke-miterlimit:4;"
       d="M 380.664062 162.839844 L 377.164062 162.839844 "
       id="path280" />
    <path
       style="fill:none;stroke-width:0.8;stroke-linecap:butt;stroke-linejoin:round;stroke:rgb(0%,0%,0%);stroke-opacity:1;stroke-miterlimit:4;"
       d="M 380.664062 128.28125 L 377.164062 128.28125 "
       id="path282" />
    <path
       style="fill:none;stroke-width:0.8;stroke-linecap:butt;stroke-linejoin:round;stroke:rgb(0%,0%,0%);stroke-opacity:1;stroke-miterlimit:4;"
       d="M 380.664062 93.726562 L 377.164062 93.726562 "
       id="path284" />
    <path
       style="fill:none;stroke-width:0.8;stroke-linecap:square;stroke-linejoin:miter;stroke:rgb(0%,0%,0%);stroke-opacity:1;stroke-miterlimit:4;"
       d="M 380.664062 387.464844 L 380.664062 76.445312 "
       id="path286" />
    <g
       clip-path="url(#clip1)"
       clip-rule="nonzero"
       id="g290">
      <use
         xlink:href="#surface544"
         transform="matrix(1,0,0,1,65,9)"
         id="use288" />
    </g>
    <g
       clip-path="url(#clip8)"
       clip-rule="nonzero"
       id="g294">
      <use
         xlink:href="#surface553"
         transform="matrix(1,0,0,1,381,53)"
         id="use292" />
    </g>
    <g
       clip-path="url(#clip15)"
       clip-rule="nonzero"
       id="g298">
      <use
         xlink:href="#surface559"
         transform="matrix(1,0,0,1,84,76)"
         id="use296" />
    </g>
    <g
       clip-path="url(#clip19)"
       clip-rule="nonzero"
       id="g302">
      <use
         xlink:href="#surface565"
         transform="matrix(1,0,0,1,84,79)"
         id="use300" />
    </g>
    <path
       style=" stroke:none;fill-rule:nonzero;fill:rgb(0%,0%,0%);fill-opacity:1;"
       d="M 183.203125 421.445312 L 180.5 421.699219 L 180.5 422.285156 C 181.839844 422.285156 182.046875 422.421875 182.046875 423.503906 L 182.046875 435.539062 C 182.046875 436.394531 181.949219 436.507812 180.5 436.507812 L 180.5 437.09375 C 181.046875 437.046875 182.046875 437.046875 182.617188 437.046875 C 183.203125 437.046875 184.203125 437.046875 184.75 437.09375 L 184.75 436.507812 C 183.296875 436.507812 183.203125 436.417969 183.203125 435.539062 Z M 183.203125 421.445312 "
       id="path304" />
    <path
       style=" stroke:none;fill-rule:nonzero;fill:rgb(0%,0%,0%);fill-opacity:1;"
       d="M 195.1875 432.238281 C 195.1875 429.324219 193.070312 427.058594 190.597656 427.058594 C 188.121094 427.058594 186.011719 429.324219 186.011719 432.238281 C 186.011719 435.09375 188.121094 437.277344 190.597656 437.277344 C 193.070312 437.277344 195.1875 435.09375 195.1875 432.238281 Z M 190.597656 436.867188 C 189.53125 436.867188 188.625 436.234375 188.101562 435.34375 C 187.535156 434.328125 187.460938 433.054688 187.460938 432.054688 C 187.460938 431.09375 187.507812 429.917969 188.101562 428.894531 C 188.554688 428.148438 189.441406 427.417969 190.597656 427.417969 C 191.621094 427.417969 192.484375 427.984375 193.03125 428.78125 C 193.730469 429.847656 193.730469 431.347656 193.730469 432.054688 C 193.730469 432.9375 193.691406 434.296875 193.070312 435.390625 C 192.4375 436.433594 191.464844 436.867188 190.597656 436.867188 Z M 190.597656 436.867188 "
       id="path306" />
    <path
       style=" stroke:none;fill-rule:nonzero;fill:rgb(0%,0%,0%);fill-opacity:1;"
       d="M 198.335938 432.917969 C 198.765625 433.257812 199.515625 433.640625 200.425781 433.640625 C 202.21875 433.640625 203.761719 432.230469 203.761719 430.347656 C 203.761719 429.761719 203.582031 428.855469 202.898438 428.148438 C 203.535156 427.496094 204.464844 427.28125 204.988281 427.28125 C 205.078125 427.28125 205.21875 427.28125 205.332031 427.34375 C 205.238281 427.367188 205.035156 427.457031 205.035156 427.804688 C 205.035156 428.082031 205.238281 428.277344 205.53125 428.277344 C 205.871094 428.277344 206.054688 428.058594 206.054688 427.773438 C 206.054688 427.355469 205.714844 426.921875 204.988281 426.921875 C 204.082031 426.921875 203.285156 427.335938 202.644531 427.894531 C 201.964844 427.277344 201.148438 427.058594 200.425781 427.058594 C 198.628906 427.058594 197.082031 428.464844 197.082031 430.347656 C 197.082031 431.644531 197.835938 432.460938 198.0625 432.691406 C 197.382812 433.484375 197.382812 434.410156 197.382812 434.527344 C 197.382812 435.113281 197.605469 435.976562 198.378906 436.453125 C 197.199219 436.746094 196.265625 437.648438 196.265625 438.773438 C 196.265625 440.394531 198.425781 441.59375 201.015625 441.59375 C 203.515625 441.59375 205.757812 440.441406 205.757812 438.75 C 205.757812 435.683594 202.398438 435.683594 200.652344 435.683594 C 200.125 435.683594 199.199219 435.683594 199.085938 435.664062 C 198.378906 435.546875 197.90625 434.914062 197.90625 434.117188 C 197.90625 433.914062 197.90625 433.417969 198.335938 432.917969 Z M 200.425781 433.257812 C 198.425781 433.257812 198.425781 430.800781 198.425781 430.347656 C 198.425781 429.894531 198.425781 427.441406 200.425781 427.441406 C 202.421875 427.441406 202.421875 429.894531 202.421875 430.347656 C 202.421875 430.800781 202.421875 433.257812 200.425781 433.257812 Z M 201.015625 441.203125 C 198.742188 441.203125 197.179688 440.011719 197.179688 438.773438 C 197.179688 438.074219 197.566406 437.421875 198.0625 437.0625 C 198.628906 436.679688 198.859375 436.679688 200.40625 436.679688 C 202.265625 436.679688 204.851562 436.679688 204.851562 438.773438 C 204.851562 440.011719 203.285156 441.203125 201.015625 441.203125 Z M 201.015625 441.203125 "
       id="path308" />
    <path
       style=" stroke:none;fill-rule:nonzero;fill:rgb(0%,0%,0%);fill-opacity:1;"
       d="M 210.753906 432.179688 C 210.753906 431.851562 210.738281 431.851562 210.515625 431.851562 C 209.894531 432.535156 208.957031 432.757812 208.066406 432.757812 C 208.019531 432.757812 207.941406 432.757812 207.925781 432.804688 C 207.910156 432.835938 207.910156 432.867188 207.910156 433.203125 C 208.402344 433.203125 209.230469 433.105469 209.863281 432.726562 L 209.863281 441.117188 C 209.863281 441.675781 209.832031 441.863281 208.464844 441.863281 L 207.988281 441.863281 L 207.988281 442.261719 C 208.753906 442.261719 209.542969 442.261719 210.308594 442.261719 C 211.070312 442.261719 211.863281 442.261719 212.628906 442.261719 L 212.628906 441.863281 L 212.152344 441.863281 C 210.785156 441.863281 210.753906 441.6875 210.753906 441.121094 Z M 210.753906 432.179688 "
       id="path310" />
    <path
       style=" stroke:none;fill-rule:nonzero;fill:rgb(0%,0%,0%);fill-opacity:1;"
       d="M 220.492188 437.230469 C 220.492188 436.261719 220.476562 434.609375 219.8125 433.34375 C 219.21875 432.226562 218.28125 431.835938 217.460938 431.835938 C 216.695312 431.835938 215.726562 432.179688 215.125 433.328125 C 214.484375 434.515625 214.421875 435.992188 214.421875 437.230469 C 214.421875 438.136719 214.4375 439.511719 214.929688 440.722656 C 215.609375 442.355469 216.835938 442.578125 217.460938 442.578125 C 218.1875 442.578125 219.304688 442.277344 219.953125 440.769531 C 220.429688 439.671875 220.492188 438.386719 220.492188 437.230469 Z M 217.460938 442.324219 C 216.4375 442.324219 215.835938 441.449219 215.609375 440.242188 C 215.4375 439.308594 215.4375 437.941406 215.4375 437.054688 C 215.4375 435.832031 215.4375 434.816406 215.648438 433.84375 C 215.945312 432.5 216.835938 432.085938 217.460938 432.085938 C 218.109375 432.085938 218.953125 432.515625 219.257812 433.8125 C 219.460938 434.71875 219.476562 435.785156 219.476562 437.054688 C 219.476562 438.089844 219.476562 439.355469 219.289062 440.292969 C 218.953125 442.027344 218.015625 442.324219 217.460938 442.324219 Z M 217.460938 442.324219 "
       id="path312" />
    <path
       style=" stroke:none;fill-rule:nonzero;fill:rgb(0%,0%,0%);fill-opacity:1;"
       d="M 228.171875 442.585938 C 228.171875 442.566406 228.171875 442.519531 228.101562 442.453125 C 227.058594 441.394531 224.261719 438.492188 224.261719 431.4375 C 224.261719 424.386719 227.011719 421.511719 228.125 420.378906 C 228.125 420.359375 228.171875 420.3125 228.171875 420.242188 C 228.171875 420.175781 228.101562 420.128906 228.015625 420.128906 C 227.761719 420.128906 225.828125 421.804688 224.71875 424.296875 C 223.582031 426.804688 223.261719 429.246094 223.261719 431.414062 C 223.261719 433.042969 223.425781 435.804688 224.789062 438.722656 C 225.875 441.074219 227.742188 442.722656 228.015625 442.722656 C 228.125 442.722656 228.171875 442.683594 228.171875 442.585938 Z M 228.171875 442.585938 "
       id="path314" />
    <path
       style=" stroke:none;fill-rule:nonzero;fill:rgb(0%,0%,0%);fill-opacity:1;"
       d="M 239.207031 421.824219 C 239.207031 421.421875 239.1875 421.394531 239.050781 421.394531 C 238.914062 421.394531 238.867188 421.488281 238.78125 421.6875 L 238.097656 423.1875 C 237.234375 421.945312 235.917969 421.378906 234.488281 421.378906 C 232.167969 421.378906 230.308594 423.207031 230.308594 425.507812 C 230.308594 426.203125 230.464844 427.199219 231.242188 428.140625 C 232.078125 429.179688 232.875 429.355469 234.691406 429.832031 C 235.375 430.015625 236.507812 430.308594 236.734375 430.398438 C 238.027344 430.9375 238.710938 432.289062 238.710938 433.550781 C 238.710938 435.175781 237.550781 436.914062 235.578125 436.914062 C 233.148438 436.914062 230.875 435.5625 230.714844 432.394531 C 230.695312 432.03125 230.675781 432.011719 230.511719 432.011719 C 230.328125 432.011719 230.308594 432.03125 230.308594 432.488281 L 230.308594 437.050781 C 230.308594 437.453125 230.328125 437.480469 230.464844 437.480469 C 230.628906 437.480469 230.675781 437.367188 230.988281 436.664062 C 231.015625 436.59375 231.015625 436.554688 231.445312 435.695312 C 232.574219 437.1875 234.488281 437.5 235.578125 437.5 C 238.054688 437.5 239.804688 435.449219 239.804688 433.058594 C 239.804688 431.886719 239.371094 430.984375 239.125 430.578125 C 238.164062 429.136719 237.144531 428.863281 236.054688 428.597656 C 235.898438 428.523438 235.851562 428.523438 234.578125 428.214844 C 233.351562 427.894531 232.828125 427.738281 232.261719 427.125 C 231.628906 426.433594 231.398438 425.707031 231.398438 424.988281 C 231.398438 423.519531 232.574219 421.917969 234.507812 421.917969 C 236.917969 421.917969 238.417969 423.617188 238.757812 426.429688 C 238.824219 426.835938 238.847656 426.859375 239.007812 426.859375 C 239.207031 426.859375 239.207031 426.789062 239.207031 426.40625 Z M 239.207031 421.824219 "
       id="path316" />
    <path
       style=" stroke:none;fill-rule:nonzero;fill:rgb(0%,0%,0%);fill-opacity:1;"
       d="M 244.273438 431.734375 C 244.273438 429.554688 245.199219 427.507812 246.90625 427.507812 C 247.0625 427.507812 247.226562 427.535156 247.382812 427.601562 C 247.382812 427.601562 246.882812 427.765625 246.882812 428.34375 C 246.882812 428.894531 247.316406 429.121094 247.65625 429.121094 C 247.929688 429.121094 248.425781 428.964844 248.425781 428.324219 C 248.425781 427.597656 247.699219 427.144531 246.929688 427.144531 C 245.199219 427.144531 244.449219 428.828125 244.226562 429.625 L 244.203125 429.625 L 244.203125 427.144531 L 241.570312 427.398438 L 241.570312 427.984375 C 242.910156 427.984375 243.113281 428.125 243.113281 429.214844 L 243.113281 435.53125 C 243.113281 436.394531 243.019531 436.507812 241.570312 436.507812 L 241.570312 437.09375 C 242.113281 437.046875 243.15625 437.046875 243.75 437.046875 C 244.410156 437.046875 245.566406 437.046875 246.179688 437.09375 L 246.179688 436.507812 C 244.542969 436.507812 244.273438 436.507812 244.273438 435.484375 Z M 244.273438 431.734375 "
       id="path318" />
    <path
       style=" stroke:none;fill-rule:nonzero;fill:rgb(0%,0%,0%);fill-opacity:1;"
       d="M 258.152344 420.917969 C 258.261719 420.628906 258.261719 420.582031 258.261719 420.535156 C 258.261719 420.269531 258.058594 420.128906 257.878906 420.128906 C 257.601562 420.128906 257.515625 420.3125 257.425781 420.582031 L 250.066406 441.933594 C 249.949219 442.230469 249.949219 442.273438 249.949219 442.320312 C 249.949219 442.59375 250.15625 442.722656 250.339844 442.722656 C 250.609375 442.722656 250.703125 442.546875 250.792969 442.273438 Z M 258.152344 420.917969 "
       id="path320" />
    <path
       style=" stroke:none;fill-rule:nonzero;fill:rgb(0%,0%,0%);fill-opacity:1;"
       d="M 271.039062 422.039062 C 271.039062 421.605469 271.015625 421.605469 270.546875 421.605469 L 260.890625 421.605469 L 260.660156 426.585938 L 261.070312 426.585938 C 261.207031 424.007812 261.886719 422.175781 265.570312 422.175781 L 269.316406 422.175781 L 260.527344 436.324219 C 260.367188 436.574219 260.367188 436.59375 260.367188 436.753906 C 260.367188 437.046875 260.410156 437.046875 260.867188 437.046875 L 270.839844 437.046875 L 271.152344 431.136719 L 270.746094 431.136719 C 270.546875 434.105469 270.382812 436.417969 266.042969 436.417969 L 262.09375 436.417969 Z M 271.039062 422.039062 "
       id="path322" />
    <path
       style=" stroke:none;fill-rule:nonzero;fill:rgb(0%,0%,0%);fill-opacity:1;"
       d="M 275.515625 431.734375 C 275.515625 429.554688 276.449219 427.507812 278.152344 427.507812 C 278.308594 427.507812 278.472656 427.535156 278.628906 427.601562 C 278.628906 427.601562 278.128906 427.765625 278.128906 428.34375 C 278.128906 428.894531 278.558594 429.121094 278.90625 429.121094 C 279.171875 429.121094 279.675781 428.964844 279.675781 428.324219 C 279.675781 427.597656 278.949219 427.144531 278.179688 427.144531 C 276.449219 427.144531 275.699219 428.828125 275.46875 429.625 L 275.449219 429.625 L 275.449219 427.144531 L 272.8125 427.398438 L 272.8125 427.984375 C 274.15625 427.984375 274.359375 428.125 274.359375 429.214844 L 274.359375 435.53125 C 274.359375 436.394531 274.269531 436.507812 272.8125 436.507812 L 272.8125 437.09375 C 273.359375 437.046875 274.40625 437.046875 275 437.046875 C 275.652344 437.046875 276.816406 437.046875 277.429688 437.09375 L 277.429688 436.507812 C 275.789062 436.507812 275.515625 436.507812 275.515625 435.484375 Z M 275.515625 431.734375 "
       id="path324" />
    <path
       style=" stroke:none;fill-rule:nonzero;fill:rgb(0%,0%,0%);fill-opacity:1;"
       d="M 286.125 431.4375 C 286.125 429.808594 285.964844 427.050781 284.605469 424.132812 C 283.515625 421.777344 281.652344 420.128906 281.382812 420.128906 C 281.308594 420.128906 281.222656 420.152344 281.222656 420.269531 C 281.222656 420.308594 281.242188 420.335938 281.269531 420.378906 C 282.359375 421.515625 285.128906 424.386719 285.128906 431.425781 C 285.128906 438.492188 282.378906 441.367188 281.269531 442.503906 C 281.242188 442.546875 281.222656 442.570312 281.222656 442.613281 C 281.222656 442.722656 281.308594 442.722656 281.382812 442.722656 C 281.628906 442.722656 283.5625 441.054688 284.671875 438.558594 C 285.808594 436.050781 286.125 433.609375 286.125 431.4375 Z M 286.125 431.4375 "
       id="path326" />
  </g>
</svg>
