<?xml version="1.0" encoding="UTF-8" standalone="no"?>
<svg
   xmlns:dc="http://purl.org/dc/elements/1.1/"
   xmlns:cc="http://creativecommons.org/ns#"
   xmlns:rdf="http://www.w3.org/1999/02/22-rdf-syntax-ns#"
   xmlns:svg="http://www.w3.org/2000/svg"
   xmlns="http://www.w3.org/2000/svg"
   xmlns:xlink="http://www.w3.org/1999/xlink"
   xmlns:sodipodi="http://sodipodi.sourceforge.net/DTD/sodipodi-0.dtd"
   xmlns:inkscape="http://www.inkscape.org/namespaces/inkscape"
   height="288pt"
   version="1.1"
   viewBox="0 0 432 288"
   width="432pt"
   id="svg721"
   sodipodi:docname="new2.svg"
   inkscape:version="1.0.1 (3bc2e813f5, 2020-09-07)">
  <sodipodi:namedview
     pagecolor="#ffffff"
     bordercolor="#666666"
     borderopacity="1"
     objecttolerance="10"
     gridtolerance="10"
     guidetolerance="10"
     inkscape:pageopacity="0"
     inkscape:pageshadow="2"
     inkscape:window-width="1920"
     inkscape:window-height="1015"
     id="namedview723"
     showgrid="false"
     inkscape:zoom="1.953125"
     inkscape:cx="288"
     inkscape:cy="192"
     inkscape:window-x="0"
     inkscape:window-y="0"
     inkscape:window-maximized="1"
     inkscape:current-layer="svg721" />
  <metadata
     id="metadata2">
    <rdf:RDF>
      <cc:Work>
        <dc:type
           rdf:resource="http://purl.org/dc/dcmitype/StillImage" />
        <dc:date>2022-06-05T20:18:23.172819</dc:date>
        <dc:format>image/svg+xml</dc:format>
        <dc:creator>
          <cc:Agent>
            <dc:title>Matplotlib v3.3.4, https://matplotlib.org/</dc:title>
          </cc:Agent>
        </dc:creator>
      </cc:Work>
    </rdf:RDF>
  </metadata>
  <defs
     id="defs6">
    <style
       type="text/css"
       id="style4">*{stroke-linecap:butt;stroke-linejoin:round;}</style>
    <marker
       inkscape:isstock="true"
       style="overflow:visible"
       id="Arrow1Lend"
       refX="0"
       refY="0"
       orient="auto"
       inkscape:stockid="Arrow1Lend">
      <path
         transform="matrix(-0.8,0,0,-0.8,-10,0)"
         style="fill:#000000;fill-opacity:1;fill-rule:evenodd;stroke:#000000;stroke-width:1pt;stroke-opacity:1"
         d="M 0,0 5,-5 -12.5,0 5,5 Z"
         id="path1482" />
    </marker>
    <marker
       inkscape:isstock="true"
       style="overflow:visible"
       id="Arrow1Lend-3"
       refX="0"
       refY="0"
       orient="auto"
       inkscape:stockid="Arrow1Lend">
      <path
         transform="matrix(-0.8,0,0,-0.8,-10,0)"
         style="fill:#000000;fill-opacity:1;fill-rule:evenodd;stroke:#000000;stroke-width:1pt;stroke-opacity:1"
         d="M 0,0 5,-5 -12.5,0 5,5 Z"
         id="path1482-6"
         inkscape:connector-curvature="0" />
    </marker>
    <marker
       inkscape:isstock="true"
       style="overflow:visible"
       id="Arrow1Lend-5"
       refX="0"
       refY="0"
       orient="auto"
       inkscape:stockid="Arrow1Lend">
      <path
         transform="matrix(-0.8,0,0,-0.8,-10,0)"
         style="fill:#000000;fill-opacity:1;fill-rule:evenodd;stroke:#000000;stroke-width:1pt;stroke-opacity:1"
         d="M 0,0 5,-5 -12.5,0 5,5 Z"
         id="path1482-3"
         inkscape:connector-curvature="0" />
    </marker>
  </defs>
  <g
     id="figure_1">
    <g
       id="patch_1">
      <path
         d="M 0 288  L 432 288  L 432 0  L 0 0  z "
         style="fill:#ffffff;"
         id="path8" />
    </g>
    <g
       id="axes_1">
      <g
         id="patch_2">
        <path
           d="M 54 252  L 388.8 252  L 388.8 34.56  L 54 34.56  z "
           style="fill:#ffffff;"
           id="path11" />
      </g>
      <g
         id="PolyCollection_1">
        <path
           clip-path="url(#pd1f7f37449)"
           d="M -213.84 230.05322  L -213.84 202.538319  L -202.68 8.104889  L -191.52 453.999191  L -180.36 441.954118  L -169.2 460.019959  L -158.04 185.989101  L -146.88 415.275724  L -135.72 241.095076  L -124.56 526.438756  L -113.4 241.983537  L -102.24 360.27254  L -91.08 241.930658  L -79.92 270.713529  L -68.76 225.068105  L -57.6 252.114545  L -46.44 218.10029  L -35.28 232.019183  L -24.12 215.872159  L -12.96 240.035309  L -1.8 204.009197  L 9.36 232.830978  L 20.52 177.910292  L 31.68 177.881272  L 42.84 172.619547  L 54 233.773376  L 65.16 157.144892  L 76.32 186.096659  L 87.48 155.081841  L 98.64 159.079637  L 109.8 112.124199  L 120.96 131.407237  L 132.12 110.816612  L 143.28 138.294441  L 154.44 96.619513  L 165.6 113.139659  L 176.76 94.965997  L 187.92 93.527658  L 199.08 62.817392  L 210.24 89.001203  L 221.4 58.380388  L 232.56 78.149342  L 243.72 47.924257  L 243.72 52.709325  L 243.72 52.709325  L 232.56 98.105708  L 221.4 66.701523  L 210.24 103.204692  L 199.08 90.787676  L 187.92 115.149446  L 176.76 113.433827  L 165.6 126.78017  L 154.44 108.597236  L 143.28 147.671146  L 132.12 118.999738  L 120.96 142.337158  L 109.8 121.407046  L 98.64 164.894479  L 87.48 161.658358  L 76.32 188.993516  L 65.16 164.17536  L 54 240.683022  L 42.84 184.74441  L 31.68 183.161534  L 20.52 179.881315  L 9.36 233.582408  L -1.8 206.087283  L -12.96 245.251347  L -24.12 217.186264  L -35.28 233.180829  L -46.44 219.108543  L -57.6 254.725887  L -68.76 225.626448  L -79.92 275.213792  L -91.08 245.189928  L -102.24 364.679065  L -113.4 247.276165  L -124.56 542.682713  L -135.72 246.887336  L -146.88 432.096354  L -158.04 186.758042  L -169.2 478.56332  L -180.36 457.529124  L -191.52 461.667179  L -202.68 8.7064  L -213.84 230.05322  z "
           style="fill:#b90f22;fill-opacity:0.2;stroke:#b90f22;stroke-opacity:0.2;"
           id="path14" />
        <path
           clip-path="url(#pd1f7f37449)"
           d="M 266.04 73.630917  L 266.04 65.178733  L 277.2 73.143357  L 288.36 69.515633  L 299.52 83.789043  L 310.68 103.884791  L 321.84 142.468733  L 333 141.614881  L 344.16 170.129783  L 355.32 176.055285  L 366.48 183.371421  L 377.64 209.314946  L 388.8 357.353981  L 399.96 465.580162  L 411.12 533.136948  L 422.28 578.65397  L 433.44 615.097114  L 444.6 626.866613  L 444.6 658.859008  L 444.6 658.859008  L 433.44 665.834254  L 422.28 634.435486  L 411.12 599.932219  L 399.96 495.804962  L 388.8 378.897934  L 377.64 235.389816  L 366.48 209.439205  L 355.32 201.786201  L 344.16 196.521219  L 333 163.373172  L 321.84 164.319444  L 310.68 121.418448  L 299.52 102.444943  L 288.36 88.032498  L 277.2 82.348823  L 266.04 73.630917  z "
           style="fill:#b90f22;fill-opacity:0.2;stroke:#b90f22;stroke-opacity:0.2;"
           id="path16" />
      </g>
      <g
         id="PolyCollection_2">
        <path
           clip-path="url(#pd1f7f37449)"
           d="M -213.84 221.166416  L -213.84 206.673818  L -202.68 8.225911  L -191.52 455.588661  L -180.36 445.260439  L -169.2 463.411349  L -158.04 186.163461  L -146.88 420.197951  L -135.72 242.209467  L -124.56 529.327667  L -113.4 242.978441  L -102.24 361.04793  L -91.08 242.479607  L -79.92 271.548658  L -68.76 225.164918  L -57.6 252.568254  L -46.44 218.47812  L -35.28 232.111557  L -24.12 215.955031  L -12.96 241.081968  L -1.8 205.082842  L 9.36 232.894922  L 20.52 178.416743  L 31.68 178.371435  L 42.84 175.827479  L 54 234.831137  L 65.16 158.644481  L 76.32 186.316804  L 87.48 156.581849  L 98.64 160.337451  L 109.8 113.321378  L 120.96 133.275406  L 132.12 112.513907  L 143.28 140.391147  L 154.44 98.970388  L 165.6 116.029984  L 176.76 99.092239  L 187.92 96.994197  L 199.08 67.054382  L 210.24 92.776327  L 221.4 59.817897  L 232.56 80.993219  L 243.72 48.914745  L 243.72 51.083682  L 243.72 51.083682  L 232.56 91.239165  L 221.4 64.501079  L 210.24 99.610627  L 199.08 81.725309  L 187.92 108.135146  L 176.76 108.398673  L 165.6 122.906329  L 154.44 104.993739  L 143.28 144.790401  L 132.12 116.639584  L 120.96 137.978326  L 109.8 117.182724  L 98.64 163.275658  L 87.48 159.836672  L 76.32 187.440535  L 65.16 162.080883  L 54 238.264645  L 42.84 182.166752  L 31.68 180.863455  L 20.52 179.448934  L 9.36 233.135861  L -1.8 205.987437  L -12.96 243.762588  L -24.12 216.553802  L -35.28 232.635187  L -46.44 218.93653  L -57.6 253.854225  L -68.76 225.425668  L -79.92 273.940005  L -91.08 244.066543  L -102.24 363.206002  L -113.4 245.585597  L -124.56 537.466099  L -135.72 245.111351  L -146.88 428.844519  L -158.04 186.518866  L -169.2 472.841898  L -180.36 453.321871  L -191.52 459.276976  L -202.68 8.524258  L -213.84 221.166416  z "
           style="fill:#b90f22;fill-opacity:0.5;stroke:#b90f22;stroke-opacity:0.5;"
           id="path19" />
        <path
           clip-path="url(#pd1f7f37449)"
           d="M 266.04 70.708943  L 266.04 66.943782  L 277.2 74.883181  L 288.36 75.522607  L 299.52 89.184102  L 310.68 108.867249  L 321.84 148.650443  L 333 147.84348  L 344.16 177.518424  L 355.32 184.20626  L 366.48 191.5984  L 377.64 217.368974  L 388.8 363.704457  L 399.96 472.874504  L 411.12 546.705431  L 422.28 590.925753  L 433.44 629.638692  L 444.6 637.036002  L 444.6 651.432053  L 444.6 651.432053  L 433.44 656.61778  L 422.28 617.989938  L 411.12 579.474956  L 399.96 487.184894  L 388.8 374.057677  L 377.64 229.887196  L 366.48 204.015813  L 355.32 196.571411  L 344.16 190.348978  L 333 158.374076  L 321.84 159.202747  L 310.68 117.484721  L 299.52 98.661281  L 288.36 84.765858  L 277.2 79.363677  L 266.04 70.708943  z "
           style="fill:#b90f22;fill-opacity:0.5;stroke:#b90f22;stroke-opacity:0.5;"
           id="path21" />
      </g>
      <g
         id="matplotlib.axis_1">
        <g
           id="xtick_1">
          <g
             id="line2d_1">
            <defs
               id="defs25">
              <path
                 d="M 0 0  L 0 -3.5  "
                 id="m15a8191692"
                 style="stroke:#000000;stroke-width:0.8;" />
            </defs>
            <g
               id="g29">
              <use
                 style="stroke:#000000;stroke-width:0.8;"
                 x="54"
                 xlink:href="#m15a8191692"
                 y="252"
                 id="use27" />
            </g>
          </g>
          <g
             id="line2d_2">
            <defs
               id="defs33">
              <path
                 d="M 0 0  L 0 3.5  "
                 id="m90f20febcf"
                 style="stroke:#000000;stroke-width:0.8;" />
            </defs>
            <g
               id="g37">
              <use
                 style="stroke:#000000;stroke-width:0.8;"
                 x="54"
                 xlink:href="#m90f20febcf"
                 y="34.56"
                 id="use35" />
            </g>
          </g>
          <g
             id="text_1">
            <!-- $\mathdefault{25}$ -->
            <g
               transform="translate(46.683762 265.877725)scale(0.15 -0.15)"
               id="g48">
              <defs
                 id="defs42">
                <path
                   d="M 41.703125 15.453125  L 39.90625 15.453125  C 38.90625 8.375 38.09375 7.171875 37.703125 6.5625  C 37.203125 5.765625 30 5.765625 28.59375 5.765625  L 9.40625 5.765625  C 13 9.671875 20 16.75 28.5 24.953125  C 34.59375 30.734375 41.703125 37.53125 41.703125 47.421875  C 41.703125 59.21875 32.296875 66 21.796875 66  C 10.796875 66 4.09375 56.3125 4.09375 47.34375  C 4.09375 43.4375 7 42.9375 8.203125 42.9375  C 9.203125 42.9375 12.203125 43.546875 12.203125 47.03125  C 12.203125 50.109375 9.59375 51 8.203125 51  C 7.59375 51 7 50.90625 6.59375 50.703125  C 8.5 59.21875 14.296875 63.40625 20.40625 63.40625  C 29.09375 63.40625 34.796875 56.515625 34.796875 47.421875  C 34.796875 38.734375 29.703125 31.25 24 24.75  L 4.09375 2.28125  L 4.09375 0  L 39.296875 0  z "
                   id="CMR17-50" />
                <path
                   d="M 11.40625 57.6875  C 12.40625 57.28125 16.5 56 20.703125 56  C 30 56 35.09375 61.109375 38 64.0625  C 38 64.953125 38 65.5 37.40625 65.5  C 37.296875 65.5 37.09375 65.5 36.296875 65.046875  C 32.796875 63.40625 28.703125 62.078125 23.703125 62.078125  C 20.703125 62.078125 16.203125 62.484375 11.296875 64.671875  C 10.203125 65.171875 10 65.171875 9.90625 65.171875  C 9.40625 65.171875 9.296875 65.0625 9.296875 63.078125  L 9.296875 34.421875  C 9.296875 32.640625 9.296875 32.140625 10.296875 32.140625  C 10.796875 32.140625 11 32.34375 11.5 33.03125  C 14.703125 37.515625 19.09375 39.40625 24.09375 39.40625  C 27.59375 39.40625 35.09375 37.21875 35.09375 20.140625  C 35.09375 16.953125 35.09375 11.171875 32.09375 6.578125  C 29.59375 2.484375 25.703125 0.390625 21.40625 0.390625  C 14.796875 0.390625 8.09375 5 6.296875 12.71875  C 6.703125 12.609375 7.5 12.421875 7.90625 12.421875  C 9.203125 12.421875 11.703125 13.125 11.703125 16.21875  C 11.703125 18.90625 9.796875 20 7.90625 20  C 5.59375 20 4.09375 18.59375 4.09375 15.796875  C 4.09375 7.09375 11 -2 21.59375 -2  C 31.90625 -2 41.703125 6.875 41.703125 19.75  C 41.703125 31.71875 33.90625 41 24.203125 41  C 19.09375 41 14.796875 39.109375 11.40625 35.53125  z "
                   id="CMR17-53" />
              </defs>
              <use
                 transform="scale(0.996264)"
                 xlink:href="#CMR17-50"
                 id="use44" />
              <use
                 transform="translate(45.690477 0)scale(0.996264)"
                 xlink:href="#CMR17-53"
                 id="use46" />
            </g>
          </g>
        </g>
        <g
           id="xtick_2">
          <g
             id="line2d_3">
            <g
               id="g54">
              <use
                 style="stroke:#000000;stroke-width:0.8;"
                 x="109.8"
                 xlink:href="#m15a8191692"
                 y="252"
                 id="use52" />
            </g>
          </g>
          <g
             id="line2d_4">
            <g
               id="g59">
              <use
                 style="stroke:#000000;stroke-width:0.8;"
                 x="109.8"
                 xlink:href="#m90f20febcf"
                 y="34.56"
                 id="use57" />
            </g>
          </g>
          <g
             id="text_2">
            <!-- $\mathdefault{30}$ -->
            <g
               transform="translate(102.483762 265.877725)scale(0.15 -0.15)"
               id="g70">
              <defs
                 id="defs64">
                <path
                   d="M 22.09375 33.703125  C 31 33.703125 34.90625 25.96875 34.90625 17.03125  C 34.90625 5 28.5 0.390625 22.703125 0.390625  C 17.40625 0.390625 8.796875 3.03125 6.09375 10.828125  C 6.59375 10.625 7.09375 10.625 7.59375 10.625  C 10 10.625 11.796875 12.21875 11.796875 14.8125  C 11.796875 17.703125 9.59375 19 7.59375 19  C 5.90625 19 3.296875 18.203125 3.296875 14.46875  C 3.296875 5.234375 12.296875 -2 22.90625 -2  C 34 -2 42.5 6.71875 42.5 16.953125  C 42.5 26.671875 34.5 33.703125 25 34.796875  C 32.59375 36.375 39.90625 43.0625 39.90625 52.015625  C 39.90625 59.6875 32 65.296875 23 65.296875  C 13.90625 65.296875 5.90625 59.828125 5.90625 52.015625  C 5.90625 48.59375 8.5 48 9.796875 48  C 11.90625 48 13.703125 49.296875 13.703125 51.890625  C 13.703125 54.46875 11.90625 55.765625 9.796875 55.765625  C 9.40625 55.765625 8.90625 55.765625 8.5 55.578125  C 11.40625 61.859375 19.296875 63 22.796875 63  C 26.296875 63 32.90625 61.328125 32.90625 51.875  C 32.90625 49.109375 32.5 44.1875 29.09375 39.84375  C 26.09375 36 22.703125 36 19.40625 35.6875  C 18.90625 35.6875 16.59375 35.453125 16.203125 35.453125  C 15.5 35.359375 15.09375 35.265625 15.09375 34.5  C 15.09375 33.796875 15.203125 33.703125 17.203125 33.703125  z "
                   id="CMR17-51" />
                <path
                   d="M 42 31.640625  C 42 37.75 41.90625 48.125 37.703125 56.109375  C 34 63.109375 28.09375 65.59375 22.90625 65.59375  C 18.09375 65.59375 12 63.40625 8.203125 56.203125  C 4.203125 48.71875 3.796875 39.4375 3.796875 31.640625  C 3.796875 25.953125 3.90625 17.28125 7 9.671875  C 11.296875 -0.609375 19 -2 22.90625 -2  C 27.5 -2 34.5 -0.109375 38.59375 9.375  C 41.59375 16.28125 42 24.359375 42 31.640625  z M 22.90625 -0.40625  C 16.5 -0.40625 12.703125 5.078125 11.296875 12.6875  C 10.203125 18.5625 10.203125 27.15625 10.203125 32.75  C 10.203125 40.4375 10.203125 46.828125 11.5 52.921875  C 13.40625 61.390625 19 64 22.90625 64  C 27 64 32.296875 61.296875 34.203125 53.125  C 35.5 47.4375 35.59375 40.734375 35.59375 32.75  C 35.59375 26.25 35.59375 18.265625 34.40625 12.375  C 32.296875 1.484375 26.40625 -0.40625 22.90625 -0.40625  z "
                   id="CMR17-48" />
              </defs>
              <use
                 transform="scale(0.996264)"
                 xlink:href="#CMR17-51"
                 id="use66" />
              <use
                 transform="translate(45.690477 0)scale(0.996264)"
                 xlink:href="#CMR17-48"
                 id="use68" />
            </g>
          </g>
        </g>
        <g
           id="xtick_3">
          <g
             id="line2d_5">
            <g
               id="g76">
              <use
                 style="stroke:#000000;stroke-width:0.8;"
                 x="165.6"
                 xlink:href="#m15a8191692"
                 y="252"
                 id="use74" />
            </g>
          </g>
          <g
             id="line2d_6">
            <g
               id="g81">
              <use
                 style="stroke:#000000;stroke-width:0.8;"
                 x="165.6"
                 xlink:href="#m90f20febcf"
                 y="34.56"
                 id="use79" />
            </g>
          </g>
          <g
             id="text_3">
            <!-- $\mathdefault{35}$ -->
            <g
               transform="translate(158.283762 265.877725)scale(0.15 -0.15)"
               id="g88">
              <use
                 transform="scale(0.996264)"
                 xlink:href="#CMR17-51"
                 id="use84" />
              <use
                 transform="translate(45.690477 0)scale(0.996264)"
                 xlink:href="#CMR17-53"
                 id="use86" />
            </g>
          </g>
        </g>
        <g
           id="xtick_4">
          <g
             id="line2d_7">
            <g
               id="g94">
              <use
                 style="stroke:#000000;stroke-width:0.8;"
                 x="221.4"
                 xlink:href="#m15a8191692"
                 y="252"
                 id="use92" />
            </g>
          </g>
          <g
             id="line2d_8">
            <g
               id="g99">
              <use
                 style="stroke:#000000;stroke-width:0.8;"
                 x="221.4"
                 xlink:href="#m90f20febcf"
                 y="34.56"
                 id="use97" />
            </g>
          </g>
          <g
             id="text_4">
            <!-- $\mathdefault{40}$ -->
            <g
               transform="translate(214.083762 265.877725)scale(0.15 -0.15)"
               id="g109">
              <defs
                 id="defs103">
                <path
                   d="M 33.59375 64.40625  C 33.59375 66.5 33.5 66.5 31.703125 66.5  L 2 19.59375  L 2 17  L 27.796875 17  L 27.796875 7.140625  C 27.796875 3.5 27.59375 2.5 20.59375 2.5  L 18.703125 2.5  L 18.703125 0  C 21.90625 0 27.296875 0 30.703125 0  C 34.09375 0 39.5 0 42.703125 0  L 42.703125 2.5  L 40.796875 2.5  C 33.796875 2.5 33.59375 3.5 33.59375 7.140625  L 33.59375 17  L 43.796875 17  L 43.796875 19.59375  L 33.59375 19.59375  z M 28.09375 57.859375  L 28.09375 19.59375  L 4 19.59375  z "
                   id="CMR17-52" />
              </defs>
              <use
                 transform="scale(0.996264)"
                 xlink:href="#CMR17-52"
                 id="use105" />
              <use
                 transform="translate(45.690477 0)scale(0.996264)"
                 xlink:href="#CMR17-48"
                 id="use107" />
            </g>
          </g>
        </g>
        <g
           id="xtick_5">
          <g
             id="line2d_9">
            <g
               id="g115">
              <use
                 style="stroke:#000000;stroke-width:0.8;"
                 x="277.2"
                 xlink:href="#m15a8191692"
                 y="252"
                 id="use113" />
            </g>
          </g>
          <g
             id="line2d_10">
            <g
               id="g120">
              <use
                 style="stroke:#000000;stroke-width:0.8;"
                 x="277.2"
                 xlink:href="#m90f20febcf"
                 y="34.56"
                 id="use118" />
            </g>
          </g>
          <g
             id="text_5">
            <!-- $\mathdefault{45}$ -->
            <g
               transform="translate(269.883762 265.877725)scale(0.15 -0.15)"
               id="g127">
              <use
                 transform="scale(0.996264)"
                 xlink:href="#CMR17-52"
                 id="use123" />
              <use
                 transform="translate(45.690477 0)scale(0.996264)"
                 xlink:href="#CMR17-53"
                 id="use125" />
            </g>
          </g>
        </g>
        <g
           id="xtick_6">
          <g
             id="line2d_11">
            <g
               id="g133">
              <use
                 style="stroke:#000000;stroke-width:0.8;"
                 x="333"
                 xlink:href="#m15a8191692"
                 y="252"
                 id="use131" />
            </g>
          </g>
          <g
             id="line2d_12">
            <g
               id="g138">
              <use
                 style="stroke:#000000;stroke-width:0.8;"
                 x="333"
                 xlink:href="#m90f20febcf"
                 y="34.56"
                 id="use136" />
            </g>
          </g>
          <g
             id="text_6">
            <!-- $\mathdefault{50}$ -->
            <g
               transform="translate(325.683762 265.877725)scale(0.15 -0.15)"
               id="g145">
              <use
                 transform="scale(0.996264)"
                 xlink:href="#CMR17-53"
                 id="use141" />
              <use
                 transform="translate(45.690477 0)scale(0.996264)"
                 xlink:href="#CMR17-48"
                 id="use143" />
            </g>
          </g>
        </g>
        <g
           id="xtick_7">
          <g
             id="line2d_13">
            <g
               id="g151">
              <use
                 style="stroke:#000000;stroke-width:0.8;"
                 x="388.8"
                 xlink:href="#m15a8191692"
                 y="252"
                 id="use149" />
            </g>
          </g>
          <g
             id="line2d_14">
            <g
               id="g156">
              <use
                 style="stroke:#000000;stroke-width:0.8;"
                 x="388.8"
                 xlink:href="#m90f20febcf"
                 y="34.56"
                 id="use154" />
            </g>
          </g>
          <g
             id="text_7">
            <!-- $\mathdefault{55}$ -->
            <g
               transform="translate(381.483762 265.877725)scale(0.15 -0.15)"
               id="g163">
              <use
                 transform="scale(0.996264)"
                 xlink:href="#CMR17-53"
                 id="use159" />
              <use
                 transform="translate(45.690477 0)scale(0.996264)"
                 xlink:href="#CMR17-53"
                 id="use161" />
            </g>
          </g>
        </g>
        <g
           id="xtick_8">
          <g
             id="line2d_15">
            <defs
               id="defs168">
              <path
                 d="M 0 0  L 0 -2  "
                 id="m50d9a35521"
                 style="stroke:#000000;stroke-width:0.6;" />
            </defs>
            <g
               id="g172">
              <use
                 style="stroke:#000000;stroke-width:0.6;"
                 x="65.16"
                 xlink:href="#m50d9a35521"
                 y="252"
                 id="use170" />
            </g>
          </g>
          <g
             id="line2d_16">
            <defs
               id="defs176">
              <path
                 d="M 0 0  L 0 2  "
                 id="m1224b8165d"
                 style="stroke:#000000;stroke-width:0.6;" />
            </defs>
            <g
               id="g180">
              <use
                 style="stroke:#000000;stroke-width:0.6;"
                 x="65.16"
                 xlink:href="#m1224b8165d"
                 y="34.56"
                 id="use178" />
            </g>
          </g>
        </g>
        <g
           id="xtick_9">
          <g
             id="line2d_17">
            <g
               id="g186">
              <use
                 style="stroke:#000000;stroke-width:0.6;"
                 x="76.32"
                 xlink:href="#m50d9a35521"
                 y="252"
                 id="use184" />
            </g>
          </g>
          <g
             id="line2d_18">
            <g
               id="g191">
              <use
                 style="stroke:#000000;stroke-width:0.6;"
                 x="76.32"
                 xlink:href="#m1224b8165d"
                 y="34.56"
                 id="use189" />
            </g>
          </g>
        </g>
        <g
           id="xtick_10">
          <g
             id="line2d_19">
            <g
               id="g197">
              <use
                 style="stroke:#000000;stroke-width:0.6;"
                 x="87.48"
                 xlink:href="#m50d9a35521"
                 y="252"
                 id="use195" />
            </g>
          </g>
          <g
             id="line2d_20">
            <g
               id="g202">
              <use
                 style="stroke:#000000;stroke-width:0.6;"
                 x="87.48"
                 xlink:href="#m1224b8165d"
                 y="34.56"
                 id="use200" />
            </g>
          </g>
        </g>
        <g
           id="xtick_11">
          <g
             id="line2d_21">
            <g
               id="g208">
              <use
                 style="stroke:#000000;stroke-width:0.6;"
                 x="98.64"
                 xlink:href="#m50d9a35521"
                 y="252"
                 id="use206" />
            </g>
          </g>
          <g
             id="line2d_22">
            <g
               id="g213">
              <use
                 style="stroke:#000000;stroke-width:0.6;"
                 x="98.64"
                 xlink:href="#m1224b8165d"
                 y="34.56"
                 id="use211" />
            </g>
          </g>
        </g>
        <g
           id="xtick_12">
          <g
             id="line2d_23">
            <g
               id="g219">
              <use
                 style="stroke:#000000;stroke-width:0.6;"
                 x="120.96"
                 xlink:href="#m50d9a35521"
                 y="252"
                 id="use217" />
            </g>
          </g>
          <g
             id="line2d_24">
            <g
               id="g224">
              <use
                 style="stroke:#000000;stroke-width:0.6;"
                 x="120.96"
                 xlink:href="#m1224b8165d"
                 y="34.56"
                 id="use222" />
            </g>
          </g>
        </g>
        <g
           id="xtick_13">
          <g
             id="line2d_25">
            <g
               id="g230">
              <use
                 style="stroke:#000000;stroke-width:0.6;"
                 x="132.12"
                 xlink:href="#m50d9a35521"
                 y="252"
                 id="use228" />
            </g>
          </g>
          <g
             id="line2d_26">
            <g
               id="g235">
              <use
                 style="stroke:#000000;stroke-width:0.6;"
                 x="132.12"
                 xlink:href="#m1224b8165d"
                 y="34.56"
                 id="use233" />
            </g>
          </g>
        </g>
        <g
           id="xtick_14">
          <g
             id="line2d_27">
            <g
               id="g241">
              <use
                 style="stroke:#000000;stroke-width:0.6;"
                 x="143.28"
                 xlink:href="#m50d9a35521"
                 y="252"
                 id="use239" />
            </g>
          </g>
          <g
             id="line2d_28">
            <g
               id="g246">
              <use
                 style="stroke:#000000;stroke-width:0.6;"
                 x="143.28"
                 xlink:href="#m1224b8165d"
                 y="34.56"
                 id="use244" />
            </g>
          </g>
        </g>
        <g
           id="xtick_15">
          <g
             id="line2d_29">
            <g
               id="g252">
              <use
                 style="stroke:#000000;stroke-width:0.6;"
                 x="154.44"
                 xlink:href="#m50d9a35521"
                 y="252"
                 id="use250" />
            </g>
          </g>
          <g
             id="line2d_30">
            <g
               id="g257">
              <use
                 style="stroke:#000000;stroke-width:0.6;"
                 x="154.44"
                 xlink:href="#m1224b8165d"
                 y="34.56"
                 id="use255" />
            </g>
          </g>
        </g>
        <g
           id="xtick_16">
          <g
             id="line2d_31">
            <g
               id="g263">
              <use
                 style="stroke:#000000;stroke-width:0.6;"
                 x="176.76"
                 xlink:href="#m50d9a35521"
                 y="252"
                 id="use261" />
            </g>
          </g>
          <g
             id="line2d_32">
            <g
               id="g268">
              <use
                 style="stroke:#000000;stroke-width:0.6;"
                 x="176.76"
                 xlink:href="#m1224b8165d"
                 y="34.56"
                 id="use266" />
            </g>
          </g>
        </g>
        <g
           id="xtick_17">
          <g
             id="line2d_33">
            <g
               id="g274">
              <use
                 style="stroke:#000000;stroke-width:0.6;"
                 x="187.92"
                 xlink:href="#m50d9a35521"
                 y="252"
                 id="use272" />
            </g>
          </g>
          <g
             id="line2d_34">
            <g
               id="g279">
              <use
                 style="stroke:#000000;stroke-width:0.6;"
                 x="187.92"
                 xlink:href="#m1224b8165d"
                 y="34.56"
                 id="use277" />
            </g>
          </g>
        </g>
        <g
           id="xtick_18">
          <g
             id="line2d_35">
            <g
               id="g285">
              <use
                 style="stroke:#000000;stroke-width:0.6;"
                 x="199.08"
                 xlink:href="#m50d9a35521"
                 y="252"
                 id="use283" />
            </g>
          </g>
          <g
             id="line2d_36">
            <g
               id="g290">
              <use
                 style="stroke:#000000;stroke-width:0.6;"
                 x="199.08"
                 xlink:href="#m1224b8165d"
                 y="34.56"
                 id="use288" />
            </g>
          </g>
        </g>
        <g
           id="xtick_19">
          <g
             id="line2d_37">
            <g
               id="g296">
              <use
                 style="stroke:#000000;stroke-width:0.6;"
                 x="210.24"
                 xlink:href="#m50d9a35521"
                 y="252"
                 id="use294" />
            </g>
          </g>
          <g
             id="line2d_38">
            <g
               id="g301">
              <use
                 style="stroke:#000000;stroke-width:0.6;"
                 x="210.24"
                 xlink:href="#m1224b8165d"
                 y="34.56"
                 id="use299" />
            </g>
          </g>
        </g>
        <g
           id="xtick_20">
          <g
             id="line2d_39">
            <g
               id="g307">
              <use
                 style="stroke:#000000;stroke-width:0.6;"
                 x="232.56"
                 xlink:href="#m50d9a35521"
                 y="252"
                 id="use305" />
            </g>
          </g>
          <g
             id="line2d_40">
            <g
               id="g312">
              <use
                 style="stroke:#000000;stroke-width:0.6;"
                 x="232.56"
                 xlink:href="#m1224b8165d"
                 y="34.56"
                 id="use310" />
            </g>
          </g>
        </g>
        <g
           id="xtick_21">
          <g
             id="line2d_41">
            <g
               id="g318">
              <use
                 style="stroke:#000000;stroke-width:0.6;"
                 x="243.72"
                 xlink:href="#m50d9a35521"
                 y="252"
                 id="use316" />
            </g>
          </g>
          <g
             id="line2d_42">
            <g
               id="g323">
              <use
                 style="stroke:#000000;stroke-width:0.6;"
                 x="243.72"
                 xlink:href="#m1224b8165d"
                 y="34.56"
                 id="use321" />
            </g>
          </g>
        </g>
        <g
           id="xtick_22">
          <g
             id="line2d_43">
            <g
               id="g329">
              <use
                 style="stroke:#000000;stroke-width:0.6;"
                 x="254.88"
                 xlink:href="#m50d9a35521"
                 y="252"
                 id="use327" />
            </g>
          </g>
          <g
             id="line2d_44">
            <g
               id="g334">
              <use
                 style="stroke:#000000;stroke-width:0.6;"
                 x="254.88"
                 xlink:href="#m1224b8165d"
                 y="34.56"
                 id="use332" />
            </g>
          </g>
        </g>
        <g
           id="xtick_23">
          <g
             id="line2d_45">
            <g
               id="g340">
              <use
                 style="stroke:#000000;stroke-width:0.6;"
                 x="266.04"
                 xlink:href="#m50d9a35521"
                 y="252"
                 id="use338" />
            </g>
          </g>
          <g
             id="line2d_46">
            <g
               id="g345">
              <use
                 style="stroke:#000000;stroke-width:0.6;"
                 x="266.04"
                 xlink:href="#m1224b8165d"
                 y="34.56"
                 id="use343" />
            </g>
          </g>
        </g>
        <g
           id="xtick_24">
          <g
             id="line2d_47">
            <g
               id="g351">
              <use
                 style="stroke:#000000;stroke-width:0.6;"
                 x="288.36"
                 xlink:href="#m50d9a35521"
                 y="252"
                 id="use349" />
            </g>
          </g>
          <g
             id="line2d_48">
            <g
               id="g356">
              <use
                 style="stroke:#000000;stroke-width:0.6;"
                 x="288.36"
                 xlink:href="#m1224b8165d"
                 y="34.56"
                 id="use354" />
            </g>
          </g>
        </g>
        <g
           id="xtick_25">
          <g
             id="line2d_49">
            <g
               id="g362">
              <use
                 style="stroke:#000000;stroke-width:0.6;"
                 x="299.52"
                 xlink:href="#m50d9a35521"
                 y="252"
                 id="use360" />
            </g>
          </g>
          <g
             id="line2d_50">
            <g
               id="g367">
              <use
                 style="stroke:#000000;stroke-width:0.6;"
                 x="299.52"
                 xlink:href="#m1224b8165d"
                 y="34.56"
                 id="use365" />
            </g>
          </g>
        </g>
        <g
           id="xtick_26">
          <g
             id="line2d_51">
            <g
               id="g373">
              <use
                 style="stroke:#000000;stroke-width:0.6;"
                 x="310.68"
                 xlink:href="#m50d9a35521"
                 y="252"
                 id="use371" />
            </g>
          </g>
          <g
             id="line2d_52">
            <g
               id="g378">
              <use
                 style="stroke:#000000;stroke-width:0.6;"
                 x="310.68"
                 xlink:href="#m1224b8165d"
                 y="34.56"
                 id="use376" />
            </g>
          </g>
        </g>
        <g
           id="xtick_27">
          <g
             id="line2d_53">
            <g
               id="g384">
              <use
                 style="stroke:#000000;stroke-width:0.6;"
                 x="321.84"
                 xlink:href="#m50d9a35521"
                 y="252"
                 id="use382" />
            </g>
          </g>
          <g
             id="line2d_54">
            <g
               id="g389">
              <use
                 style="stroke:#000000;stroke-width:0.6;"
                 x="321.84"
                 xlink:href="#m1224b8165d"
                 y="34.56"
                 id="use387" />
            </g>
          </g>
        </g>
        <g
           id="xtick_28">
          <g
             id="line2d_55">
            <g
               id="g395">
              <use
                 style="stroke:#000000;stroke-width:0.6;"
                 x="344.16"
                 xlink:href="#m50d9a35521"
                 y="252"
                 id="use393" />
            </g>
          </g>
          <g
             id="line2d_56">
            <g
               id="g400">
              <use
                 style="stroke:#000000;stroke-width:0.6;"
                 x="344.16"
                 xlink:href="#m1224b8165d"
                 y="34.56"
                 id="use398" />
            </g>
          </g>
        </g>
        <g
           id="xtick_29">
          <g
             id="line2d_57">
            <g
               id="g406">
              <use
                 style="stroke:#000000;stroke-width:0.6;"
                 x="355.32"
                 xlink:href="#m50d9a35521"
                 y="252"
                 id="use404" />
            </g>
          </g>
          <g
             id="line2d_58">
            <g
               id="g411">
              <use
                 style="stroke:#000000;stroke-width:0.6;"
                 x="355.32"
                 xlink:href="#m1224b8165d"
                 y="34.56"
                 id="use409" />
            </g>
          </g>
        </g>
        <g
           id="xtick_30">
          <g
             id="line2d_59">
            <g
               id="g417">
              <use
                 style="stroke:#000000;stroke-width:0.6;"
                 x="366.48"
                 xlink:href="#m50d9a35521"
                 y="252"
                 id="use415" />
            </g>
          </g>
          <g
             id="line2d_60">
            <g
               id="g422">
              <use
                 style="stroke:#000000;stroke-width:0.6;"
                 x="366.48"
                 xlink:href="#m1224b8165d"
                 y="34.56"
                 id="use420" />
            </g>
          </g>
        </g>
        <g
           id="xtick_31">
          <g
             id="line2d_61">
            <g
               id="g428">
              <use
                 style="stroke:#000000;stroke-width:0.6;"
                 x="377.64"
                 xlink:href="#m50d9a35521"
                 y="252"
                 id="use426" />
            </g>
          </g>
          <g
             id="line2d_62">
            <g
               id="g433">
              <use
                 style="stroke:#000000;stroke-width:0.6;"
                 x="377.64"
                 xlink:href="#m1224b8165d"
                 y="34.56"
                 id="use431" />
            </g>
          </g>
        </g>
        <g
           id="text_8">
          <!-- Atomic Number Z -->
          <g
             transform="translate(163.078514 283.161194)scale(0.15 -0.15)"
             id="g477">
            <defs
               id="defs449">
              <path
                 d="M 36.296875 68.40625  C 35.796875 69.703125 35.59375 70 34.59375 70  C 33.59375 70 33.40625 69.703125 32.90625 68.40625  L 11.703125 8.84375  C 9.796875 3.484375 5.796875 2.390625 2.296875 2.390625  L 2.296875 -0.203125  C 4.09375 0 8.09375 0 10 0  C 12.5 0 16.5 0 18.90625 -0.203125  L 18.90625 2.390625  C 14.203125 2.390625 13.5 5.640625 13.5 6.859375  C 13.5 7.765625 13.703125 8.28125 13.90625 8.890625  L 19.203125 24  L 45.40625 24  L 51.40625 6.90625  C 51.90625 5.703125 51.90625 5.5 51.90625 5.109375  C 51.90625 2.390625 47.59375 2.390625 45.703125 2.390625  L 45.703125 0  C 48.59375 0 53.796875 0 56.90625 0  C 59.5 0 64.5 0 66.90625 -0.203125  L 66.90625 2.390625  C 61.59375 2.390625 59.796875 2.390625 58.5 6.046875  z M 32.296875 60.828125  L 44.5 26.59375  L 20.09375 26.59375  z "
                 id="CMR17-65" />
              <path
                 d="M 15.09375 40  L 29.09375 40  L 29.09375 42.578125  L 15.09375 42.578125  L 15.09375 61  L 13.296875 61  C 13.09375 50.703125 9.59375 41.6875 1.09375 41.6875  L 1.09375 40  L 9.796875 40  L 9.796875 12.046875  C 9.796875 10.15625 9.796875 -1 21.40625 -1  C 27.296875 -1 30.703125 4.78125 30.703125 12.140625  L 30.703125 17.8125  L 28.90625 17.8125  L 28.90625 12.234375  C 28.90625 5.375 26.203125 0.796875 22 0.796875  C 19.09375 0.796875 15.09375 2.78125 15.09375 11.84375  z "
                 id="CMR17-116" />
              <path
                 d="M 43.09375 21.1875  C 43.09375 34 33.796875 44 22.90625 44  C 12 44 2.703125 34 2.703125 21.1875  C 2.703125 8.609375 12 -1 22.90625 -1  C 33.796875 -1 43.09375 8.609375 43.09375 21.1875  z M 22.90625 0.796875  C 18.203125 0.796875 14.203125 3.59375 11.90625 7.5  C 9.40625 11.984375 9.09375 17.59375 9.09375 22  C 9.09375 26.203125 9.296875 31.40625 11.90625 35.90625  C 13.90625 39.203125 17.796875 42.40625 22.90625 42.40625  C 27.40625 42.40625 31.203125 39.90625 33.59375 36.40625  C 36.703125 31.703125 36.703125 25.109375 36.703125 22  C 36.703125 18.09375 36.5 12.109375 33.796875 7.296875  C 31 2.703125 26.703125 0.796875 22.90625 0.796875  z "
                 id="CMR17-111" />
              <path
                 d="M 67.59375 30.203125  C 67.59375 35.1875 66.703125 43.59375 54.796875 43.59375  C 48 43.59375 43.296875 39 41.5 33.609375  L 41.40625 33.609375  C 40.203125 41.8125 34.296875 43.59375 28.703125 43.59375  C 20.796875 43.59375 16.703125 37.5 15.203125 33.5  L 15.09375 33.5  L 15.09375 43.59375  L 3.296875 42.5  L 3.296875 39.90625  C 9.203125 39.90625 10.09375 39.296875 10.09375 34.5  L 10.09375 6.6875  C 10.09375 2.875 9.703125 2.390625 3.296875 2.390625  L 3.296875 -0.203125  C 5.703125 0 10.09375 0 12.703125 0  C 15.296875 0 19.796875 0 22.203125 -0.203125  L 22.203125 2.390625  C 15.796875 2.390625 15.40625 2.78125 15.40625 6.6875  L 15.40625 25.90625  C 15.40625 35.109375 21 42 28 42  C 35.40625 42 36.203125 35.40625 36.203125 30.59375  L 36.203125 6.6875  C 36.203125 2.875 35.796875 2.390625 29.40625 2.390625  L 29.40625 -0.203125  C 31.796875 0 36.203125 0 38.796875 0  C 41.40625 0 45.90625 0 48.296875 -0.203125  L 48.296875 2.390625  C 41.90625 2.390625 41.5 2.78125 41.5 6.6875  L 41.5 25.90625  C 41.5 35.109375 47.09375 42 54.09375 42  C 61.5 42 62.296875 35.40625 62.296875 30.59375  L 62.296875 6.6875  C 62.296875 2.875 61.90625 2.390625 55.5 2.390625  L 55.5 -0.203125  C 57.90625 0 62.296875 0 64.90625 0  C 67.5 0 72 0 74.40625 -0.203125  L 74.40625 2.390625  C 68 2.390625 67.59375 2.78125 67.59375 6.6875  z "
                 id="CMR17-109" />
              <path
                 d="M 15.5 61.078125  C 15.5 63.265625 13.703125 65.15625 11.40625 65.15625  C 9.203125 65.15625 7.296875 63.375 7.296875 61.078125  C 7.296875 58.890625 9.09375 57 11.40625 57  C 13.59375 57 15.5 58.796875 15.5 61.078125  z M 3.796875 42.28125  L 3.796875 39.703125  C 9.40625 39.703125 10.203125 39.09375 10.203125 34.328125  L 10.203125 6.671875  C 10.203125 2.875 9.796875 2.390625 3.40625 2.390625  L 3.40625 -0.203125  C 5.796875 0 10.09375 0 12.59375 0  C 15 0 19.09375 0 21.40625 -0.203125  L 21.40625 2.390625  C 15.5 2.390625 15.296875 2.984375 15.296875 6.5625  L 15.296875 43.375  z "
                 id="CMR17-105" />
              <path
                 d="M 34.90625 35  C 33 35 30.203125 35 30.203125 31.515625  C 30.203125 28.71875 32.5 27.921875 33.796875 27.921875  C 34.5 27.921875 37.40625 28.234375 37.40625 31.625  C 37.40625 38.546875 30.59375 43.796875 22.90625 43.796875  C 12.296875 43.796875 3.296875 34.03125 3.296875 21.296875  C 3.296875 8.0625 12.703125 -1 22.90625 -1  C 35.296875 -1 38.40625 10.578125 38.40625 11.6875  C 38.40625 12.09375 38.296875 12.390625 37.59375 12.390625  C 36.90625 12.390625 36.796875 12.296875 36.40625 10.984375  C 33.796875 2.8125 28.09375 0.796875 23.796875 0.796875  C 17.40625 0.796875 9.703125 6.671875 9.703125 21.390625  C 9.703125 36.53125 17.09375 42 23 42  C 26.90625 42 32.703125 40.203125 34.90625 35  z "
                 id="CMR17-99" />
              <path
                 d="M 20.5 66.40625  C 19.796875 67.5 19.703125 67.5 17.796875 67.5  L 5.09375 67.5  L 5.09375 65  L 7 65  C 11 65 12.796875 64.515625 13.09375 64.40625  L 13.09375 9.53125  C 13.09375 7.046875 13.09375 2.390625 5.09375 2.390625  L 5.09375 -0.203125  C 7.40625 0 11.59375 0 14.09375 0  C 16.59375 0 20.796875 0 23.09375 -0.203125  L 23.09375 2.390625  C 15.09375 2.390625 15.09375 7.046875 15.09375 9.53125  L 15.09375 63.015625  C 15.796875 62.421875 15.796875 62.21875 16.5 61.234375  L 53.59375 1.1875  C 54.296875 0 54.59375 0 55.09375 0  C 56.09375 0 56.09375 0.296875 56.09375 2.171875  L 56.09375 57.890625  C 56.09375 60.359375 56.09375 65 64.09375 65  L 64.09375 67.59375  C 61.796875 67.5 57.59375 67.5 55.09375 67.5  C 52.59375 67.5 48.40625 67.5 46.09375 67.59375  L 46.09375 65  C 54.09375 65 54.09375 60.34375 54.09375 57.859375  L 54.09375 11.921875  z "
                 id="CMR17-78" />
              <path
                 d="M 29.40625 42.078125  L 29.40625 39.5  C 35.296875 39.5 36.203125 38.890625 36.203125 34.15625  L 36.203125 16.125  C 36.203125 7.8125 31.703125 0.59375 24.296875 0.59375  C 16.09375 0.59375 15.40625 5.4375 15.40625 10.59375  L 15.40625 43.171875  L 3.296875 42.078125  L 3.296875 39.5  C 7.296875 39.5 10 39.5 10.09375 35.53125  L 10.09375 16.53125  C 10.09375 9.890625 10.09375 5.640625 12.703125 2.859375  C 14 1.578125 16.5 -1 23.703125 -1  C 32.203125 -1 35.5 5.890625 36.296875 7.90625  L 36.40625 7.90625  L 36.40625 -0.984375  L 48.296875 -0.984375  L 48.296875 2  C 42.40625 2 41.5 2.59375 41.5 7.390625  L 41.5 43.171875  z "
                 id="CMR17-117" />
              <path
                 d="M 15 68.6875  L 3.09375 67.59375  L 3.09375 65  C 9 65 9.90625 64.40625 9.90625 59.640625  L 9.90625 -0.203125  L 11.703125 -0.203125  L 14.59375 6.890625  C 17.5 2.203125 21.796875 -1 27.59375 -1  C 37.59375 -1 47.703125 7.8125 47.703125 21.40625  C 47.703125 34.1875 38.703125 43.59375 28.59375 43.59375  C 22.40625 43.59375 18 40.296875 15 36.40625  z M 15.203125 31.3125  C 15.203125 33.09375 15.203125 33.40625 16.59375 35.5  C 20.5 41.515625 26.09375 42 28 42  C 31 42 41.296875 40.390625 41.296875 21.5  C 41.296875 1.6875 29.5 0.59375 27.09375 0.59375  C 24 0.59375 19.5 1.78125 16.296875 7.59375  C 15.203125 9.5 15.203125 9.703125 15.203125 11.484375  z "
                 id="CMR17-98" />
              <path
                 d="M 38.09375 23  C 38.5 23.40625 38.5 23.609375 38.5 24.625  C 38.5 34.96875 33.09375 44 21.703125 44  C 11.09375 44 2.703125 33.890625 2.703125 21.609375  C 2.703125 8.609375 12.203125 -1 22.796875 -1  C 34 -1 38.40625 9.484375 38.40625 11.5625  C 38.40625 12.25 37.796875 12.25 37.59375 12.25  C 36.90625 12.25 36.796875 12.046875 36.40625 10.875  C 34.203125 4.140625 28.703125 0.796875 23.5 0.796875  C 19.203125 0.796875 14.90625 3.171875 12.203125 7.5  C 9.09375 12.546875 9.09375 18.375 9.09375 23  z M 9.203125 24.5  C 9.90625 39.140625 17.59375 42.40625 21.59375 42.40625  C 28.40625 42.40625 33 35.890625 33.09375 24.5  z "
                 id="CMR17-101" />
              <path
                 d="M 15 23.390625  C 15 33 19.09375 42 26.59375 42  C 27.296875 42 28 41.90625 28.703125 41.59375  C 28.703125 41.59375 26.5 40.890625 26.5 38.3125  C 26.5 35.90625 28.40625 34.90625 29.90625 34.90625  C 31.09375 34.90625 33.296875 35.609375 33.296875 38.40625  C 33.296875 41.609375 30.09375 43.59375 26.703125 43.59375  C 19.09375 43.59375 15.796875 36.203125 14.796875 32.703125  L 14.703125 32.703125  L 14.703125 43.59375  L 3.09375 42.5  L 3.09375 39.90625  C 9 39.90625 9.90625 39.296875 9.90625 34.5  L 9.90625 6.6875  C 9.90625 2.875 9.5 2.390625 3.09375 2.390625  L 3.09375 -0.203125  C 5.5 0 10.09375 0 12.703125 0  C 15.59375 0 20.703125 0 23.40625 -0.203125  L 23.40625 2.390625  C 16.203125 2.390625 15 2.390625 15 6.875  z "
                 id="CMR17-114" />
              <path
                 d="M 51.59375 66.09375  C 51.59375 68 51.5 68 49.40625 68  L 6.90625 68  L 5.90625 46.0625  L 7.703125 46.0625  C 8.296875 57.421875 11.296875 65.5 27.5 65.5  L 44 65.5  L 5.296875 3.1875  C 4.59375 2.09375 4.59375 1.984375 4.59375 1.296875  C 4.59375 0 4.796875 0 6.796875 0  L 50.703125 0  L 52.09375 26.03125  L 50.296875 26.03125  C 49.40625 12.953125 48.703125 2.78125 29.59375 2.78125  L 12.203125 2.78125  z "
                 id="CMR17-90" />
            </defs>
            <use
               transform="scale(0.996264)"
               xlink:href="#CMR17-65"
               id="use451" />
            <use
               transform="translate(66.469976 0)scale(0.996264)"
               xlink:href="#CMR17-116"
               id="use453" />
            <use
               transform="translate(101.750744 0)scale(0.996264)"
               xlink:href="#CMR17-111"
               id="use455" />
            <use
               transform="translate(147.441221 0)scale(0.996264)"
               xlink:href="#CMR17-109"
               id="use457" />
            <use
               transform="translate(224.360811 0)scale(0.996264)"
               xlink:href="#CMR17-105"
               id="use459" />
            <use
               transform="translate(249.231869 0)scale(0.996264)"
               xlink:href="#CMR17-99"
               id="use461" />
            <use
               transform="translate(319.793496 0)scale(0.996264)"
               xlink:href="#CMR17-78"
               id="use463" />
            <use
               transform="translate(388.865926 0)scale(0.996264)"
               xlink:href="#CMR17-117"
               id="use465" />
            <use
               transform="translate(439.761296 0)scale(0.996264)"
               xlink:href="#CMR17-109"
               id="use467" />
            <use
               transform="translate(514.078431 0)scale(0.996264)"
               xlink:href="#CMR17-98"
               id="use469" />
            <use
               transform="translate(567.57624 0)scale(0.996264)"
               xlink:href="#CMR17-101"
               id="use471" />
            <use
               transform="translate(608.0619 0)scale(0.996264)"
               xlink:href="#CMR17-114"
               id="use473" />
            <use
               transform="translate(673.418635 0)scale(0.996264)"
               xlink:href="#CMR17-90"
               id="use475" />
          </g>
        </g>
      </g>
      <g
         id="matplotlib.axis_2">
        <g
           id="ytick_1">
          <g
             id="line2d_63">
            <defs
               id="defs482">
              <path
                 d="M 0 0  L 3.5 0  "
                 id="mb41652c4cb"
                 style="stroke:#000000;stroke-width:0.8;" />
            </defs>
            <g
               id="g486">
              <use
                 style="stroke:#000000;stroke-width:0.8;"
                 x="54"
                 xlink:href="#mb41652c4cb"
                 y="252"
                 id="use484" />
            </g>
          </g>
          <g
             id="line2d_64">
            <defs
               id="defs490">
              <path
                 d="M 0 0  L -3.5 0  "
                 id="m4248be3e0c"
                 style="stroke:#000000;stroke-width:0.8;" />
            </defs>
            <g
               id="g494">
              <use
                 style="stroke:#000000;stroke-width:0.8;"
                 x="388.8"
                 xlink:href="#m4248be3e0c"
                 y="252"
                 id="use492" />
            </g>
          </g>
          <g
             id="text_9">
            <!-- $\mathdefault{10^{-9}}$ -->
            <g
               transform="translate(22.501008 257.188862)scale(0.15 -0.15)"
               id="g510">
              <defs
                 id="defs500">
                <path
                   d="M 26.59375 63.40625  C 26.59375 65.5 26.5 65.5 25.09375 65.5  C 21.203125 61.1875 15.296875 59.796875 9.703125 59.796875  C 9.40625 59.796875 8.90625 59.796875 8.796875 59.5  C 8.703125 59.296875 8.703125 59.09375 8.703125 57  C 11.796875 57 17 57.59375 21 59.984375  L 21 7.203125  C 21 3.6875 20.796875 2.5 12.203125 2.5  L 9.203125 2.5  L 9.203125 0  C 14 0 19 0 23.796875 0  C 28.59375 0 33.59375 0 38.40625 0  L 38.40625 2.5  L 35.40625 2.5  C 26.796875 2.5 26.59375 3.59375 26.59375 7.15625  z "
                   id="CMR17-49" />
                <path
                   d="M 65.90625 23  C 67.59375 23 69.40625 23 69.40625 25  C 69.40625 27 67.59375 27 65.90625 27  L 11.796875 27  C 10.09375 27 8.296875 27 8.296875 25  C 8.296875 23 10.09375 23 11.796875 23  z "
                   id="CMSY10-0" />
                <path
                   d="M 35.203125 29.125  C 35.203125 7.25 26.09375 0.484375 18.59375 0.484375  C 16.296875 0.484375 10.703125 0.484375 8.40625 4.59375  C 11 4.1875 12.90625 5.578125 12.90625 8.09375  C 12.90625 10.8125 10.703125 11.703125 9.296875 11.703125  C 8.40625 11.703125 5.703125 11.296875 5.703125 7.90625  C 5.703125 1.109375 11.59375 -2 18.796875 -2  C 30.296875 -2 42 10.53125 42 32.390625  C 42 59.640625 30.796875 65.296875 23.203125 65.296875  C 13.296875 65.296875 3.796875 56.6875 3.796875 43.40625  C 3.796875 31.109375 11.90625 22 22.09375 22  C 30.5 22 34.203125 29.734375 35.203125 33  z M 22.296875 23.59375  C 19.59375 23.59375 15.796875 24.09375 12.703125 30.03125  C 10.59375 33.890625 10.59375 38.453125 10.59375 43.296875  C 10.59375 49.15625 10.59375 53.203125 13.40625 57.5625  C 14.796875 59.640625 17.40625 63 23.203125 63  C 35 63 35 45.078125 35 41.125  C 35 34.09375 31.796875 23.59375 22.296875 23.59375  z "
                   id="CMR17-57" />
              </defs>
              <use
                 transform="scale(0.996264)"
                 xlink:href="#CMR17-49"
                 id="use502" />
              <use
                 transform="translate(45.690477 0)scale(0.996264)"
                 xlink:href="#CMR17-48"
                 id="use504" />
              <use
                 transform="translate(91.380954 36.153639)scale(0.697382)"
                 xlink:href="#CMSY10-0"
                 id="use506" />
              <use
                 transform="translate(145.621947 36.153639)scale(0.697382)"
                 xlink:href="#CMR17-57"
                 id="use508" />
            </g>
          </g>
        </g>
        <g
           id="ytick_2">
          <g
             id="line2d_65">
            <g
               id="g516">
              <use
                 style="stroke:#000000;stroke-width:0.8;"
                 x="54"
                 xlink:href="#mb41652c4cb"
                 y="189.874286"
                 id="use514" />
            </g>
          </g>
          <g
             id="line2d_66">
            <g
               id="g521">
              <use
                 style="stroke:#000000;stroke-width:0.8;"
                 x="388.8"
                 xlink:href="#m4248be3e0c"
                 y="189.874286"
                 id="use519" />
            </g>
          </g>
          <g
             id="text_10">
            <!-- $\mathdefault{10^{-7}}$ -->
            <g
               transform="translate(22.501008 195.063148)scale(0.15 -0.15)"
               id="g535">
              <defs
                 id="defs525">
                <path
                   d="M 45.09375 61.578125  L 45.09375 63.765625  L 21.59375 63.765625  C 9.90625 63.765625 9.703125 65.078125 9.296875 67  L 7.5 67  L 4.59375 48.34375  L 6.40625 48.34375  C 6.703125 50.234375 7.40625 55.3125 8.59375 57.203125  C 9.203125 58 16.59375 58 18.296875 58  L 40.296875 58  L 29.203125 41.578125  C 21.796875 30.53125 16.703125 15.609375 16.703125 2.578125  C 16.703125 1.390625 16.703125 -2 20.296875 -2  C 23.90625 -2 23.90625 1.390625 23.90625 2.671875  L 23.90625 7.265625  C 23.90625 23.5625 26.703125 34.3125 31.296875 41.1875  z "
                   id="CMR17-55" />
              </defs>
              <use
                 transform="scale(0.996264)"
                 xlink:href="#CMR17-49"
                 id="use527" />
              <use
                 transform="translate(45.690477 0)scale(0.996264)"
                 xlink:href="#CMR17-48"
                 id="use529" />
              <use
                 transform="translate(91.380954 36.153639)scale(0.697382)"
                 xlink:href="#CMSY10-0"
                 id="use531" />
              <use
                 transform="translate(145.621947 36.153639)scale(0.697382)"
                 xlink:href="#CMR17-55"
                 id="use533" />
            </g>
          </g>
        </g>
        <g
           id="ytick_3">
          <g
             id="line2d_67">
            <g
               id="g541">
              <use
                 style="stroke:#000000;stroke-width:0.8;"
                 x="54"
                 xlink:href="#mb41652c4cb"
                 y="127.748571"
                 id="use539" />
            </g>
          </g>
          <g
             id="line2d_68">
            <g
               id="g546">
              <use
                 style="stroke:#000000;stroke-width:0.8;"
                 x="388.8"
                 xlink:href="#m4248be3e0c"
                 y="127.748571"
                 id="use544" />
            </g>
          </g>
          <g
             id="text_11">
            <!-- $\mathdefault{10^{-5}}$ -->
            <g
               transform="translate(22.501008 132.937434)scale(0.15 -0.15)"
               id="g557">
              <use
                 transform="scale(0.996264)"
                 xlink:href="#CMR17-49"
                 id="use549" />
              <use
                 transform="translate(45.690477 0)scale(0.996264)"
                 xlink:href="#CMR17-48"
                 id="use551" />
              <use
                 transform="translate(91.380954 36.153639)scale(0.697382)"
                 xlink:href="#CMSY10-0"
                 id="use553" />
              <use
                 transform="translate(145.621947 36.153639)scale(0.697382)"
                 xlink:href="#CMR17-53"
                 id="use555" />
            </g>
          </g>
        </g>
        <g
           id="ytick_4">
          <g
             id="line2d_69">
            <g
               id="g563">
              <use
                 style="stroke:#000000;stroke-width:0.8;"
                 x="54"
                 xlink:href="#mb41652c4cb"
                 y="65.622857"
                 id="use561" />
            </g>
          </g>
          <g
             id="line2d_70">
            <g
               id="g568">
              <use
                 style="stroke:#000000;stroke-width:0.8;"
                 x="388.8"
                 xlink:href="#m4248be3e0c"
                 y="65.622857"
                 id="use566" />
            </g>
          </g>
          <g
             id="text_12">
            <!-- $\mathdefault{10^{-3}}$ -->
            <g
               transform="translate(22.501008 70.81172)scale(0.15 -0.15)"
               id="g579">
              <use
                 transform="scale(0.996264)"
                 xlink:href="#CMR17-49"
                 id="use571" />
              <use
                 transform="translate(45.690477 0)scale(0.996264)"
                 xlink:href="#CMR17-48"
                 id="use573" />
              <use
                 transform="translate(91.380954 36.153639)scale(0.697382)"
                 xlink:href="#CMSY10-0"
                 id="use575" />
              <use
                 transform="translate(145.621947 36.153639)scale(0.697382)"
                 xlink:href="#CMR17-51"
                 id="use577" />
            </g>
          </g>
        </g>
        <g
           id="text_13">
          <!-- Elemental Abundance -->
          <g
             transform="translate(15.595263 213.694907)rotate(-90)scale(0.15 -0.15)"
             id="g626">
            <defs
               id="defs588">
              <path
                 d="M 60.703125 25.234375  L 58.90625 25.234375  C 56.703125 10.5625 55.40625 2.59375 37.796875 2.59375  L 23.90625 2.59375  C 19.90625 2.59375 19.703125 3.078125 19.703125 6.46875  L 19.703125 34  L 29.09375 34  C 38.5 34 39.40625 30.625 39.40625 22.34375  L 41.203125 22.34375  L 41.203125 48.140625  L 39.40625 48.140625  C 39.40625 39.953125 38.5 36.59375 29.09375 36.59375  L 19.703125 36.59375  L 19.703125 61.140625  C 19.703125 64.5 19.90625 65 23.90625 65  L 37.59375 65  C 53.09375 65 54.90625 58.890625 56.296875 45.765625  L 58.09375 45.765625  L 55.703125 67.578125  L 5.09375 67.578125  L 5.09375 65  C 12 65 13.09375 65 13.09375 60.53125  L 13.09375 7.046875  C 13.09375 2.59375 12 2.59375 5.09375 2.59375  L 5.09375 0  L 57.09375 0  z "
                 id="CMR17-69" />
              <path
                 d="M 15.296875 68.6875  L 3.40625 67.59375  L 3.40625 65  C 9.296875 65 10.203125 64.40625 10.203125 59.640625  L 10.203125 6.65625  C 10.203125 2.875 9.796875 2.390625 3.40625 2.390625  L 3.40625 -0.203125  C 5.796875 0 10.203125 0 12.703125 0  C 15.296875 0 19.703125 0 22.09375 -0.203125  L 22.09375 2.390625  C 15.703125 2.390625 15.296875 2.78125 15.296875 6.65625  z "
                 id="CMR17-108" />
              <path
                 d="M 41.5 30.203125  C 41.5 35.296875 40.5 43.59375 28.703125 43.59375  C 20.796875 43.59375 16.703125 37.5 15.203125 33.5  L 15.09375 33.5  L 15.09375 43.59375  L 3.296875 42.5  L 3.296875 39.90625  C 9.203125 39.90625 10.09375 39.296875 10.09375 34.5  L 10.09375 6.6875  C 10.09375 2.875 9.703125 2.390625 3.296875 2.390625  L 3.296875 -0.203125  C 5.703125 0 10.09375 0 12.703125 0  C 15.296875 0 19.796875 0 22.203125 -0.203125  L 22.203125 2.390625  C 15.796875 2.390625 15.40625 2.78125 15.40625 6.6875  L 15.40625 25.90625  C 15.40625 35.109375 21 42 28 42  C 35.40625 42 36.203125 35.40625 36.203125 30.59375  L 36.203125 6.6875  C 36.203125 2.875 35.796875 2.390625 29.40625 2.390625  L 29.40625 -0.203125  C 31.796875 0 36.203125 0 38.796875 0  C 41.40625 0 45.90625 0 48.296875 -0.203125  L 48.296875 2.390625  C 41.90625 2.390625 41.5 2.78125 41.5 6.6875  z "
                 id="CMR17-110" />
              <path
                 d="M 36 25.828125  C 36 32.375 36 35.84375 31.796875 39.734375  C 28.09375 43 23.796875 44 20.40625 44  C 12.5 44 6.796875 37.609375 6.796875 30.796875  C 6.796875 27 9.796875 27 10.40625 27  C 11.703125 27 14 27.78125 14 30.53125  C 14 33 12.09375 34.078125 10.40625 34.078125  C 10 34.078125 9.5 33.96875 9.203125 33.875  C 11.296875 40.5 16.703125 42.40625 20.203125 42.40625  C 25.203125 42.40625 30.703125 37.953125 30.703125 29.453125  L 30.703125 25  C 24.796875 25 17.703125 24.203125 12.09375 21.203125  C 5.796875 17.703125 4 12.703125 4 8.90625  C 4 1.203125 13 -1 18.296875 -1  C 23.796875 -1 28.90625 2.171875 31.09375 7.984375  C 31.296875 3.640625 34.09375 -0.28125 38.5 -0.28125  C 40.59375 -0.28125 45.90625 1.09375 45.90625 8.859375  L 45.90625 14.375  L 44.09375 14.375  L 44.09375 8.78125  C 44.09375 2.78125 41.40625 2 40.09375 2  C 36 2 36 7.15625 36 11.53125  z M 30.703125 13.59375  C 30.703125 4.953125 24.5 0.59375 19 0.59375  C 14 0.59375 10.09375 4.296875 10.09375 8.90625  C 10.09375 11.890625 11.40625 17.1875 17.203125 20.390625  C 22 23.09375 27.5 23.5 30.703125 23.5  z "
                 id="CMR17-97" />
              <path
                 d="M 29.203125 67.59375  L 29.203125 65  C 35.09375 65 36 64.40625 36 59.6875  L 36 36.640625  C 35.59375 37.140625 31.5 43.59375 23.40625 43.59375  C 13.203125 43.59375 3.296875 34.5 3.296875 21.3125  C 3.296875 8.203125 12.59375 -1 22.40625 -1  C 30.90625 -1 35.296875 5.265625 35.796875 5.9375  L 35.796875 -0.984375  L 47.90625 -0.984375  L 47.90625 2  C 42 2 41.09375 2.59375 41.09375 7.390625  L 41.09375 68.6875  z M 35.796875 11.796875  C 35.796875 8.796875 34 6.09375 31.703125 4.09375  C 28.296875 1.09375 24.90625 0.59375 23 0.59375  C 20.09375 0.59375 9.703125 2.09375 9.703125 21.1875  C 9.703125 40.8125 21.296875 42 23.90625 42  C 28.5 42 32.203125 39.40625 34.5 35.796875  C 35.796875 33.703125 35.796875 33.40625 35.796875 31.609375  z "
                 id="CMR17-100" />
            </defs>
            <use
               transform="scale(0.996264)"
               xlink:href="#CMR17-69"
               id="use590" />
            <use
               transform="translate(62.586301 0)scale(0.996264)"
               xlink:href="#CMR17-108"
               id="use592" />
            <use
               transform="translate(87.457359 0)scale(0.996264)"
               xlink:href="#CMR17-101"
               id="use594" />
            <use
               transform="translate(127.943019 0)scale(0.996264)"
               xlink:href="#CMR17-109"
               id="use596" />
            <use
               transform="translate(204.862609 0)scale(0.996264)"
               xlink:href="#CMR17-101"
               id="use598" />
            <use
               transform="translate(245.34827 0)scale(0.996264)"
               xlink:href="#CMR17-110"
               id="use600" />
            <use
               transform="translate(293.641186 0)scale(0.996264)"
               xlink:href="#CMR17-116"
               id="use602" />
            <use
               transform="translate(328.921953 0)scale(0.996264)"
               xlink:href="#CMR17-97"
               id="use604" />
            <use
               transform="translate(374.612431 0)scale(0.996264)"
               xlink:href="#CMR17-108"
               id="use606" />
            <use
               transform="translate(429.559455 0)scale(0.996264)"
               xlink:href="#CMR17-65"
               id="use608" />
            <use
               transform="translate(498.631885 0)scale(0.996264)"
               xlink:href="#CMR17-98"
               id="use610" />
            <use
               transform="translate(549.527255 0)scale(0.996264)"
               xlink:href="#CMR17-117"
               id="use612" />
            <use
               transform="translate(600.422625 0)scale(0.996264)"
               xlink:href="#CMR17-110"
               id="use614" />
            <use
               transform="translate(651.317995 0)scale(0.996264)"
               xlink:href="#CMR17-100"
               id="use616" />
            <use
               transform="translate(702.213364 0)scale(0.996264)"
               xlink:href="#CMR17-97"
               id="use618" />
            <use
               transform="translate(747.903841 0)scale(0.996264)"
               xlink:href="#CMR17-110"
               id="use620" />
            <use
               transform="translate(798.799211 0)scale(0.996264)"
               xlink:href="#CMR17-99"
               id="use622" />
            <use
               transform="translate(839.284872 0)scale(0.996264)"
               xlink:href="#CMR17-101"
               id="use624" />
          </g>
        </g>
      </g>
      <g
         id="line2d_71">
        <path
           clip-path="url(#pd1f7f37449)"
           d="M -1 207.516727  L 9.36 233.024436  L 20.52 178.920748  L 31.68 179.566743  L 42.84 178.617916  L 54 236.389838  L 65.16 160.257223  L 76.32 186.85032  L 87.48 158.10803  L 98.64 161.73034  L 109.8 115.128704  L 120.96 135.435652  L 132.12 114.42856  L 143.28 142.414192  L 154.44 101.631496  L 165.6 119.069665  L 176.76 102.96551  L 187.92 101.477019  L 199.08 72.585863  L 210.24 95.745894  L 221.4 61.940256  L 232.56 85.105019  L 243.72 49.957324  M 266.04 68.698796  L 277.2 76.943475  L 288.36 79.352934  L 299.52 93.10424  L 310.68 112.463987  L 321.84 152.837176  L 333 151.975463  L 344.16 182.265932  L 355.32 188.764473  L 366.48 196.117247  L 377.64 221.999529  L 382.770287 289  "
           style="fill:none;stroke:#000000;stroke-linecap:square;stroke-width:2;"
           id="path630" />
      </g>
      <g
         id="patch_3">
        <path
           d="M 54 252  L 54 34.56  "
           style="fill:none;stroke:#000000;stroke-linecap:square;stroke-linejoin:miter;stroke-width:0.8;"
           id="path633" />
      </g>
      <g
         id="patch_4">
        <path
           d="M 388.8 252  L 388.8 34.56  "
           style="fill:none;stroke:#000000;stroke-linecap:square;stroke-linejoin:miter;stroke-width:0.8;"
           id="path636" />
      </g>
      <g
         id="patch_5">
        <path
           d="M 54 252  L 388.8 252  "
           style="fill:none;stroke:#000000;stroke-linecap:square;stroke-linejoin:miter;stroke-width:0.8;"
           id="path639" />
      </g>
      <g
         id="patch_6">
        <path
           d="M 54 34.56  L 388.8 34.56  "
           style="fill:none;stroke:#000000;stroke-linecap:square;stroke-linejoin:miter;stroke-width:0.8;"
           id="path642" />
      </g>
      <g
         id="legend_1">
        <g
           id="patch_7">
          <path
             d="M 65.7 218.700125  L 91.7 218.700125  L 91.7 209.600125  L 65.7 209.600125  z "
             style="fill:#b90f22;opacity:0.2;stroke:#b90f22;stroke-linejoin:miter;"
             id="path645" />
        </g>
        <g
           id="text_14">
          <!-- 2$\sigma$ uncertainty -->
          <g
             transform="translate(102.1 218.700125)scale(0.13 -0.13)"
             id="g678">
            <defs
               id="defs650">
              <path
                 d="M 50.796875 37.625  C 52.09375 37.625 55.40625 37.625 55.40625 40.8125  C 55.40625 43 53.5 43 51.703125 43  L 29.59375 43  C 14.59375 43 3.796875 26.34375 3.796875 14.5625  C 3.796875 6.09375 9.296875 -1 18.296875 -1  C 30.09375 -1 43 11.671875 43 26.640625  C 43 30.53125 42.09375 34.3125 39.703125 37.625  z M 18.40625 1  C 13.296875 1 9.59375 4.890625 9.59375 11.78125  C 9.59375 17.765625 13.203125 37.625 27.90625 37.625  C 32.203125 37.625 37 35.53125 37 27.828125  C 37 24.34375 35.40625 15.953125 31.90625 10.1875  C 28.296875 4.296875 22.90625 1 18.40625 1  z "
                 id="CMMI12-27" />
              <path
                 d="M 39 34.328125  C 41.5 40.40625 46 40.40625 47.40625 40.40625  L 47.40625 43  C 45.5 43 43 43 41.09375 43  C 39 43 35.703125 43 33.703125 43.09375  L 33.703125 40.5  C 37.5 40.203125 37.59375 37.40625 37.59375 36.609375  C 37.59375 35.625 37.40625 35.125 36.90625 33.921875  L 26 7.015625  L 14.09375 36.03125  C 13.59375 37.21875 13.59375 37.90625 13.59375 38.015625  C 13.59375 40.203125 15.90625 40.40625 18.296875 40.40625  L 18.296875 43.09375  C 15.90625 43 11.59375 43 9.09375 43  C 6.40625 43 3.203125 43 1 43.09375  L 1 40.40625  C 6.40625 40.40625 7 39.90625 8.296875 36.71875  L 23.203125 0.234375  C 18.703125 -11.53125 16.09375 -18.40625 9.796875 -18.40625  C 8.703125 -18.40625 6.203125 -18.109375 4.40625 -16.3125  C 6.703125 -16.109375 7.703125 -14.71875 7.703125 -13.015625  C 7.703125 -11.328125 6.5 -9.828125 4.5 -9.828125  C 2.296875 -9.828125 1.203125 -11.328125 1.203125 -13.125  C 1.203125 -17.109375 5.296875 -20 9.796875 -20  C 15.59375 -20 19.203125 -14.40625 21.203125 -9.4375  z "
                 id="CMR17-121" />
            </defs>
            <use
               transform="scale(0.996264)"
               xlink:href="#CMR17-50"
               id="use652" />
            <use
               transform="translate(45.690477 0)scale(0.996264)"
               xlink:href="#CMMI12-27"
               id="use654" />
            <use
               transform="translate(134.786497 0)scale(0.996264)"
               xlink:href="#CMR17-117"
               id="use656" />
            <use
               transform="translate(185.681867 0)scale(0.996264)"
               xlink:href="#CMR17-110"
               id="use658" />
            <use
               transform="translate(236.577237 0)scale(0.996264)"
               xlink:href="#CMR17-99"
               id="use660" />
            <use
               transform="translate(277.062897 0)scale(0.996264)"
               xlink:href="#CMR17-101"
               id="use662" />
            <use
               transform="translate(317.548558 0)scale(0.996264)"
               xlink:href="#CMR17-114"
               id="use664" />
            <use
               transform="translate(352.829325 0)scale(0.996264)"
               xlink:href="#CMR17-116"
               id="use666" />
            <use
               transform="translate(388.110093 0)scale(0.996264)"
               xlink:href="#CMR17-97"
               id="use668" />
            <use
               transform="translate(433.80057 0)scale(0.996264)"
               xlink:href="#CMR17-105"
               id="use670" />
            <use
               transform="translate(458.671629 0)scale(0.996264)"
               xlink:href="#CMR17-110"
               id="use672" />
            <use
               transform="translate(506.964545 0)scale(0.996264)"
               xlink:href="#CMR17-116"
               id="use674" />
            <use
               transform="translate(539.642858 0)scale(0.996264)"
               xlink:href="#CMR17-121"
               id="use676" />
          </g>
        </g>
        <g
           id="patch_8">
          <path
             d="M 65.7 237.781688  L 91.7 237.781688  L 91.7 228.681688  L 65.7 228.681688  z "
             style="fill:#b90f22;opacity:0.5;stroke:#b90f22;stroke-linejoin:miter;"
             id="path681" />
        </g>
        <g
           id="text_15">
          <!-- 1$\sigma$ uncertainty -->
          <g
             transform="translate(102.1 237.781688)scale(0.13 -0.13)"
             id="g710">
            <use
               transform="scale(0.996264)"
               xlink:href="#CMR17-49"
               id="use684" />
            <use
               transform="translate(45.690477 0)scale(0.996264)"
               xlink:href="#CMMI12-27"
               id="use686" />
            <use
               transform="translate(134.786497 0)scale(0.996264)"
               xlink:href="#CMR17-117"
               id="use688" />
            <use
               transform="translate(185.681867 0)scale(0.996264)"
               xlink:href="#CMR17-110"
               id="use690" />
            <use
               transform="translate(236.577237 0)scale(0.996264)"
               xlink:href="#CMR17-99"
               id="use692" />
            <use
               transform="translate(277.062897 0)scale(0.996264)"
               xlink:href="#CMR17-101"
               id="use694" />
            <use
               transform="translate(317.548558 0)scale(0.996264)"
               xlink:href="#CMR17-114"
               id="use696" />
            <use
               transform="translate(352.829325 0)scale(0.996264)"
               xlink:href="#CMR17-116"
               id="use698" />
            <use
               transform="translate(388.110093 0)scale(0.996264)"
               xlink:href="#CMR17-97"
               id="use700" />
            <use
               transform="translate(433.80057 0)scale(0.996264)"
               xlink:href="#CMR17-105"
               id="use702" />
            <use
               transform="translate(458.671629 0)scale(0.996264)"
               xlink:href="#CMR17-110"
               id="use704" />
            <use
               transform="translate(506.964545 0)scale(0.996264)"
               xlink:href="#CMR17-116"
               id="use706" />
            <use
               transform="translate(539.642858 0)scale(0.996264)"
               xlink:href="#CMR17-121"
               id="use708" />
          </g>
        </g>
      </g>
    </g>
  </g>
  <defs
     id="defs719">
    <clipPath
       id="pd1f7f37449">
      <rect
         height="217.44"
         width="334.8"
         x="54"
         y="34.56"
         id="rect716" />
    </clipPath>
  </defs>
  <path
     inkscape:connector-curvature="0"
     id="path1468"
     d="M 198.99586,151.44618 V 131.5821"
     style="fill:none;stroke:#000000;stroke-width:0.633293;stroke-linecap:butt;stroke-linejoin:miter;stroke-miterlimit:4.1;stroke-dasharray:none;stroke-opacity:1;marker-end:url(#Arrow1Lend)" />
  <path
     inkscape:connector-curvature="0"
     id="path1468-7"
     d="M 210.88388,139.11717 V 119.25308"
     style="fill:none;stroke:#000000;stroke-width:0.633293;stroke-linecap:butt;stroke-linejoin:miter;stroke-miterlimit:4.1;stroke-dasharray:none;stroke-opacity:1;marker-end:url(#Arrow1Lend-3)" />
  <path
     inkscape:connector-curvature="0"
     id="path1468-5"
     d="M 221.68994,110.68298 V 90.818891"
     style="fill:none;stroke:#000000;stroke-width:0.633293;stroke-linecap:butt;stroke-linejoin:miter;stroke-miterlimit:4.1;stroke-dasharray:none;stroke-opacity:1;marker-end:url(#Arrow1Lend-5)" />
  <g
     id="g3291"
     transform="matrix(0.61041953,0,0,0.61041953,135.74662,54.117036)"
     style="stroke-linecap:butt;stroke-linejoin:round">
    <g
       word-spacing="normal"
       letter-spacing="normal"
       font-size-adjust="none"
       font-stretch="normal"
       font-weight="normal"
       font-variant="normal"
       font-style="normal"
       stroke-miterlimit="10.433"
       xml:space="preserve"
       transform="matrix(0.41142857,0,0,-0.41142857,-72,324)"
       id="content"
       style="font-style:normal;font-variant:normal;font-weight:normal;font-stretch:normal;letter-spacing:normal;word-spacing:normal;text-anchor:start;fill:none;fill-opacity:1;fill-rule:evenodd;stroke:#000000;stroke-linecap:butt;stroke-linejoin:round;stroke-miterlimit:10.433;stroke-dasharray:none;stroke-dashoffset:0;stroke-opacity:1"><path
         id="path3288"
         d="m 485.91,435.45 0.18,0.27 0.18,0.26 0.19,0.25 0.19,0.23 0.2,0.21 0.2,0.2 0.2,0.19 0.21,0.17 0.21,0.16 0.21,0.15 0.22,0.14 0.22,0.12 0.22,0.12 0.21,0.1 0.22,0.1 0.22,0.08 0.22,0.08 0.22,0.07 0.21,0.06 0.21,0.05 0.21,0.05 0.21,0.03 0.21,0.04 0.2,0.02 0.19,0.03 0.19,0.02 0.19,0.01 0.18,0.01 0.17,0.01 h 0.17 0.16 0.16 v 1.55 c -1.55,-0.11 -3.54,-0.16 -4.88,-0.16 -1.55,0 -4.44,0.11 -5.73,0.16 v -1.55 c 2.04,0 2.84,-0.95 2.84,-1.93 0,-0.55 -0.3,-1.21 -0.5,-1.5 l -8.22,-13.36 -9.01,14.7 c -0.36,0.5 -0.36,0.59 -0.36,0.84 0,1.05 1.25,1.25 3.48,1.25 v 1.55 c -1.78,-0.16 -5.42,-0.16 -7.36,-0.16 -2.09,0 -4.39,0.05 -6.48,0.16 v -1.55 h 0.89 c 3.39,0 3.79,-0.54 4.59,-1.84 L 472,419.79 v -9.7 c 0,-1.8 -0.09,-2.34 -3.92,-2.34 h -1.2 v -1.55 c 1.8,0.16 5.33,0.16 7.28,0.16 1.94,0 5.47,0 7.27,-0.16 v 1.55 h -1.14 c -3.85,0 -3.99,0.5 -3.99,2.43 v 9.61 z"
         inkscape:connector-curvature="0"
         style="fill:#000000;stroke-width:0;stroke-linecap:butt;stroke-linejoin:round" /></g>
  </g>
  <g
     id="g4141"
     transform="matrix(0.61041953,0,0,0.61041953,122.43461,67.919231)"
     style="stroke-linecap:butt;stroke-linejoin:round">
    <g
       id="g4139"
       transform="matrix(0.41142857,0,0,-0.41142857,-72,324)"
       xml:space="preserve"
       stroke-miterlimit="10.433"
       font-style="normal"
       font-variant="normal"
       font-weight="normal"
       font-stretch="normal"
       font-size-adjust="none"
       letter-spacing="normal"
       word-spacing="normal"
       style="font-style:normal;font-variant:normal;font-weight:normal;font-stretch:normal;letter-spacing:normal;word-spacing:normal;text-anchor:start;fill:none;fill-opacity:1;fill-rule:evenodd;stroke:#000000;stroke-linecap:butt;stroke-linejoin:round;stroke-miterlimit:10.433;stroke-dasharray:none;stroke-dashoffset:0;stroke-opacity:1"><path
         d="m 472.91,425.53 -6.37,1.54 c -3.1,0.75 -5.04,3.44 -5.04,6.33 0,3.49 2.69,6.53 6.58,6.53 8.31,0 9.41,-8.17 9.71,-10.42 0.04,-0.3 0.04,-0.59 0.6,-0.59 0.65,0 0.65,0.25 0.65,1.2 v 10 c 0,0.86 0,1.2 -0.55,1.2 -0.35,0 -0.41,-0.04 -0.75,-0.65 L 476,437.84 c -1.5,1.44 -3.54,3.48 -7.98,3.48 -5.53,0 -9.7,-4.39 -9.7,-9.67 0,-4.12 2.64,-7.76 6.51,-9.11 0.55,-0.2 3.1,-0.79 6.58,-1.64 1.34,-0.36 2.84,-0.7 4.23,-2.54 1.05,-1.3 1.55,-2.94 1.55,-4.58 0,-3.55 -2.48,-7.13 -6.67,-7.13 -1.45,0 -5.23,0.25 -7.88,2.69 -2.89,2.69 -3.04,5.87 -3.09,7.67 -0.05,0.5 -0.44,0.5 -0.59,0.5 -0.64,0 -0.64,-0.36 -0.64,-1.25 v -9.97 c 0,-0.84 0,-1.18 0.54,-1.18 0.35,0 0.39,0.09 0.74,0.64 0,0.04 0.15,0.2 1.79,2.84 1.55,-1.69 4.74,-3.48 9.18,-3.48 5.82,0 9.81,4.87 9.81,10.35 0,4.99 -3.28,9.07 -7.47,10.07 z"
         id="path4135"
         inkscape:connector-curvature="0"
         style="fill:#000000;stroke-width:0;stroke-linecap:butt;stroke-linejoin:round" /><path
         d="m 491.55,422.75 v 5.46 l -6.92,-0.54 v -1.55 c 3.48,0 3.89,-0.34 3.89,-2.78 v -13.36 c 0,-2.23 -0.55,-2.23 -3.89,-2.23 v -1.55 c 1.95,0.05 4.28,0.16 5.69,0.16 1.98,0 4.32,0 6.32,-0.16 v 1.55 h -1.04 c -3.69,0 -3.8,0.54 -3.8,2.34 v 7.67 c 0,4.92 2.09,9.36 5.89,9.36 0.35,0 0.44,0 0.55,-0.05 -0.16,-0.04 -1.16,-0.64 -1.16,-1.93 0,-1.41 1.05,-2.14 2.16,-2.14 0.89,0 2.14,0.59 2.14,2.18 0,1.6 -1.55,3.03 -3.69,3.03 -3.64,0 -5.44,-3.32 -6.14,-5.46 z"
         id="path4137"
         inkscape:connector-curvature="0"
         style="fill:#000000;stroke-width:0;stroke-linecap:butt;stroke-linejoin:round" /></g>
  </g>
  <g
     id="g4999"
     transform="matrix(0.61041953,0,0,0.61041953,144.78211,26.158608)"
     style="stroke-linecap:butt;stroke-linejoin:round">
    <g
       word-spacing="normal"
       letter-spacing="normal"
       font-size-adjust="none"
       font-stretch="normal"
       font-weight="normal"
       font-variant="normal"
       font-style="normal"
       stroke-miterlimit="10.433"
       xml:space="preserve"
       transform="matrix(0.41142857,0,0,-0.41142857,-72,324)"
       id="g4997"
       style="font-style:normal;font-variant:normal;font-weight:normal;font-stretch:normal;letter-spacing:normal;word-spacing:normal;text-anchor:start;fill:none;fill-opacity:1;fill-rule:evenodd;stroke:#000000;stroke-linecap:butt;stroke-linejoin:round;stroke-miterlimit:10.433;stroke-dasharray:none;stroke-dashoffset:0;stroke-opacity:1"><path
         id="path4993"
         d="m 482.77,438.48 0.02,0.03 0.01,0.02 0.02,0.02 0.01,0.03 0.01,0.02 0.02,0.02 0.01,0.02 0.01,0.02 0.03,0.04 0.02,0.04 0.02,0.04 0.02,0.03 0.02,0.03 0.01,0.03 0.02,0.03 0.01,0.03 0.01,0.02 0.01,0.03 0.01,0.02 0.01,0.03 0.01,0.02 v 0.02 l 0.01,0.03 v 0.02 l 0.01,0.04 0.01,0.03 v 0.02 0.02 0.03 0.03 0.02 0.03 0.03 0.03 0.03 c 0,0.8 -0.29,0.8 -1.28,0.8 H 459.5 l -0.54,-11.22 h 1.25 c 0.34,5.64 1.84,9.67 10.01,9.67 h 7.82 l -19.38,-30.64 c -0.34,-0.54 -0.34,-0.59 -0.34,-1 0,-0.84 0.25,-0.84 1.28,-0.84 h 22.97 l 0.86,13.3 h -1.25 c -0.41,-6.93 -1.35,-11.61 -10.57,-11.61 h -8.17 z"
         inkscape:connector-curvature="0"
         style="fill:#000000;stroke-width:0;stroke-linecap:butt;stroke-linejoin:round" /><path
         id="path4995"
         d="m 494.31,422.75 v 5.46 l -6.92,-0.54 v -1.55 c 3.48,0 3.89,-0.34 3.89,-2.78 v -13.36 c 0,-2.23 -0.55,-2.23 -3.89,-2.23 v -1.55 c 1.95,0.05 4.28,0.16 5.68,0.16 1.99,0 4.33,0 6.33,-0.16 v 1.55 h -1.04 c -3.69,0 -3.8,0.54 -3.8,2.34 v 7.67 c 0,4.92 2.09,9.36 5.89,9.36 0.34,0 0.44,0 0.55,-0.05 -0.16,-0.04 -1.16,-0.64 -1.16,-1.93 0,-1.41 1.05,-2.14 2.16,-2.14 0.89,0 2.14,0.59 2.14,2.18 0,1.6 -1.55,3.03 -3.69,3.03 -3.64,0 -5.44,-3.32 -6.14,-5.46 z"
         inkscape:connector-curvature="0"
         style="fill:#000000;stroke-width:0;stroke-linecap:butt;stroke-linejoin:round" /></g>
  </g>
</svg>
