<?xml version="1.0" encoding="UTF-8" standalone="no"?>
<svg
   xmlns:dc="http://purl.org/dc/elements/1.1/"
   xmlns:cc="http://creativecommons.org/ns#"
   xmlns:rdf="http://www.w3.org/1999/02/22-rdf-syntax-ns#"
   xmlns:svg="http://www.w3.org/2000/svg"
   xmlns="http://www.w3.org/2000/svg"
   xmlns:sodipodi="http://sodipodi.sourceforge.net/DTD/sodipodi-0.dtd"
   xmlns:inkscape="http://www.inkscape.org/namespaces/inkscape"
   width="35"
   height="35"
   viewBox="-8 -5.5 35 35"
   fill="none"
   version="1.1"
   id="svg12"
   sodipodi:docname="connect.svg"
   inkscape:version="0.92.2 5c3e80d, 2017-08-06">
  <metadata
     id="metadata18">
    <rdf:RDF>
      <cc:Work
         rdf:about="">
        <dc:format>image/svg+xml</dc:format>
        <dc:type
           rdf:resource="http://purl.org/dc/dcmitype/StillImage" />
      </cc:Work>
    </rdf:RDF>
  </metadata>
  <defs
     id="defs16" />
  <sodipodi:namedview
     pagecolor="#ffffff"
     bordercolor="#666666"
     borderopacity="1"
     objecttolerance="10"
     gridtolerance="10"
     guidetolerance="10"
     inkscape:pageopacity="0"
     inkscape:pageshadow="2"
     inkscape:window-width="1920"
     inkscape:window-height="1015"
     id="namedview14"
     showgrid="false"
     inkscape:zoom="6.7428571"
     inkscape:cx="17.5"
     inkscape:cy="17.5"
     inkscape:window-x="0"
     inkscape:window-y="0"
     inkscape:window-maximized="1"
     inkscape:current-layer="svg12" />
  <path
     fill-rule="evenodd"
     clip-rule="evenodd"
     d="M17.0537 14.0888L14.8211 7.08338L15.4328 6.93021L17.6655 13.9356L17.0537 14.0888Z"
     fill="black"
     id="path2"
     style="fill:#b90f22;fill-opacity:1" />
  <path
     fill-rule="evenodd"
     clip-rule="evenodd"
     d="M7.25397 15.1579L12.2987 6.31579L12.8462 6.62914L7.80147 15.4712L7.25397 15.1579Z"
     fill="black"
     id="path4"
     style="fill:#b90f22;fill-opacity:1" />
  <path
     d="M19.8658 13.8947C19.8658 15.29 18.7365 16.4211 17.3434 16.4211C15.9504 16.4211 14.8211 15.29 14.8211 13.8947C14.8211 12.4995 15.9504 11.3684 17.3434 11.3684C18.7365 11.3684 19.8658 12.4995 19.8658 13.8947Z"
     fill="black"
     id="path6"
     style="fill:#b90f22;fill-opacity:1" />
  <path
     d="M11.0375 18.9474C11.0375 21.7379 8.77891 24 5.99278 24C3.20666 24 0.948051 21.7379 0.948051 18.9474C0.948051 16.1569 3.20666 13.8947 5.99278 13.8947C8.77891 13.8947 11.0375 16.1569 11.0375 18.9474Z"
     fill="black"
     id="path8"
     style="fill:#b90f22;fill-opacity:1" />
  <path
     d="M17.8477 3.78947C17.8477 5.88234 16.1537 7.57895 14.0641 7.57895C11.9745 7.57895 10.2806 5.88234 10.2806 3.78947C10.2806 1.69661 11.9745 0 14.0641 0C16.1537 0 17.8477 1.69661 17.8477 3.78947Z"
     fill="black"
     id="path10"
     style="fill:#b90f22;fill-opacity:1" />
</svg>
