<?xml version="1.0" encoding="UTF-8" standalone="no"?>
<svg
   xmlns:dc="http://purl.org/dc/elements/1.1/"
   xmlns:cc="http://creativecommons.org/ns#"
   xmlns:rdf="http://www.w3.org/1999/02/22-rdf-syntax-ns#"
   xmlns:svg="http://www.w3.org/2000/svg"
   xmlns="http://www.w3.org/2000/svg"
   xmlns:xlink="http://www.w3.org/1999/xlink"
   xmlns:sodipodi="http://sodipodi.sourceforge.net/DTD/sodipodi-0.dtd"
   xmlns:inkscape="http://www.inkscape.org/namespaces/inkscape"
   height="260pt"
   version="1.1"
   viewBox="0 0 410 260"
   width="410pt"
   id="svg253"
   sodipodi:docname="example1b.svg"
   inkscape:version="1.0.1 (3bc2e813f5, 2020-09-07)">
  <sodipodi:namedview
     pagecolor="#ffffff"
     bordercolor="#666666"
     borderopacity="1"
     objecttolerance="10"
     gridtolerance="10"
     guidetolerance="10"
     inkscape:pageopacity="0"
     inkscape:pageshadow="2"
     inkscape:window-width="1920"
     inkscape:window-height="1051"
     id="namedview255"
     showgrid="false"
     inkscape:zoom="2.1302083"
     inkscape:cx="288"
     inkscape:cy="192"
     inkscape:window-x="1920"
     inkscape:window-y="0"
     inkscape:window-maximized="1"
     inkscape:current-layer="axes_1"
     inkscape:document-rotation="0" />
  <metadata
     id="metadata2">
    <rdf:RDF>
      <cc:Work>
        <dc:type
           rdf:resource="http://purl.org/dc/dcmitype/StillImage" />
        <dc:date>2022-08-10T15:51:31.132027</dc:date>
        <dc:format>image/svg+xml</dc:format>
        <dc:creator>
          <cc:Agent>
            <dc:title>Matplotlib v3.3.4, https://matplotlib.org/</dc:title>
          </cc:Agent>
        </dc:creator>
        <dc:title />
      </cc:Work>
    </rdf:RDF>
    <rdf:RDF>
      <cc:Work
         rdf:about="">
        <dc:title />
      </cc:Work>
    </rdf:RDF>
  </metadata>
  <defs
     id="defs6">
    <marker
       style="overflow:visible;"
       id="Arrow1Lend"
       refX="0.0"
       refY="0.0"
       orient="auto"
       inkscape:stockid="Arrow1Lend"
       inkscape:isstock="true">
      <path
         transform="scale(0.8) rotate(180) translate(12.5,0)"
         style="fill-rule:evenodd;stroke:#000000;stroke-width:1pt;stroke-opacity:1;fill:#000000;fill-opacity:1"
         d="M 0.0,0.0 L 5.0,-5.0 L -12.5,0.0 L 5.0,5.0 L 0.0,0.0 z "
         id="path2401" />
    </marker>
    <style
       type="text/css"
       id="style4">*{stroke-linecap:butt;stroke-linejoin:round;}</style>
    <g
       id="g5882">
      <symbol
         overflow="visible"
         id="symbol5514">
        <path
           style="stroke:none;"
           d=""
           id="path1937" />
      </symbol>
      <symbol
         overflow="visible"
         id="symbol9499">
        <path
           style="stroke:none;"
           d="M 2.078125 -1.9375 C 2.296875 -1.890625 3.109375 -1.734375 3.109375 -1.015625 C 3.109375 -0.515625 2.765625 -0.109375 1.984375 -0.109375 C 1.140625 -0.109375 0.78125 -0.671875 0.59375 -1.53125 C 0.5625 -1.65625 0.5625 -1.6875 0.453125 -1.6875 C 0.328125 -1.6875 0.328125 -1.625 0.328125 -1.453125 L 0.328125 -0.125 C 0.328125 0.046875 0.328125 0.109375 0.4375 0.109375 C 0.484375 0.109375 0.5 0.09375 0.6875 -0.09375 C 0.703125 -0.109375 0.703125 -0.125 0.890625 -0.3125 C 1.328125 0.09375 1.78125 0.109375 1.984375 0.109375 C 3.125 0.109375 3.59375 -0.5625 3.59375 -1.28125 C 3.59375 -1.796875 3.296875 -2.109375 3.171875 -2.21875 C 2.84375 -2.546875 2.453125 -2.625 2.03125 -2.703125 C 1.46875 -2.8125 0.8125 -2.9375 0.8125 -3.515625 C 0.8125 -3.875 1.0625 -4.28125 1.921875 -4.28125 C 3.015625 -4.28125 3.078125 -3.375 3.09375 -3.078125 C 3.09375 -2.984375 3.1875 -2.984375 3.203125 -2.984375 C 3.34375 -2.984375 3.34375 -3.03125 3.34375 -3.21875 L 3.34375 -4.234375 C 3.34375 -4.390625 3.34375 -4.46875 3.234375 -4.46875 C 3.1875 -4.46875 3.15625 -4.46875 3.03125 -4.34375 C 3 -4.3125 2.90625 -4.21875 2.859375 -4.1875 C 2.484375 -4.46875 2.078125 -4.46875 1.921875 -4.46875 C 0.703125 -4.46875 0.328125 -3.796875 0.328125 -3.234375 C 0.328125 -2.890625 0.484375 -2.609375 0.75 -2.390625 C 1.078125 -2.140625 1.359375 -2.078125 2.078125 -1.9375 Z M 2.078125 -1.9375 "
           id="path4279" />
      </symbol>
      <symbol
         overflow="visible"
         id="symbol6928">
        <path
           style="stroke:none;"
           d="M 4.6875 -2.140625 C 4.6875 -3.40625 3.703125 -4.46875 2.5 -4.46875 C 1.25 -4.46875 0.28125 -3.375 0.28125 -2.140625 C 0.28125 -0.84375 1.3125 0.109375 2.484375 0.109375 C 3.6875 0.109375 4.6875 -0.875 4.6875 -2.140625 Z M 2.5 -0.140625 C 2.0625 -0.140625 1.625 -0.34375 1.359375 -0.8125 C 1.109375 -1.25 1.109375 -1.859375 1.109375 -2.21875 C 1.109375 -2.609375 1.109375 -3.140625 1.34375 -3.578125 C 1.609375 -4.03125 2.078125 -4.25 2.484375 -4.25 C 2.921875 -4.25 3.34375 -4.03125 3.609375 -3.59375 C 3.875 -3.171875 3.875 -2.59375 3.875 -2.21875 C 3.875 -1.859375 3.875 -1.3125 3.65625 -0.875 C 3.421875 -0.421875 2.984375 -0.140625 2.5 -0.140625 Z M 2.5 -0.140625 "
           id="path4748" />
      </symbol>
      <symbol
         overflow="visible"
         id="symbol3587">
        <path
           style="stroke:none;"
           d="M 1.765625 -6.921875 L 0.328125 -6.8125 L 0.328125 -6.5 C 1.03125 -6.5 1.109375 -6.4375 1.109375 -5.9375 L 1.109375 -0.75 C 1.109375 -0.3125 1 -0.3125 0.328125 -0.3125 L 0.328125 0 C 0.65625 -0.015625 1.1875 -0.03125 1.4375 -0.03125 C 1.6875 -0.03125 2.171875 -0.015625 2.546875 0 L 2.546875 -0.3125 C 1.875 -0.3125 1.765625 -0.3125 1.765625 -0.75 Z M 1.765625 -6.921875 "
           id="path5247" />
      </symbol>
      <symbol
         overflow="visible"
         id="symbol7011">
        <path
           style="stroke:none;"
           d="M 3.3125 -0.75 C 3.359375 -0.359375 3.625 0.0625 4.09375 0.0625 C 4.3125 0.0625 4.921875 -0.078125 4.921875 -0.890625 L 4.921875 -1.453125 L 4.671875 -1.453125 L 4.671875 -0.890625 C 4.671875 -0.3125 4.421875 -0.25 4.3125 -0.25 C 3.984375 -0.25 3.9375 -0.703125 3.9375 -0.75 L 3.9375 -2.734375 C 3.9375 -3.15625 3.9375 -3.546875 3.578125 -3.921875 C 3.1875 -4.3125 2.6875 -4.46875 2.21875 -4.46875 C 1.390625 -4.46875 0.703125 -4 0.703125 -3.34375 C 0.703125 -3.046875 0.90625 -2.875 1.171875 -2.875 C 1.453125 -2.875 1.625 -3.078125 1.625 -3.328125 C 1.625 -3.453125 1.578125 -3.78125 1.109375 -3.78125 C 1.390625 -4.140625 1.875 -4.25 2.1875 -4.25 C 2.6875 -4.25 3.25 -3.859375 3.25 -2.96875 L 3.25 -2.609375 C 2.734375 -2.578125 2.046875 -2.546875 1.421875 -2.25 C 0.671875 -1.90625 0.421875 -1.390625 0.421875 -0.953125 C 0.421875 -0.140625 1.390625 0.109375 2.015625 0.109375 C 2.671875 0.109375 3.125 -0.296875 3.3125 -0.75 Z M 3.25 -2.390625 L 3.25 -1.390625 C 3.25 -0.453125 2.53125 -0.109375 2.078125 -0.109375 C 1.59375 -0.109375 1.1875 -0.453125 1.1875 -0.953125 C 1.1875 -1.5 1.609375 -2.328125 3.25 -2.390625 Z M 3.25 -2.390625 "
           id="path2988" />
      </symbol>
      <symbol
         overflow="visible"
         id="symbol2179">
        <path
           style="stroke:none;"
           d="M 1.671875 -3.3125 L 1.671875 -4.40625 L 0.28125 -4.296875 L 0.28125 -3.984375 C 0.984375 -3.984375 1.0625 -3.921875 1.0625 -3.421875 L 1.0625 -0.75 C 1.0625 -0.3125 0.953125 -0.3125 0.28125 -0.3125 L 0.28125 0 C 0.671875 -0.015625 1.140625 -0.03125 1.421875 -0.03125 C 1.8125 -0.03125 2.28125 -0.03125 2.6875 0 L 2.6875 -0.3125 L 2.46875 -0.3125 C 1.734375 -0.3125 1.71875 -0.421875 1.71875 -0.78125 L 1.71875 -2.3125 C 1.71875 -3.296875 2.140625 -4.1875 2.890625 -4.1875 C 2.953125 -4.1875 2.984375 -4.1875 3 -4.171875 C 2.96875 -4.171875 2.765625 -4.046875 2.765625 -3.78125 C 2.765625 -3.515625 2.984375 -3.359375 3.203125 -3.359375 C 3.375 -3.359375 3.625 -3.484375 3.625 -3.796875 C 3.625 -4.109375 3.3125 -4.40625 2.890625 -4.40625 C 2.15625 -4.40625 1.796875 -3.734375 1.671875 -3.3125 Z M 1.671875 -3.3125 "
           id="path9763" />
      </symbol>
      <symbol
         overflow="visible"
         id="symbol7524">
        <path
           style="stroke:none;"
           d="M 2.75 -1.859375 L 2.75 -2.4375 L 0.109375 -2.4375 L 0.109375 -1.859375 Z M 2.75 -1.859375 "
           id="path5059" />
      </symbol>
      <symbol
         overflow="visible"
         id="symbol1286">
        <path
           style="stroke:none;"
           d="M 1.71875 -3.75 L 1.71875 -4.40625 L 0.28125 -4.296875 L 0.28125 -3.984375 C 0.984375 -3.984375 1.0625 -3.921875 1.0625 -3.484375 L 1.0625 1.171875 C 1.0625 1.625 0.953125 1.625 0.28125 1.625 L 0.28125 1.9375 C 0.625 1.921875 1.140625 1.90625 1.390625 1.90625 C 1.671875 1.90625 2.171875 1.921875 2.515625 1.9375 L 2.515625 1.625 C 1.859375 1.625 1.75 1.625 1.75 1.171875 L 1.75 -0.59375 C 1.796875 -0.421875 2.21875 0.109375 2.96875 0.109375 C 4.15625 0.109375 5.1875 -0.875 5.1875 -2.15625 C 5.1875 -3.421875 4.234375 -4.40625 3.109375 -4.40625 C 2.328125 -4.40625 1.90625 -3.96875 1.71875 -3.75 Z M 1.75 -1.140625 L 1.75 -3.359375 C 2.03125 -3.875 2.515625 -4.15625 3.03125 -4.15625 C 3.765625 -4.15625 4.359375 -3.28125 4.359375 -2.15625 C 4.359375 -0.953125 3.671875 -0.109375 2.9375 -0.109375 C 2.53125 -0.109375 2.15625 -0.3125 1.890625 -0.71875 C 1.75 -0.921875 1.75 -0.9375 1.75 -1.140625 Z M 1.75 -1.140625 "
           id="path5052" />
      </symbol>
      <symbol
         overflow="visible"
         id="symbol7469">
        <path
           style="stroke:none;"
           d="M 1.171875 -2.171875 C 1.171875 -3.796875 1.984375 -4.21875 2.515625 -4.21875 C 2.609375 -4.21875 3.234375 -4.203125 3.578125 -3.84375 C 3.171875 -3.8125 3.109375 -3.515625 3.109375 -3.390625 C 3.109375 -3.125 3.296875 -2.9375 3.5625 -2.9375 C 3.828125 -2.9375 4.03125 -3.09375 4.03125 -3.40625 C 4.03125 -4.078125 3.265625 -4.46875 2.5 -4.46875 C 1.25 -4.46875 0.34375 -3.390625 0.34375 -2.15625 C 0.34375 -0.875 1.328125 0.109375 2.484375 0.109375 C 3.8125 0.109375 4.140625 -1.09375 4.140625 -1.1875 C 4.140625 -1.28125 4.03125 -1.28125 4 -1.28125 C 3.921875 -1.28125 3.890625 -1.25 3.875 -1.1875 C 3.59375 -0.265625 2.9375 -0.140625 2.578125 -0.140625 C 2.046875 -0.140625 1.171875 -0.5625 1.171875 -2.171875 Z M 1.171875 -2.171875 "
           id="path1245" />
      </symbol>
      <symbol
         overflow="visible"
         id="symbol4204">
        <path
           style="stroke:none;"
           d="M 1.109375 -2.515625 C 1.171875 -4 2.015625 -4.25 2.359375 -4.25 C 3.375 -4.25 3.484375 -2.90625 3.484375 -2.515625 Z M 1.109375 -2.296875 L 3.890625 -2.296875 C 4.109375 -2.296875 4.140625 -2.296875 4.140625 -2.515625 C 4.140625 -3.5 3.59375 -4.46875 2.359375 -4.46875 C 1.203125 -4.46875 0.28125 -3.4375 0.28125 -2.1875 C 0.28125 -0.859375 1.328125 0.109375 2.46875 0.109375 C 3.6875 0.109375 4.140625 -1 4.140625 -1.1875 C 4.140625 -1.28125 4.0625 -1.3125 4 -1.3125 C 3.921875 -1.3125 3.890625 -1.25 3.875 -1.171875 C 3.53125 -0.140625 2.625 -0.140625 2.53125 -0.140625 C 2.03125 -0.140625 1.640625 -0.4375 1.40625 -0.8125 C 1.109375 -1.28125 1.109375 -1.9375 1.109375 -2.296875 Z M 1.109375 -2.296875 "
           id="path5620" />
      </symbol>
    </g>
  </defs>
  <g
     id="figure_1"
     transform="translate(-15.687424,-9.9448349)">
    <g
       id="patch_1">
      <path
         d="M 0,288 H 432 V 0 H 0 Z"
         style="fill:none"
         id="path8" />
    </g>
    <g
       id="axes_1">
      <g
         id="patch_2">
        <path
           d="M 42.800242,224.02852 H 413.64 V 24.240726 H 42.800242 Z"
           style="fill:#ffffff"
           id="path11" />
      </g>
      <g
         id="line2d_1">
        <path
           clip-path="url(#p6a3d189197)"
           d="m 49.422381,80.655236 6.622138,14.553372 6.622139,-11.047901 6.622139,47.196813 6.622138,-21.34822 13.244277,-8.26229 6.622139,24.41702 6.622139,-20.31956 6.62214,15.61517 6.62214,-14.52196 6.62214,40.35085 6.62213,-42.77748 6.62214,24.43597 6.62214,-57.628243 6.62214,30.832133 6.62214,-30.697875 6.62214,54.682415 6.62213,-15.2828 6.62214,38.2223 6.62214,-15.71873 6.62214,20.10467 6.62214,-29.90236 13.24428,15.16102 6.62213,13.6254 6.62214,-23.36256 6.62214,34.6471 6.62214,-39.33535 6.62214,30.34242 6.62214,-20.15387 6.62213,41.72726 6.62214,-36.76996 6.62214,38.09253 6.62214,-23.78867 6.62214,42.34051 6.62214,-34.27594 6.62214,4.17683 6.62213,-54.48816 6.62214,-0.85624 6.62214,-15.239867 6.62214,42.061087 6.62214,1.05832 6.62214,21.66561 6.62214,-51.27347 6.62213,44.26427 46.35497,15.44852"
           style="fill:none;stroke:#b90f22;stroke-width:1.5;stroke-linecap:square"
           id="path14" />
      </g>
      <g
         id="matplotlib.axis_1">
        <g
           id="xtick_1">
          <g
             id="line2d_2">
            <defs
               id="defs18">
              <path
                 d="M 0,0 V -3.5"
                 id="mde3b8480f8"
                 style="stroke:#000000;stroke-width:0.8" />
            </defs>
            <g
               id="g22">
              <use
                 style="stroke:#000000;stroke-width:0.8"
                 x="62.666656"
                 xlink:href="#mde3b8480f8"
                 y="224.02852"
                 id="use20"
                 width="100%"
                 height="100%" />
            </g>
          </g>
          <g
             id="text_1">
            <!-- $\mathdefault{40}$ -->
            <g
               transform="matrix(0.17,0,0,-0.17,54.899277,239.28997)"
               id="g33">
              <defs
                 id="defs27">
                <path
                   d="M 33.59375,64.40625 C 33.59375,66.5 33.5,66.5 31.703125,66.5 L 2,19.59375 V 17 H 27.796875 V 7.140625 C 27.796875,3.5 27.59375,2.5 20.59375,2.5 H 18.703125 V 0 c 3.203125,0 8.59375,0 12,0 3.390625,0 8.796875,0 12,0 v 2.5 h -1.90625 c -7,0 -7.203125,1 -7.203125,4.640625 V 17 h 10.203125 v 2.59375 H 33.59375 Z m -5.5,-6.546875 V 19.59375 H 4 Z"
                   id="CMR17-52" />
                <path
                   d="M 42,31.640625 C 42,37.75 41.90625,48.125 37.703125,56.109375 34,63.109375 28.09375,65.59375 22.90625,65.59375 18.09375,65.59375 12,63.40625 8.203125,56.203125 4.203125,48.71875 3.796875,39.4375 3.796875,31.640625 3.796875,25.953125 3.90625,17.28125 7,9.671875 11.296875,-0.609375 19,-2 22.90625,-2 27.5,-2 34.5,-0.109375 38.59375,9.375 41.59375,16.28125 42,24.359375 42,31.640625 Z M 22.90625,-0.40625 c -6.40625,0 -10.203125,5.484375 -11.609375,13.09375 -1.09375,5.875 -1.09375,14.46875 -1.09375,20.0625 0,7.6875 0,14.078125 1.296875,20.171875 C 13.40625,61.390625 19,64 22.90625,64 27,64 32.296875,61.296875 34.203125,53.125 35.5,47.4375 35.59375,40.734375 35.59375,32.75 c 0,-6.5 0,-14.484375 -1.1875,-20.375 -2.109375,-10.890625 -8,-12.78125 -11.5,-12.78125 z"
                   id="CMR17-48" />
              </defs>
              <use
                 transform="scale(0.996264)"
                 xlink:href="#CMR17-52"
                 id="use29"
                 x="0"
                 y="0"
                 width="100%"
                 height="100%" />
              <use
                 transform="matrix(0.996264,0,0,0.996264,45.690477,0)"
                 xlink:href="#CMR17-48"
                 id="use31"
                 x="0"
                 y="0"
                 width="100%"
                 height="100%" />
            </g>
          </g>
        </g>
        <g
           id="xtick_2">
          <g
             id="line2d_3">
            <g
               id="g39">
              <use
                 style="stroke:#000000;stroke-width:0.8"
                 x="128.88805"
                 xlink:href="#mde3b8480f8"
                 y="224.02852"
                 id="use37"
                 width="100%"
                 height="100%" />
            </g>
          </g>
          <g
             id="text_2">
            <!-- $\mathdefault{50}$ -->
            <g
               transform="matrix(0.17,0,0,-0.17,121.12066,239.28997)"
               id="g49">
              <defs
                 id="defs43">
                <path
                   d="M 11.40625,57.6875 C 12.40625,57.28125 16.5,56 20.703125,56 30,56 35.09375,61.109375 38,64.0625 38,64.953125 38,65.5 37.40625,65.5 c -0.109375,0 -0.3125,0 -1.109375,-0.453125 -3.5,-1.640625 -7.59375,-2.96875 -12.59375,-2.96875 -3,0 -7.5,0.40625 -12.40625,2.59375 -1.09375,0.5 -1.296875,0.5 -1.390625,0.5 -0.5,0 -0.609375,-0.109375 -0.609375,-2.09375 v -28.65625 c 0,-1.78125 0,-2.28125 1,-2.28125 0.5,0 0.703125,0.203125 1.203125,0.890625 3.203125,4.484375 7.59375,6.375 12.59375,6.375 3.5,0 11,-2.1875 11,-19.265625 0,-3.1875 0,-8.96875 -3,-13.5625 -2.5,-4.09375 -6.390625,-6.1875 -10.6875,-6.1875 C 14.796875,0.390625 8.09375,5 6.296875,12.71875 6.703125,12.609375 7.5,12.421875 7.90625,12.421875 c 1.296875,0 3.796875,0.703125 3.796875,3.796875 C 11.703125,18.90625 9.796875,20 7.90625,20 5.59375,20 4.09375,18.59375 4.09375,15.796875 4.09375,7.09375 11,-2 21.59375,-2 c 10.3125,0 20.109375,8.875 20.109375,21.75 0,11.96875 -7.796875,21.25 -17.5,21.25 -5.109375,0 -9.40625,-1.890625 -12.796875,-5.46875 z"
                   id="CMR17-53" />
              </defs>
              <use
                 transform="scale(0.996264)"
                 xlink:href="#CMR17-53"
                 id="use45"
                 x="0"
                 y="0"
                 width="100%"
                 height="100%" />
              <use
                 transform="matrix(0.996264,0,0,0.996264,45.690477,0)"
                 xlink:href="#CMR17-48"
                 id="use47"
                 x="0"
                 y="0"
                 width="100%"
                 height="100%" />
            </g>
          </g>
        </g>
        <g
           id="xtick_3">
          <g
             id="line2d_4">
            <g
               id="g55">
              <use
                 style="stroke:#000000;stroke-width:0.8"
                 x="195.10944"
                 xlink:href="#mde3b8480f8"
                 y="224.02852"
                 id="use53"
                 width="100%"
                 height="100%" />
            </g>
          </g>
          <g
             id="text_3">
            <!-- $\mathdefault{60}$ -->
            <g
               transform="matrix(0.17,0,0,-0.17,187.34205,239.28997)"
               id="g65">
              <defs
                 id="defs59">
                <path
                   d="m 10.59375,34 c 0,23.65625 11.203125,29 17.703125,29 C 30.40625,63 35.5,62.640625 37.5,59 c -1.59375,0 -4.59375,0 -4.59375,-3.484375 0,-2.6875 2.1875,-3.59375 3.59375,-3.59375 0.90625,0 3.59375,0.390625 3.59375,3.703125 0,6.15625 -5,9.671875 -11.890625,9.671875 C 16.296875,65.296875 3.796875,52.96875 3.796875,31 3.796875,3.953125 15.09375,-2 23.09375,-2 32.796875,-2 42,6.671875 42,20.046875 42,32.515625 33.90625,41.59375 23.703125,41.59375 17.59375,41.59375 13.09375,37.609375 10.59375,30.625 Z m 12.5,-33.609375 C 10.796875,0.390625 10.796875,18.75 10.796875,22.4375 10.796875,29.625 14.203125,40 23.5,40 c 1.703125,0 6.59375,0 9.90625,-6.875 1.796875,-3.90625 1.796875,-7.984375 1.796875,-12.984375 0,-5.390625 0,-9.359375 -2.109375,-13.359375 -2.1875,-4.109375 -5.390625,-6.390625 -10,-6.390625 z"
                   id="CMR17-54" />
              </defs>
              <use
                 transform="scale(0.996264)"
                 xlink:href="#CMR17-54"
                 id="use61"
                 x="0"
                 y="0"
                 width="100%"
                 height="100%" />
              <use
                 transform="matrix(0.996264,0,0,0.996264,45.690477,0)"
                 xlink:href="#CMR17-48"
                 id="use63"
                 x="0"
                 y="0"
                 width="100%"
                 height="100%" />
            </g>
          </g>
        </g>
        <g
           id="xtick_4">
          <g
             id="line2d_5">
            <g
               id="g71">
              <use
                 style="stroke:#000000;stroke-width:0.8"
                 x="261.33081"
                 xlink:href="#mde3b8480f8"
                 y="224.02852"
                 id="use69"
                 width="100%"
                 height="100%" />
            </g>
          </g>
          <g
             id="text_4">
            <!-- $\mathdefault{70}$ -->
            <g
               transform="matrix(0.17,0,0,-0.17,253.56343,239.28997)"
               id="g81">
              <defs
                 id="defs75">
                <path
                   d="m 45.09375,61.578125 v 2.1875 h -23.5 C 9.90625,63.765625 9.703125,65.078125 9.296875,67 H 7.5 L 4.59375,48.34375 h 1.8125 c 0.296875,1.890625 1,6.96875 2.1875,8.859375 C 9.203125,58 16.59375,58 18.296875,58 h 22 L 29.203125,41.578125 c -7.40625,-11.046875 -12.5,-25.96875 -12.5,-39 0,-1.1875 0,-4.578125 3.59375,-4.578125 3.609375,0 3.609375,3.390625 3.609375,4.671875 v 4.59375 c 0,16.296875 2.796875,27.046875 7.390625,33.921875 z"
                   id="CMR17-55" />
              </defs>
              <use
                 transform="scale(0.996264)"
                 xlink:href="#CMR17-55"
                 id="use77"
                 x="0"
                 y="0"
                 width="100%"
                 height="100%" />
              <use
                 transform="matrix(0.996264,0,0,0.996264,45.690477,0)"
                 xlink:href="#CMR17-48"
                 id="use79"
                 x="0"
                 y="0"
                 width="100%"
                 height="100%" />
            </g>
          </g>
        </g>
        <g
           id="xtick_5">
          <g
             id="line2d_6">
            <g
               id="g87">
              <use
                 style="stroke:#000000;stroke-width:0.8"
                 x="327.55219"
                 xlink:href="#mde3b8480f8"
                 y="224.02852"
                 id="use85"
                 width="100%"
                 height="100%" />
            </g>
          </g>
          <g
             id="text_5">
            <!-- $\mathdefault{80}$ -->
            <g
               transform="matrix(0.17,0,0,-0.17,319.78482,239.28997)"
               id="g97">
              <defs
                 id="defs91">
                <path
                   d="M 27.203125,35.375 C 33.5,38.546875 39.90625,43.328125 39.90625,50.984375 c 0,9.03125 -8.8125,14.3125 -16.90625,14.3125 -9.09375,0 -17.09375,-6.5625 -17.09375,-15.609375 0,-2.484375 0.59375,-6.765625 4.5,-10.546875 1,-0.984375 5.1875,-3.96875 7.890625,-5.859375 -4.5,-2.296875 -15,-7.75 -15,-18.6875 C 3.296875,4.359375 13.09375,-2 22.796875,-2 33.5,-2 42.5,5.65625 42.5,15.78125 c 0,9.0625 -6.09375,13.234375 -10.09375,15.921875 z M 14.09375,44.09375 c -0.796875,0.5 -4.796875,3.578125 -4.796875,8.265625 0,6.0625 6.296875,10.640625 13.5,10.640625 C 30.703125,63 36.5,57.4375 36.5,50.96875 36.5,41.703125 26.09375,36.421875 25.59375,36.421875 c -0.09375,0 -0.1875,0 -1,0.609375 z M 32.5,23.734375 C 34,22.640625 38.796875,19.375 38.796875,13.296875 38.796875,5.953125 31.40625,0.390625 23,0.390625 c -9.09375,0 -16,6.453125 -16,14.296875 0,7.859375 6.09375,14.40625 13,17.5 z"
                   id="CMR17-56" />
              </defs>
              <use
                 transform="scale(0.996264)"
                 xlink:href="#CMR17-56"
                 id="use93"
                 x="0"
                 y="0"
                 width="100%"
                 height="100%" />
              <use
                 transform="matrix(0.996264,0,0,0.996264,45.690477,0)"
                 xlink:href="#CMR17-48"
                 id="use95"
                 x="0"
                 y="0"
                 width="100%"
                 height="100%" />
            </g>
          </g>
        </g>
        <g
           id="xtick_6">
          <g
             id="line2d_7">
            <g
               id="g103">
              <use
                 style="stroke:#000000;stroke-width:0.8"
                 x="393.77359"
                 xlink:href="#mde3b8480f8"
                 y="224.02852"
                 id="use101"
                 width="100%"
                 height="100%" />
            </g>
          </g>
          <g
             id="text_6">
            <!-- $\mathdefault{90}$ -->
            <g
               transform="matrix(0.17,0,0,-0.17,386.0062,239.28997)"
               id="g113">
              <defs
                 id="defs107">
                <path
                   d="m 35.203125,29.125 c 0,-21.875 -9.109375,-28.640625 -16.609375,-28.640625 -2.296875,0 -7.890625,0 -10.1875,4.109375 2.59375,-0.40625 4.5,0.984375 4.5,3.5 0,2.71875 -2.203125,3.609375 -3.609375,3.609375 -0.890625,0 -3.59375,-0.40625 -3.59375,-3.796875 C 5.703125,1.109375 11.59375,-2 18.796875,-2 30.296875,-2 42,10.53125 42,32.390625 c 0,27.25 -11.203125,32.90625 -18.796875,32.90625 -9.90625,0 -19.40625,-8.609375 -19.40625,-21.890625 C 3.796875,31.109375 11.90625,22 22.09375,22 30.5,22 34.203125,29.734375 35.203125,33 Z m -12.90625,-5.53125 c -2.703125,0 -6.5,0.5 -9.59375,6.4375 -2.109375,3.859375 -2.109375,8.421875 -2.109375,13.265625 0,5.859375 0,9.90625 2.8125,14.265625 1.390625,2.078125 4,5.4375 9.796875,5.4375 C 35,63 35,45.078125 35,41.125 35,34.09375 31.796875,23.59375 22.296875,23.59375 Z"
                   id="CMR17-57" />
              </defs>
              <use
                 transform="scale(0.996264)"
                 xlink:href="#CMR17-57"
                 id="use109"
                 x="0"
                 y="0"
                 width="100%"
                 height="100%" />
              <use
                 transform="matrix(0.996264,0,0,0.996264,45.690477,0)"
                 xlink:href="#CMR17-48"
                 id="use111"
                 x="0"
                 y="0"
                 width="100%"
                 height="100%" />
            </g>
          </g>
        </g>
        <g
           id="text_7">
          <!-- Atomic Number, Z -->
          <g
             transform="matrix(0.17,0,0,-0.17,164.09703,266.34571)"
             id="g160">
            <defs
               id="defs130">
              <path
                 d="M 36.296875,68.40625 C 35.796875,69.703125 35.59375,70 34.59375,70 c -1,0 -1.1875,-0.296875 -1.6875,-1.59375 L 11.703125,8.84375 C 9.796875,3.484375 5.796875,2.390625 2.296875,2.390625 v -2.59375 C 4.09375,0 8.09375,0 10,0 c 2.5,0 6.5,0 8.90625,-0.203125 v 2.59375 c -4.703125,0 -5.40625,3.25 -5.40625,4.46875 0,0.90625 0.203125,1.421875 0.40625,2.03125 L 19.203125,24 H 45.40625 l 6,-17.09375 c 0.5,-1.203125 0.5,-1.40625 0.5,-1.796875 0,-2.71875 -4.3125,-2.71875 -6.203125,-2.71875 V 0 c 2.890625,0 8.09375,0 11.203125,0 2.59375,0 7.59375,0 10,-0.203125 v 2.59375 c -5.3125,0 -7.109375,0 -8.40625,3.65625 z m -4,-7.578125 L 44.5,26.59375 H 20.09375 Z"
                 id="CMR17-65" />
              <path
                 d="m 15.09375,40 h 14 v 2.578125 h -14 V 61 H 13.296875 C 13.09375,50.703125 9.59375,41.6875 1.09375,41.6875 V 40 H 9.796875 V 12.046875 C 9.796875,10.15625 9.796875,-1 21.40625,-1 c 5.890625,0 9.296875,5.78125 9.296875,13.140625 V 17.8125 H 28.90625 V 12.234375 C 28.90625,5.375 26.203125,0.796875 22,0.796875 c -2.90625,0 -6.90625,1.984375 -6.90625,11.046875 z"
                 id="CMR17-116" />
              <path
                 d="M 43.09375,21.1875 C 43.09375,34 33.796875,44 22.90625,44 12,44 2.703125,34 2.703125,21.1875 2.703125,8.609375 12,-1 22.90625,-1 c 10.890625,0 20.1875,9.609375 20.1875,22.1875 z M 22.90625,0.796875 c -4.703125,0 -8.703125,2.796875 -11,6.703125 -2.5,4.484375 -2.8125,10.09375 -2.8125,14.5 0,4.203125 0.203125,9.40625 2.8125,13.90625 2,3.296875 5.890625,6.5 11,6.5 4.5,0 8.296875,-2.5 10.6875,-6 C 36.703125,31.703125 36.703125,25.109375 36.703125,22 c 0,-3.90625 -0.203125,-9.890625 -2.90625,-14.703125 -2.796875,-4.59375 -7.09375,-6.5 -10.890625,-6.5 z"
                 id="CMR17-111" />
              <path
                 d="m 67.59375,30.203125 c 0,4.984375 -0.890625,13.390625 -12.796875,13.390625 C 48,43.59375 43.296875,39 41.5,33.609375 h -0.09375 c -1.203125,8.203125 -7.109375,9.984375 -12.703125,9.984375 -7.90625,0 -12,-6.09375 -13.5,-10.09375 H 15.09375 V 43.59375 L 3.296875,42.5 v -2.59375 c 5.90625,0 6.796875,-0.609375 6.796875,-5.40625 V 6.6875 c 0,-3.8125 -0.390625,-4.296875 -6.796875,-4.296875 v -2.59375 C 5.703125,0 10.09375,0 12.703125,0 c 2.59375,0 7.09375,0 9.5,-0.203125 v 2.59375 c -6.40625,0 -6.796875,0.390625 -6.796875,4.296875 V 25.90625 C 15.40625,35.109375 21,42 28,42 c 7.40625,0 8.203125,-6.59375 8.203125,-11.40625 V 6.6875 c 0,-3.8125 -0.40625,-4.296875 -6.796875,-4.296875 v -2.59375 C 31.796875,0 36.203125,0 38.796875,0 c 2.609375,0 7.109375,0 9.5,-0.203125 v 2.59375 C 41.90625,2.390625 41.5,2.78125 41.5,6.6875 V 25.90625 C 41.5,35.109375 47.09375,42 54.09375,42 61.5,42 62.296875,35.40625 62.296875,30.59375 V 6.6875 C 62.296875,2.875 61.90625,2.390625 55.5,2.390625 v -2.59375 C 57.90625,0 62.296875,0 64.90625,0 67.5,0 72,0 74.40625,-0.203125 v 2.59375 c -6.40625,0 -6.8125,0.390625 -6.8125,4.296875 z"
                 id="CMR17-109" />
              <path
                 d="m 15.5,61.078125 c 0,2.1875 -1.796875,4.078125 -4.09375,4.078125 -2.203125,0 -4.109375,-1.78125 -4.109375,-4.078125 C 7.296875,58.890625 9.09375,57 11.40625,57 13.59375,57 15.5,58.796875 15.5,61.078125 Z M 3.796875,42.28125 v -2.578125 c 5.609375,0 6.40625,-0.609375 6.40625,-5.375 V 6.671875 c 0,-3.796875 -0.40625,-4.28125 -6.796875,-4.28125 v -2.59375 C 5.796875,0 10.09375,0 12.59375,0 c 2.40625,0 6.5,0 8.8125,-0.203125 v 2.59375 c -5.90625,0 -6.109375,0.59375 -6.109375,4.171875 V 43.375 Z"
                 id="CMR17-105" />
              <path
                 d="M 34.90625,35 C 33,35 30.203125,35 30.203125,31.515625 c 0,-2.796875 2.296875,-3.59375 3.59375,-3.59375 0.703125,0 3.609375,0.3125 3.609375,3.703125 0,6.921875 -6.8125,12.171875 -14.5,12.171875 -10.609375,0 -19.609375,-9.765625 -19.609375,-22.5 C 3.296875,8.0625 12.703125,-1 22.90625,-1 c 12.390625,0 15.5,11.578125 15.5,12.6875 0,0.40625 -0.109375,0.703125 -0.8125,0.703125 -0.6875,0 -0.796875,-0.09375 -1.1875,-1.40625 -2.609375,-8.171875 -8.3125,-10.1875 -12.609375,-10.1875 -6.390625,0 -14.09375,5.875 -14.09375,20.59375 C 9.703125,36.53125 17.09375,42 23,42 c 3.90625,0 9.703125,-1.796875 11.90625,-7 z"
                 id="CMR17-99" />
              <path
                 d="M 20.5,66.40625 C 19.796875,67.5 19.703125,67.5 17.796875,67.5 H 5.09375 V 65 H 7 c 4,0 5.796875,-0.484375 6.09375,-0.59375 v -54.875 c 0,-2.484375 0,-7.140625 -8,-7.140625 v -2.59375 C 7.40625,0 11.59375,0 14.09375,0 c 2.5,0 6.703125,0 9,-0.203125 v 2.59375 c -8,0 -8,4.65625 -8,7.140625 V 63.015625 C 15.796875,62.421875 15.796875,62.21875 16.5,61.234375 L 53.59375,1.1875 C 54.296875,0 54.59375,0 55.09375,0 c 1,0 1,0.296875 1,2.171875 v 55.71875 c 0,2.46875 0,7.109375 8,7.109375 v 2.59375 c -2.296875,-0.09375 -6.5,-0.09375 -9,-0.09375 -2.5,0 -6.6875,0 -9,0.09375 V 65 c 8,0 8,-4.65625 8,-7.140625 v -45.9375 z"
                 id="CMR17-78" />
              <path
                 d="M 29.40625,42.078125 V 39.5 c 5.890625,0 6.796875,-0.609375 6.796875,-5.34375 V 16.125 c 0,-8.3125 -4.5,-15.53125 -11.90625,-15.53125 -8.203125,0 -8.890625,4.84375 -8.890625,10 V 43.171875 L 3.296875,42.078125 V 39.5 c 4,0 6.703125,0 6.796875,-3.96875 v -19 c 0,-6.640625 0,-10.890625 2.609375,-13.671875 C 14,1.578125 16.5,-1 23.703125,-1 c 8.5,0 11.796875,6.890625 12.59375,8.90625 H 36.40625 V -0.984375 H 48.296875 V 2 C 42.40625,2 41.5,2.59375 41.5,7.390625 v 35.78125 z"
                 id="CMR17-117" />
              <path
                 d="M 15,68.6875 3.09375,67.59375 V 65 C 9,65 9.90625,64.40625 9.90625,59.640625 v -59.84375 h 1.796875 l 2.890625,7.09375 C 17.5,2.203125 21.796875,-1 27.59375,-1 c 10,0 20.109375,8.8125 20.109375,22.40625 0,12.78125 -9,22.1875 -19.109375,22.1875 C 22.40625,43.59375 18,40.296875 15,36.40625 Z m 0.203125,-37.375 c 0,1.78125 0,2.09375 1.390625,4.1875 C 20.5,41.515625 26.09375,42 28,42 31,42 41.296875,40.390625 41.296875,21.5 41.296875,1.6875 29.5,0.59375 27.09375,0.59375 c -3.09375,0 -7.59375,1.1875 -10.796875,7 -1.09375,1.90625 -1.09375,2.109375 -1.09375,3.890625 z"
                 id="CMR17-98" />
              <path
                 d="M 38.09375,23 C 38.5,23.40625 38.5,23.609375 38.5,24.625 38.5,34.96875 33.09375,44 21.703125,44 c -10.609375,0 -19,-10.109375 -19,-22.390625 0,-13 9.5,-22.609375 20.09375,-22.609375 C 34,-1 38.40625,9.484375 38.40625,11.5625 c 0,0.6875 -0.609375,0.6875 -0.8125,0.6875 -0.6875,0 -0.796875,-0.203125 -1.1875,-1.375 C 34.203125,4.140625 28.703125,0.796875 23.5,0.796875 19.203125,0.796875 14.90625,3.171875 12.203125,7.5 9.09375,12.546875 9.09375,18.375 9.09375,23 Z M 9.203125,24.5 c 0.703125,14.640625 8.390625,17.90625 12.390625,17.90625 6.8125,0 11.40625,-6.515625 11.5,-17.90625 z"
                 id="CMR17-101" />
              <path
                 d="M 15,23.390625 C 15,33 19.09375,42 26.59375,42 27.296875,42 28,41.90625 28.703125,41.59375 c 0,0 -2.203125,-0.703125 -2.203125,-3.28125 0,-2.40625 1.90625,-3.40625 3.40625,-3.40625 1.1875,0 3.390625,0.703125 3.390625,3.5 0,3.203125 -3.203125,5.1875 -6.59375,5.1875 -7.609375,0 -10.90625,-7.390625 -11.90625,-10.890625 h -0.09375 V 43.59375 L 3.09375,42.5 V 39.90625 C 9,39.90625 9.90625,39.296875 9.90625,34.5 V 6.6875 C 9.90625,2.875 9.5,2.390625 3.09375,2.390625 v -2.59375 C 5.5,0 10.09375,0 12.703125,0 c 2.890625,0 8,0 10.703125,-0.203125 v 2.59375 C 16.203125,2.390625 15,2.390625 15,6.875 Z"
                 id="CMR17-114" />
              <path
                 d="M 15.796875,1.59375 C 16,0.703125 16,0.390625 16,-1.203125 c 0,-6.03125 -2,-11.5625 -6.203125,-16.59375 -0.5,-0.484375 -0.5,-0.6875 -0.5,-0.90625 0,-0.390625 0.40625,-0.796875 0.796875,-0.796875 0.609375,0 7.5,7.015625 7.5,18.140625 0,3.296875 -0.390625,9.515625 -5.09375,9.515625 -2.203125,0 -4.09375,-1.484375 -4.09375,-4.078125 C 8.40625,1.5 10.296875,0 12.5,0 13.703125,0 15,0.5 15.796875,1.59375 Z"
                 id="CMR17-44" />
              <path
                 d="M 51.59375,66.09375 C 51.59375,68 51.5,68 49.40625,68 h -42.5 l -1,-21.9375 H 7.703125 C 8.296875,57.421875 11.296875,65.5 27.5,65.5 H 44 L 5.296875,3.1875 C 4.59375,2.09375 4.59375,1.984375 4.59375,1.296875 4.59375,0 4.796875,0 6.796875,0 h 43.90625 L 52.09375,26.03125 H 50.296875 C 49.40625,12.953125 48.703125,2.78125 29.59375,2.78125 H 12.203125 Z"
                 id="CMR17-90" />
            </defs>
            <use
               transform="scale(0.996264)"
               xlink:href="#CMR17-65"
               id="use132"
               x="0"
               y="0"
               width="100%"
               height="100%" />
            <use
               transform="matrix(0.996264,0,0,0.996264,66.469976,0)"
               xlink:href="#CMR17-116"
               id="use134"
               x="0"
               y="0"
               width="100%"
               height="100%" />
            <use
               transform="matrix(0.996264,0,0,0.996264,101.75074,0)"
               xlink:href="#CMR17-111"
               id="use136"
               x="0"
               y="0"
               width="100%"
               height="100%" />
            <use
               transform="matrix(0.996264,0,0,0.996264,147.44122,0)"
               xlink:href="#CMR17-109"
               id="use138"
               x="0"
               y="0"
               width="100%"
               height="100%" />
            <use
               transform="matrix(0.996264,0,0,0.996264,224.36081,0)"
               xlink:href="#CMR17-105"
               id="use140"
               x="0"
               y="0"
               width="100%"
               height="100%" />
            <use
               transform="matrix(0.996264,0,0,0.996264,249.23187,0)"
               xlink:href="#CMR17-99"
               id="use142"
               x="0"
               y="0"
               width="100%"
               height="100%" />
            <use
               transform="matrix(0.996264,0,0,0.996264,319.7935,0)"
               xlink:href="#CMR17-78"
               id="use144"
               x="0"
               y="0"
               width="100%"
               height="100%" />
            <use
               transform="matrix(0.996264,0,0,0.996264,388.86593,0)"
               xlink:href="#CMR17-117"
               id="use146"
               x="0"
               y="0"
               width="100%"
               height="100%" />
            <use
               transform="matrix(0.996264,0,0,0.996264,439.7613,0)"
               xlink:href="#CMR17-109"
               id="use148"
               x="0"
               y="0"
               width="100%"
               height="100%" />
            <use
               transform="matrix(0.996264,0,0,0.996264,514.07843,0)"
               xlink:href="#CMR17-98"
               id="use150"
               x="0"
               y="0"
               width="100%"
               height="100%" />
            <use
               transform="matrix(0.996264,0,0,0.996264,567.57624,0)"
               xlink:href="#CMR17-101"
               id="use152"
               x="0"
               y="0"
               width="100%"
               height="100%" />
            <use
               transform="matrix(0.996264,0,0,0.996264,608.0619,0)"
               xlink:href="#CMR17-114"
               id="use154"
               x="0"
               y="0"
               width="100%"
               height="100%" />
            <use
               transform="matrix(0.996264,0,0,0.996264,643.34267,0)"
               xlink:href="#CMR17-44"
               id="use156"
               x="0"
               y="0"
               width="100%"
               height="100%" />
            <use
               transform="matrix(0.996264,0,0,0.996264,698.28969,0)"
               xlink:href="#CMR17-90"
               id="use158"
               x="0"
               y="0"
               width="100%"
               height="100%" />
          </g>
        </g>
      </g>
      <g
         id="matplotlib.axis_2">
        <g
           id="ytick_1">
          <g
             id="text_8">
            <!-- $\mathdefault{&#8722;1}$ -->
            <g
               style="fill:#ffffff"
               transform="matrix(0.17,0,0,-0.17,18.36,229.90925)"
               id="g172">
              <defs
                 id="defs166">
                <path
                   d="m 65.90625,23 c 1.6875,0 3.5,0 3.5,2 0,2 -1.8125,2 -3.5,2 H 11.796875 c -1.703125,0 -3.5,0 -3.5,-2 0,-2 1.796875,-2 3.5,-2 z"
                   id="CMSY10-0" />
                <path
                   d="M 26.59375,63.40625 C 26.59375,65.5 26.5,65.5 25.09375,65.5 21.203125,61.1875 15.296875,59.796875 9.703125,59.796875 c -0.296875,0 -0.796875,0 -0.90625,-0.296875 C 8.703125,59.296875 8.703125,59.09375 8.703125,57 11.796875,57 17,57.59375 21,59.984375 V 7.203125 C 21,3.6875 20.796875,2.5 12.203125,2.5 h -3 V 0 C 14,0 19,0 23.796875,0 28.59375,0 33.59375,0 38.40625,0 v 2.5 h -3 c -8.609375,0 -8.8125,1.09375 -8.8125,4.65625 z"
                   id="CMR17-49" />
              </defs>
              <use
                 transform="scale(0.996264)"
                 xlink:href="#CMSY10-0"
                 id="use168"
                 x="0"
                 y="0"
                 width="100%"
                 height="100%" />
              <use
                 transform="matrix(0.996264,0,0,0.996264,77.487468,0)"
                 xlink:href="#CMR17-49"
                 id="use170"
                 x="0"
                 y="0"
                 width="100%"
                 height="100%" />
            </g>
          </g>
        </g>
        <g
           id="ytick_2">
          <g
             id="text_9">
            <!-- $\mathdefault{0}$ -->
            <g
               style="fill:#ffffff"
               transform="matrix(0.17,0,0,-0.17,31.532861,179.9623)"
               id="g178">
              <use
                 transform="scale(0.996264)"
                 xlink:href="#CMR17-48"
                 id="use176"
                 x="0"
                 y="0"
                 width="100%"
                 height="100%" />
            </g>
          </g>
        </g>
        <g
           id="ytick_3">
          <g
             id="text_10">
            <!-- $\mathdefault{1}$ -->
            <g
               style="fill:#ffffff"
               transform="matrix(0.17,0,0,-0.17,31.532861,130.01535)"
               id="g184">
              <use
                 transform="scale(0.996264)"
                 xlink:href="#CMR17-49"
                 id="use182"
                 x="0"
                 y="0"
                 width="100%"
                 height="100%" />
            </g>
          </g>
        </g>
        <g
           id="ytick_4">
          <g
             id="text_11">
            <!-- $\mathdefault{2}$ -->
            <g
               style="fill:#ffffff"
               transform="matrix(0.17,0,0,-0.17,31.532861,80.068401)"
               id="g193">
              <defs
                 id="defs189">
                <path
                   d="M 41.703125,15.453125 H 39.90625 C 38.90625,8.375 38.09375,7.171875 37.703125,6.5625 37.203125,5.765625 30,5.765625 28.59375,5.765625 H 9.40625 C 13,9.671875 20,16.75 28.5,24.953125 34.59375,30.734375 41.703125,37.53125 41.703125,47.421875 41.703125,59.21875 32.296875,66 21.796875,66 10.796875,66 4.09375,56.3125 4.09375,47.34375 4.09375,43.4375 7,42.9375 8.203125,42.9375 c 1,0 4,0.609375 4,4.09375 0,3.078125 -2.609375,3.96875 -4,3.96875 C 7.59375,51 7,50.90625 6.59375,50.703125 8.5,59.21875 14.296875,63.40625 20.40625,63.40625 c 8.6875,0 14.390625,-6.890625 14.390625,-15.984375 C 34.796875,38.734375 29.703125,31.25 24,24.75 L 4.09375,2.28125 V 0 h 35.203125 z"
                   id="CMR17-50" />
              </defs>
              <use
                 transform="scale(0.996264)"
                 xlink:href="#CMR17-50"
                 id="use191"
                 x="0"
                 y="0"
                 width="100%"
                 height="100%" />
            </g>
          </g>
        </g>
        <g
           id="ytick_5">
          <g
             id="text_12">
            <!-- $\mathdefault{3}$ -->
            <g
               style="fill:#ffffff"
               transform="matrix(0.17,0,0,-0.17,31.532861,30.121452)"
               id="g202">
              <defs
                 id="defs198">
                <path
                   d="M 22.09375,33.703125 C 31,33.703125 34.90625,25.96875 34.90625,17.03125 34.90625,5 28.5,0.390625 22.703125,0.390625 c -5.296875,0 -13.90625,2.640625 -16.609375,10.4375 0.5,-0.203125 1,-0.203125 1.5,-0.203125 2.40625,0 4.203125,1.59375 4.203125,4.1875 C 11.796875,17.703125 9.59375,19 7.59375,19 5.90625,19 3.296875,18.203125 3.296875,14.46875 3.296875,5.234375 12.296875,-2 22.90625,-2 34,-2 42.5,6.71875 42.5,16.953125 c 0,9.71875 -8,16.75 -17.5,17.84375 C 32.59375,36.375 39.90625,43.0625 39.90625,52.015625 39.90625,59.6875 32,65.296875 23,65.296875 c -9.09375,0 -17.09375,-5.46875 -17.09375,-13.28125 C 5.90625,48.59375 8.5,48 9.796875,48 c 2.109375,0 3.90625,1.296875 3.90625,3.890625 0,2.578125 -1.796875,3.875 -3.90625,3.875 -0.390625,0 -0.890625,0 -1.296875,-0.1875 C 11.40625,61.859375 19.296875,63 22.796875,63 c 3.5,0 10.109375,-1.671875 10.109375,-11.125 0,-2.765625 -0.40625,-7.6875 -3.8125,-12.03125 C 26.09375,36 22.703125,36 19.40625,35.6875 c -0.5,0 -2.8125,-0.234375 -3.203125,-0.234375 C 15.5,35.359375 15.09375,35.265625 15.09375,34.5 c 0,-0.703125 0.109375,-0.796875 2.109375,-0.796875 z"
                   id="CMR17-51" />
              </defs>
              <use
                 transform="scale(0.996264)"
                 xlink:href="#CMR17-51"
                 id="use200"
                 x="0"
                 y="0"
                 width="100%"
                 height="100%" />
            </g>
          </g>
        </g>
        <g
           id="text_13">
          <!-- Abundance -->
          <g
             transform="matrix(0,-0.2,-0.2,0,34.484366,169.15571)"
             id="g229">
            <defs
               id="defs209">
              <path
                 d="m 41.5,30.203125 c 0,5.09375 -1,13.390625 -12.796875,13.390625 -7.90625,0 -12,-6.09375 -13.5,-10.09375 H 15.09375 V 43.59375 L 3.296875,42.5 v -2.59375 c 5.90625,0 6.796875,-0.609375 6.796875,-5.40625 V 6.6875 c 0,-3.8125 -0.390625,-4.296875 -6.796875,-4.296875 v -2.59375 C 5.703125,0 10.09375,0 12.703125,0 c 2.59375,0 7.09375,0 9.5,-0.203125 v 2.59375 c -6.40625,0 -6.796875,0.390625 -6.796875,4.296875 V 25.90625 C 15.40625,35.109375 21,42 28,42 c 7.40625,0 8.203125,-6.59375 8.203125,-11.40625 V 6.6875 c 0,-3.8125 -0.40625,-4.296875 -6.796875,-4.296875 v -2.59375 C 31.796875,0 36.203125,0 38.796875,0 c 2.609375,0 7.109375,0 9.5,-0.203125 v 2.59375 C 41.90625,2.390625 41.5,2.78125 41.5,6.6875 Z"
                 id="CMR17-110" />
              <path
                 d="M 29.203125,67.59375 V 65 C 35.09375,65 36,64.40625 36,59.6875 V 36.640625 c -0.40625,0.5 -4.5,6.953125 -12.59375,6.953125 C 13.203125,43.59375 3.296875,34.5 3.296875,21.3125 3.296875,8.203125 12.59375,-1 22.40625,-1 c 8.5,0 12.890625,6.265625 13.390625,6.9375 V -0.984375 H 47.90625 V 2 C 42,2 41.09375,2.59375 41.09375,7.390625 V 68.6875 Z m 6.59375,-55.796875 c 0,-3 -1.796875,-5.703125 -4.09375,-7.703125 -3.40625,-3 -6.796875,-3.5 -8.703125,-3.5 -2.90625,0 -13.296875,1.5 -13.296875,20.59375 C 9.703125,40.8125 21.296875,42 23.90625,42 28.5,42 32.203125,39.40625 34.5,35.796875 c 1.296875,-2.09375 1.296875,-2.390625 1.296875,-4.1875 z"
                 id="CMR17-100" />
              <path
                 d="M 36,25.828125 C 36,32.375 36,35.84375 31.796875,39.734375 28.09375,43 23.796875,44 20.40625,44 12.5,44 6.796875,37.609375 6.796875,30.796875 6.796875,27 9.796875,27 10.40625,27 11.703125,27 14,27.78125 14,30.53125 14,33 12.09375,34.078125 10.40625,34.078125 10,34.078125 9.5,33.96875 9.203125,33.875 c 2.09375,6.625 7.5,8.53125 11,8.53125 5,0 10.5,-4.453125 10.5,-12.953125 V 25 c -5.90625,0 -13,-0.796875 -18.609375,-3.796875 C 5.796875,17.703125 4,12.703125 4,8.90625 4,1.203125 13,-1 18.296875,-1 c 5.5,0 10.609375,3.171875 12.796875,8.984375 0.203125,-4.34375 3,-8.265625 7.40625,-8.265625 2.09375,0 7.40625,1.375 7.40625,9.140625 V 14.375 h -1.8125 V 8.78125 c 0,-6 -2.6875,-6.78125 -4,-6.78125 C 36,2 36,7.15625 36,11.53125 Z M 30.703125,13.59375 c 0,-8.640625 -6.203125,-13 -11.703125,-13 -5,0 -8.90625,3.703125 -8.90625,8.3125 0,2.984375 1.3125,8.28125 7.109375,11.484375 C 22,23.09375 27.5,23.5 30.703125,23.5 Z"
                 id="CMR17-97" />
            </defs>
            <use
               transform="scale(0.996264)"
               xlink:href="#CMR17-65"
               id="use211"
               x="0"
               y="0"
               width="100%"
               height="100%" />
            <use
               transform="matrix(0.996264,0,0,0.996264,69.07243,0)"
               xlink:href="#CMR17-98"
               id="use213"
               x="0"
               y="0"
               width="100%"
               height="100%" />
            <use
               transform="matrix(0.996264,0,0,0.996264,119.9678,0)"
               xlink:href="#CMR17-117"
               id="use215"
               x="0"
               y="0"
               width="100%"
               height="100%" />
            <use
               transform="matrix(0.996264,0,0,0.996264,170.86317,0)"
               xlink:href="#CMR17-110"
               id="use217"
               x="0"
               y="0"
               width="100%"
               height="100%" />
            <use
               transform="matrix(0.996264,0,0,0.996264,221.75854,0)"
               xlink:href="#CMR17-100"
               id="use219"
               x="0"
               y="0"
               width="100%"
               height="100%" />
            <use
               transform="matrix(0.996264,0,0,0.996264,272.65391,0)"
               xlink:href="#CMR17-97"
               id="use221"
               x="0"
               y="0"
               width="100%"
               height="100%" />
            <use
               transform="matrix(0.996264,0,0,0.996264,318.34439,0)"
               xlink:href="#CMR17-110"
               id="use223"
               x="0"
               y="0"
               width="100%"
               height="100%" />
            <use
               transform="matrix(0.996264,0,0,0.996264,369.23976,0)"
               xlink:href="#CMR17-99"
               id="use225"
               x="0"
               y="0"
               width="100%"
               height="100%" />
            <use
               transform="matrix(0.996264,0,0,0.996264,409.72542,0)"
               xlink:href="#CMR17-101"
               id="use227"
               x="0"
               y="0"
               width="100%"
               height="100%" />
          </g>
        </g>
      </g>
      <g
         id="legend_1" />
    </g>
  </g>
  <defs
     id="defs251">
    <clipPath
       id="p6a3d189197">
      <rect
         height="199.7878"
         width="370.83975"
         x="42.800243"
         y="24.240726"
         id="rect248" />
    </clipPath>
  </defs>
  <path
     style="fill:none;stroke:#000000;stroke-width:0.75px;stroke-linecap:butt;stroke-linejoin:miter;stroke-opacity:1;marker-end:url(#Arrow1Lend)"
     d="M 226.58634,62.617322 C 206.35755,87.501365 185.75089,100.43056 156.70203,81.717757"
     id="path2396"
     sodipodi:nodetypes="cc" />
  <g
     inkscape:label=""
     transform="matrix(1.8474177,0,0,1.8474177,-1.07636,-98.524723)"
     id="g2878">
    <g
       id="g7498">
      <g
         style="fill:#000000;fill-opacity:1"
         id="g1857">
        <use
           xlink:href="#symbol9499"
           x="91.925003"
           y="81.962997"
           id="use4875"
           width="100%"
           height="100%" />
        <use
           xlink:href="#symbol6928"
           x="95.854248"
           y="81.962997"
           id="use6016"
           width="100%"
           height="100%" />
        <use
           xlink:href="#symbol3587"
           x="100.83555"
           y="81.962997"
           id="use6265"
           width="100%"
           height="100%" />
        <use
           xlink:href="#symbol7011"
           x="103.60316"
           y="81.962997"
           id="use844"
           width="100%"
           height="100%" />
        <use
           xlink:href="#symbol2179"
           x="108.58446"
           y="81.962997"
           id="use1213"
           width="100%"
           height="100%" />
      </g>
      <g
         style="fill:#000000;fill-opacity:1"
         id="g171">
        <use
           xlink:href="#symbol2179"
           x="115.80436"
           y="81.962997"
           id="use8985"
           width="100%"
           height="100%" />
        <use
           xlink:href="#symbol7524"
           x="119.7067"
           y="81.962997"
           id="use2806"
           width="100%"
           height="100%" />
        <use
           xlink:href="#symbol1286"
           x="123.02724"
           y="81.962997"
           id="use6149"
           width="100%"
           height="100%" />
        <use
           xlink:href="#symbol2179"
           x="128.56247"
           y="81.962997"
           id="use4432"
           width="100%"
           height="100%" />
        <use
           xlink:href="#symbol6928"
           x="132.46481"
           y="81.962997"
           id="use7446"
           width="100%"
           height="100%" />
      </g>
      <g
         style="fill:#000000;fill-opacity:1"
         id="g1676">
        <use
           xlink:href="#symbol7469"
           x="137.72507"
           y="81.962997"
           id="use7667"
           width="100%"
           height="100%" />
        <use
           xlink:href="#symbol4204"
           x="142.15245"
           y="81.962997"
           id="use1284"
           width="100%"
           height="100%" />
        <use
           xlink:href="#symbol9499"
           x="146.57982"
           y="81.962997"
           id="use159"
           width="100%"
           height="100%" />
        <use
           xlink:href="#symbol9499"
           x="150.50908"
           y="81.962997"
           id="use7892"
           width="100%"
           height="100%" />
      </g>
    </g>
  </g>
</svg>
