<?xml version="1.0" encoding="UTF-8" standalone="no"?>
<svg
   xmlns:dc="http://purl.org/dc/elements/1.1/"
   xmlns:cc="http://creativecommons.org/ns#"
   xmlns:rdf="http://www.w3.org/1999/02/22-rdf-syntax-ns#"
   xmlns:svg="http://www.w3.org/2000/svg"
   xmlns="http://www.w3.org/2000/svg"
   xmlns:xlink="http://www.w3.org/1999/xlink"
   xmlns:sodipodi="http://sodipodi.sourceforge.net/DTD/sodipodi-0.dtd"
   xmlns:inkscape="http://www.inkscape.org/namespaces/inkscape"
   height="288pt"
   version="1.1"
   viewBox="0 0 432 288"
   width="432pt"
   id="svg488"
   sodipodi:docname="H-burn.svg"
   inkscape:version="1.0.1 (3bc2e813f5, 2020-09-07)">
  <sodipodi:namedview
     pagecolor="#ffffff"
     bordercolor="#666666"
     borderopacity="1"
     objecttolerance="10"
     gridtolerance="10"
     guidetolerance="10"
     inkscape:pageopacity="0"
     inkscape:pageshadow="2"
     inkscape:window-width="1920"
     inkscape:window-height="1051"
     id="namedview490"
     showgrid="false"
     inkscape:zoom="1.953125"
     inkscape:cx="288"
     inkscape:cy="192"
     inkscape:window-x="0"
     inkscape:window-y="0"
     inkscape:window-maximized="1"
     inkscape:current-layer="figure_1"
     inkscape:document-rotation="0" />
  <metadata
     id="metadata2">
    <rdf:RDF>
      <cc:Work>
        <dc:type
           rdf:resource="http://purl.org/dc/dcmitype/StillImage" />
        <dc:date>2023-05-13T17:07:56.697021</dc:date>
        <dc:format>image/svg+xml</dc:format>
        <dc:creator>
          <cc:Agent>
            <dc:title>Matplotlib v3.3.4, https://matplotlib.org/</dc:title>
          </cc:Agent>
        </dc:creator>
      </cc:Work>
    </rdf:RDF>
  </metadata>
  <defs
     id="defs6">
    <style
       type="text/css"
       id="style4">*{stroke-linecap:butt;stroke-linejoin:round;}</style>
  </defs>
  <g
     id="figure_1">
    <g
       id="axes_1"
       transform="translate(-3.7194844,-0.53650781)">
      <g
         id="patch_2"
         transform="translate(20.456408,-5.5891289)">
        <path
           d="M 54,252 H 388.8 V 34.56 H 54 Z"
           style="fill:#ffffff"
           id="path11" />
      </g>
      <g
         id="matplotlib.axis_1"
         transform="translate(20.456408,-5.5891289)">
        <g
           id="xtick_1">
          <g
             id="line2d_1">
            <defs
               id="defs15">
              <path
                 d="M 0,0 V -3.5"
                 id="mb1b20457d0"
                 style="stroke:#000000;stroke-width:0.8" />
            </defs>
            <g
               id="g19">
              <use
                 style="stroke:#000000;stroke-width:0.8"
                 x="54"
                 xlink:href="#mb1b20457d0"
                 y="252"
                 id="use17"
                 width="100%"
                 height="100%" />
            </g>
          </g>
          <g
             id="line2d_2">
            <defs
               id="defs23">
              <path
                 d="M 0,0 V 3.5"
                 id="me31d5b122b"
                 style="stroke:#000000;stroke-width:0.8" />
            </defs>
            <g
               id="g27">
              <use
                 style="stroke:#000000;stroke-width:0.8"
                 x="54"
                 xlink:href="#me31d5b122b"
                 y="34.560001"
                 id="use25"
                 width="100%"
                 height="100%" />
            </g>
          </g>
          <g
             id="text_1">
            <!-- $\mathdefault{10^{0}}$ -->
            <g
               transform="matrix(0.18,0,0,-0.18,42.702909,267.9533)"
               id="g40">
              <defs
                 id="defs32">
                <path
                   d="M 26.59375,63.40625 C 26.59375,65.5 26.5,65.5 25.09375,65.5 21.203125,61.1875 15.296875,59.796875 9.703125,59.796875 c -0.296875,0 -0.796875,0 -0.90625,-0.296875 C 8.703125,59.296875 8.703125,59.09375 8.703125,57 11.796875,57 17,57.59375 21,59.984375 V 7.203125 C 21,3.6875 20.796875,2.5 12.203125,2.5 h -3 V 0 C 14,0 19,0 23.796875,0 28.59375,0 33.59375,0 38.40625,0 v 2.5 h -3 c -8.609375,0 -8.8125,1.09375 -8.8125,4.65625 z"
                   id="CMR17-49" />
                <path
                   d="M 42,31.640625 C 42,37.75 41.90625,48.125 37.703125,56.109375 34,63.109375 28.09375,65.59375 22.90625,65.59375 18.09375,65.59375 12,63.40625 8.203125,56.203125 4.203125,48.71875 3.796875,39.4375 3.796875,31.640625 3.796875,25.953125 3.90625,17.28125 7,9.671875 11.296875,-0.609375 19,-2 22.90625,-2 27.5,-2 34.5,-0.109375 38.59375,9.375 41.59375,16.28125 42,24.359375 42,31.640625 Z M 22.90625,-0.40625 c -6.40625,0 -10.203125,5.484375 -11.609375,13.09375 -1.09375,5.875 -1.09375,14.46875 -1.09375,20.0625 0,7.6875 0,14.078125 1.296875,20.171875 C 13.40625,61.390625 19,64 22.90625,64 27,64 32.296875,61.296875 34.203125,53.125 35.5,47.4375 35.59375,40.734375 35.59375,32.75 c 0,-6.5 0,-14.484375 -1.1875,-20.375 -2.109375,-10.890625 -8,-12.78125 -11.5,-12.78125 z"
                   id="CMR17-48" />
              </defs>
              <use
                 transform="scale(0.996264)"
                 xlink:href="#CMR17-49"
                 id="use34"
                 x="0"
                 y="0"
                 width="100%"
                 height="100%" />
              <use
                 transform="matrix(0.996264,0,0,0.996264,45.690477,0)"
                 xlink:href="#CMR17-48"
                 id="use36"
                 x="0"
                 y="0"
                 width="100%"
                 height="100%" />
              <use
                 transform="matrix(0.697382,0,0,0.697382,91.380954,36.153639)"
                 xlink:href="#CMR17-48"
                 id="use38"
                 x="0"
                 y="0"
                 width="100%"
                 height="100%" />
            </g>
          </g>
        </g>
        <g
           id="xtick_2">
          <g
             id="line2d_3">
            <g
               id="g46">
              <use
                 style="stroke:#000000;stroke-width:0.8"
                 x="130.62589"
                 xlink:href="#mb1b20457d0"
                 y="252"
                 id="use44"
                 width="100%"
                 height="100%" />
            </g>
          </g>
          <g
             id="line2d_4">
            <g
               id="g51">
              <use
                 style="stroke:#000000;stroke-width:0.8"
                 x="130.62589"
                 xlink:href="#me31d5b122b"
                 y="34.560001"
                 id="use49"
                 width="100%"
                 height="100%" />
            </g>
          </g>
          <g
             id="text_2">
            <!-- $\mathdefault{10^{4}}$ -->
            <g
               transform="matrix(0.18,0,0,-0.18,119.3288,267.9533)"
               id="g63">
              <defs
                 id="defs55">
                <path
                   d="M 33.59375,64.40625 C 33.59375,66.5 33.5,66.5 31.703125,66.5 L 2,19.59375 V 17 H 27.796875 V 7.140625 C 27.796875,3.5 27.59375,2.5 20.59375,2.5 H 18.703125 V 0 c 3.203125,0 8.59375,0 12,0 3.390625,0 8.796875,0 12,0 v 2.5 h -1.90625 c -7,0 -7.203125,1 -7.203125,4.640625 V 17 h 10.203125 v 2.59375 H 33.59375 Z m -5.5,-6.546875 V 19.59375 H 4 Z"
                   id="CMR17-52" />
              </defs>
              <use
                 transform="scale(0.996264)"
                 xlink:href="#CMR17-49"
                 id="use57"
                 x="0"
                 y="0"
                 width="100%"
                 height="100%" />
              <use
                 transform="matrix(0.996264,0,0,0.996264,45.690477,0)"
                 xlink:href="#CMR17-48"
                 id="use59"
                 x="0"
                 y="0"
                 width="100%"
                 height="100%" />
              <use
                 transform="matrix(0.697382,0,0,0.697382,91.380954,36.153639)"
                 xlink:href="#CMR17-52"
                 id="use61"
                 x="0"
                 y="0"
                 width="100%"
                 height="100%" />
            </g>
          </g>
        </g>
        <g
           id="xtick_3">
          <g
             id="line2d_5">
            <g
               id="g69">
              <use
                 style="stroke:#000000;stroke-width:0.8"
                 x="207.25179"
                 xlink:href="#mb1b20457d0"
                 y="252"
                 id="use67"
                 width="100%"
                 height="100%" />
            </g>
          </g>
          <g
             id="line2d_6">
            <g
               id="g74">
              <use
                 style="stroke:#000000;stroke-width:0.8"
                 x="207.25179"
                 xlink:href="#me31d5b122b"
                 y="34.560001"
                 id="use72"
                 width="100%"
                 height="100%" />
            </g>
          </g>
          <g
             id="text_3">
            <!-- $\mathdefault{10^{8}}$ -->
            <g
               transform="matrix(0.18,0,0,-0.18,195.95469,267.9533)"
               id="g86">
              <defs
                 id="defs78">
                <path
                   d="M 27.203125,35.375 C 33.5,38.546875 39.90625,43.328125 39.90625,50.984375 c 0,9.03125 -8.8125,14.3125 -16.90625,14.3125 -9.09375,0 -17.09375,-6.5625 -17.09375,-15.609375 0,-2.484375 0.59375,-6.765625 4.5,-10.546875 1,-0.984375 5.1875,-3.96875 7.890625,-5.859375 -4.5,-2.296875 -15,-7.75 -15,-18.6875 C 3.296875,4.359375 13.09375,-2 22.796875,-2 33.5,-2 42.5,5.65625 42.5,15.78125 c 0,9.0625 -6.09375,13.234375 -10.09375,15.921875 z M 14.09375,44.09375 c -0.796875,0.5 -4.796875,3.578125 -4.796875,8.265625 0,6.0625 6.296875,10.640625 13.5,10.640625 C 30.703125,63 36.5,57.4375 36.5,50.96875 36.5,41.703125 26.09375,36.421875 25.59375,36.421875 c -0.09375,0 -0.1875,0 -1,0.609375 z M 32.5,23.734375 C 34,22.640625 38.796875,19.375 38.796875,13.296875 38.796875,5.953125 31.40625,0.390625 23,0.390625 c -9.09375,0 -16,6.453125 -16,14.296875 0,7.859375 6.09375,14.40625 13,17.5 z"
                   id="CMR17-56" />
              </defs>
              <use
                 transform="scale(0.996264)"
                 xlink:href="#CMR17-49"
                 id="use80"
                 x="0"
                 y="0"
                 width="100%"
                 height="100%" />
              <use
                 transform="matrix(0.996264,0,0,0.996264,45.690477,0)"
                 xlink:href="#CMR17-48"
                 id="use82"
                 x="0"
                 y="0"
                 width="100%"
                 height="100%" />
              <use
                 transform="matrix(0.697382,0,0,0.697382,91.380954,36.153639)"
                 xlink:href="#CMR17-56"
                 id="use84"
                 x="0"
                 y="0"
                 width="100%"
                 height="100%" />
            </g>
          </g>
        </g>
        <g
           id="xtick_4">
          <g
             id="line2d_7">
            <g
               id="g92">
              <use
                 style="stroke:#000000;stroke-width:0.8"
                 x="283.87769"
                 xlink:href="#mb1b20457d0"
                 y="252"
                 id="use90"
                 width="100%"
                 height="100%" />
            </g>
          </g>
          <g
             id="line2d_8">
            <g
               id="g97">
              <use
                 style="stroke:#000000;stroke-width:0.8"
                 x="283.87769"
                 xlink:href="#me31d5b122b"
                 y="34.560001"
                 id="use95"
                 width="100%"
                 height="100%" />
            </g>
          </g>
          <g
             id="text_4">
            <!-- $\mathdefault{10^{12}}$ -->
            <g
               transform="matrix(0.18,0,0,-0.18,269.50778,267.9533)"
               id="g111">
              <defs
                 id="defs101">
                <path
                   d="M 41.703125,15.453125 H 39.90625 C 38.90625,8.375 38.09375,7.171875 37.703125,6.5625 37.203125,5.765625 30,5.765625 28.59375,5.765625 H 9.40625 C 13,9.671875 20,16.75 28.5,24.953125 34.59375,30.734375 41.703125,37.53125 41.703125,47.421875 41.703125,59.21875 32.296875,66 21.796875,66 10.796875,66 4.09375,56.3125 4.09375,47.34375 4.09375,43.4375 7,42.9375 8.203125,42.9375 c 1,0 4,0.609375 4,4.09375 0,3.078125 -2.609375,3.96875 -4,3.96875 C 7.59375,51 7,50.90625 6.59375,50.703125 8.5,59.21875 14.296875,63.40625 20.40625,63.40625 c 8.6875,0 14.390625,-6.890625 14.390625,-15.984375 C 34.796875,38.734375 29.703125,31.25 24,24.75 L 4.09375,2.28125 V 0 h 35.203125 z"
                   id="CMR17-50" />
              </defs>
              <use
                 transform="scale(0.996264)"
                 xlink:href="#CMR17-49"
                 id="use103"
                 x="0"
                 y="0"
                 width="100%"
                 height="100%" />
              <use
                 transform="matrix(0.996264,0,0,0.996264,45.690477,0)"
                 xlink:href="#CMR17-48"
                 id="use105"
                 x="0"
                 y="0"
                 width="100%"
                 height="100%" />
              <use
                 transform="matrix(0.697382,0,0,0.697382,91.380954,36.153639)"
                 xlink:href="#CMR17-49"
                 id="use107"
                 x="0"
                 y="0"
                 width="100%"
                 height="100%" />
              <use
                 transform="matrix(0.697382,0,0,0.697382,123.36414,36.153639)"
                 xlink:href="#CMR17-50"
                 id="use109"
                 x="0"
                 y="0"
                 width="100%"
                 height="100%" />
            </g>
          </g>
        </g>
        <g
           id="xtick_5">
          <g
             id="line2d_9">
            <g
               id="g117">
              <use
                 style="stroke:#000000;stroke-width:0.8"
                 x="360.50357"
                 xlink:href="#mb1b20457d0"
                 y="252"
                 id="use115"
                 width="100%"
                 height="100%" />
            </g>
          </g>
          <g
             id="line2d_10">
            <g
               id="g122">
              <use
                 style="stroke:#000000;stroke-width:0.8"
                 x="360.50357"
                 xlink:href="#me31d5b122b"
                 y="34.560001"
                 id="use120"
                 width="100%"
                 height="100%" />
            </g>
          </g>
          <g
             id="text_5">
            <!-- $\mathdefault{10^{16}}$ -->
            <g
               transform="matrix(0.18,0,0,-0.18,346.13367,267.9533)"
               id="g136">
              <defs
                 id="defs126">
                <path
                   d="m 10.59375,34 c 0,23.65625 11.203125,29 17.703125,29 C 30.40625,63 35.5,62.640625 37.5,59 c -1.59375,0 -4.59375,0 -4.59375,-3.484375 0,-2.6875 2.1875,-3.59375 3.59375,-3.59375 0.90625,0 3.59375,0.390625 3.59375,3.703125 0,6.15625 -5,9.671875 -11.890625,9.671875 C 16.296875,65.296875 3.796875,52.96875 3.796875,31 3.796875,3.953125 15.09375,-2 23.09375,-2 32.796875,-2 42,6.671875 42,20.046875 42,32.515625 33.90625,41.59375 23.703125,41.59375 17.59375,41.59375 13.09375,37.609375 10.59375,30.625 Z m 12.5,-33.609375 C 10.796875,0.390625 10.796875,18.75 10.796875,22.4375 10.796875,29.625 14.203125,40 23.5,40 c 1.703125,0 6.59375,0 9.90625,-6.875 1.796875,-3.90625 1.796875,-7.984375 1.796875,-12.984375 0,-5.390625 0,-9.359375 -2.109375,-13.359375 -2.1875,-4.109375 -5.390625,-6.390625 -10,-6.390625 z"
                   id="CMR17-54" />
              </defs>
              <use
                 transform="scale(0.996264)"
                 xlink:href="#CMR17-49"
                 id="use128"
                 x="0"
                 y="0"
                 width="100%"
                 height="100%" />
              <use
                 transform="matrix(0.996264,0,0,0.996264,45.690477,0)"
                 xlink:href="#CMR17-48"
                 id="use130"
                 x="0"
                 y="0"
                 width="100%"
                 height="100%" />
              <use
                 transform="matrix(0.697382,0,0,0.697382,91.380954,36.153639)"
                 xlink:href="#CMR17-49"
                 id="use132"
                 x="0"
                 y="0"
                 width="100%"
                 height="100%" />
              <use
                 transform="matrix(0.697382,0,0,0.697382,123.36414,36.153639)"
                 xlink:href="#CMR17-54"
                 id="use134"
                 x="0"
                 y="0"
                 width="100%"
                 height="100%" />
            </g>
          </g>
        </g>
        <g
           id="text_6">
          <!-- Time (s) -->
          <g
             transform="matrix(0.18,0,0,-0.18,190.32977,288.87478)"
             id="g163">
            <defs
               id="defs147">
              <path
                 d="M 62.203125,67.59375 H 4.5 l -1.703125,-22 H 4.59375 C 5.90625,62.125 7.296875,65 22.703125,65 c 1.796875,0 4.703125,0 5.5,-0.09375 1.890625,-0.296875 1.890625,-1.5 1.890625,-3.78125 V 7.171875 C 30.09375,3.59375 29.796875,2.5 21.5,2.5 H 18.703125 V 0 C 23.5,0 28.5,0 33.40625,0 c 4.890625,0 9.890625,0 14.6875,0 V 2.5 H 45.296875 C 37,2.5 36.703125,3.59375 36.703125,7.171875 V 61.125 c 0,2.1875 0,3.390625 1.796875,3.78125 C 39.296875,65 42.203125,65 44,65 59.296875,65 60.796875,62.125 62.09375,45.59375 h 1.8125 z"
                 id="CMR17-84" />
              <path
                 d="m 15.5,61.078125 c 0,2.1875 -1.796875,4.078125 -4.09375,4.078125 -2.203125,0 -4.109375,-1.78125 -4.109375,-4.078125 C 7.296875,58.890625 9.09375,57 11.40625,57 13.59375,57 15.5,58.796875 15.5,61.078125 Z M 3.796875,42.28125 v -2.578125 c 5.609375,0 6.40625,-0.609375 6.40625,-5.375 V 6.671875 c 0,-3.796875 -0.40625,-4.28125 -6.796875,-4.28125 v -2.59375 C 5.796875,0 10.09375,0 12.59375,0 c 2.40625,0 6.5,0 8.8125,-0.203125 v 2.59375 c -5.90625,0 -6.109375,0.59375 -6.109375,4.171875 V 43.375 Z"
                 id="CMR17-105" />
              <path
                 d="m 67.59375,30.203125 c 0,4.984375 -0.890625,13.390625 -12.796875,13.390625 C 48,43.59375 43.296875,39 41.5,33.609375 h -0.09375 c -1.203125,8.203125 -7.109375,9.984375 -12.703125,9.984375 -7.90625,0 -12,-6.09375 -13.5,-10.09375 H 15.09375 V 43.59375 L 3.296875,42.5 v -2.59375 c 5.90625,0 6.796875,-0.609375 6.796875,-5.40625 V 6.6875 c 0,-3.8125 -0.390625,-4.296875 -6.796875,-4.296875 v -2.59375 C 5.703125,0 10.09375,0 12.703125,0 c 2.59375,0 7.09375,0 9.5,-0.203125 v 2.59375 c -6.40625,0 -6.796875,0.390625 -6.796875,4.296875 V 25.90625 C 15.40625,35.109375 21,42 28,42 c 7.40625,0 8.203125,-6.59375 8.203125,-11.40625 V 6.6875 c 0,-3.8125 -0.40625,-4.296875 -6.796875,-4.296875 v -2.59375 C 31.796875,0 36.203125,0 38.796875,0 c 2.609375,0 7.109375,0 9.5,-0.203125 v 2.59375 C 41.90625,2.390625 41.5,2.78125 41.5,6.6875 V 25.90625 C 41.5,35.109375 47.09375,42 54.09375,42 61.5,42 62.296875,35.40625 62.296875,30.59375 V 6.6875 C 62.296875,2.875 61.90625,2.390625 55.5,2.390625 v -2.59375 C 57.90625,0 62.296875,0 64.90625,0 67.5,0 72,0 74.40625,-0.203125 v 2.59375 c -6.40625,0 -6.8125,0.390625 -6.8125,4.296875 z"
                 id="CMR17-109" />
              <path
                 d="M 38.09375,23 C 38.5,23.40625 38.5,23.609375 38.5,24.625 38.5,34.96875 33.09375,44 21.703125,44 c -10.609375,0 -19,-10.109375 -19,-22.390625 0,-13 9.5,-22.609375 20.09375,-22.609375 C 34,-1 38.40625,9.484375 38.40625,11.5625 c 0,0.6875 -0.609375,0.6875 -0.8125,0.6875 -0.6875,0 -0.796875,-0.203125 -1.1875,-1.375 C 34.203125,4.140625 28.703125,0.796875 23.5,0.796875 19.203125,0.796875 14.90625,3.171875 12.203125,7.5 9.09375,12.546875 9.09375,18.375 9.09375,23 Z M 9.203125,24.5 c 0.703125,14.640625 8.390625,17.90625 12.390625,17.90625 6.8125,0 11.40625,-6.515625 11.5,-17.90625 z"
                 id="CMR17-101" />
              <path
                 d="m 30.59375,-24.390625 c 0,0.09375 0,0.296875 -0.296875,0.59375 -4.59375,4.671875 -16.890625,17.4375 -16.890625,48.5 0,31.0625 12.09375,43.71875 17,48.6875 0,0.109375 0.1875,0.3125 0.1875,0.609375 0,0.296875 -0.296875,0.5 -0.6875,0.5 -1.109375,0 -9.609375,-7.375 -14.5,-18.34375 C 10.40625,45.109375 9,34.359375 9,24.8125 9,17.625 9.703125,5.484375 15.703125,-7.359375 20.5,-17.734375 28.703125,-25 29.90625,-25 c 0.5,0 0.6875,0.203125 0.6875,0.609375 z"
                 id="CMR17-40" />
              <path
                 d="m 30.90625,42.140625 c 0,1.8125 -0.109375,1.90625 -0.703125,1.90625 -0.40625,0 -0.5,-0.09375 -1.703125,-1.59375 -0.296875,-0.40625 -1.203125,-1.421875 -1.5,-1.8125 -3.203125,3.40625 -7.703125,3.40625 -9.40625,3.40625 C 6.5,44.046875 2.5,38.234375 2.5,32.4375 c 0,-9.03125 10.203125,-11.109375 13.09375,-11.734375 6.3125,-1.28125 8.5,-1.6875 10.609375,-3.5 1.296875,-1.1875 3.5,-3.390625 3.5,-6.984375 0,-4.21875 -2.40625,-9.625 -11.609375,-9.625 -8.6875,0 -11.796875,6.59375 -13.59375,15.359375 -0.296875,1.390625 -0.296875,1.5 -1.09375,1.5 -0.8125,0 -0.90625,-0.109375 -0.90625,-2.09375 v -14.375 c 0,-1.78125 0.09375,-1.890625 0.703125,-1.890625 0.5,0 0.59375,0.109375 1.09375,0.90625 C 4.90625,0.890625 6.40625,3.296875 7,4.3125 9,1.609375 12.5,-1 18.09375,-1 28,-1 33.296875,4.421875 33.296875,12.25 c 0,5.125 -2.703125,7.828125 -4,9.03125 -3,3.109375 -6.5,3.8125 -10.703125,4.609375 -5.5,1.21875 -12.5,2.625 -12.5,8.75 0,2.59375 1.40625,8.125 11.5,8.125 10.703125,0 11.3125,-10.046875 11.5,-13.265625 C 29.203125,29 29.703125,28.890625 30,28.890625 c 0.90625,0 0.90625,0.3125 0.90625,2.015625 z"
                 id="CMR17-115" />
              <path
                 d="m 26.296875,24.703125 c 0,7.171875 -0.703125,19.3125 -6.703125,32.15625 -4.796875,10.375 -13,17.640625 -14.1875,17.640625 -0.3125,0 -0.703125,-0.109375 -0.703125,-0.609375 0,-0.1875 0.09375,-0.296875 0.203125,-0.5 4.796875,-4.984375 17,-17.640625 17,-48.640625 0,-31.109375 -12.109375,-43.765625 -17,-48.765625 C 4.796875,-24.203125 4.703125,-24.3125 4.703125,-24.5 c 0,-0.5 0.390625,-0.5 0.703125,-0.5 1.09375,0 9.59375,7.375 14.5,18.34375 5,11.046875 6.390625,21.796875 6.390625,31.359375 z"
                 id="CMR17-41" />
            </defs>
            <use
               transform="scale(0.996264)"
               xlink:href="#CMR17-84"
               id="use149"
               x="0"
               y="0"
               width="100%"
               height="100%" />
            <use
               transform="matrix(0.996264,0,0,0.996264,66.509881,0)"
               xlink:href="#CMR17-105"
               id="use151"
               x="0"
               y="0"
               width="100%"
               height="100%" />
            <use
               transform="matrix(0.996264,0,0,0.996264,91.380939,0)"
               xlink:href="#CMR17-109"
               id="use153"
               x="0"
               y="0"
               width="100%"
               height="100%" />
            <use
               transform="matrix(0.996264,0,0,0.996264,168.30053,0)"
               xlink:href="#CMR17-101"
               id="use155"
               x="0"
               y="0"
               width="100%"
               height="100%" />
            <use
               transform="matrix(0.996264,0,0,0.996264,238.86216,0)"
               xlink:href="#CMR17-40"
               id="use157"
               x="0"
               y="0"
               width="100%"
               height="100%" />
            <use
               transform="matrix(0.996264,0,0,0.996264,274.14292,0)"
               xlink:href="#CMR17-115"
               id="use159"
               x="0"
               y="0"
               width="100%"
               height="100%" />
            <use
               transform="matrix(0.996264,0,0,0.996264,309.94426,0)"
               xlink:href="#CMR17-41"
               id="use161"
               x="0"
               y="0"
               width="100%"
               height="100%" />
          </g>
        </g>
      </g>
      <g
         id="matplotlib.axis_2"
         transform="translate(20.456408,-5.5891289)">
        <g
           id="ytick_1">
          <g
             id="line2d_11">
            <defs
               id="defs168">
              <path
                 d="M 0,0 H 3.5"
                 id="ma924737fd3"
                 style="stroke:#000000;stroke-width:0.8" />
            </defs>
            <g
               id="g172">
              <use
                 style="stroke:#000000;stroke-width:0.8"
                 x="54"
                 xlink:href="#ma924737fd3"
                 y="252"
                 id="use170"
                 width="100%"
                 height="100%" />
            </g>
          </g>
          <g
             id="line2d_12">
            <defs
               id="defs176">
              <path
                 d="M 0,0 H -3.5"
                 id="meb91782388"
                 style="stroke:#000000;stroke-width:0.8" />
            </defs>
            <g
               id="g180">
              <use
                 style="stroke:#000000;stroke-width:0.8"
                 x="388.79999"
                 xlink:href="#meb91782388"
                 y="252"
                 id="use178"
                 width="100%"
                 height="100%" />
            </g>
          </g>
          <g
             id="text_7">
            <!-- $\mathdefault{10^{-18}}$ -->
            <g
               transform="matrix(0.18,0,0,-0.18,11.996834,258.22665)"
               id="g196">
              <defs
                 id="defs184">
                <path
                   d="m 65.90625,23 c 1.6875,0 3.5,0 3.5,2 0,2 -1.8125,2 -3.5,2 H 11.796875 c -1.703125,0 -3.5,0 -3.5,-2 0,-2 1.796875,-2 3.5,-2 z"
                   id="CMSY10-0" />
              </defs>
              <use
                 transform="scale(0.996264)"
                 xlink:href="#CMR17-49"
                 id="use186"
                 x="0"
                 y="0"
                 width="100%"
                 height="100%" />
              <use
                 transform="matrix(0.996264,0,0,0.996264,45.690477,0)"
                 xlink:href="#CMR17-48"
                 id="use188"
                 x="0"
                 y="0"
                 width="100%"
                 height="100%" />
              <use
                 transform="matrix(0.697382,0,0,0.697382,91.380954,36.153639)"
                 xlink:href="#CMSY10-0"
                 id="use190"
                 x="0"
                 y="0"
                 width="100%"
                 height="100%" />
              <use
                 transform="matrix(0.697382,0,0,0.697382,145.62195,36.153639)"
                 xlink:href="#CMR17-49"
                 id="use192"
                 x="0"
                 y="0"
                 width="100%"
                 height="100%" />
              <use
                 transform="matrix(0.697382,0,0,0.697382,177.60513,36.153639)"
                 xlink:href="#CMR17-56"
                 id="use194"
                 x="0"
                 y="0"
                 width="100%"
                 height="100%" />
            </g>
          </g>
        </g>
        <g
           id="ytick_2">
          <g
             id="line2d_13">
            <g
               id="g202">
              <use
                 style="stroke:#000000;stroke-width:0.8"
                 x="54"
                 xlink:href="#ma924737fd3"
                 y="208.51199"
                 id="use200"
                 width="100%"
                 height="100%" />
            </g>
          </g>
          <g
             id="line2d_14">
            <g
               id="g207">
              <use
                 style="stroke:#000000;stroke-width:0.8"
                 x="388.79999"
                 xlink:href="#meb91782388"
                 y="208.51199"
                 id="use205"
                 width="100%"
                 height="100%" />
            </g>
          </g>
          <g
             id="text_8">
            <!-- $\mathdefault{10^{-14}}$ -->
            <g
               transform="matrix(0.18,0,0,-0.18,11.996834,214.73865)"
               id="g220">
              <use
                 transform="scale(0.996264)"
                 xlink:href="#CMR17-49"
                 id="use210"
                 x="0"
                 y="0"
                 width="100%"
                 height="100%" />
              <use
                 transform="matrix(0.996264,0,0,0.996264,45.690477,0)"
                 xlink:href="#CMR17-48"
                 id="use212"
                 x="0"
                 y="0"
                 width="100%"
                 height="100%" />
              <use
                 transform="matrix(0.697382,0,0,0.697382,91.380954,36.153639)"
                 xlink:href="#CMSY10-0"
                 id="use214"
                 x="0"
                 y="0"
                 width="100%"
                 height="100%" />
              <use
                 transform="matrix(0.697382,0,0,0.697382,145.62195,36.153639)"
                 xlink:href="#CMR17-49"
                 id="use216"
                 x="0"
                 y="0"
                 width="100%"
                 height="100%" />
              <use
                 transform="matrix(0.697382,0,0,0.697382,177.60513,36.153639)"
                 xlink:href="#CMR17-52"
                 id="use218"
                 x="0"
                 y="0"
                 width="100%"
                 height="100%" />
            </g>
          </g>
        </g>
        <g
           id="ytick_3">
          <g
             id="line2d_15">
            <g
               id="g226">
              <use
                 style="stroke:#000000;stroke-width:0.8"
                 x="54"
                 xlink:href="#ma924737fd3"
                 y="165.024"
                 id="use224"
                 width="100%"
                 height="100%" />
            </g>
          </g>
          <g
             id="line2d_16">
            <g
               id="g231">
              <use
                 style="stroke:#000000;stroke-width:0.8"
                 x="388.79999"
                 xlink:href="#meb91782388"
                 y="165.024"
                 id="use229"
                 width="100%"
                 height="100%" />
            </g>
          </g>
          <g
             id="text_9">
            <!-- $\mathdefault{10^{-10}}$ -->
            <g
               transform="matrix(0.18,0,0,-0.18,11.996834,171.25065)"
               id="g244">
              <use
                 transform="scale(0.996264)"
                 xlink:href="#CMR17-49"
                 id="use234"
                 x="0"
                 y="0"
                 width="100%"
                 height="100%" />
              <use
                 transform="matrix(0.996264,0,0,0.996264,45.690477,0)"
                 xlink:href="#CMR17-48"
                 id="use236"
                 x="0"
                 y="0"
                 width="100%"
                 height="100%" />
              <use
                 transform="matrix(0.697382,0,0,0.697382,91.380954,36.153639)"
                 xlink:href="#CMSY10-0"
                 id="use238"
                 x="0"
                 y="0"
                 width="100%"
                 height="100%" />
              <use
                 transform="matrix(0.697382,0,0,0.697382,145.62195,36.153639)"
                 xlink:href="#CMR17-49"
                 id="use240"
                 x="0"
                 y="0"
                 width="100%"
                 height="100%" />
              <use
                 transform="matrix(0.697382,0,0,0.697382,177.60513,36.153639)"
                 xlink:href="#CMR17-48"
                 id="use242"
                 x="0"
                 y="0"
                 width="100%"
                 height="100%" />
            </g>
          </g>
        </g>
        <g
           id="ytick_4">
          <g
             id="line2d_17">
            <g
               id="g250">
              <use
                 style="stroke:#000000;stroke-width:0.8"
                 x="54"
                 xlink:href="#ma924737fd3"
                 y="121.536"
                 id="use248"
                 width="100%"
                 height="100%" />
            </g>
          </g>
          <g
             id="line2d_18">
            <g
               id="g255">
              <use
                 style="stroke:#000000;stroke-width:0.8"
                 x="388.79999"
                 xlink:href="#meb91782388"
                 y="121.536"
                 id="use253"
                 width="100%"
                 height="100%" />
            </g>
          </g>
          <g
             id="text_10">
            <!-- $\mathdefault{10^{-6}}$ -->
            <g
               transform="matrix(0.18,0,0,-0.18,18.142444,127.76265)"
               id="g266">
              <use
                 transform="scale(0.996264)"
                 xlink:href="#CMR17-49"
                 id="use258"
                 x="0"
                 y="0"
                 width="100%"
                 height="100%" />
              <use
                 transform="matrix(0.996264,0,0,0.996264,45.690477,0)"
                 xlink:href="#CMR17-48"
                 id="use260"
                 x="0"
                 y="0"
                 width="100%"
                 height="100%" />
              <use
                 transform="matrix(0.697382,0,0,0.697382,91.380954,36.153639)"
                 xlink:href="#CMSY10-0"
                 id="use262"
                 x="0"
                 y="0"
                 width="100%"
                 height="100%" />
              <use
                 transform="matrix(0.697382,0,0,0.697382,145.62195,36.153639)"
                 xlink:href="#CMR17-54"
                 id="use264"
                 x="0"
                 y="0"
                 width="100%"
                 height="100%" />
            </g>
          </g>
        </g>
        <g
           id="ytick_5">
          <g
             id="line2d_19">
            <g
               id="g272">
              <use
                 style="stroke:#000000;stroke-width:0.8"
                 x="54"
                 xlink:href="#ma924737fd3"
                 y="78.047997"
                 id="use270"
                 width="100%"
                 height="100%" />
            </g>
          </g>
          <g
             id="line2d_20">
            <g
               id="g277">
              <use
                 style="stroke:#000000;stroke-width:0.8"
                 x="388.79999"
                 xlink:href="#meb91782388"
                 y="78.047997"
                 id="use275"
                 width="100%"
                 height="100%" />
            </g>
          </g>
          <g
             id="text_11">
            <!-- $\mathdefault{10^{-2}}$ -->
            <g
               transform="matrix(0.18,0,0,-0.18,18.142444,84.27465)"
               id="g288">
              <use
                 transform="scale(0.996264)"
                 xlink:href="#CMR17-49"
                 id="use280"
                 x="0"
                 y="0"
                 width="100%"
                 height="100%" />
              <use
                 transform="matrix(0.996264,0,0,0.996264,45.690477,0)"
                 xlink:href="#CMR17-48"
                 id="use282"
                 x="0"
                 y="0"
                 width="100%"
                 height="100%" />
              <use
                 transform="matrix(0.697382,0,0,0.697382,91.380954,36.153639)"
                 xlink:href="#CMSY10-0"
                 id="use284"
                 x="0"
                 y="0"
                 width="100%"
                 height="100%" />
              <use
                 transform="matrix(0.697382,0,0,0.697382,145.62195,36.153639)"
                 xlink:href="#CMR17-50"
                 id="use286"
                 x="0"
                 y="0"
                 width="100%"
                 height="100%" />
            </g>
          </g>
        </g>
        <g
           id="ytick_6">
          <g
             id="line2d_21">
            <g
               id="g294">
              <use
                 style="stroke:#000000;stroke-width:0.8"
                 x="54"
                 xlink:href="#ma924737fd3"
                 y="34.560001"
                 id="use292"
                 width="100%"
                 height="100%" />
            </g>
          </g>
          <g
             id="line2d_22">
            <g
               id="g299">
              <use
                 style="stroke:#000000;stroke-width:0.8"
                 x="388.79999"
                 xlink:href="#meb91782388"
                 y="34.560001"
                 id="use297"
                 width="100%"
                 height="100%" />
            </g>
          </g>
          <g
             id="text_12">
            <!-- $\mathdefault{10^{2}}$ -->
            <g
               transform="matrix(0.18,0,0,-0.18,27.905819,40.78665)"
               id="g308">
              <use
                 transform="scale(0.996264)"
                 xlink:href="#CMR17-49"
                 id="use302"
                 x="0"
                 y="0"
                 width="100%"
                 height="100%" />
              <use
                 transform="matrix(0.996264,0,0,0.996264,45.690477,0)"
                 xlink:href="#CMR17-48"
                 id="use304"
                 x="0"
                 y="0"
                 width="100%"
                 height="100%" />
              <use
                 transform="matrix(0.697382,0,0,0.697382,91.380954,36.153639)"
                 xlink:href="#CMR17-50"
                 id="use306"
                 x="0"
                 y="0"
                 width="100%"
                 height="100%" />
            </g>
          </g>
        </g>
        <g
           id="text_13">
          <!-- Mass Fraction, $X_i$ -->
          <g
             transform="matrix(0,-0.18,-0.18,0,4.50877,208.2266)"
             id="g355">
            <defs
               id="defs323">
              <path
                 d="m 20.90625,66 c -0.609375,1.5 -0.703125,1.5 -2.8125,1.5 H 5.296875 V 65 c 6.90625,0 8,0 8,-4.453125 V 9.53125 c 0,-2.484375 0,-7.140625 -8,-7.140625 v -2.59375 C 7.59375,0 11.796875,0 14.296875,0 c 2.5,0 6.703125,0 9,-0.203125 v 2.59375 c -8,0 -8,4.65625 -8,7.140625 v 55.078125 h 0.109375 l 23.5,-63.21875 c 0.390625,-1 0.59375,-1.59375 1.390625,-1.59375 0.796875,0 1,0.59375 1.40625,1.59375 L 65.40625,65.09375 H 65.5 v -58.25 c 0,-4.453125 -1.09375,-4.453125 -8,-4.453125 v -2.59375 C 60.203125,0 65.59375,0 68.5,0 c 2.90625,0 8.40625,0 11.09375,-0.203125 v 2.59375 c -6.890625,0 -8,0 -8,4.453125 V 60.546875 C 71.59375,65 72.703125,65 79.59375,65 v 2.5 h -12.6875 c -2.109375,0 -2.203125,-0.09375 -2.8125,-1.59375 L 42.5,7.84375 Z"
                 id="CMR17-77" />
              <path
                 d="M 36,25.828125 C 36,32.375 36,35.84375 31.796875,39.734375 28.09375,43 23.796875,44 20.40625,44 12.5,44 6.796875,37.609375 6.796875,30.796875 6.796875,27 9.796875,27 10.40625,27 11.703125,27 14,27.78125 14,30.53125 14,33 12.09375,34.078125 10.40625,34.078125 10,34.078125 9.5,33.96875 9.203125,33.875 c 2.09375,6.625 7.5,8.53125 11,8.53125 5,0 10.5,-4.453125 10.5,-12.953125 V 25 c -5.90625,0 -13,-0.796875 -18.609375,-3.796875 C 5.796875,17.703125 4,12.703125 4,8.90625 4,1.203125 13,-1 18.296875,-1 c 5.5,0 10.609375,3.171875 12.796875,8.984375 0.203125,-4.34375 3,-8.265625 7.40625,-8.265625 2.09375,0 7.40625,1.375 7.40625,9.140625 V 14.375 h -1.8125 V 8.78125 c 0,-6 -2.6875,-6.78125 -4,-6.78125 C 36,2 36,7.15625 36,11.53125 Z M 30.703125,13.59375 c 0,-8.640625 -6.203125,-13 -11.703125,-13 -5,0 -8.90625,3.703125 -8.90625,8.3125 0,2.984375 1.3125,8.28125 7.109375,11.484375 C 22,23.09375 27.5,23.5 30.703125,23.5 Z"
                 id="CMR17-97" />
              <path
                 d="M 54.40625,67.578125 H 5.09375 V 65 c 6.90625,0 8,0 8,-4.46875 V 6.96875 C 13.09375,2.5 12,2.5 5.09375,2.5 V 0 c 2.90625,0 8.5,0 11.609375,0 4.09375,0 8.890625,0 13,0 V 2.5 H 27.5 c -7.59375,0 -7.796875,0.984375 -7.796875,4.5625 v 25.359375 h 9 C 38,32.421875 38.90625,29.140625 38.90625,20.8125 h 1.796875 V 46.671875 H 38.90625 C 38.90625,38.28125 38,35 28.703125,35 h -9 V 61.109375 C 19.703125,64.5 19.90625,65 23.90625,65 H 36.796875 C 51.90625,65 53.59375,58.828125 55,45.5625 h 1.796875 z"
                 id="CMR17-70" />
              <path
                 d="M 15,23.390625 C 15,33 19.09375,42 26.59375,42 27.296875,42 28,41.90625 28.703125,41.59375 c 0,0 -2.203125,-0.703125 -2.203125,-3.28125 0,-2.40625 1.90625,-3.40625 3.40625,-3.40625 1.1875,0 3.390625,0.703125 3.390625,3.5 0,3.203125 -3.203125,5.1875 -6.59375,5.1875 -7.609375,0 -10.90625,-7.390625 -11.90625,-10.890625 h -0.09375 V 43.59375 L 3.09375,42.5 V 39.90625 C 9,39.90625 9.90625,39.296875 9.90625,34.5 V 6.6875 C 9.90625,2.875 9.5,2.390625 3.09375,2.390625 v -2.59375 C 5.5,0 10.09375,0 12.703125,0 c 2.890625,0 8,0 10.703125,-0.203125 v 2.59375 C 16.203125,2.390625 15,2.390625 15,6.875 Z"
                 id="CMR17-114" />
              <path
                 d="M 34.90625,35 C 33,35 30.203125,35 30.203125,31.515625 c 0,-2.796875 2.296875,-3.59375 3.59375,-3.59375 0.703125,0 3.609375,0.3125 3.609375,3.703125 0,6.921875 -6.8125,12.171875 -14.5,12.171875 -10.609375,0 -19.609375,-9.765625 -19.609375,-22.5 C 3.296875,8.0625 12.703125,-1 22.90625,-1 c 12.390625,0 15.5,11.578125 15.5,12.6875 0,0.40625 -0.109375,0.703125 -0.8125,0.703125 -0.6875,0 -0.796875,-0.09375 -1.1875,-1.40625 -2.609375,-8.171875 -8.3125,-10.1875 -12.609375,-10.1875 -6.390625,0 -14.09375,5.875 -14.09375,20.59375 C 9.703125,36.53125 17.09375,42 23,42 c 3.90625,0 9.703125,-1.796875 11.90625,-7 z"
                 id="CMR17-99" />
              <path
                 d="m 15.09375,40 h 14 v 2.578125 h -14 V 61 H 13.296875 C 13.09375,50.703125 9.59375,41.6875 1.09375,41.6875 V 40 H 9.796875 V 12.046875 C 9.796875,10.15625 9.796875,-1 21.40625,-1 c 5.890625,0 9.296875,5.78125 9.296875,13.140625 V 17.8125 H 28.90625 V 12.234375 C 28.90625,5.375 26.203125,0.796875 22,0.796875 c -2.90625,0 -6.90625,1.984375 -6.90625,11.046875 z"
                 id="CMR17-116" />
              <path
                 d="M 43.09375,21.1875 C 43.09375,34 33.796875,44 22.90625,44 12,44 2.703125,34 2.703125,21.1875 2.703125,8.609375 12,-1 22.90625,-1 c 10.890625,0 20.1875,9.609375 20.1875,22.1875 z M 22.90625,0.796875 c -4.703125,0 -8.703125,2.796875 -11,6.703125 -2.5,4.484375 -2.8125,10.09375 -2.8125,14.5 0,4.203125 0.203125,9.40625 2.8125,13.90625 2,3.296875 5.890625,6.5 11,6.5 4.5,0 8.296875,-2.5 10.6875,-6 C 36.703125,31.703125 36.703125,25.109375 36.703125,22 c 0,-3.90625 -0.203125,-9.890625 -2.90625,-14.703125 -2.796875,-4.59375 -7.09375,-6.5 -10.890625,-6.5 z"
                 id="CMR17-111" />
              <path
                 d="m 41.5,30.203125 c 0,5.09375 -1,13.390625 -12.796875,13.390625 -7.90625,0 -12,-6.09375 -13.5,-10.09375 H 15.09375 V 43.59375 L 3.296875,42.5 v -2.59375 c 5.90625,0 6.796875,-0.609375 6.796875,-5.40625 V 6.6875 c 0,-3.8125 -0.390625,-4.296875 -6.796875,-4.296875 v -2.59375 C 5.703125,0 10.09375,0 12.703125,0 c 2.59375,0 7.09375,0 9.5,-0.203125 v 2.59375 c -6.40625,0 -6.796875,0.390625 -6.796875,4.296875 V 25.90625 C 15.40625,35.109375 21,42 28,42 c 7.40625,0 8.203125,-6.59375 8.203125,-11.40625 V 6.6875 c 0,-3.8125 -0.40625,-4.296875 -6.796875,-4.296875 v -2.59375 C 31.796875,0 36.203125,0 38.796875,0 c 2.609375,0 7.109375,0 9.5,-0.203125 v 2.59375 C 41.90625,2.390625 41.5,2.78125 41.5,6.6875 Z"
                 id="CMR17-110" />
              <path
                 d="M 15.796875,1.59375 C 16,0.703125 16,0.390625 16,-1.203125 c 0,-6.03125 -2,-11.5625 -6.203125,-16.59375 -0.5,-0.484375 -0.5,-0.6875 -0.5,-0.90625 0,-0.390625 0.40625,-0.796875 0.796875,-0.796875 0.609375,0 7.5,7.015625 7.5,18.140625 0,3.296875 -0.390625,9.515625 -5.09375,9.515625 -2.203125,0 -4.09375,-1.484375 -4.09375,-4.078125 C 8.40625,1.5 10.296875,0 12.5,0 13.703125,0 15,0.5 15.796875,1.59375 Z"
                 id="CMR17-44" />
              <path
                 d="m 47.5,40.5625 -9.40625,21.84375 c 1.3125,2.390625 4.3125,2.78125 5.5,2.890625 0.609375,0 1.703125,0 1.703125,1.765625 0,1.125 -0.890625,1.125 -1.5,1.125 -1.703125,0 -3.703125,0 -5.390625,0 h -5.8125 c -6.09375,0 -10.5,0 -10.59375,0 -0.796875,0 -1.796875,0 -1.796875,-1.890625 0,-1 0.890625,-1 2.203125,-1 5.796875,0 6.1875,-1 7.1875,-3.390625 L 41.5,34.140625 19.796875,10.828125 C 16.203125,6.90625 11.90625,3.09375 4.5,3.09375 3.296875,3 2.5,3 2.5,1.0625 2.5,0.75 2.59375,0 3.703125,0 5.09375,0 6.59375,0 8,0 h 4.703125 C 15.90625,0 19.40625,0 22.5,0 c 0.703125,0 1.90625,0 1.90625,1.796875 0,1 -0.703125,1.09375 -1.3125,1.09375 -2,0.203125 -3.296875,1.296875 -3.296875,2.890625 0,1.703125 1.203125,2.921875 4.109375,5.90625 l 8.890625,9.6875 C 35,23.6875 40.296875,29.46875 42.5,31.65625 L 53,7.078125 c 0.09375,-0.1875 0.5,-1.1875 0.5,-1.296875 0,-0.890625 -2.203125,-2.6875 -5.40625,-2.6875 -0.59375,0 -1.6875,0 -1.6875,-1.984375 C 46.40625,0 47.40625,0 47.90625,0 c 1.6875,0 3.6875,0 5.390625,0 h 11 C 66.09375,0 68,0 69.703125,0 70.40625,0 71.5,0 71.5,2.03125 c 0,1.0625 -1,1.0625 -1.90625,1.0625 -6,0 -6.1875,0.5 -7.890625,4.171875 L 48.5,38.140625 61.203125,51.8125 c 1,1.015625 3.296875,3.53125 4.203125,4.53125 C 69.703125,60.875 73.703125,65 81.796875,65 c 1,0.296875 2,0.296875 2,2.0625 0,1.125 -0.890625,1.125 -1.296875,1.125 -1.40625,0 -2.90625,0 -4.296875,0 H 73.59375 c -3.1875,0 -6.6875,0 -9.796875,0 -0.703125,0 -1.890625,0 -1.890625,-1.796875 0,-1 0.6875,-1.09375 1.296875,-1.09375 C 64.796875,65.109375 66.5,64.3125 66.5,62.40625 l -0.09375,-0.1875 C 66.296875,61.515625 66.09375,60.515625 65,59.328125 Z"
                 id="CMMI12-88" />
              <path
                 d="m 28.296875,14.265625 c 0,0.5 -0.390625,0.90625 -1,0.90625 -0.890625,0 -1,-0.296875 -1.5,-2 C 23.203125,4.09375 19.09375,1 15.796875,1 c -1.203125,0 -2.59375,0.296875 -2.59375,3.296875 0,2.6875 1.203125,5.6875 2.296875,8.671875 l 7,18.5625 c 0.296875,0.796875 1,2.59375 1,4.484375 C 23.5,40.21875 20.5,44 15.59375,44 6.40625,44 2.703125,29.53125 2.703125,28.734375 c 0,-0.390625 0.390625,-0.890625 1.09375,-0.890625 0.90625,0 1,0.390625 1.40625,1.78125 2.390625,8.3125 6.203125,12.28125 10.09375,12.28125 0.90625,0 2.609375,0 2.609375,-3.1875 0,-2.59375 -1.3125,-5.890625 -2.109375,-8.078125 l -7,-18.5625 C 8.203125,10.484375 7.59375,8.875 7.59375,7.078125 7.59375,2.59375 10.703125,-1 15.5,-1 24.703125,-1 28.296875,13.578125 28.296875,14.265625 Z M 27.5,62.703125 C 27.5,64.203125 26.296875,66 24.09375,66 c -2.296875,0 -4.890625,-2.203125 -4.890625,-4.796875 0,-2.484375 2.09375,-3.28125 3.296875,-3.28125 2.703125,0 5,2.59375 5,4.78125 z"
                 id="CMMI12-105" />
            </defs>
            <use
               transform="scale(0.996264)"
               xlink:href="#CMR17-77"
               id="use325"
               x="0"
               y="0"
               width="100%"
               height="100%" />
            <use
               transform="matrix(0.996264,0,0,0.996264,84.686941,0)"
               xlink:href="#CMR17-97"
               id="use327"
               x="0"
               y="0"
               width="100%"
               height="100%" />
            <use
               transform="matrix(0.996264,0,0,0.996264,130.37742,0)"
               xlink:href="#CMR17-115"
               id="use329"
               x="0"
               y="0"
               width="100%"
               height="100%" />
            <use
               transform="matrix(0.996264,0,0,0.996264,166.17875,0)"
               xlink:href="#CMR17-115"
               id="use331"
               x="0"
               y="0"
               width="100%"
               height="100%" />
            <use
               transform="matrix(0.996264,0,0,0.996264,232.05606,0)"
               xlink:href="#CMR17-70"
               id="use333"
               x="0"
               y="0"
               width="100%"
               height="100%" />
            <use
               transform="matrix(0.996264,0,0,0.996264,284.23265,0)"
               xlink:href="#CMR17-114"
               id="use335"
               x="0"
               y="0"
               width="100%"
               height="100%" />
            <use
               transform="matrix(0.996264,0,0,0.996264,319.51342,0)"
               xlink:href="#CMR17-97"
               id="use337"
               x="0"
               y="0"
               width="100%"
               height="100%" />
            <use
               transform="matrix(0.996264,0,0,0.996264,365.20389,0)"
               xlink:href="#CMR17-99"
               id="use339"
               x="0"
               y="0"
               width="100%"
               height="100%" />
            <use
               transform="matrix(0.996264,0,0,0.996264,405.68956,0)"
               xlink:href="#CMR17-116"
               id="use341"
               x="0"
               y="0"
               width="100%"
               height="100%" />
            <use
               transform="matrix(0.996264,0,0,0.996264,440.97032,0)"
               xlink:href="#CMR17-105"
               id="use343"
               x="0"
               y="0"
               width="100%"
               height="100%" />
            <use
               transform="matrix(0.996264,0,0,0.996264,465.84138,0)"
               xlink:href="#CMR17-111"
               id="use345"
               x="0"
               y="0"
               width="100%"
               height="100%" />
            <use
               transform="matrix(0.996264,0,0,0.996264,511.53186,0)"
               xlink:href="#CMR17-110"
               id="use347"
               x="0"
               y="0"
               width="100%"
               height="100%" />
            <use
               transform="matrix(0.996264,0,0,0.996264,562.42723,0)"
               xlink:href="#CMR17-44"
               id="use349"
               x="0"
               y="0"
               width="100%"
               height="100%" />
            <use
               transform="matrix(0.996264,0,0,0.996264,617.37425,0)"
               xlink:href="#CMMI12-88"
               id="use351"
               x="0"
               y="0"
               width="100%"
               height="100%" />
            <use
               transform="matrix(0.697382,0,0,0.697382,698.33448,-14.943915)"
               xlink:href="#CMMI12-105"
               id="use353"
               x="0"
               y="0"
               width="100%"
               height="100%" />
          </g>
        </g>
      </g>
      <g
         id="line2d_23"
         transform="translate(20.456408,-5.5891289)">
        <path
           clip-path="url(#pdb9a316d34)"
           d="m -1,56.304 h 55.868985 57.476975 21.71462 17.71757 17.35077 17.30634 17.30081 17.30012 17.30003 17.30002 17.30002 7.84337 5.6434 3.36589 5.5786 2.0441 1.65407 3.1284 2.94653 5.85385 12.92794 l 15.41271,0.04745 15.05417,0.145293 12.67199,0.57461 2.52999,0.286249 2.62871,0.368107 1.82853,0.262381 2.49395,0.497476 2.86121,0.727845 3.03796,0.966968 1.12863,0.450021"
           style="fill:none;stroke:#000000;stroke-width:1.5;stroke-linecap:square"
           id="path359" />
      </g>
      <g
         id="line2d_24"
         transform="translate(20.456408,-5.5891289)">
        <path
           clip-path="url(#pdb9a316d34)"
           d="m 165.49503,289 3.63389,-4.09185 17.30634,-19.62421 17.30081,-19.82954 17.30012,-20.54048 17.30003,-23.60742 17.30002,-27.91594 17.30002,-29.05695 7.84337,-10.98859 5.6434,-9.15489 3.36589,-5.42945 5.5786,-7.95286 2.0441,-2.64926 1.65407,-1.62822 3.1284,-3.07184 2.94653,-2.43243 5.85385,-4.009393 12.92794,-7.952859 15.41271,-8.834248 15.05417,-8.484977 12.67199,-6.483057 2.52999,-1.358334 2.62871,-1.238792 1.82853,-0.675672 2.49395,-0.990227 2.86121,-1.028014 3.03796,-0.928797 1.12863,-0.32576"
           style="fill:none;stroke:#000000;stroke-width:1.5;stroke-dasharray:9.6, 2.4, 1.5, 2.4;stroke-dashoffset:0"
           id="path362" />
      </g>
      <g
         id="line2d_25"
         transform="translate(20.456408,-5.5891289)">
        <path
           clip-path="url(#pdb9a316d34)"
           d="m -1,274.29921 55.868985,-29.18628 57.476975,-2.68914 h 21.71462 17.71757 17.35077 17.30634 17.30081 17.30012 17.30003 17.30002 17.30002 7.84337 5.6434 3.36589 5.5786 2.0441 1.65407 3.1284 2.94653 5.85385 12.92794 l 15.41271,0.0625 15.05417,0.12762 12.67199,0.62126 2.52999,0.22668 2.62871,0.40381 1.82853,0.25997 2.49395,0.46787 2.86121,0.74427 3.03796,1.02491 1.12863,0.2952"
           style="fill:none;stroke:#000000;stroke-width:1.5;stroke-dasharray:1.5, 2.475;stroke-dashoffset:0"
           id="path365" />
      </g>
      <g
         id="line2d_26"
         transform="translate(20.456408,-5.5891289)">
        <path
           clip-path="url(#pdb9a316d34)"
           d="m 12.303068,289 42.565917,-46.25488 57.476975,-35.82182 21.71462,-12.05862 17.71757,-10.01114 17.35077,-9.8184 17.30634,-10.01114 17.30081,-9.81839 17.30012,-9.8184 17.30003,-9.79991 17.30002,-9.84149 17.30002,-9.84709 7.84337,-4.35494 5.6434,-3.09897 3.36589,-1.50363 5.5786,-2.05542 2.0441,-0.39925 1.65407,-0.24856 3.1284,-0.11955 2.94653,-0.11659 h 5.85385 12.92794 15.41271 l 15.05417,0.23614 12.67199,0.64781 2.52999,0.28625 2.62871,0.4648 1.82853,0.3374 2.49395,0.55613 2.86121,0.86086 3.03796,1.05361 1.12863,0.63049"
           style="fill:none;stroke:#000000;stroke-width:1.5;stroke-dasharray:5.55, 2.4;stroke-dashoffset:0"
           id="path368" />
      </g>
      <g
         id="patch_3"
         transform="translate(20.456408,-5.5891289)">
        <path
           d="M 54,252 V 34.56"
           style="fill:none;stroke:#000000;stroke-width:0.8;stroke-linecap:square;stroke-linejoin:miter"
           id="path371" />
      </g>
      <g
         id="patch_4"
         transform="translate(20.456408,-5.5891289)">
        <path
           d="M 388.8,252 V 34.56"
           style="fill:none;stroke:#000000;stroke-width:0.8;stroke-linecap:square;stroke-linejoin:miter"
           id="path374" />
      </g>
      <g
         id="patch_5"
         transform="translate(20.456408,-5.5891289)">
        <path
           d="M 54,252 H 388.8"
           style="fill:none;stroke:#000000;stroke-width:0.8;stroke-linecap:square;stroke-linejoin:miter"
           id="path377" />
      </g>
      <g
         id="patch_6"
         transform="translate(20.456408,-5.5891289)">
        <path
           d="M 54,34.56 H 388.8"
           style="fill:none;stroke:#000000;stroke-width:0.8;stroke-linecap:square;stroke-linejoin:miter"
           id="path380" />
      </g>
      <g
         id="text_14"
         transform="translate(20.456408,-5.5891289)">
        <!-- T= 15 MK, $\rho$= 100 g/cm$^3$ -->
        <g
           transform="matrix(0.18,0,0,-0.18,125.70777,28.56)"
           id="g426">
          <defs
             id="defs390">
            <path
               d="m 64.296875,31.515625 c 1.5,0 3,0 3,1.6875 C 67.296875,35 65.59375,35 63.90625,35 H 8 c -1.703125,0 -3.40625,0 -3.40625,-1.796875 0,-1.6875 1.5,-1.6875 3,-1.6875 z M 63.90625,14 c 1.6875,0 3.390625,0 3.390625,1.796875 0,1.6875 -1.5,1.6875 -3,1.6875 H 7.59375 c -1.5,0 -3,0 -3,-1.6875 C 4.59375,14 6.296875,14 8,14 Z"
               id="CMR17-61" />
            <path
               d="M 11.40625,57.6875 C 12.40625,57.28125 16.5,56 20.703125,56 30,56 35.09375,61.109375 38,64.0625 38,64.953125 38,65.5 37.40625,65.5 c -0.109375,0 -0.3125,0 -1.109375,-0.453125 -3.5,-1.640625 -7.59375,-2.96875 -12.59375,-2.96875 -3,0 -7.5,0.40625 -12.40625,2.59375 -1.09375,0.5 -1.296875,0.5 -1.390625,0.5 -0.5,0 -0.609375,-0.109375 -0.609375,-2.09375 v -28.65625 c 0,-1.78125 0,-2.28125 1,-2.28125 0.5,0 0.703125,0.203125 1.203125,0.890625 3.203125,4.484375 7.59375,6.375 12.59375,6.375 3.5,0 11,-2.1875 11,-19.265625 0,-3.1875 0,-8.96875 -3,-13.5625 -2.5,-4.09375 -6.390625,-6.1875 -10.6875,-6.1875 C 14.796875,0.390625 8.09375,5 6.296875,12.71875 6.703125,12.609375 7.5,12.421875 7.90625,12.421875 c 1.296875,0 3.796875,0.703125 3.796875,3.796875 C 11.703125,18.90625 9.796875,20 7.90625,20 5.59375,20 4.09375,18.59375 4.09375,15.796875 4.09375,7.09375 11,-2 21.59375,-2 c 10.3125,0 20.109375,8.875 20.109375,21.75 0,11.96875 -7.796875,21.25 -17.5,21.25 -5.109375,0 -9.40625,-1.890625 -12.796875,-5.46875 z"
               id="CMR17-53" />
            <path
               d="M 36.90625,41.796875 54.203125,59.09375 c 3.59375,3.5 7.390625,6.3125 13,6.3125 V 68 c -2,0 -4.5,0 -6.5,0 -2.703125,0 -7.40625,0 -10,0.09375 V 65.5 c 2.59375,-0.1875 3,-1.984375 3,-2.703125 0,-0.6875 -0.40625,-1.78125 -0.796875,-2.375 L 19.703125,27.15625 V 60.9375 c 0,4.46875 1.09375,4.46875 8,4.46875 V 68 C 24.796875,68 19.5,68 16.40625,68 13.296875,68 8,68 5.09375,68 v -2.59375 c 6.90625,0 8,0 8,-4.484375 V 6.96875 C 13.09375,2.5 12,2.5 5.09375,2.5 V 0 C 8,0 13.296875,0 16.40625,0 19.5,0 24.796875,0 27.703125,0 v 2.5 c -6.90625,0 -8,0 -8,4.484375 v 17.6875 L 32.5,37.34375 51.40625,8.390625 C 52,7.390625 52.703125,6.09375 52.703125,5.09375 52.703125,2.5 49.90625,2.5 48.59375,2.5 V 0 c 3.203125,0 7.8125,0 11.109375,0 2.390625,0 6.5,0 8.796875,-0.09375 V 2.5 c -4.796875,0 -6.296875,0.59375 -9.296875,5.203125 z"
               id="CMR17-75" />
            <path
               d="M 3.09375,-17.296875 C 3,-17.796875 2.796875,-18.390625 2.796875,-19 2.796875,-20.5 4,-21.5 5.5,-21.5 c 1.5,0 2.90625,1 3.5,2.40625 0.40625,0.90625 3.203125,12.890625 6.40625,25.1875 C 17.40625,1.09375 21.09375,-1 25,-1 36.296875,-1 49.09375,12.96875 49.09375,28.046875 49.09375,38.71875 42.59375,44 35.703125,44 26.90625,44 16.203125,34.921875 12.90625,21.640625 Z M 24.90625,1 c -6.8125,0 -8.5,7.890625 -8.5,9.078125 0,0.609375 2.5,10.15625 2.796875,11.65625 5.09375,19.984375 14.890625,19.984375 16.390625,19.984375 4.5,0 7,-4.0625 7,-9.90625 0,-5.0625 -2.6875,-14.875 -4.390625,-19.015625 C 35.203125,5.953125 30,1 24.90625,1 Z"
               id="CMMI12-26" />
            <path
               d="M 11.09375,18.1875 C 13,16.6875 16.296875,15 20.296875,15 28.203125,15 35,21.203125 35,29.5 35,32.09375 34.203125,36.09375 31.203125,39.203125 34,42.0625 38.09375,43 40.40625,43 c 0.390625,0 1,0 1.5,-0.28125 -0.40625,-0.09375 -1.3125,-0.484375 -1.3125,-2.015625 0,-1.21875 0.90625,-2.09375 2.203125,-2.09375 1.5,0 2.296875,0.96875 2.296875,2.234375 0,1.828125 -1.5,3.75 -4.6875,3.75 -4,0 -7.5,-1.8125 -10.3125,-4.28125 C 27.09375,43.015625 23.5,44 20.296875,44 12.40625,44 5.59375,37.796875 5.59375,29.5 c 0,-5.71875 3.3125,-9.3125 4.3125,-10.3125 -3,-3.5 -3,-7.578125 -3,-8.078125 0,-2.59375 1,-6.390625 4.390625,-8.484375 C 6.09375,1.328125 2,-2.640625 2,-7.59375 2,-14.734375 11.5,-20 22.90625,-20 c 11,0 20.890625,5.0625 20.890625,12.515625 C 43.796875,6 29,6 21.296875,6 19,6 14.90625,6 14.40625,6.109375 c -3.109375,0.5 -5.203125,3.296875 -5.203125,6.796875 0,0.890625 0,3.09375 1.890625,5.28125 z m 9.203125,-1.5 C 11.5,16.6875 11.5,27.5 11.5,29.515625 11.5,31.5 11.5,42.3125 20.296875,42.3125 c 8.796875,0 8.796875,-10.8125 8.796875,-12.796875 0,-2.015625 0,-12.828125 -8.796875,-12.828125 z m 2.609375,-34.984375 c -10,0 -16.90625,5.25 -16.90625,10.703125 0,3.078125 1.703125,5.953125 3.90625,7.53125 2.5,1.6875 3.5,1.6875 10.296875,1.6875 8.203125,0 19.59375,0 19.59375,-9.21875 0,-5.453125 -6.890625,-10.703125 -16.890625,-10.703125 z"
               id="CMR17-103" />
            <path
               d="m 40.703125,71.015625 c 0.5,1.28125 0.5,1.484375 0.5,1.6875 0,1.1875 -0.90625,1.796875 -1.703125,1.796875 -1.203125,0 -1.59375,-0.796875 -2,-2 L 5.09375,-21.515625 c -0.5,-1.296875 -0.5,-1.5 -0.5,-1.703125 C 4.59375,-24.40625 5.5,-25 6.296875,-25 c 1.203125,0 1.609375,0.796875 2,1.984375 z"
               id="CMR17-47" />
            <path
               d="M 22.09375,33.703125 C 31,33.703125 34.90625,25.96875 34.90625,17.03125 34.90625,5 28.5,0.390625 22.703125,0.390625 c -5.296875,0 -13.90625,2.640625 -16.609375,10.4375 0.5,-0.203125 1,-0.203125 1.5,-0.203125 2.40625,0 4.203125,1.59375 4.203125,4.1875 C 11.796875,17.703125 9.59375,19 7.59375,19 5.90625,19 3.296875,18.203125 3.296875,14.46875 3.296875,5.234375 12.296875,-2 22.90625,-2 34,-2 42.5,6.71875 42.5,16.953125 c 0,9.71875 -8,16.75 -17.5,17.84375 C 32.59375,36.375 39.90625,43.0625 39.90625,52.015625 39.90625,59.6875 32,65.296875 23,65.296875 c -9.09375,0 -17.09375,-5.46875 -17.09375,-13.28125 C 5.90625,48.59375 8.5,48 9.796875,48 c 2.109375,0 3.90625,1.296875 3.90625,3.890625 0,2.578125 -1.796875,3.875 -3.90625,3.875 -0.390625,0 -0.890625,0 -1.296875,-0.1875 C 11.40625,61.859375 19.296875,63 22.796875,63 c 3.5,0 10.109375,-1.671875 10.109375,-11.125 0,-2.765625 -0.40625,-7.6875 -3.8125,-12.03125 C 26.09375,36 22.703125,36 19.40625,35.6875 c -0.5,0 -2.8125,-0.234375 -3.203125,-0.234375 C 15.5,35.359375 15.09375,35.265625 15.09375,34.5 c 0,-0.703125 0.109375,-0.796875 2.109375,-0.796875 z"
               id="CMR17-51" />
          </defs>
          <use
             transform="scale(0.996264)"
             xlink:href="#CMR17-84"
             id="use392"
             x="0"
             y="0"
             width="100%"
             height="100%" />
          <use
             transform="matrix(0.996264,0,0,0.996264,66.509881,0)"
             xlink:href="#CMR17-61"
             id="use394"
             x="0"
             y="0"
             width="100%"
             height="100%" />
          <use
             transform="matrix(0.996264,0,0,0.996264,168.30063,0)"
             xlink:href="#CMR17-49"
             id="use396"
             x="0"
             y="0"
             width="100%"
             height="100%" />
          <use
             transform="matrix(0.996264,0,0,0.996264,213.99111,0)"
             xlink:href="#CMR17-53"
             id="use398"
             x="0"
             y="0"
             width="100%"
             height="100%" />
          <use
             transform="matrix(0.996264,0,0,0.996264,289.75756,0)"
             xlink:href="#CMR17-77"
             id="use400"
             x="0"
             y="0"
             width="100%"
             height="100%" />
          <use
             transform="matrix(0.996264,0,0,0.996264,374.4445,0)"
             xlink:href="#CMR17-75"
             id="use402"
             x="0"
             y="0"
             width="100%"
             height="100%" />
          <use
             transform="matrix(0.996264,0,0,0.996264,446.11927,0)"
             xlink:href="#CMR17-44"
             id="use404"
             x="0"
             y="0"
             width="100%"
             height="100%" />
          <use
             transform="matrix(0.996264,0,0,0.996264,501.0663,0)"
             xlink:href="#CMMI12-26"
             id="use406"
             x="0"
             y="0"
             width="100%"
             height="100%" />
          <use
             transform="matrix(0.996264,0,0,0.996264,551.38067,0)"
             xlink:href="#CMR17-61"
             id="use408"
             x="0"
             y="0"
             width="100%"
             height="100%" />
          <use
             transform="matrix(0.996264,0,0,0.996264,653.17143,0)"
             xlink:href="#CMR17-49"
             id="use410"
             x="0"
             y="0"
             width="100%"
             height="100%" />
          <use
             transform="matrix(0.996264,0,0,0.996264,698.8619,0)"
             xlink:href="#CMR17-48"
             id="use412"
             x="0"
             y="0"
             width="100%"
             height="100%" />
          <use
             transform="matrix(0.996264,0,0,0.996264,744.55238,0)"
             xlink:href="#CMR17-48"
             id="use414"
             x="0"
             y="0"
             width="100%"
             height="100%" />
          <use
             transform="matrix(0.996264,0,0,0.996264,820.31882,0)"
             xlink:href="#CMR17-103"
             id="use416"
             x="0"
             y="0"
             width="100%"
             height="100%" />
          <use
             transform="matrix(0.996264,0,0,0.996264,866.0093,0)"
             xlink:href="#CMR17-47"
             id="use418"
             x="0"
             y="0"
             width="100%"
             height="100%" />
          <use
             transform="matrix(0.996264,0,0,0.996264,911.69978,0)"
             xlink:href="#CMR17-99"
             id="use420"
             x="0"
             y="0"
             width="100%"
             height="100%" />
          <use
             transform="matrix(0.996264,0,0,0.996264,952.18544,0)"
             xlink:href="#CMR17-109"
             id="use422"
             x="0"
             y="0"
             width="100%"
             height="100%" />
          <use
             transform="matrix(0.697382,0,0,0.697382,1029.105,36.153639)"
             xlink:href="#CMR17-51"
             id="use424"
             x="0"
             y="0"
             width="100%"
             height="100%" />
        </g>
      </g>
      <g
         id="legend_1"
         transform="translate(14.189174,-14.093942)">
        <g
           id="line2d_27">
          <path
             d="m 70.2,102.44362 h 36"
             style="fill:none;stroke:#000000;stroke-width:1.5;stroke-linecap:square"
             id="path429" />
        </g>
        <g
           id="line2d_28" />
        <g
           id="text_15">
          <!-- $^1$H -->
          <g
             transform="matrix(0.18,0,0,-0.18,120.6,108.74362)"
             id="g440">
            <defs
               id="defs434">
              <path
                 d="m 56.09375,61.015625 c 0,4.484375 1.109375,4.484375 8,4.484375 V 68 c -2.890625,0 -8.1875,0 -11.296875,0 C 49.703125,68 44.40625,68 41.5,68 v -2.5 c 6.90625,0 8,0 8,-4.5 V 36.578125 H 19.703125 V 61 c 0,4.5 1.09375,4.5 8,4.5 V 68 C 24.796875,68 19.5,68 16.40625,68 13.296875,68 8,68 5.09375,68 v -2.5 c 6.90625,0 8,0 8,-4.484375 V 6.984375 C 13.09375,2.5 12,2.5 5.09375,2.5 V 0 C 8,0 13.296875,0 16.40625,0 19.5,0 24.796875,0 27.703125,0 v 2.5 c -6.90625,0 -8,0 -8,4.46875 V 34 H 49.5 V 6.96875 C 49.5,2.5 48.40625,2.5 41.5,2.5 V 0 c 2.90625,0 8.203125,0 11.296875,0 3.109375,0 8.40625,0 11.296875,0 v 2.5 c -6.890625,0 -8,0 -8,4.484375 z"
                 id="CMR17-72" />
            </defs>
            <use
               transform="matrix(0.697382,0,0,0.697382,0,36.153639)"
               xlink:href="#CMR17-49"
               id="use436"
               x="0"
               y="0"
               width="100%"
               height="100%" />
            <use
               transform="matrix(0.996264,0,0,0.996264,32.481314,0)"
               xlink:href="#CMR17-72"
               id="use438"
               x="0"
               y="0"
               width="100%"
               height="100%" />
          </g>
        </g>
        <g
           id="line2d_29">
          <path
             d="m 70.2,128.86425 h 36"
             style="fill:none;stroke:#000000;stroke-width:1.5;stroke-dasharray:9.6, 2.4, 1.5, 2.4;stroke-dashoffset:0"
             id="path443" />
        </g>
        <g
           id="line2d_30" />
        <g
           id="text_16">
          <!-- $^4$He -->
          <g
             transform="matrix(0.18,0,0,-0.18,120.6,135.16425)"
             id="g453">
            <use
               transform="matrix(0.697382,0,0,0.697382,0,36.153639)"
               xlink:href="#CMR17-52"
               id="use447"
               x="0"
               y="0"
               width="100%"
               height="100%" />
            <use
               transform="matrix(0.996264,0,0,0.996264,32.481314,0)"
               xlink:href="#CMR17-72"
               id="use449"
               x="0"
               y="0"
               width="100%"
               height="100%" />
            <use
               transform="matrix(0.996264,0,0,0.996264,101.55374,0)"
               xlink:href="#CMR17-101"
               id="use451"
               x="0"
               y="0"
               width="100%"
               height="100%" />
          </g>
        </g>
        <g
           id="line2d_31">
          <path
             d="m 70.2,155.28487 h 36"
             style="fill:none;stroke:#000000;stroke-width:1.5;stroke-dasharray:1.5, 2.475;stroke-dashoffset:0"
             id="path456" />
        </g>
        <g
           id="line2d_32" />
        <g
           id="text_17">
          <!-- $^2$H -->
          <g
             transform="matrix(0.18,0,0,-0.18,120.6,161.58487)"
             id="g464">
            <use
               transform="matrix(0.697382,0,0,0.697382,0,36.153639)"
               xlink:href="#CMR17-50"
               id="use460"
               x="0"
               y="0"
               width="100%"
               height="100%" />
            <use
               transform="matrix(0.996264,0,0,0.996264,32.481314,0)"
               xlink:href="#CMR17-72"
               id="use462"
               x="0"
               y="0"
               width="100%"
               height="100%" />
          </g>
        </g>
        <g
           id="line2d_33">
          <path
             d="m 70.2,181.7055 h 36"
             style="fill:none;stroke:#000000;stroke-width:1.5;stroke-dasharray:5.55, 2.4;stroke-dashoffset:0"
             id="path467" />
        </g>
        <g
           id="line2d_34" />
        <g
           id="text_18">
          <!-- $^3$He -->
          <g
             transform="matrix(0.18,0,0,-0.18,120.6,188.0055)"
             id="g477">
            <use
               transform="matrix(0.697382,0,0,0.697382,0,36.153639)"
               xlink:href="#CMR17-51"
               id="use471"
               x="0"
               y="0"
               width="100%"
               height="100%" />
            <use
               transform="matrix(0.996264,0,0,0.996264,32.481314,0)"
               xlink:href="#CMR17-72"
               id="use473"
               x="0"
               y="0"
               width="100%"
               height="100%" />
            <use
               transform="matrix(0.996264,0,0,0.996264,101.55374,0)"
               xlink:href="#CMR17-101"
               id="use475"
               x="0"
               y="0"
               width="100%"
               height="100%" />
          </g>
        </g>
      </g>
    </g>
  </g>
  <defs
     id="defs486">
    <clipPath
       id="pdb9a316d34">
      <rect
         height="217.44"
         width="334.8"
         x="54"
         y="34.56"
         id="rect483" />
    </clipPath>
  </defs>
</svg>
