<?xml version="1.0" encoding="UTF-8" standalone="no"?>
<svg
   xmlns:dc="http://purl.org/dc/elements/1.1/"
   xmlns:cc="http://creativecommons.org/ns#"
   xmlns:rdf="http://www.w3.org/1999/02/22-rdf-syntax-ns#"
   xmlns:svg="http://www.w3.org/2000/svg"
   xmlns="http://www.w3.org/2000/svg"
   xmlns:xlink="http://www.w3.org/1999/xlink"
   xmlns:sodipodi="http://sodipodi.sourceforge.net/DTD/sodipodi-0.dtd"
   xmlns:inkscape="http://www.inkscape.org/namespaces/inkscape"
   height="267.12pt"
   version="1.1"
   viewBox="0 0 432 267.12"
   width="432pt"
   id="svg676"
   sodipodi:docname="2-neutron-HD122563-abu.svg"
   inkscape:version="1.0.1 (3bc2e813f5, 2020-09-07)">
  <sodipodi:namedview
     pagecolor="#ffffff"
     bordercolor="#666666"
     borderopacity="1"
     objecttolerance="10"
     gridtolerance="10"
     guidetolerance="10"
     inkscape:pageopacity="0"
     inkscape:pageshadow="2"
     inkscape:window-width="1920"
     inkscape:window-height="1015"
     id="namedview678"
     showgrid="false"
     inkscape:zoom="1.953125"
     inkscape:cx="288"
     inkscape:cy="178.08"
     inkscape:window-x="0"
     inkscape:window-y="0"
     inkscape:window-maximized="1"
     inkscape:current-layer="svg676" />
  <metadata
     id="metadata2">
    <rdf:RDF>
      <cc:Work>
        <dc:type
           rdf:resource="http://purl.org/dc/dcmitype/StillImage" />
        <dc:date>2022-10-25T10:55:01.769295</dc:date>
        <dc:format>image/svg+xml</dc:format>
        <dc:creator>
          <cc:Agent>
            <dc:title>Matplotlib v3.3.4, https://matplotlib.org/</dc:title>
          </cc:Agent>
        </dc:creator>
      </cc:Work>
    </rdf:RDF>
  </metadata>
  <defs
     id="defs6">
    <style
       type="text/css"
       id="style4">*{stroke-linecap:butt;stroke-linejoin:round;}</style>
  </defs>
  <rect
     style="fill:#ffffff;stroke:none;stroke-width:0.75;stroke-linecap:square;stroke-linejoin:bevel;paint-order:stroke fill markers"
     id="rect1503"
     width="432"
     height="267.12"
     x="0"
     y="0" />
  <g
     id="figure_1">
    <g
       id="patch_1">
      <path
         d="M 0 267.12  L 432 267.12  L 432 0  L 0 0  z "
         style="fill:none;"
         id="path8" />
    </g>
    <g
       id="axes_1">
      <g
         id="patch_2">
        <path
           d="M 60.922207 214.001871  L 414.72 214.001871  L 414.72 17.28  L 60.922207 17.28  z "
           style="fill:#ffffff;"
           id="path11" />
      </g>
      <g
         id="matplotlib.axis_1">
        <g
           id="xtick_1">
          <g
             id="line2d_1">
            <defs
               id="defs15">
              <path
                 d="M 0 0  L 0 -3.5  "
                 id="m4c51987299"
                 style="stroke:#000000;stroke-width:0.8;" />
            </defs>
            <g
               id="g19">
              <use
                 style="stroke:#000000;stroke-width:0.8;"
                 x="77.003925"
                 xlink:href="#m4c51987299"
                 y="214.001871"
                 id="use17" />
            </g>
          </g>
          <g
             id="line2d_2">
            <defs
               id="defs23">
              <path
                 d="M 0 0  L 0 3.5  "
                 id="mafb7a96477"
                 style="stroke:#000000;stroke-width:0.8;" />
            </defs>
            <g
               id="g27">
              <use
                 style="stroke:#000000;stroke-width:0.8;"
                 x="77.003925"
                 xlink:href="#mafb7a96477"
                 y="17.28"
                 id="use25" />
            </g>
          </g>
          <g
             id="text_1">
            <!-- $\mathdefault{38}$ -->
            <g
               transform="translate(69.199938 228.571459)scale(0.16 -0.16)"
               id="g38">
              <defs
                 id="defs32">
                <path
                   d="M 22.09375 33.703125  C 31 33.703125 34.90625 25.96875 34.90625 17.03125  C 34.90625 5 28.5 0.390625 22.703125 0.390625  C 17.40625 0.390625 8.796875 3.03125 6.09375 10.828125  C 6.59375 10.625 7.09375 10.625 7.59375 10.625  C 10 10.625 11.796875 12.21875 11.796875 14.8125  C 11.796875 17.703125 9.59375 19 7.59375 19  C 5.90625 19 3.296875 18.203125 3.296875 14.46875  C 3.296875 5.234375 12.296875 -2 22.90625 -2  C 34 -2 42.5 6.71875 42.5 16.953125  C 42.5 26.671875 34.5 33.703125 25 34.796875  C 32.59375 36.375 39.90625 43.0625 39.90625 52.015625  C 39.90625 59.6875 32 65.296875 23 65.296875  C 13.90625 65.296875 5.90625 59.828125 5.90625 52.015625  C 5.90625 48.59375 8.5 48 9.796875 48  C 11.90625 48 13.703125 49.296875 13.703125 51.890625  C 13.703125 54.46875 11.90625 55.765625 9.796875 55.765625  C 9.40625 55.765625 8.90625 55.765625 8.5 55.578125  C 11.40625 61.859375 19.296875 63 22.796875 63  C 26.296875 63 32.90625 61.328125 32.90625 51.875  C 32.90625 49.109375 32.5 44.1875 29.09375 39.84375  C 26.09375 36 22.703125 36 19.40625 35.6875  C 18.90625 35.6875 16.59375 35.453125 16.203125 35.453125  C 15.5 35.359375 15.09375 35.265625 15.09375 34.5  C 15.09375 33.796875 15.203125 33.703125 17.203125 33.703125  z "
                   id="CMR17-51" />
                <path
                   d="M 27.203125 35.375  C 33.5 38.546875 39.90625 43.328125 39.90625 50.984375  C 39.90625 60.015625 31.09375 65.296875 23 65.296875  C 13.90625 65.296875 5.90625 58.734375 5.90625 49.6875  C 5.90625 47.203125 6.5 42.921875 10.40625 39.140625  C 11.40625 38.15625 15.59375 35.171875 18.296875 33.28125  C 13.796875 30.984375 3.296875 25.53125 3.296875 14.59375  C 3.296875 4.359375 13.09375 -2 22.796875 -2  C 33.5 -2 42.5 5.65625 42.5 15.78125  C 42.5 24.84375 36.40625 29.015625 32.40625 31.703125  z M 14.09375 44.09375  C 13.296875 44.59375 9.296875 47.671875 9.296875 52.359375  C 9.296875 58.421875 15.59375 63 22.796875 63  C 30.703125 63 36.5 57.4375 36.5 50.96875  C 36.5 41.703125 26.09375 36.421875 25.59375 36.421875  C 25.5 36.421875 25.40625 36.421875 24.59375 37.03125  z M 32.5 23.734375  C 34 22.640625 38.796875 19.375 38.796875 13.296875  C 38.796875 5.953125 31.40625 0.390625 23 0.390625  C 13.90625 0.390625 7 6.84375 7 14.6875  C 7 22.546875 13.09375 29.09375 20 32.1875  z "
                   id="CMR17-56" />
              </defs>
              <use
                 transform="scale(0.996264)"
                 xlink:href="#CMR17-51"
                 id="use34" />
              <use
                 transform="translate(45.690477 0)scale(0.996264)"
                 xlink:href="#CMR17-56"
                 id="use36" />
            </g>
          </g>
        </g>
        <g
           id="xtick_2">
          <g
             id="line2d_3">
            <g
               id="g44">
              <use
                 style="stroke:#000000;stroke-width:0.8;"
                 x="148.478227"
                 xlink:href="#m4c51987299"
                 y="214.001871"
                 id="use42" />
            </g>
          </g>
          <g
             id="line2d_4">
            <g
               id="g49">
              <use
                 style="stroke:#000000;stroke-width:0.8;"
                 x="148.478227"
                 xlink:href="#mafb7a96477"
                 y="17.28"
                 id="use47" />
            </g>
          </g>
          <g
             id="text_2">
            <!-- $\mathdefault{40}$ -->
            <g
               transform="translate(140.67424 228.571459)scale(0.16 -0.16)"
               id="g60">
              <defs
                 id="defs54">
                <path
                   d="M 33.59375 64.40625  C 33.59375 66.5 33.5 66.5 31.703125 66.5  L 2 19.59375  L 2 17  L 27.796875 17  L 27.796875 7.140625  C 27.796875 3.5 27.59375 2.5 20.59375 2.5  L 18.703125 2.5  L 18.703125 0  C 21.90625 0 27.296875 0 30.703125 0  C 34.09375 0 39.5 0 42.703125 0  L 42.703125 2.5  L 40.796875 2.5  C 33.796875 2.5 33.59375 3.5 33.59375 7.140625  L 33.59375 17  L 43.796875 17  L 43.796875 19.59375  L 33.59375 19.59375  z M 28.09375 57.859375  L 28.09375 19.59375  L 4 19.59375  z "
                   id="CMR17-52" />
                <path
                   d="M 42 31.640625  C 42 37.75 41.90625 48.125 37.703125 56.109375  C 34 63.109375 28.09375 65.59375 22.90625 65.59375  C 18.09375 65.59375 12 63.40625 8.203125 56.203125  C 4.203125 48.71875 3.796875 39.4375 3.796875 31.640625  C 3.796875 25.953125 3.90625 17.28125 7 9.671875  C 11.296875 -0.609375 19 -2 22.90625 -2  C 27.5 -2 34.5 -0.109375 38.59375 9.375  C 41.59375 16.28125 42 24.359375 42 31.640625  z M 22.90625 -0.40625  C 16.5 -0.40625 12.703125 5.078125 11.296875 12.6875  C 10.203125 18.5625 10.203125 27.15625 10.203125 32.75  C 10.203125 40.4375 10.203125 46.828125 11.5 52.921875  C 13.40625 61.390625 19 64 22.90625 64  C 27 64 32.296875 61.296875 34.203125 53.125  C 35.5 47.4375 35.59375 40.734375 35.59375 32.75  C 35.59375 26.25 35.59375 18.265625 34.40625 12.375  C 32.296875 1.484375 26.40625 -0.40625 22.90625 -0.40625  z "
                   id="CMR17-48" />
              </defs>
              <use
                 transform="scale(0.996264)"
                 xlink:href="#CMR17-52"
                 id="use56" />
              <use
                 transform="translate(45.690477 0)scale(0.996264)"
                 xlink:href="#CMR17-48"
                 id="use58" />
            </g>
          </g>
        </g>
        <g
           id="xtick_3">
          <g
             id="line2d_5">
            <g
               id="g66">
              <use
                 style="stroke:#000000;stroke-width:0.8;"
                 x="219.952528"
                 xlink:href="#m4c51987299"
                 y="214.001871"
                 id="use64" />
            </g>
          </g>
          <g
             id="line2d_6">
            <g
               id="g71">
              <use
                 style="stroke:#000000;stroke-width:0.8;"
                 x="219.952528"
                 xlink:href="#mafb7a96477"
                 y="17.28"
                 id="use69" />
            </g>
          </g>
          <g
             id="text_3">
            <!-- $\mathdefault{42}$ -->
            <g
               transform="translate(212.148541 228.571459)scale(0.16 -0.16)"
               id="g81">
              <defs
                 id="defs75">
                <path
                   d="M 41.703125 15.453125  L 39.90625 15.453125  C 38.90625 8.375 38.09375 7.171875 37.703125 6.5625  C 37.203125 5.765625 30 5.765625 28.59375 5.765625  L 9.40625 5.765625  C 13 9.671875 20 16.75 28.5 24.953125  C 34.59375 30.734375 41.703125 37.53125 41.703125 47.421875  C 41.703125 59.21875 32.296875 66 21.796875 66  C 10.796875 66 4.09375 56.3125 4.09375 47.34375  C 4.09375 43.4375 7 42.9375 8.203125 42.9375  C 9.203125 42.9375 12.203125 43.546875 12.203125 47.03125  C 12.203125 50.109375 9.59375 51 8.203125 51  C 7.59375 51 7 50.90625 6.59375 50.703125  C 8.5 59.21875 14.296875 63.40625 20.40625 63.40625  C 29.09375 63.40625 34.796875 56.515625 34.796875 47.421875  C 34.796875 38.734375 29.703125 31.25 24 24.75  L 4.09375 2.28125  L 4.09375 0  L 39.296875 0  z "
                   id="CMR17-50" />
              </defs>
              <use
                 transform="scale(0.996264)"
                 xlink:href="#CMR17-52"
                 id="use77" />
              <use
                 transform="translate(45.690477 0)scale(0.996264)"
                 xlink:href="#CMR17-50"
                 id="use79" />
            </g>
          </g>
        </g>
        <g
           id="xtick_4">
          <g
             id="line2d_7">
            <g
               id="g87">
              <use
                 style="stroke:#000000;stroke-width:0.8;"
                 x="291.42683"
                 xlink:href="#m4c51987299"
                 y="214.001871"
                 id="use85" />
            </g>
          </g>
          <g
             id="line2d_8">
            <g
               id="g92">
              <use
                 style="stroke:#000000;stroke-width:0.8;"
                 x="291.42683"
                 xlink:href="#mafb7a96477"
                 y="17.28"
                 id="use90" />
            </g>
          </g>
          <g
             id="text_4">
            <!-- $\mathdefault{44}$ -->
            <g
               transform="translate(283.622843 228.571459)scale(0.16 -0.16)"
               id="g99">
              <use
                 transform="scale(0.996264)"
                 xlink:href="#CMR17-52"
                 id="use95" />
              <use
                 transform="translate(45.690477 0)scale(0.996264)"
                 xlink:href="#CMR17-52"
                 id="use97" />
            </g>
          </g>
        </g>
        <g
           id="xtick_5">
          <g
             id="line2d_9">
            <g
               id="g105">
              <use
                 style="stroke:#000000;stroke-width:0.8;"
                 x="362.901131"
                 xlink:href="#m4c51987299"
                 y="214.001871"
                 id="use103" />
            </g>
          </g>
          <g
             id="line2d_10">
            <g
               id="g110">
              <use
                 style="stroke:#000000;stroke-width:0.8;"
                 x="362.901131"
                 xlink:href="#mafb7a96477"
                 y="17.28"
                 id="use108" />
            </g>
          </g>
          <g
             id="text_5">
            <!-- $\mathdefault{46}$ -->
            <g
               transform="translate(355.097144 228.571459)scale(0.16 -0.16)"
               id="g120">
              <defs
                 id="defs114">
                <path
                   d="M 10.59375 34  C 10.59375 57.65625 21.796875 63 28.296875 63  C 30.40625 63 35.5 62.640625 37.5 59  C 35.90625 59 32.90625 59 32.90625 55.515625  C 32.90625 52.828125 35.09375 51.921875 36.5 51.921875  C 37.40625 51.921875 40.09375 52.3125 40.09375 55.625  C 40.09375 61.78125 35.09375 65.296875 28.203125 65.296875  C 16.296875 65.296875 3.796875 52.96875 3.796875 31  C 3.796875 3.953125 15.09375 -2 23.09375 -2  C 32.796875 -2 42 6.671875 42 20.046875  C 42 32.515625 33.90625 41.59375 23.703125 41.59375  C 17.59375 41.59375 13.09375 37.609375 10.59375 30.625  z M 23.09375 0.390625  C 10.796875 0.390625 10.796875 18.75 10.796875 22.4375  C 10.796875 29.625 14.203125 40 23.5 40  C 25.203125 40 30.09375 40 33.40625 33.125  C 35.203125 29.21875 35.203125 25.140625 35.203125 20.140625  C 35.203125 14.75 35.203125 10.78125 33.09375 6.78125  C 30.90625 2.671875 27.703125 0.390625 23.09375 0.390625  z "
                   id="CMR17-54" />
              </defs>
              <use
                 transform="scale(0.996264)"
                 xlink:href="#CMR17-52"
                 id="use116" />
              <use
                 transform="translate(45.690477 0)scale(0.996264)"
                 xlink:href="#CMR17-54"
                 id="use118" />
            </g>
          </g>
        </g>
        <g
           id="xtick_6">
          <g
             id="line2d_11">
            <defs
               id="defs125">
              <path
                 d="M 0 0  L 0 -2  "
                 id="m8ee92963f1"
                 style="stroke:#000000;stroke-width:0.6;" />
            </defs>
            <g
               id="g129">
              <use
                 style="stroke:#000000;stroke-width:0.6;"
                 x="94.8725"
                 xlink:href="#m8ee92963f1"
                 y="214.001871"
                 id="use127" />
            </g>
          </g>
          <g
             id="line2d_12">
            <defs
               id="defs133">
              <path
                 d="M 0 0  L 0 2  "
                 id="mabb3bf630e"
                 style="stroke:#000000;stroke-width:0.6;" />
            </defs>
            <g
               id="g137">
              <use
                 style="stroke:#000000;stroke-width:0.6;"
                 x="94.8725"
                 xlink:href="#mabb3bf630e"
                 y="17.28"
                 id="use135" />
            </g>
          </g>
        </g>
        <g
           id="xtick_7">
          <g
             id="line2d_13">
            <g
               id="g143">
              <use
                 style="stroke:#000000;stroke-width:0.6;"
                 x="112.741076"
                 xlink:href="#m8ee92963f1"
                 y="214.001871"
                 id="use141" />
            </g>
          </g>
          <g
             id="line2d_14">
            <g
               id="g148">
              <use
                 style="stroke:#000000;stroke-width:0.6;"
                 x="112.741076"
                 xlink:href="#mabb3bf630e"
                 y="17.28"
                 id="use146" />
            </g>
          </g>
        </g>
        <g
           id="xtick_8">
          <g
             id="line2d_15">
            <g
               id="g154">
              <use
                 style="stroke:#000000;stroke-width:0.6;"
                 x="130.609651"
                 xlink:href="#m8ee92963f1"
                 y="214.001871"
                 id="use152" />
            </g>
          </g>
          <g
             id="line2d_16">
            <g
               id="g159">
              <use
                 style="stroke:#000000;stroke-width:0.6;"
                 x="130.609651"
                 xlink:href="#mabb3bf630e"
                 y="17.28"
                 id="use157" />
            </g>
          </g>
        </g>
        <g
           id="xtick_9">
          <g
             id="line2d_17">
            <g
               id="g165">
              <use
                 style="stroke:#000000;stroke-width:0.6;"
                 x="166.346802"
                 xlink:href="#m8ee92963f1"
                 y="214.001871"
                 id="use163" />
            </g>
          </g>
          <g
             id="line2d_18">
            <g
               id="g170">
              <use
                 style="stroke:#000000;stroke-width:0.6;"
                 x="166.346802"
                 xlink:href="#mabb3bf630e"
                 y="17.28"
                 id="use168" />
            </g>
          </g>
        </g>
        <g
           id="xtick_10">
          <g
             id="line2d_19">
            <g
               id="g176">
              <use
                 style="stroke:#000000;stroke-width:0.6;"
                 x="184.215377"
                 xlink:href="#m8ee92963f1"
                 y="214.001871"
                 id="use174" />
            </g>
          </g>
          <g
             id="line2d_20">
            <g
               id="g181">
              <use
                 style="stroke:#000000;stroke-width:0.6;"
                 x="184.215377"
                 xlink:href="#mabb3bf630e"
                 y="17.28"
                 id="use179" />
            </g>
          </g>
        </g>
        <g
           id="xtick_11">
          <g
             id="line2d_21">
            <g
               id="g187">
              <use
                 style="stroke:#000000;stroke-width:0.6;"
                 x="202.083953"
                 xlink:href="#m8ee92963f1"
                 y="214.001871"
                 id="use185" />
            </g>
          </g>
          <g
             id="line2d_22">
            <g
               id="g192">
              <use
                 style="stroke:#000000;stroke-width:0.6;"
                 x="202.083953"
                 xlink:href="#mabb3bf630e"
                 y="17.28"
                 id="use190" />
            </g>
          </g>
        </g>
        <g
           id="xtick_12">
          <g
             id="line2d_23">
            <g
               id="g198">
              <use
                 style="stroke:#000000;stroke-width:0.6;"
                 x="237.821104"
                 xlink:href="#m8ee92963f1"
                 y="214.001871"
                 id="use196" />
            </g>
          </g>
          <g
             id="line2d_24">
            <g
               id="g203">
              <use
                 style="stroke:#000000;stroke-width:0.6;"
                 x="237.821104"
                 xlink:href="#mabb3bf630e"
                 y="17.28"
                 id="use201" />
            </g>
          </g>
        </g>
        <g
           id="xtick_13">
          <g
             id="line2d_25">
            <g
               id="g209">
              <use
                 style="stroke:#000000;stroke-width:0.6;"
                 x="255.689679"
                 xlink:href="#m8ee92963f1"
                 y="214.001871"
                 id="use207" />
            </g>
          </g>
          <g
             id="line2d_26">
            <g
               id="g214">
              <use
                 style="stroke:#000000;stroke-width:0.6;"
                 x="255.689679"
                 xlink:href="#mabb3bf630e"
                 y="17.28"
                 id="use212" />
            </g>
          </g>
        </g>
        <g
           id="xtick_14">
          <g
             id="line2d_27">
            <g
               id="g220">
              <use
                 style="stroke:#000000;stroke-width:0.6;"
                 x="273.558254"
                 xlink:href="#m8ee92963f1"
                 y="214.001871"
                 id="use218" />
            </g>
          </g>
          <g
             id="line2d_28">
            <g
               id="g225">
              <use
                 style="stroke:#000000;stroke-width:0.6;"
                 x="273.558254"
                 xlink:href="#mabb3bf630e"
                 y="17.28"
                 id="use223" />
            </g>
          </g>
        </g>
        <g
           id="xtick_15">
          <g
             id="line2d_29">
            <g
               id="g231">
              <use
                 style="stroke:#000000;stroke-width:0.6;"
                 x="309.295405"
                 xlink:href="#m8ee92963f1"
                 y="214.001871"
                 id="use229" />
            </g>
          </g>
          <g
             id="line2d_30">
            <g
               id="g236">
              <use
                 style="stroke:#000000;stroke-width:0.6;"
                 x="309.295405"
                 xlink:href="#mabb3bf630e"
                 y="17.28"
                 id="use234" />
            </g>
          </g>
        </g>
        <g
           id="xtick_16">
          <g
             id="line2d_31">
            <g
               id="g242">
              <use
                 style="stroke:#000000;stroke-width:0.6;"
                 x="327.163981"
                 xlink:href="#m8ee92963f1"
                 y="214.001871"
                 id="use240" />
            </g>
          </g>
          <g
             id="line2d_32">
            <g
               id="g247">
              <use
                 style="stroke:#000000;stroke-width:0.6;"
                 x="327.163981"
                 xlink:href="#mabb3bf630e"
                 y="17.28"
                 id="use245" />
            </g>
          </g>
        </g>
        <g
           id="xtick_17">
          <g
             id="line2d_33">
            <g
               id="g253">
              <use
                 style="stroke:#000000;stroke-width:0.6;"
                 x="345.032556"
                 xlink:href="#m8ee92963f1"
                 y="214.001871"
                 id="use251" />
            </g>
          </g>
          <g
             id="line2d_34">
            <g
               id="g258">
              <use
                 style="stroke:#000000;stroke-width:0.6;"
                 x="345.032556"
                 xlink:href="#mabb3bf630e"
                 y="17.28"
                 id="use256" />
            </g>
          </g>
        </g>
        <g
           id="xtick_18">
          <g
             id="line2d_35">
            <g
               id="g264">
              <use
                 style="stroke:#000000;stroke-width:0.6;"
                 x="380.769707"
                 xlink:href="#m8ee92963f1"
                 y="214.001871"
                 id="use262" />
            </g>
          </g>
          <g
             id="line2d_36">
            <g
               id="g269">
              <use
                 style="stroke:#000000;stroke-width:0.6;"
                 x="380.769707"
                 xlink:href="#mabb3bf630e"
                 y="17.28"
                 id="use267" />
            </g>
          </g>
        </g>
        <g
           id="xtick_19">
          <g
             id="line2d_37">
            <g
               id="g275">
              <use
                 style="stroke:#000000;stroke-width:0.6;"
                 x="398.638282"
                 xlink:href="#m8ee92963f1"
                 y="214.001871"
                 id="use273" />
            </g>
          </g>
          <g
             id="line2d_38">
            <g
               id="g280">
              <use
                 style="stroke:#000000;stroke-width:0.6;"
                 x="398.638282"
                 xlink:href="#mabb3bf630e"
                 y="17.28"
                 id="use278" />
            </g>
          </g>
        </g>
        <g
           id="text_6">
          <!-- Atomic Number, Z -->
          <g
             transform="translate(173.443729 246.740524)scale(0.16 -0.16)"
             id="g327">
            <defs
               id="defs297">
              <path
                 d="M 36.296875 68.40625  C 35.796875 69.703125 35.59375 70 34.59375 70  C 33.59375 70 33.40625 69.703125 32.90625 68.40625  L 11.703125 8.84375  C 9.796875 3.484375 5.796875 2.390625 2.296875 2.390625  L 2.296875 -0.203125  C 4.09375 0 8.09375 0 10 0  C 12.5 0 16.5 0 18.90625 -0.203125  L 18.90625 2.390625  C 14.203125 2.390625 13.5 5.640625 13.5 6.859375  C 13.5 7.765625 13.703125 8.28125 13.90625 8.890625  L 19.203125 24  L 45.40625 24  L 51.40625 6.90625  C 51.90625 5.703125 51.90625 5.5 51.90625 5.109375  C 51.90625 2.390625 47.59375 2.390625 45.703125 2.390625  L 45.703125 0  C 48.59375 0 53.796875 0 56.90625 0  C 59.5 0 64.5 0 66.90625 -0.203125  L 66.90625 2.390625  C 61.59375 2.390625 59.796875 2.390625 58.5 6.046875  z M 32.296875 60.828125  L 44.5 26.59375  L 20.09375 26.59375  z "
                 id="CMR17-65" />
              <path
                 d="M 15.09375 40  L 29.09375 40  L 29.09375 42.578125  L 15.09375 42.578125  L 15.09375 61  L 13.296875 61  C 13.09375 50.703125 9.59375 41.6875 1.09375 41.6875  L 1.09375 40  L 9.796875 40  L 9.796875 12.046875  C 9.796875 10.15625 9.796875 -1 21.40625 -1  C 27.296875 -1 30.703125 4.78125 30.703125 12.140625  L 30.703125 17.8125  L 28.90625 17.8125  L 28.90625 12.234375  C 28.90625 5.375 26.203125 0.796875 22 0.796875  C 19.09375 0.796875 15.09375 2.78125 15.09375 11.84375  z "
                 id="CMR17-116" />
              <path
                 d="M 43.09375 21.1875  C 43.09375 34 33.796875 44 22.90625 44  C 12 44 2.703125 34 2.703125 21.1875  C 2.703125 8.609375 12 -1 22.90625 -1  C 33.796875 -1 43.09375 8.609375 43.09375 21.1875  z M 22.90625 0.796875  C 18.203125 0.796875 14.203125 3.59375 11.90625 7.5  C 9.40625 11.984375 9.09375 17.59375 9.09375 22  C 9.09375 26.203125 9.296875 31.40625 11.90625 35.90625  C 13.90625 39.203125 17.796875 42.40625 22.90625 42.40625  C 27.40625 42.40625 31.203125 39.90625 33.59375 36.40625  C 36.703125 31.703125 36.703125 25.109375 36.703125 22  C 36.703125 18.09375 36.5 12.109375 33.796875 7.296875  C 31 2.703125 26.703125 0.796875 22.90625 0.796875  z "
                 id="CMR17-111" />
              <path
                 d="M 67.59375 30.203125  C 67.59375 35.1875 66.703125 43.59375 54.796875 43.59375  C 48 43.59375 43.296875 39 41.5 33.609375  L 41.40625 33.609375  C 40.203125 41.8125 34.296875 43.59375 28.703125 43.59375  C 20.796875 43.59375 16.703125 37.5 15.203125 33.5  L 15.09375 33.5  L 15.09375 43.59375  L 3.296875 42.5  L 3.296875 39.90625  C 9.203125 39.90625 10.09375 39.296875 10.09375 34.5  L 10.09375 6.6875  C 10.09375 2.875 9.703125 2.390625 3.296875 2.390625  L 3.296875 -0.203125  C 5.703125 0 10.09375 0 12.703125 0  C 15.296875 0 19.796875 0 22.203125 -0.203125  L 22.203125 2.390625  C 15.796875 2.390625 15.40625 2.78125 15.40625 6.6875  L 15.40625 25.90625  C 15.40625 35.109375 21 42 28 42  C 35.40625 42 36.203125 35.40625 36.203125 30.59375  L 36.203125 6.6875  C 36.203125 2.875 35.796875 2.390625 29.40625 2.390625  L 29.40625 -0.203125  C 31.796875 0 36.203125 0 38.796875 0  C 41.40625 0 45.90625 0 48.296875 -0.203125  L 48.296875 2.390625  C 41.90625 2.390625 41.5 2.78125 41.5 6.6875  L 41.5 25.90625  C 41.5 35.109375 47.09375 42 54.09375 42  C 61.5 42 62.296875 35.40625 62.296875 30.59375  L 62.296875 6.6875  C 62.296875 2.875 61.90625 2.390625 55.5 2.390625  L 55.5 -0.203125  C 57.90625 0 62.296875 0 64.90625 0  C 67.5 0 72 0 74.40625 -0.203125  L 74.40625 2.390625  C 68 2.390625 67.59375 2.78125 67.59375 6.6875  z "
                 id="CMR17-109" />
              <path
                 d="M 15.5 61.078125  C 15.5 63.265625 13.703125 65.15625 11.40625 65.15625  C 9.203125 65.15625 7.296875 63.375 7.296875 61.078125  C 7.296875 58.890625 9.09375 57 11.40625 57  C 13.59375 57 15.5 58.796875 15.5 61.078125  z M 3.796875 42.28125  L 3.796875 39.703125  C 9.40625 39.703125 10.203125 39.09375 10.203125 34.328125  L 10.203125 6.671875  C 10.203125 2.875 9.796875 2.390625 3.40625 2.390625  L 3.40625 -0.203125  C 5.796875 0 10.09375 0 12.59375 0  C 15 0 19.09375 0 21.40625 -0.203125  L 21.40625 2.390625  C 15.5 2.390625 15.296875 2.984375 15.296875 6.5625  L 15.296875 43.375  z "
                 id="CMR17-105" />
              <path
                 d="M 34.90625 35  C 33 35 30.203125 35 30.203125 31.515625  C 30.203125 28.71875 32.5 27.921875 33.796875 27.921875  C 34.5 27.921875 37.40625 28.234375 37.40625 31.625  C 37.40625 38.546875 30.59375 43.796875 22.90625 43.796875  C 12.296875 43.796875 3.296875 34.03125 3.296875 21.296875  C 3.296875 8.0625 12.703125 -1 22.90625 -1  C 35.296875 -1 38.40625 10.578125 38.40625 11.6875  C 38.40625 12.09375 38.296875 12.390625 37.59375 12.390625  C 36.90625 12.390625 36.796875 12.296875 36.40625 10.984375  C 33.796875 2.8125 28.09375 0.796875 23.796875 0.796875  C 17.40625 0.796875 9.703125 6.671875 9.703125 21.390625  C 9.703125 36.53125 17.09375 42 23 42  C 26.90625 42 32.703125 40.203125 34.90625 35  z "
                 id="CMR17-99" />
              <path
                 d="M 20.5 66.40625  C 19.796875 67.5 19.703125 67.5 17.796875 67.5  L 5.09375 67.5  L 5.09375 65  L 7 65  C 11 65 12.796875 64.515625 13.09375 64.40625  L 13.09375 9.53125  C 13.09375 7.046875 13.09375 2.390625 5.09375 2.390625  L 5.09375 -0.203125  C 7.40625 0 11.59375 0 14.09375 0  C 16.59375 0 20.796875 0 23.09375 -0.203125  L 23.09375 2.390625  C 15.09375 2.390625 15.09375 7.046875 15.09375 9.53125  L 15.09375 63.015625  C 15.796875 62.421875 15.796875 62.21875 16.5 61.234375  L 53.59375 1.1875  C 54.296875 0 54.59375 0 55.09375 0  C 56.09375 0 56.09375 0.296875 56.09375 2.171875  L 56.09375 57.890625  C 56.09375 60.359375 56.09375 65 64.09375 65  L 64.09375 67.59375  C 61.796875 67.5 57.59375 67.5 55.09375 67.5  C 52.59375 67.5 48.40625 67.5 46.09375 67.59375  L 46.09375 65  C 54.09375 65 54.09375 60.34375 54.09375 57.859375  L 54.09375 11.921875  z "
                 id="CMR17-78" />
              <path
                 d="M 29.40625 42.078125  L 29.40625 39.5  C 35.296875 39.5 36.203125 38.890625 36.203125 34.15625  L 36.203125 16.125  C 36.203125 7.8125 31.703125 0.59375 24.296875 0.59375  C 16.09375 0.59375 15.40625 5.4375 15.40625 10.59375  L 15.40625 43.171875  L 3.296875 42.078125  L 3.296875 39.5  C 7.296875 39.5 10 39.5 10.09375 35.53125  L 10.09375 16.53125  C 10.09375 9.890625 10.09375 5.640625 12.703125 2.859375  C 14 1.578125 16.5 -1 23.703125 -1  C 32.203125 -1 35.5 5.890625 36.296875 7.90625  L 36.40625 7.90625  L 36.40625 -0.984375  L 48.296875 -0.984375  L 48.296875 2  C 42.40625 2 41.5 2.59375 41.5 7.390625  L 41.5 43.171875  z "
                 id="CMR17-117" />
              <path
                 d="M 15 68.6875  L 3.09375 67.59375  L 3.09375 65  C 9 65 9.90625 64.40625 9.90625 59.640625  L 9.90625 -0.203125  L 11.703125 -0.203125  L 14.59375 6.890625  C 17.5 2.203125 21.796875 -1 27.59375 -1  C 37.59375 -1 47.703125 7.8125 47.703125 21.40625  C 47.703125 34.1875 38.703125 43.59375 28.59375 43.59375  C 22.40625 43.59375 18 40.296875 15 36.40625  z M 15.203125 31.3125  C 15.203125 33.09375 15.203125 33.40625 16.59375 35.5  C 20.5 41.515625 26.09375 42 28 42  C 31 42 41.296875 40.390625 41.296875 21.5  C 41.296875 1.6875 29.5 0.59375 27.09375 0.59375  C 24 0.59375 19.5 1.78125 16.296875 7.59375  C 15.203125 9.5 15.203125 9.703125 15.203125 11.484375  z "
                 id="CMR17-98" />
              <path
                 d="M 38.09375 23  C 38.5 23.40625 38.5 23.609375 38.5 24.625  C 38.5 34.96875 33.09375 44 21.703125 44  C 11.09375 44 2.703125 33.890625 2.703125 21.609375  C 2.703125 8.609375 12.203125 -1 22.796875 -1  C 34 -1 38.40625 9.484375 38.40625 11.5625  C 38.40625 12.25 37.796875 12.25 37.59375 12.25  C 36.90625 12.25 36.796875 12.046875 36.40625 10.875  C 34.203125 4.140625 28.703125 0.796875 23.5 0.796875  C 19.203125 0.796875 14.90625 3.171875 12.203125 7.5  C 9.09375 12.546875 9.09375 18.375 9.09375 23  z M 9.203125 24.5  C 9.90625 39.140625 17.59375 42.40625 21.59375 42.40625  C 28.40625 42.40625 33 35.890625 33.09375 24.5  z "
                 id="CMR17-101" />
              <path
                 d="M 15 23.390625  C 15 33 19.09375 42 26.59375 42  C 27.296875 42 28 41.90625 28.703125 41.59375  C 28.703125 41.59375 26.5 40.890625 26.5 38.3125  C 26.5 35.90625 28.40625 34.90625 29.90625 34.90625  C 31.09375 34.90625 33.296875 35.609375 33.296875 38.40625  C 33.296875 41.609375 30.09375 43.59375 26.703125 43.59375  C 19.09375 43.59375 15.796875 36.203125 14.796875 32.703125  L 14.703125 32.703125  L 14.703125 43.59375  L 3.09375 42.5  L 3.09375 39.90625  C 9 39.90625 9.90625 39.296875 9.90625 34.5  L 9.90625 6.6875  C 9.90625 2.875 9.5 2.390625 3.09375 2.390625  L 3.09375 -0.203125  C 5.5 0 10.09375 0 12.703125 0  C 15.59375 0 20.703125 0 23.40625 -0.203125  L 23.40625 2.390625  C 16.203125 2.390625 15 2.390625 15 6.875  z "
                 id="CMR17-114" />
              <path
                 d="M 15.796875 1.59375  C 16 0.703125 16 0.390625 16 -1.203125  C 16 -7.234375 14 -12.765625 9.796875 -17.796875  C 9.296875 -18.28125 9.296875 -18.484375 9.296875 -18.703125  C 9.296875 -19.09375 9.703125 -19.5 10.09375 -19.5  C 10.703125 -19.5 17.59375 -12.484375 17.59375 -1.359375  C 17.59375 1.9375 17.203125 8.15625 12.5 8.15625  C 10.296875 8.15625 8.40625 6.671875 8.40625 4.078125  C 8.40625 1.5 10.296875 0 12.5 0  C 13.703125 0 15 0.5 15.796875 1.59375  z "
                 id="CMR17-44" />
              <path
                 d="M 51.59375 66.09375  C 51.59375 68 51.5 68 49.40625 68  L 6.90625 68  L 5.90625 46.0625  L 7.703125 46.0625  C 8.296875 57.421875 11.296875 65.5 27.5 65.5  L 44 65.5  L 5.296875 3.1875  C 4.59375 2.09375 4.59375 1.984375 4.59375 1.296875  C 4.59375 0 4.796875 0 6.796875 0  L 50.703125 0  L 52.09375 26.03125  L 50.296875 26.03125  C 49.40625 12.953125 48.703125 2.78125 29.59375 2.78125  L 12.203125 2.78125  z "
                 id="CMR17-90" />
            </defs>
            <use
               transform="scale(0.996264)"
               xlink:href="#CMR17-65"
               id="use299" />
            <use
               transform="translate(66.469976 0)scale(0.996264)"
               xlink:href="#CMR17-116"
               id="use301" />
            <use
               transform="translate(101.750744 0)scale(0.996264)"
               xlink:href="#CMR17-111"
               id="use303" />
            <use
               transform="translate(147.441221 0)scale(0.996264)"
               xlink:href="#CMR17-109"
               id="use305" />
            <use
               transform="translate(224.360811 0)scale(0.996264)"
               xlink:href="#CMR17-105"
               id="use307" />
            <use
               transform="translate(249.231869 0)scale(0.996264)"
               xlink:href="#CMR17-99"
               id="use309" />
            <use
               transform="translate(319.793496 0)scale(0.996264)"
               xlink:href="#CMR17-78"
               id="use311" />
            <use
               transform="translate(388.865926 0)scale(0.996264)"
               xlink:href="#CMR17-117"
               id="use313" />
            <use
               transform="translate(439.761296 0)scale(0.996264)"
               xlink:href="#CMR17-109"
               id="use315" />
            <use
               transform="translate(514.078431 0)scale(0.996264)"
               xlink:href="#CMR17-98"
               id="use317" />
            <use
               transform="translate(567.57624 0)scale(0.996264)"
               xlink:href="#CMR17-101"
               id="use319" />
            <use
               transform="translate(608.0619 0)scale(0.996264)"
               xlink:href="#CMR17-114"
               id="use321" />
            <use
               transform="translate(643.342668 0)scale(0.996264)"
               xlink:href="#CMR17-44"
               id="use323" />
            <use
               transform="translate(698.289693 0)scale(0.996264)"
               xlink:href="#CMR17-90"
               id="use325" />
          </g>
        </g>
      </g>
      <g
         id="matplotlib.axis_2">
        <g
           id="ytick_1">
          <g
             id="line2d_39">
            <defs
               id="defs332">
              <path
                 d="M 0 0  L 3.5 0  "
                 id="m8a92960b76"
                 style="stroke:#000000;stroke-width:0.8;" />
            </defs>
            <g
               id="g336">
              <use
                 style="stroke:#000000;stroke-width:0.8;"
                 x="60.922207"
                 xlink:href="#m8a92960b76"
                 y="183.264079"
                 id="use334" />
            </g>
          </g>
          <g
             id="line2d_40">
            <defs
               id="defs340">
              <path
                 d="M 0 0  L -3.5 0  "
                 id="m3f47e81e13"
                 style="stroke:#000000;stroke-width:0.8;" />
            </defs>
            <g
               id="g344">
              <use
                 style="stroke:#000000;stroke-width:0.8;"
                 x="414.72"
                 xlink:href="#m3f47e81e13"
                 y="183.264079"
                 id="use342" />
            </g>
          </g>
          <g
             id="text_7">
            <!-- $\mathdefault{−2}$ -->
            <g
               transform="translate(37.220224 188.798873)scale(0.16 -0.16)"
               id="g354">
              <defs
                 id="defs348">
                <path
                   d="M 65.90625 23  C 67.59375 23 69.40625 23 69.40625 25  C 69.40625 27 67.59375 27 65.90625 27  L 11.796875 27  C 10.09375 27 8.296875 27 8.296875 25  C 8.296875 23 10.09375 23 11.796875 23  z "
                   id="CMSY10-0" />
              </defs>
              <use
                 transform="scale(0.996264)"
                 xlink:href="#CMSY10-0"
                 id="use350" />
              <use
                 transform="translate(77.487468 0)scale(0.996264)"
                 xlink:href="#CMR17-50"
                 id="use352" />
            </g>
          </g>
        </g>
        <g
           id="ytick_2">
          <g
             id="line2d_41">
            <g
               id="g360">
              <use
                 style="stroke:#000000;stroke-width:0.8;"
                 x="60.922207"
                 xlink:href="#m8a92960b76"
                 y="121.788494"
                 id="use358" />
            </g>
          </g>
          <g
             id="line2d_42">
            <g
               id="g365">
              <use
                 style="stroke:#000000;stroke-width:0.8;"
                 x="414.72"
                 xlink:href="#m3f47e81e13"
                 y="121.788494"
                 id="use363" />
            </g>
          </g>
          <g
             id="text_8">
            <!-- $\mathdefault{−1}$ -->
            <g
               transform="translate(37.220224 127.323288)scale(0.16 -0.16)"
               id="g375">
              <defs
                 id="defs369">
                <path
                   d="M 26.59375 63.40625  C 26.59375 65.5 26.5 65.5 25.09375 65.5  C 21.203125 61.1875 15.296875 59.796875 9.703125 59.796875  C 9.40625 59.796875 8.90625 59.796875 8.796875 59.5  C 8.703125 59.296875 8.703125 59.09375 8.703125 57  C 11.796875 57 17 57.59375 21 59.984375  L 21 7.203125  C 21 3.6875 20.796875 2.5 12.203125 2.5  L 9.203125 2.5  L 9.203125 0  C 14 0 19 0 23.796875 0  C 28.59375 0 33.59375 0 38.40625 0  L 38.40625 2.5  L 35.40625 2.5  C 26.796875 2.5 26.59375 3.59375 26.59375 7.15625  z "
                   id="CMR17-49" />
              </defs>
              <use
                 transform="scale(0.996264)"
                 xlink:href="#CMSY10-0"
                 id="use371" />
              <use
                 transform="translate(77.487468 0)scale(0.996264)"
                 xlink:href="#CMR17-49"
                 id="use373" />
            </g>
          </g>
        </g>
        <g
           id="ytick_3">
          <g
             id="line2d_43">
            <g
               id="g381">
              <use
                 style="stroke:#000000;stroke-width:0.8;"
                 x="60.922207"
                 xlink:href="#m8a92960b76"
                 y="60.312909"
                 id="use379" />
            </g>
          </g>
          <g
             id="line2d_44">
            <g
               id="g386">
              <use
                 style="stroke:#000000;stroke-width:0.8;"
                 x="414.72"
                 xlink:href="#m3f47e81e13"
                 y="60.312909"
                 id="use384" />
            </g>
          </g>
          <g
             id="text_9">
            <!-- $\mathdefault{0}$ -->
            <g
               transform="translate(49.61822 65.847703)scale(0.16 -0.16)"
               id="g391">
              <use
                 transform="scale(0.996264)"
                 xlink:href="#CMR17-48"
                 id="use389" />
            </g>
          </g>
        </g>
        <g
           id="ytick_4">
          <g
             id="line2d_45">
            <defs
               id="defs396">
              <path
                 d="M 0 0  L 2 0  "
                 id="m1bc6be2966"
                 style="stroke:#000000;stroke-width:0.6;" />
            </defs>
            <g
               id="g400">
              <use
                 style="stroke:#000000;stroke-width:0.6;"
                 x="60.922207"
                 xlink:href="#m1bc6be2966"
                 y="207.854313"
                 id="use398" />
            </g>
          </g>
          <g
             id="line2d_46">
            <defs
               id="defs404">
              <path
                 d="M 0 0  L -2 0  "
                 id="m48bec8e53b"
                 style="stroke:#000000;stroke-width:0.6;" />
            </defs>
            <g
               id="g408">
              <use
                 style="stroke:#000000;stroke-width:0.6;"
                 x="414.72"
                 xlink:href="#m48bec8e53b"
                 y="207.854313"
                 id="use406" />
            </g>
          </g>
        </g>
        <g
           id="ytick_5">
          <g
             id="line2d_47">
            <g
               id="g414">
              <use
                 style="stroke:#000000;stroke-width:0.6;"
                 x="60.922207"
                 xlink:href="#m1bc6be2966"
                 y="195.559196"
                 id="use412" />
            </g>
          </g>
          <g
             id="line2d_48">
            <g
               id="g419">
              <use
                 style="stroke:#000000;stroke-width:0.6;"
                 x="414.72"
                 xlink:href="#m48bec8e53b"
                 y="195.559196"
                 id="use417" />
            </g>
          </g>
        </g>
        <g
           id="ytick_6">
          <g
             id="line2d_49">
            <g
               id="g425">
              <use
                 style="stroke:#000000;stroke-width:0.6;"
                 x="60.922207"
                 xlink:href="#m1bc6be2966"
                 y="170.968962"
                 id="use423" />
            </g>
          </g>
          <g
             id="line2d_50">
            <g
               id="g430">
              <use
                 style="stroke:#000000;stroke-width:0.6;"
                 x="414.72"
                 xlink:href="#m48bec8e53b"
                 y="170.968962"
                 id="use428" />
            </g>
          </g>
        </g>
        <g
           id="ytick_7">
          <g
             id="line2d_51">
            <g
               id="g436">
              <use
                 style="stroke:#000000;stroke-width:0.6;"
                 x="60.922207"
                 xlink:href="#m1bc6be2966"
                 y="158.673845"
                 id="use434" />
            </g>
          </g>
          <g
             id="line2d_52">
            <g
               id="g441">
              <use
                 style="stroke:#000000;stroke-width:0.6;"
                 x="414.72"
                 xlink:href="#m48bec8e53b"
                 y="158.673845"
                 id="use439" />
            </g>
          </g>
        </g>
        <g
           id="ytick_8">
          <g
             id="line2d_53">
            <g
               id="g447">
              <use
                 style="stroke:#000000;stroke-width:0.6;"
                 x="60.922207"
                 xlink:href="#m1bc6be2966"
                 y="146.378728"
                 id="use445" />
            </g>
          </g>
          <g
             id="line2d_54">
            <g
               id="g452">
              <use
                 style="stroke:#000000;stroke-width:0.6;"
                 x="414.72"
                 xlink:href="#m48bec8e53b"
                 y="146.378728"
                 id="use450" />
            </g>
          </g>
        </g>
        <g
           id="ytick_9">
          <g
             id="line2d_55">
            <g
               id="g458">
              <use
                 style="stroke:#000000;stroke-width:0.6;"
                 x="60.922207"
                 xlink:href="#m1bc6be2966"
                 y="134.083611"
                 id="use456" />
            </g>
          </g>
          <g
             id="line2d_56">
            <g
               id="g463">
              <use
                 style="stroke:#000000;stroke-width:0.6;"
                 x="414.72"
                 xlink:href="#m48bec8e53b"
                 y="134.083611"
                 id="use461" />
            </g>
          </g>
        </g>
        <g
           id="ytick_10">
          <g
             id="line2d_57">
            <g
               id="g469">
              <use
                 style="stroke:#000000;stroke-width:0.6;"
                 x="60.922207"
                 xlink:href="#m1bc6be2966"
                 y="109.493377"
                 id="use467" />
            </g>
          </g>
          <g
             id="line2d_58">
            <g
               id="g474">
              <use
                 style="stroke:#000000;stroke-width:0.6;"
                 x="414.72"
                 xlink:href="#m48bec8e53b"
                 y="109.493377"
                 id="use472" />
            </g>
          </g>
        </g>
        <g
           id="ytick_11">
          <g
             id="line2d_59">
            <g
               id="g480">
              <use
                 style="stroke:#000000;stroke-width:0.6;"
                 x="60.922207"
                 xlink:href="#m1bc6be2966"
                 y="97.19826"
                 id="use478" />
            </g>
          </g>
          <g
             id="line2d_60">
            <g
               id="g485">
              <use
                 style="stroke:#000000;stroke-width:0.6;"
                 x="414.72"
                 xlink:href="#m48bec8e53b"
                 y="97.19826"
                 id="use483" />
            </g>
          </g>
        </g>
        <g
           id="ytick_12">
          <g
             id="line2d_61">
            <g
               id="g491">
              <use
                 style="stroke:#000000;stroke-width:0.6;"
                 x="60.922207"
                 xlink:href="#m1bc6be2966"
                 y="84.903143"
                 id="use489" />
            </g>
          </g>
          <g
             id="line2d_62">
            <g
               id="g496">
              <use
                 style="stroke:#000000;stroke-width:0.6;"
                 x="414.72"
                 xlink:href="#m48bec8e53b"
                 y="84.903143"
                 id="use494" />
            </g>
          </g>
        </g>
        <g
           id="ytick_13">
          <g
             id="line2d_63">
            <g
               id="g502">
              <use
                 style="stroke:#000000;stroke-width:0.6;"
                 x="60.922207"
                 xlink:href="#m1bc6be2966"
                 y="72.608026"
                 id="use500" />
            </g>
          </g>
          <g
             id="line2d_64">
            <g
               id="g507">
              <use
                 style="stroke:#000000;stroke-width:0.6;"
                 x="414.72"
                 xlink:href="#m48bec8e53b"
                 y="72.608026"
                 id="use505" />
            </g>
          </g>
        </g>
        <g
           id="ytick_14">
          <g
             id="line2d_65">
            <g
               id="g513">
              <use
                 style="stroke:#000000;stroke-width:0.6;"
                 x="60.922207"
                 xlink:href="#m1bc6be2966"
                 y="48.017792"
                 id="use511" />
            </g>
          </g>
          <g
             id="line2d_66">
            <g
               id="g518">
              <use
                 style="stroke:#000000;stroke-width:0.6;"
                 x="414.72"
                 xlink:href="#m48bec8e53b"
                 y="48.017792"
                 id="use516" />
            </g>
          </g>
        </g>
        <g
           id="ytick_15">
          <g
             id="line2d_67">
            <g
               id="g524">
              <use
                 style="stroke:#000000;stroke-width:0.6;"
                 x="60.922207"
                 xlink:href="#m1bc6be2966"
                 y="35.722675"
                 id="use522" />
            </g>
          </g>
          <g
             id="line2d_68">
            <g
               id="g529">
              <use
                 style="stroke:#000000;stroke-width:0.6;"
                 x="414.72"
                 xlink:href="#m48bec8e53b"
                 y="35.722675"
                 id="use527" />
            </g>
          </g>
        </g>
        <g
           id="ytick_16">
          <g
             id="line2d_69">
            <g
               id="g535">
              <use
                 style="stroke:#000000;stroke-width:0.6;"
                 x="60.922207"
                 xlink:href="#m1bc6be2966"
                 y="23.427558"
                 id="use533" />
            </g>
          </g>
          <g
             id="line2d_70">
            <g
               id="g540">
              <use
                 style="stroke:#000000;stroke-width:0.6;"
                 x="414.72"
                 xlink:href="#m48bec8e53b"
                 y="23.427558"
                 id="use538" />
            </g>
          </g>
        </g>
        <g
           id="text_10">
          <!-- Abundance, $\log(\epsilon)$ -->
          <g
             transform="translate(29.235168 178.077917)rotate(-90)scale(0.16 -0.16)"
             id="g586">
            <defs
               id="defs552">
              <path
                 d="M 41.5 30.203125  C 41.5 35.296875 40.5 43.59375 28.703125 43.59375  C 20.796875 43.59375 16.703125 37.5 15.203125 33.5  L 15.09375 33.5  L 15.09375 43.59375  L 3.296875 42.5  L 3.296875 39.90625  C 9.203125 39.90625 10.09375 39.296875 10.09375 34.5  L 10.09375 6.6875  C 10.09375 2.875 9.703125 2.390625 3.296875 2.390625  L 3.296875 -0.203125  C 5.703125 0 10.09375 0 12.703125 0  C 15.296875 0 19.796875 0 22.203125 -0.203125  L 22.203125 2.390625  C 15.796875 2.390625 15.40625 2.78125 15.40625 6.6875  L 15.40625 25.90625  C 15.40625 35.109375 21 42 28 42  C 35.40625 42 36.203125 35.40625 36.203125 30.59375  L 36.203125 6.6875  C 36.203125 2.875 35.796875 2.390625 29.40625 2.390625  L 29.40625 -0.203125  C 31.796875 0 36.203125 0 38.796875 0  C 41.40625 0 45.90625 0 48.296875 -0.203125  L 48.296875 2.390625  C 41.90625 2.390625 41.5 2.78125 41.5 6.6875  z "
                 id="CMR17-110" />
              <path
                 d="M 29.203125 67.59375  L 29.203125 65  C 35.09375 65 36 64.40625 36 59.6875  L 36 36.640625  C 35.59375 37.140625 31.5 43.59375 23.40625 43.59375  C 13.203125 43.59375 3.296875 34.5 3.296875 21.3125  C 3.296875 8.203125 12.59375 -1 22.40625 -1  C 30.90625 -1 35.296875 5.265625 35.796875 5.9375  L 35.796875 -0.984375  L 47.90625 -0.984375  L 47.90625 2  C 42 2 41.09375 2.59375 41.09375 7.390625  L 41.09375 68.6875  z M 35.796875 11.796875  C 35.796875 8.796875 34 6.09375 31.703125 4.09375  C 28.296875 1.09375 24.90625 0.59375 23 0.59375  C 20.09375 0.59375 9.703125 2.09375 9.703125 21.1875  C 9.703125 40.8125 21.296875 42 23.90625 42  C 28.5 42 32.203125 39.40625 34.5 35.796875  C 35.796875 33.703125 35.796875 33.40625 35.796875 31.609375  z "
                 id="CMR17-100" />
              <path
                 d="M 36 25.828125  C 36 32.375 36 35.84375 31.796875 39.734375  C 28.09375 43 23.796875 44 20.40625 44  C 12.5 44 6.796875 37.609375 6.796875 30.796875  C 6.796875 27 9.796875 27 10.40625 27  C 11.703125 27 14 27.78125 14 30.53125  C 14 33 12.09375 34.078125 10.40625 34.078125  C 10 34.078125 9.5 33.96875 9.203125 33.875  C 11.296875 40.5 16.703125 42.40625 20.203125 42.40625  C 25.203125 42.40625 30.703125 37.953125 30.703125 29.453125  L 30.703125 25  C 24.796875 25 17.703125 24.203125 12.09375 21.203125  C 5.796875 17.703125 4 12.703125 4 8.90625  C 4 1.203125 13 -1 18.296875 -1  C 23.796875 -1 28.90625 2.171875 31.09375 7.984375  C 31.296875 3.640625 34.09375 -0.28125 38.5 -0.28125  C 40.59375 -0.28125 45.90625 1.09375 45.90625 8.859375  L 45.90625 14.375  L 44.09375 14.375  L 44.09375 8.78125  C 44.09375 2.78125 41.40625 2 40.09375 2  C 36 2 36 7.15625 36 11.53125  z M 30.703125 13.59375  C 30.703125 4.953125 24.5 0.59375 19 0.59375  C 14 0.59375 10.09375 4.296875 10.09375 8.90625  C 10.09375 11.890625 11.40625 17.1875 17.203125 20.390625  C 22 23.09375 27.5 23.5 30.703125 23.5  z "
                 id="CMR17-97" />
              <path
                 d="M 15.296875 68.6875  L 3.40625 67.59375  L 3.40625 65  C 9.296875 65 10.203125 64.40625 10.203125 59.640625  L 10.203125 6.65625  C 10.203125 2.875 9.796875 2.390625 3.40625 2.390625  L 3.40625 -0.203125  C 5.796875 0 10.203125 0 12.703125 0  C 15.296875 0 19.703125 0 22.09375 -0.203125  L 22.09375 2.390625  C 15.703125 2.390625 15.296875 2.78125 15.296875 6.65625  z "
                 id="CMR17-108" />
              <path
                 d="M 11.09375 18.1875  C 13 16.6875 16.296875 15 20.296875 15  C 28.203125 15 35 21.203125 35 29.5  C 35 32.09375 34.203125 36.09375 31.203125 39.203125  C 34 42.0625 38.09375 43 40.40625 43  C 40.796875 43 41.40625 43 41.90625 42.71875  C 41.5 42.625 40.59375 42.234375 40.59375 40.703125  C 40.59375 39.484375 41.5 38.609375 42.796875 38.609375  C 44.296875 38.609375 45.09375 39.578125 45.09375 40.84375  C 45.09375 42.671875 43.59375 44.59375 40.40625 44.59375  C 36.40625 44.59375 32.90625 42.78125 30.09375 40.3125  C 27.09375 43.015625 23.5 44 20.296875 44  C 12.40625 44 5.59375 37.796875 5.59375 29.5  C 5.59375 23.78125 8.90625 20.1875 9.90625 19.1875  C 6.90625 15.6875 6.90625 11.609375 6.90625 11.109375  C 6.90625 8.515625 7.90625 4.71875 11.296875 2.625  C 6.09375 1.328125 2 -2.640625 2 -7.59375  C 2 -14.734375 11.5 -20 22.90625 -20  C 33.90625 -20 43.796875 -14.9375 43.796875 -7.484375  C 43.796875 6 29 6 21.296875 6  C 19 6 14.90625 6 14.40625 6.109375  C 11.296875 6.609375 9.203125 9.40625 9.203125 12.90625  C 9.203125 13.796875 9.203125 16 11.09375 18.1875  z M 20.296875 16.6875  C 11.5 16.6875 11.5 27.5 11.5 29.515625  C 11.5 31.5 11.5 42.3125 20.296875 42.3125  C 29.09375 42.3125 29.09375 31.5 29.09375 29.515625  C 29.09375 27.5 29.09375 16.6875 20.296875 16.6875  z M 22.90625 -18.296875  C 12.90625 -18.296875 6 -13.046875 6 -7.59375  C 6 -4.515625 7.703125 -1.640625 9.90625 -0.0625  C 12.40625 1.625 13.40625 1.625 20.203125 1.625  C 28.40625 1.625 39.796875 1.625 39.796875 -7.59375  C 39.796875 -13.046875 32.90625 -18.296875 22.90625 -18.296875  z "
                 id="CMR17-103" />
              <path
                 d="M 30.59375 -24.390625  C 30.59375 -24.296875 30.59375 -24.09375 30.296875 -23.796875  C 25.703125 -19.125 13.40625 -6.359375 13.40625 24.703125  C 13.40625 55.765625 25.5 68.421875 30.40625 73.390625  C 30.40625 73.5 30.59375 73.703125 30.59375 74  C 30.59375 74.296875 30.296875 74.5 29.90625 74.5  C 28.796875 74.5 20.296875 67.125 15.40625 56.15625  C 10.40625 45.109375 9 34.359375 9 24.8125  C 9 17.625 9.703125 5.484375 15.703125 -7.359375  C 20.5 -17.734375 28.703125 -25 29.90625 -25  C 30.40625 -25 30.59375 -24.796875 30.59375 -24.390625  z "
                 id="CMR17-40" />
              <path
                 d="M 29.09375 22.921875  C 30.59375 22.921875 32.296875 22.921875 32.296875 24.515625  C 32.296875 25.8125 31.296875 25.8125 29.5 25.8125  L 13.296875 25.8125  C 15.796875 34.78125 21.703125 40.203125 30.59375 40.203125  L 33.5 40.203125  C 35.203125 40.203125 36.703125 40.203125 36.703125 41.796875  C 36.703125 43.09375 35.59375 43.09375 33.796875 43.09375  L 30.40625 43.09375  C 18.09375 43.09375 4.59375 33.296875 4.59375 17.59375  C 4.59375 6.5 12.09375 -1 22 -1  C 28.40625 -1 34.703125 3.03125 34.703125 4.03125  C 34.703125 4.625 34.40625 5.25 33.796875 5.25  C 33.5 5.25 33.296875 5.140625 32.796875 4.75  C 29 2.21875 25.296875 1 22.296875 1  C 17 1 11.40625 4.53125 11.40625 14.34375  C 11.40625 16.25 11.59375 18.875 12.5 22.921875  z "
                 id="CMMI12-15" />
              <path
                 d="M 26.296875 24.703125  C 26.296875 31.875 25.59375 44.015625 19.59375 56.859375  C 14.796875 67.234375 6.59375 74.5 5.40625 74.5  C 5.09375 74.5 4.703125 74.390625 4.703125 73.890625  C 4.703125 73.703125 4.796875 73.59375 4.90625 73.390625  C 9.703125 68.40625 21.90625 55.75 21.90625 24.75  C 21.90625 -6.359375 9.796875 -19.015625 4.90625 -24.015625  C 4.796875 -24.203125 4.703125 -24.3125 4.703125 -24.5  C 4.703125 -25 5.09375 -25 5.40625 -25  C 6.5 -25 15 -17.625 19.90625 -6.65625  C 24.90625 4.390625 26.296875 15.140625 26.296875 24.703125  z "
                 id="CMR17-41" />
            </defs>
            <use
               transform="scale(0.996264)"
               xlink:href="#CMR17-65"
               id="use554" />
            <use
               transform="translate(69.07243 0)scale(0.996264)"
               xlink:href="#CMR17-98"
               id="use556" />
            <use
               transform="translate(119.9678 0)scale(0.996264)"
               xlink:href="#CMR17-117"
               id="use558" />
            <use
               transform="translate(170.863169 0)scale(0.996264)"
               xlink:href="#CMR17-110"
               id="use560" />
            <use
               transform="translate(221.758539 0)scale(0.996264)"
               xlink:href="#CMR17-100"
               id="use562" />
            <use
               transform="translate(272.653909 0)scale(0.996264)"
               xlink:href="#CMR17-97"
               id="use564" />
            <use
               transform="translate(318.344386 0)scale(0.996264)"
               xlink:href="#CMR17-110"
               id="use566" />
            <use
               transform="translate(369.239756 0)scale(0.996264)"
               xlink:href="#CMR17-99"
               id="use568" />
            <use
               transform="translate(409.725416 0)scale(0.996264)"
               xlink:href="#CMR17-101"
               id="use570" />
            <use
               transform="translate(450.211077 0)scale(0.996264)"
               xlink:href="#CMR17-44"
               id="use572" />
            <use
               transform="translate(505.158102 0)scale(0.996264)"
               xlink:href="#CMR17-108"
               id="use574" />
            <use
               transform="translate(530.02916 0)scale(0.996264)"
               xlink:href="#CMR17-111"
               id="use576" />
            <use
               transform="translate(575.719637 0)scale(0.996264)"
               xlink:href="#CMR17-103"
               id="use578" />
            <use
               transform="translate(622.71128 0)scale(0.996264)"
               xlink:href="#CMR17-40"
               id="use580" />
            <use
               transform="translate(657.992048 0)scale(0.996264)"
               xlink:href="#CMMI12-15"
               id="use582" />
            <use
               transform="translate(697.381007 0)scale(0.996264)"
               xlink:href="#CMR17-41"
               id="use584" />
          </g>
        </g>
      </g>
      <g
         id="LineCollection_1">
        <path
           clip-path="url(#p8490f80e51)"
           d="M 77.003925 75.681805  L 77.003925 58.468642  "
           style="fill:none;stroke:#000000;stroke-width:1.5;"
           id="path590" />
        <path
           clip-path="url(#p8490f80e51)"
           d="M 112.741076 129.78032  L 112.741076 105.190086  "
           style="fill:none;stroke:#000000;stroke-width:1.5;"
           id="path592" />
        <path
           clip-path="url(#p8490f80e51)"
           d="M 148.478227 86.747411  L 148.478227 68.304735  "
           style="fill:none;stroke:#000000;stroke-width:1.5;"
           id="path594" />
        <path
           clip-path="url(#p8490f80e51)"
           d="M 184.215377 159.903356  L 184.215377 142.690193  "
           style="fill:none;stroke:#000000;stroke-width:1.5;"
           id="path596" />
        <path
           clip-path="url(#p8490f80e51)"
           d="M 219.952528 125.477029  L 219.952528 102.116307  "
           style="fill:none;stroke:#000000;stroke-width:1.5;"
           id="path598" />
        <path
           clip-path="url(#p8490f80e51)"
           d="M 0 0  "
           style="fill:none;stroke:#000000;stroke-width:1.5;"
           id="path600" />
        <path
           clip-path="url(#p8490f80e51)"
           d="M 291.42683 125.477029  L 291.42683 100.886795  "
           style="fill:none;stroke:#000000;stroke-width:1.5;"
           id="path602" />
        <path
           clip-path="url(#p8490f80e51)"
           d="M 0 0  "
           style="fill:none;stroke:#000000;stroke-width:1.5;"
           id="path604" />
        <path
           clip-path="url(#p8490f80e51)"
           d="M 362.901131 156.829577  L 362.901131 131.009832  "
           style="fill:none;stroke:#000000;stroke-width:1.5;"
           id="path606" />
        <path
           clip-path="url(#p8490f80e51)"
           d="M 398.638282 188.182125  L 398.638282 163.591892  "
           style="fill:none;stroke:#000000;stroke-width:1.5;"
           id="path608" />
      </g>
      <g
         id="line2d_71">
        <defs
           id="defs612">
          <path
             d="M 0 1.5  C 0.397805 1.5 0.77937 1.341951 1.06066 1.06066  C 1.341951 0.77937 1.5 0.397805 1.5 0  C 1.5 -0.397805 1.341951 -0.77937 1.06066 -1.06066  C 0.77937 -1.341951 0.397805 -1.5 0 -1.5  C -0.397805 -1.5 -0.77937 -1.341951 -1.06066 -1.06066  C -1.341951 -0.77937 -1.5 -0.397805 -1.5 0  C -1.5 0.397805 -1.341951 0.77937 -1.06066 1.06066  C -0.77937 1.341951 -0.397805 1.5 0 1.5  z "
             id="m01a49b8dd4"
             style="stroke:#000000;" />
        </defs>
        <g
           clip-path="url(#p8490f80e51)"
           id="g630">
          <use
             style="stroke:#000000;"
             x="77.003925"
             xlink:href="#m01a49b8dd4"
             y="67.075224"
             id="use614" />
          <use
             style="stroke:#000000;"
             x="112.741076"
             xlink:href="#m01a49b8dd4"
             y="117.485203"
             id="use616" />
          <use
             style="stroke:#000000;"
             x="148.478227"
             xlink:href="#m01a49b8dd4"
             y="77.526073"
             id="use618" />
          <use
             style="stroke:#000000;"
             x="184.215377"
             xlink:href="#m01a49b8dd4"
             y="151.296775"
             id="use620" />
          <use
             style="stroke:#000000;"
             x="219.952528"
             xlink:href="#m01a49b8dd4"
             y="113.796668"
             id="use622" />
          <use
             style="stroke:#000000;"
             x="291.42683"
             xlink:href="#m01a49b8dd4"
             y="113.181912"
             id="use624" />
          <use
             style="stroke:#000000;"
             x="362.901131"
             xlink:href="#m01a49b8dd4"
             y="143.919704"
             id="use626" />
          <use
             style="stroke:#000000;"
             x="398.638282"
             xlink:href="#m01a49b8dd4"
             y="175.887009"
             id="use628" />
        </g>
      </g>
      <g
         id="patch_3">
        <path
           d="M 60.922207 214.001871  L 60.922207 17.28  "
           style="fill:none;stroke:#000000;stroke-linecap:square;stroke-linejoin:miter;stroke-width:0.8;"
           id="path633" />
      </g>
      <g
         id="patch_4">
        <path
           d="M 414.72 214.001871  L 414.72 17.28  "
           style="fill:none;stroke:#000000;stroke-linecap:square;stroke-linejoin:miter;stroke-width:0.8;"
           id="path636" />
      </g>
      <g
         id="patch_5">
        <path
           d="M 60.922207 214.001871  L 414.72 214.001871  "
           style="fill:none;stroke:#000000;stroke-linecap:square;stroke-linejoin:miter;stroke-width:0.8;"
           id="path639" />
      </g>
      <g
         id="patch_6">
        <path
           d="M 60.922207 17.28  L 414.72 17.28  "
           style="fill:none;stroke:#000000;stroke-linecap:square;stroke-linejoin:miter;stroke-width:0.8;"
           id="path642" />
      </g>
      <g
         id="text_11">
        <!-- HD122563 -->
        <g
           transform="translate(327.163981 48.017792)scale(0.16 -0.16)"
           id="g666">
          <defs
             id="defs648">
            <path
               d="M 56.09375 61.015625  C 56.09375 65.5 57.203125 65.5 64.09375 65.5  L 64.09375 68  C 61.203125 68 55.90625 68 52.796875 68  C 49.703125 68 44.40625 68 41.5 68  L 41.5 65.5  C 48.40625 65.5 49.5 65.5 49.5 61  L 49.5 36.578125  L 19.703125 36.578125  L 19.703125 61  C 19.703125 65.5 20.796875 65.5 27.703125 65.5  L 27.703125 68  C 24.796875 68 19.5 68 16.40625 68  C 13.296875 68 8 68 5.09375 68  L 5.09375 65.5  C 12 65.5 13.09375 65.5 13.09375 61.015625  L 13.09375 6.984375  C 13.09375 2.5 12 2.5 5.09375 2.5  L 5.09375 0  C 8 0 13.296875 0 16.40625 0  C 19.5 0 24.796875 0 27.703125 0  L 27.703125 2.5  C 20.796875 2.5 19.703125 2.5 19.703125 6.96875  L 19.703125 34  L 49.5 34  L 49.5 6.96875  C 49.5 2.5 48.40625 2.5 41.5 2.5  L 41.5 0  C 44.40625 0 49.703125 0 52.796875 0  C 55.90625 0 61.203125 0 64.09375 0  L 64.09375 2.5  C 57.203125 2.5 56.09375 2.5 56.09375 6.984375  z "
               id="CMR17-72" />
            <path
               d="M 5.203125 68  L 5.203125 65.40625  C 12.09375 65.40625 13.203125 65.40625 13.203125 60.9375  L 13.203125 7.0625  C 13.203125 2.59375 12.09375 2.59375 5.203125 2.59375  L 5.203125 0  L 37 0  C 53.09375 0 66 14.734375 66 33.453125  C 66 52.28125 53.296875 68 37 68  z M 23.796875 2.59375  C 19.796875 2.59375 19.59375 3.078125 19.59375 6.46875  L 19.59375 61.53125  C 19.59375 64.921875 19.796875 65.40625 23.796875 65.40625  L 35 65.40625  C 43.296875 65.40625 58.59375 60.53125 58.59375 33.453125  C 58.59375 19.40625 54.5 13.734375 52.59375 11.046875  C 50.203125 7.96875 44.5 2.59375 35 2.59375  z "
               id="CMR17-68" />
            <path
               d="M 11.40625 57.6875  C 12.40625 57.28125 16.5 56 20.703125 56  C 30 56 35.09375 61.109375 38 64.0625  C 38 64.953125 38 65.5 37.40625 65.5  C 37.296875 65.5 37.09375 65.5 36.296875 65.046875  C 32.796875 63.40625 28.703125 62.078125 23.703125 62.078125  C 20.703125 62.078125 16.203125 62.484375 11.296875 64.671875  C 10.203125 65.171875 10 65.171875 9.90625 65.171875  C 9.40625 65.171875 9.296875 65.0625 9.296875 63.078125  L 9.296875 34.421875  C 9.296875 32.640625 9.296875 32.140625 10.296875 32.140625  C 10.796875 32.140625 11 32.34375 11.5 33.03125  C 14.703125 37.515625 19.09375 39.40625 24.09375 39.40625  C 27.59375 39.40625 35.09375 37.21875 35.09375 20.140625  C 35.09375 16.953125 35.09375 11.171875 32.09375 6.578125  C 29.59375 2.484375 25.703125 0.390625 21.40625 0.390625  C 14.796875 0.390625 8.09375 5 6.296875 12.71875  C 6.703125 12.609375 7.5 12.421875 7.90625 12.421875  C 9.203125 12.421875 11.703125 13.125 11.703125 16.21875  C 11.703125 18.90625 9.796875 20 7.90625 20  C 5.59375 20 4.09375 18.59375 4.09375 15.796875  C 4.09375 7.09375 11 -2 21.59375 -2  C 31.90625 -2 41.703125 6.875 41.703125 19.75  C 41.703125 31.71875 33.90625 41 24.203125 41  C 19.09375 41 14.796875 39.109375 11.40625 35.53125  z "
               id="CMR17-53" />
          </defs>
          <use
             transform="scale(0.996264)"
             xlink:href="#CMR17-72"
             id="use650" />
          <use
             transform="translate(69.07243 0)scale(0.996264)"
             xlink:href="#CMR17-68"
             id="use652" />
          <use
             transform="translate(139.465986 0)scale(0.996264)"
             xlink:href="#CMR17-49"
             id="use654" />
          <use
             transform="translate(185.156463 0)scale(0.996264)"
             xlink:href="#CMR17-50"
             id="use656" />
          <use
             transform="translate(230.84694 0)scale(0.996264)"
             xlink:href="#CMR17-50"
             id="use658" />
          <use
             transform="translate(276.537417 0)scale(0.996264)"
             xlink:href="#CMR17-53"
             id="use660" />
          <use
             transform="translate(322.227894 0)scale(0.996264)"
             xlink:href="#CMR17-54"
             id="use662" />
          <use
             transform="translate(367.918371 0)scale(0.996264)"
             xlink:href="#CMR17-51"
             id="use664" />
        </g>
      </g>
    </g>
  </g>
  <defs
     id="defs674">
    <clipPath
       id="p8490f80e51">
      <rect
         height="196.721871"
         width="353.797793"
         x="60.922207"
         y="17.28"
         id="rect671" />
    </clipPath>
  </defs>
</svg>
