<?xml version="1.0" encoding="UTF-8" standalone="no"?>
<!-- Created with matplotlib (http://matplotlib.org/) -->

<svg
   xmlns:dc="http://purl.org/dc/elements/1.1/"
   xmlns:cc="http://creativecommons.org/ns#"
   xmlns:rdf="http://www.w3.org/1999/02/22-rdf-syntax-ns#"
   xmlns:svg="http://www.w3.org/2000/svg"
   xmlns="http://www.w3.org/2000/svg"
   xmlns:xlink="http://www.w3.org/1999/xlink"
   xmlns:sodipodi="http://sodipodi.sourceforge.net/DTD/sodipodi-0.dtd"
   xmlns:inkscape="http://www.inkscape.org/namespaces/inkscape"
   height="300pt"
   version="1.1"
   viewBox="0 0 432 300"
   width="432pt"
   id="svg2"
   inkscape:version="0.92.2 5c3e80d, 2017-08-06"
   sodipodi:docname="6li-wg.svg">
  <sodipodi:namedview
     pagecolor="#ffffff"
     bordercolor="#666666"
     borderopacity="1"
     objecttolerance="10"
     gridtolerance="10"
     guidetolerance="10"
     inkscape:pageopacity="0"
     inkscape:pageshadow="2"
     inkscape:window-width="1920"
     inkscape:window-height="1015"
     id="namedview254"
     showgrid="false"
     inkscape:zoom="2.08"
     inkscape:cx="288"
     inkscape:cy="200"
     inkscape:window-x="1920"
     inkscape:window-y="0"
     inkscape:window-maximized="1"
     inkscape:current-layer="g3588" />
  <metadata
     id="metadata256">
    <rdf:RDF>
      <cc:Work
         rdf:about="">
        <dc:format>image/svg+xml</dc:format>
        <dc:type
           rdf:resource="http://purl.org/dc/dcmitype/StillImage" />
        <dc:title />
      </cc:Work>
    </rdf:RDF>
  </metadata>
  <defs
     id="defs4"
     style="stroke-linecap:butt;stroke-linejoin:round">
    <style
       type="text/css"
       id="style6">
*{stroke-linecap:butt;stroke-linejoin:round;}
  </style>
  </defs>
  <g
     id="figure_1"
     style="stroke-linecap:butt;stroke-linejoin:round"
     transform="translate(0,12)">
    <g
       id="axes_1"
       transform="translate(26.181818,-7.3309091)"
       style="stroke-linecap:butt;stroke-linejoin:round">
      <g
         id="matplotlib.axis_1"
         style="stroke-linecap:butt;stroke-linejoin:round">
        <g
           id="xtick_1"
           style="stroke-linecap:butt;stroke-linejoin:round"
           transform="translate(256.70146,-0.24897287)">
          <g
             id="line2d_1"
             style="stroke-linecap:butt;stroke-linejoin:round">
            <defs
               id="defs19">
              <path
                 d="M 0,0 V 3.5"
                 id="mab2df91ba5"
                 style="stroke:#000000;stroke-width:0.80000001;stroke-linecap:butt;stroke-linejoin:round"
                 inkscape:connector-curvature="0" />
            </defs>
            <g
               id="g22"
               style="stroke-linecap:butt;stroke-linejoin:round">
              <use
                 style="stroke:#000000;stroke-width:0.80000001;stroke-linecap:butt;stroke-linejoin:round"
                 x="69.218185"
                 xlink:href="#mab2df91ba5"
                 y="252"
                 id="use24"
                 width="100%"
                 height="100%" />
            </g>
          </g>
          <g
             id="text_1"
             style="stroke-linecap:butt;stroke-linejoin:round">
            <!-- $\mathrm{DRAGON}$ -->
            <defs
               id="defs27">
              <path
                 d="m 5.203125,68 v -2.59375 c 6.890625,0 8,0 8,-4.46875 V 7.0625 c 0,-4.46875 -1.109375,-4.46875 -8,-4.46875 V 0 H 37 C 53.09375,0 66,14.734375 66,33.453125 66,52.28125 53.296875,68 37,68 Z M 23.796875,2.59375 c -4,0 -4.203125,0.484375 -4.203125,3.875 v 55.0625 c 0,3.390625 0.203125,3.875 4.203125,3.875 H 35 c 8.296875,0 23.59375,-4.875 23.59375,-31.953125 0,-14.046875 -4.09375,-19.71875 -6,-22.40625 C 50.203125,7.96875 44.5,2.59375 35,2.59375 Z"
                 id="CMR17-68"
                 inkscape:connector-curvature="0"
                 style="stroke-linecap:butt;stroke-linejoin:round" />
              <path
                 d="m 39.203125,33.53125 c 9.5,1.90625 17.5,8.28125 17.5,16.25 0,9.359375 -10.609375,17.8125 -24.609375,17.8125 H 5.203125 V 65 c 6.890625,0 8,0 8,-4.484375 V 6.484375 C 13.203125,2 12.09375,2 5.203125,2 v -2.40625 c 2.890625,0 8.09375,0 11.203125,0 3.09375,0 8.296875,0 11.1875,0 V 2 c -6.890625,0 -8,0 -8,4.515625 V 33 H 31.296875 C 37,33 40.203125,30.6875 41.59375,29.390625 c 4,-3.890625 4,-6.59375 4,-13.390625 0,-6.703125 0,-10.109375 3,-13.5 C 52.40625,-1.59375 57.5,-2 59.703125,-2 c 7.390625,0 8.5,8.1875 8.5,9.859375 0,0.578125 0,1.28125 -0.90625,1.28125 -0.796875,0 -0.890625,-0.59375 -0.890625,-0.984375 -0.5,-6.40625 -3.40625,-8.5625 -6.5,-8.5625 -5.5,0 -6.109375,6.265625 -6.703125,12.34375 -0.296875,2.09375 -0.5,3.578125 -0.703125,5.765625 -0.59375,4.984375 -1.40625,12.25 -13.296875,15.828125 z M 31,34.59375 H 19.59375 v 26.546875 c 0,3.375 0.203125,3.859375 4.203125,3.859375 h 7.296875 c 8.3125,0 18,-2.859375 18,-15.15625 C 49.09375,37.0625 38.5,34.59375 31,34.59375 Z"
                 id="CMR17-82"
                 inkscape:connector-curvature="0"
                 style="stroke-linecap:butt;stroke-linejoin:round" />
              <path
                 d="M 36.296875,68.40625 C 35.796875,69.703125 35.59375,70 34.59375,70 c -1,0 -1.1875,-0.296875 -1.6875,-1.59375 L 11.703125,8.84375 C 9.796875,3.484375 5.796875,2.390625 2.296875,2.390625 v -2.59375 C 4.09375,0 8.09375,0 10,0 c 2.5,0 6.5,0 8.90625,-0.203125 v 2.59375 c -4.703125,0 -5.40625,3.25 -5.40625,4.46875 0,0.90625 0.203125,1.421875 0.40625,2.03125 L 19.203125,24 H 45.40625 l 6,-17.09375 c 0.5,-1.203125 0.5,-1.40625 0.5,-1.796875 0,-2.71875 -4.3125,-2.71875 -6.203125,-2.71875 V 0 c 2.890625,0 8.09375,0 11.203125,0 2.59375,0 7.59375,0 10,-0.203125 v 2.59375 c -5.3125,0 -7.109375,0 -8.40625,3.65625 z m -4,-7.578125 L 44.5,26.59375 H 20.09375 Z"
                 id="CMR17-65"
                 inkscape:connector-curvature="0"
                 style="stroke-linecap:butt;stroke-linejoin:round" />
              <path
                 d="m 62.09375,19.265625 c 0,3.75 0.3125,4.25 6.5,4.25 V 26.09375 C 66.203125,26 60.796875,26 58.09375,26 55.296875,26 47.5,26 43.703125,26 v -2.484375 h 3 c 8.59375,0 8.796875,-1.109375 8.796875,-4.75 V 12.09375 C 55.5,0.984375 42.5,0.984375 39.40625,0.984375 c -10.3125,0 -27.203125,7 -27.203125,32.765625 0,25.75 16.59375,32.65625 26.296875,32.65625 11.296875,0 19.5,-9.75 21.40625,-23.578125 0.1875,-1.203125 0.1875,-1.40625 1.09375,-1.40625 1.09375,0 1.09375,0.203125 1.09375,2 V 67 c 0,1.78125 -0.09375,1.890625 -0.6875,1.890625 -0.40625,0 -0.5,-0.109375 -1.203125,-1.296875 l -4.40625,-8.359375 C 50.90625,65.421875 44.90625,69 37.203125,69 20.09375,69 4.59375,54 4.59375,33.5625 4.59375,13.203125 19.796875,-2 37.40625,-2 45.5,-2 53.40625,0.875 56.5,6.515625 58.203125,2.46875 61,-0.3125 61.5,-0.3125 c 0.5,0 0.59375,0.109375 0.59375,1.875 z"
                 id="CMR17-71"
                 inkscape:connector-curvature="0"
                 style="stroke-linecap:butt;stroke-linejoin:round" />
              <path
                 d="M 67.296875,33.359375 C 67.296875,53.703125 52.59375,69 36,69 19,69 4.59375,53.5 4.59375,33.359375 4.59375,13.203125 19.203125,-2 35.90625,-2 53,-2 67.296875,13.5 67.296875,33.359375 Z M 36,-0.203125 c -11.40625,0 -23.796875,11.3125 -23.796875,34.84375 0,23.421875 13.59375,32.5625 23.703125,32.5625 10.59375,0 23.796875,-9.421875 23.796875,-32.5625 C 59.703125,10.71875 47,-0.203125 36,-0.203125 Z"
                 id="CMR17-79"
                 inkscape:connector-curvature="0"
                 style="stroke-linecap:butt;stroke-linejoin:round" />
              <path
                 d="M 20.5,66.40625 C 19.796875,67.5 19.703125,67.5 17.796875,67.5 H 5.09375 V 65 H 7 c 4,0 5.796875,-0.484375 6.09375,-0.59375 v -54.875 c 0,-2.484375 0,-7.140625 -8,-7.140625 v -2.59375 C 7.40625,0 11.59375,0 14.09375,0 c 2.5,0 6.703125,0 9,-0.203125 v 2.59375 c -8,0 -8,4.65625 -8,7.140625 V 63.015625 C 15.796875,62.421875 15.796875,62.21875 16.5,61.234375 L 53.59375,1.1875 C 54.296875,0 54.59375,0 55.09375,0 c 1,0 1,0.296875 1,2.171875 v 55.71875 c 0,2.46875 0,7.109375 8,7.109375 v 2.59375 c -2.296875,-0.09375 -6.5,-0.09375 -9,-0.09375 -2.5,0 -6.6875,0 -9,0.09375 V 65 c 8,0 8,-4.65625 8,-7.140625 v -45.9375 z"
                 id="CMR17-78"
                 inkscape:connector-curvature="0"
                 style="stroke-linecap:butt;stroke-linejoin:round" />
            </defs>
            <g
               transform="matrix(0.25,0,0,-0.25,16.993553,276.29625)"
               id="g35"
               style="stroke-linecap:butt;stroke-linejoin:round">
              <use
                 transform="scale(0.996264)"
                 xlink:href="#CMR17-68"
                 id="use37"
                 style="stroke-linecap:butt;stroke-linejoin:round"
                 x="0"
                 y="0"
                 width="100%"
                 height="100%" />
              <use
                 transform="matrix(0.996264,0,0,0.996264,70.393556,0)"
                 xlink:href="#CMR17-82"
                 id="use39"
                 style="stroke-linecap:butt;stroke-linejoin:round"
                 x="0"
                 y="0"
                 width="100%"
                 height="100%" />
              <use
                 transform="matrix(0.996264,0,0,0.996264,138.18466,0)"
                 xlink:href="#CMR17-65"
                 id="use41"
                 style="stroke-linecap:butt;stroke-linejoin:round"
                 x="0"
                 y="0"
                 width="100%"
                 height="100%" />
              <use
                 transform="matrix(0.996264,0,0,0.996264,204.65463,0)"
                 xlink:href="#CMR17-71"
                 id="use43"
                 style="stroke-linecap:butt;stroke-linejoin:round"
                 x="0"
                 y="0"
                 width="100%"
                 height="100%" />
              <use
                 transform="matrix(0.996264,0,0,0.996264,277.00998,0)"
                 xlink:href="#CMR17-79"
                 id="use45"
                 style="stroke-linecap:butt;stroke-linejoin:round"
                 x="0"
                 y="0"
                 width="100%"
                 height="100%" />
              <use
                 transform="matrix(0.996264,0,0,0.996264,348.72477,0)"
                 xlink:href="#CMR17-78"
                 id="use47"
                 style="stroke-linecap:butt;stroke-linejoin:round"
                 x="0"
                 y="0"
                 width="100%"
                 height="100%" />
            </g>
          </g>
        </g>
        <g
           id="xtick_2"
           style="stroke-linecap:butt;stroke-linejoin:round"
           transform="translate(-219.00198,0.02304566)">
          <g
             id="line2d_2"
             style="stroke-linecap:butt;stroke-linejoin:round">
            <g
               id="g51"
               style="stroke-linecap:butt;stroke-linejoin:round">
              <use
                 style="stroke:#000000;stroke-width:0.80000001;stroke-linecap:butt;stroke-linejoin:round"
                 x="373.58182"
                 xlink:href="#mab2df91ba5"
                 y="252"
                 id="use53"
                 width="100%"
                 height="100%" />
            </g>
          </g>
          <g
             id="text_2"
             style="stroke-linecap:butt;stroke-linejoin:round">
            <!-- $\mathrm{Forsyth\ et\ al.}\ (1966)$ -->
            <defs
               id="defs56">
              <path
                 d="M 54.40625,67.578125 H 5.09375 V 65 c 6.90625,0 8,0 8,-4.46875 V 6.96875 C 13.09375,2.5 12,2.5 5.09375,2.5 V 0 c 2.90625,0 8.5,0 11.609375,0 4.09375,0 8.890625,0 13,0 V 2.5 H 27.5 c -7.59375,0 -7.796875,0.984375 -7.796875,4.5625 v 25.359375 h 9 C 38,32.421875 38.90625,29.140625 38.90625,20.8125 h 1.796875 V 46.671875 H 38.90625 C 38.90625,38.28125 38,35 28.703125,35 h -9 V 61.109375 C 19.703125,64.5 19.90625,65 23.90625,65 H 36.796875 C 51.90625,65 53.59375,58.828125 55,45.5625 h 1.796875 z"
                 id="CMR17-70"
                 inkscape:connector-curvature="0"
                 style="stroke-linecap:butt;stroke-linejoin:round" />
              <path
                 d="M 43.09375,21.1875 C 43.09375,34 33.796875,44 22.90625,44 12,44 2.703125,34 2.703125,21.1875 2.703125,8.609375 12,-1 22.90625,-1 c 10.890625,0 20.1875,9.609375 20.1875,22.1875 z M 22.90625,0.796875 c -4.703125,0 -8.703125,2.796875 -11,6.703125 -2.5,4.484375 -2.8125,10.09375 -2.8125,14.5 0,4.203125 0.203125,9.40625 2.8125,13.90625 2,3.296875 5.890625,6.5 11,6.5 4.5,0 8.296875,-2.5 10.6875,-6 C 36.703125,31.703125 36.703125,25.109375 36.703125,22 c 0,-3.90625 -0.203125,-9.890625 -2.90625,-14.703125 -2.796875,-4.59375 -7.09375,-6.5 -10.890625,-6.5 z"
                 id="CMR17-111"
                 inkscape:connector-curvature="0"
                 style="stroke-linecap:butt;stroke-linejoin:round" />
              <path
                 d="M 15,23.390625 C 15,33 19.09375,42 26.59375,42 27.296875,42 28,41.90625 28.703125,41.59375 c 0,0 -2.203125,-0.703125 -2.203125,-3.28125 0,-2.40625 1.90625,-3.40625 3.40625,-3.40625 1.1875,0 3.390625,0.703125 3.390625,3.5 0,3.203125 -3.203125,5.1875 -6.59375,5.1875 -7.609375,0 -10.90625,-7.390625 -11.90625,-10.890625 h -0.09375 V 43.59375 L 3.09375,42.5 V 39.90625 C 9,39.90625 9.90625,39.296875 9.90625,34.5 V 6.6875 C 9.90625,2.875 9.5,2.390625 3.09375,2.390625 v -2.59375 C 5.5,0 10.09375,0 12.703125,0 c 2.890625,0 8,0 10.703125,-0.203125 v 2.59375 C 16.203125,2.390625 15,2.390625 15,6.875 Z"
                 id="CMR17-114"
                 inkscape:connector-curvature="0"
                 style="stroke-linecap:butt;stroke-linejoin:round" />
              <path
                 d="m 30.90625,42.140625 c 0,1.8125 -0.109375,1.90625 -0.703125,1.90625 -0.40625,0 -0.5,-0.09375 -1.703125,-1.59375 -0.296875,-0.40625 -1.203125,-1.421875 -1.5,-1.8125 -3.203125,3.40625 -7.703125,3.40625 -9.40625,3.40625 C 6.5,44.046875 2.5,38.234375 2.5,32.4375 c 0,-9.03125 10.203125,-11.109375 13.09375,-11.734375 6.3125,-1.28125 8.5,-1.6875 10.609375,-3.5 1.296875,-1.1875 3.5,-3.390625 3.5,-6.984375 0,-4.21875 -2.40625,-9.625 -11.609375,-9.625 -8.6875,0 -11.796875,6.59375 -13.59375,15.359375 -0.296875,1.390625 -0.296875,1.5 -1.09375,1.5 -0.8125,0 -0.90625,-0.109375 -0.90625,-2.09375 v -14.375 c 0,-1.78125 0.09375,-1.890625 0.703125,-1.890625 0.5,0 0.59375,0.109375 1.09375,0.90625 C 4.90625,0.890625 6.40625,3.296875 7,4.3125 9,1.609375 12.5,-1 18.09375,-1 28,-1 33.296875,4.421875 33.296875,12.25 c 0,5.125 -2.703125,7.828125 -4,9.03125 -3,3.109375 -6.5,3.8125 -10.703125,4.609375 -5.5,1.21875 -12.5,2.625 -12.5,8.75 0,2.59375 1.40625,8.125 11.5,8.125 10.703125,0 11.3125,-10.046875 11.5,-13.265625 C 29.203125,29 29.703125,28.890625 30,28.890625 c 0.90625,0 0.90625,0.3125 0.90625,2.015625 z"
                 id="CMR17-115"
                 inkscape:connector-curvature="0"
                 style="stroke-linecap:butt;stroke-linejoin:round" />
              <path
                 d="m 39,34.328125 c 2.5,6.078125 7,6.078125 8.40625,6.078125 V 43 C 45.5,43 43,43 41.09375,43 39,43 35.703125,43 33.703125,43.09375 V 40.5 C 37.5,40.203125 37.59375,37.40625 37.59375,36.609375 c 0,-0.984375 -0.1875,-1.484375 -0.6875,-2.6875 L 26,7.015625 14.09375,36.03125 c -0.5,1.1875 -0.5,1.875 -0.5,1.984375 0,2.1875 2.3125,2.390625 4.703125,2.390625 v 2.6875 C 15.90625,43 11.59375,43 9.09375,43 6.40625,43 3.203125,43 1,43.09375 v -2.6875 c 5.40625,0 6,-0.5 7.296875,-3.6875 L 23.203125,0.234375 c -4.5,-11.765625 -7.109375,-18.640625 -13.40625,-18.640625 -1.09375,0 -3.59375,0.296875 -5.390625,2.09375 2.296875,0.203125 3.296875,1.59375 3.296875,3.296875 0,1.6875 -1.203125,3.1875 -3.203125,3.1875 -2.203125,0 -3.296875,-1.5 -3.296875,-3.296875 0,-3.984375 4.09375,-6.875 8.59375,-6.875 5.796875,0 9.40625,5.59375 11.40625,10.5625 z"
                 id="CMR17-121"
                 inkscape:connector-curvature="0"
                 style="stroke-linecap:butt;stroke-linejoin:round" />
              <path
                 d="m 15.09375,40 h 14 v 2.578125 h -14 V 61 H 13.296875 C 13.09375,50.703125 9.59375,41.6875 1.09375,41.6875 V 40 H 9.796875 V 12.046875 C 9.796875,10.15625 9.796875,-1 21.40625,-1 c 5.890625,0 9.296875,5.78125 9.296875,13.140625 V 17.8125 H 28.90625 V 12.234375 C 28.90625,5.375 26.203125,0.796875 22,0.796875 c -2.90625,0 -6.90625,1.984375 -6.90625,11.046875 z"
                 id="CMR17-116"
                 inkscape:connector-curvature="0"
                 style="stroke-linecap:butt;stroke-linejoin:round" />
              <path
                 d="m 41.5,30.203125 c 0,5.09375 -1,13.390625 -12.796875,13.390625 C 20.5,43.59375 16.5,37 15.296875,33.703125 h -0.09375 V 68.6875 L 3.296875,67.59375 V 65 c 5.90625,0 6.796875,-0.59375 6.796875,-5.359375 V 6.65625 c 0,-3.78125 -0.390625,-4.265625 -6.796875,-4.265625 v -2.59375 C 5.703125,0 10.09375,0 12.703125,0 c 2.59375,0 7.09375,0 9.5,-0.203125 v 2.59375 c -6.40625,0 -6.796875,0.390625 -6.796875,4.296875 V 25.90625 C 15.40625,35.109375 21,42 28,42 c 7.40625,0 8.203125,-6.59375 8.203125,-11.40625 V 6.6875 c 0,-3.8125 -0.40625,-4.296875 -6.796875,-4.296875 v -2.59375 C 31.796875,0 36.203125,0 38.796875,0 c 2.609375,0 7.109375,0 9.5,-0.203125 v 2.59375 C 41.90625,2.390625 41.5,2.78125 41.5,6.6875 Z"
                 id="CMR17-104"
                 inkscape:connector-curvature="0"
                 style="stroke-linecap:butt;stroke-linejoin:round" />
              <path
                 d="M 38.09375,23 C 38.5,23.40625 38.5,23.609375 38.5,24.625 38.5,34.96875 33.09375,44 21.703125,44 c -10.609375,0 -19,-10.109375 -19,-22.390625 0,-13 9.5,-22.609375 20.09375,-22.609375 C 34,-1 38.40625,9.484375 38.40625,11.5625 c 0,0.6875 -0.609375,0.6875 -0.8125,0.6875 -0.6875,0 -0.796875,-0.203125 -1.1875,-1.375 C 34.203125,4.140625 28.703125,0.796875 23.5,0.796875 19.203125,0.796875 14.90625,3.171875 12.203125,7.5 9.09375,12.546875 9.09375,18.375 9.09375,23 Z M 9.203125,24.5 c 0.703125,14.640625 8.390625,17.90625 12.390625,17.90625 6.8125,0 11.40625,-6.515625 11.5,-17.90625 z"
                 id="CMR17-101"
                 inkscape:connector-curvature="0"
                 style="stroke-linecap:butt;stroke-linejoin:round" />
              <path
                 d="M 36,25.828125 C 36,32.375 36,35.84375 31.796875,39.734375 28.09375,43 23.796875,44 20.40625,44 12.5,44 6.796875,37.609375 6.796875,30.796875 6.796875,27 9.796875,27 10.40625,27 11.703125,27 14,27.78125 14,30.53125 14,33 12.09375,34.078125 10.40625,34.078125 10,34.078125 9.5,33.96875 9.203125,33.875 c 2.09375,6.625 7.5,8.53125 11,8.53125 5,0 10.5,-4.453125 10.5,-12.953125 V 25 c -5.90625,0 -13,-0.796875 -18.609375,-3.796875 C 5.796875,17.703125 4,12.703125 4,8.90625 4,1.203125 13,-1 18.296875,-1 c 5.5,0 10.609375,3.171875 12.796875,8.984375 0.203125,-4.34375 3,-8.265625 7.40625,-8.265625 2.09375,0 7.40625,1.375 7.40625,9.140625 V 14.375 h -1.8125 V 8.78125 c 0,-6 -2.6875,-6.78125 -4,-6.78125 C 36,2 36,7.15625 36,11.53125 Z M 30.703125,13.59375 c 0,-8.640625 -6.203125,-13 -11.703125,-13 -5,0 -8.90625,3.703125 -8.90625,8.3125 0,2.984375 1.3125,8.28125 7.109375,11.484375 C 22,23.09375 27.5,23.5 30.703125,23.5 Z"
                 id="CMR17-97"
                 inkscape:connector-curvature="0"
                 style="stroke-linecap:butt;stroke-linejoin:round" />
              <path
                 d="M 15.296875,68.6875 3.40625,67.59375 V 65 c 5.890625,0 6.796875,-0.59375 6.796875,-5.359375 V 6.65625 c 0,-3.78125 -0.40625,-4.265625 -6.796875,-4.265625 v -2.59375 C 5.796875,0 10.203125,0 12.703125,0 c 2.59375,0 7,0 9.390625,-0.203125 v 2.59375 c -6.390625,0 -6.796875,0.390625 -6.796875,4.265625 z"
                 id="CMR17-108"
                 inkscape:connector-curvature="0"
                 style="stroke-linecap:butt;stroke-linejoin:round" />
              <path
                 d="m 18.40625,4.796875 c 0,2.890625 -2.40625,4.875 -4.8125,4.875 -2.890625,0 -4.890625,-2.390625 -4.890625,-4.78125 C 8.703125,2 11.09375,0 13.5,0 c 2.90625,0 4.90625,2.390625 4.90625,4.796875 z"
                 id="CMMI12-58"
                 inkscape:connector-curvature="0"
                 style="stroke-linecap:butt;stroke-linejoin:round" />
              <path
                 d="m 30.59375,-24.390625 c 0,0.09375 0,0.296875 -0.296875,0.59375 -4.59375,4.671875 -16.890625,17.4375 -16.890625,48.5 0,31.0625 12.09375,43.71875 17,48.6875 0,0.109375 0.1875,0.3125 0.1875,0.609375 0,0.296875 -0.296875,0.5 -0.6875,0.5 -1.109375,0 -9.609375,-7.375 -14.5,-18.34375 C 10.40625,45.109375 9,34.359375 9,24.8125 9,17.625 9.703125,5.484375 15.703125,-7.359375 20.5,-17.734375 28.703125,-25 29.90625,-25 c 0.5,0 0.6875,0.203125 0.6875,0.609375 z"
                 id="CMR17-40"
                 inkscape:connector-curvature="0"
                 style="stroke-linecap:butt;stroke-linejoin:round" />
              <path
                 d="M 26.59375,63.40625 C 26.59375,65.5 26.5,65.5 25.09375,65.5 21.203125,61.1875 15.296875,59.796875 9.703125,59.796875 c -0.296875,0 -0.796875,0 -0.90625,-0.296875 C 8.703125,59.296875 8.703125,59.09375 8.703125,57 11.796875,57 17,57.59375 21,59.984375 V 7.203125 C 21,3.6875 20.796875,2.5 12.203125,2.5 h -3 V 0 C 14,0 19,0 23.796875,0 28.59375,0 33.59375,0 38.40625,0 v 2.5 h -3 c -8.609375,0 -8.8125,1.09375 -8.8125,4.65625 z"
                 id="CMR17-49"
                 inkscape:connector-curvature="0"
                 style="stroke-linecap:butt;stroke-linejoin:round" />
              <path
                 d="m 35.203125,29.125 c 0,-21.875 -9.109375,-28.640625 -16.609375,-28.640625 -2.296875,0 -7.890625,0 -10.1875,4.109375 2.59375,-0.40625 4.5,0.984375 4.5,3.5 0,2.71875 -2.203125,3.609375 -3.609375,3.609375 -0.890625,0 -3.59375,-0.40625 -3.59375,-3.796875 C 5.703125,1.109375 11.59375,-2 18.796875,-2 30.296875,-2 42,10.53125 42,32.390625 c 0,27.25 -11.203125,32.90625 -18.796875,32.90625 -9.90625,0 -19.40625,-8.609375 -19.40625,-21.890625 C 3.796875,31.109375 11.90625,22 22.09375,22 30.5,22 34.203125,29.734375 35.203125,33 Z m -12.90625,-5.53125 c -2.703125,0 -6.5,0.5 -9.59375,6.4375 -2.109375,3.859375 -2.109375,8.421875 -2.109375,13.265625 0,5.859375 0,9.90625 2.8125,14.265625 1.390625,2.078125 4,5.4375 9.796875,5.4375 C 35,63 35,45.078125 35,41.125 35,34.09375 31.796875,23.59375 22.296875,23.59375 Z"
                 id="CMR17-57"
                 inkscape:connector-curvature="0"
                 style="stroke-linecap:butt;stroke-linejoin:round" />
              <path
                 d="m 10.59375,34 c 0,23.65625 11.203125,29 17.703125,29 C 30.40625,63 35.5,62.640625 37.5,59 c -1.59375,0 -4.59375,0 -4.59375,-3.484375 0,-2.6875 2.1875,-3.59375 3.59375,-3.59375 0.90625,0 3.59375,0.390625 3.59375,3.703125 0,6.15625 -5,9.671875 -11.890625,9.671875 C 16.296875,65.296875 3.796875,52.96875 3.796875,31 3.796875,3.953125 15.09375,-2 23.09375,-2 32.796875,-2 42,6.671875 42,20.046875 42,32.515625 33.90625,41.59375 23.703125,41.59375 17.59375,41.59375 13.09375,37.609375 10.59375,30.625 Z m 12.5,-33.609375 C 10.796875,0.390625 10.796875,18.75 10.796875,22.4375 10.796875,29.625 14.203125,40 23.5,40 c 1.703125,0 6.59375,0 9.90625,-6.875 1.796875,-3.90625 1.796875,-7.984375 1.796875,-12.984375 0,-5.390625 0,-9.359375 -2.109375,-13.359375 -2.1875,-4.109375 -5.390625,-6.390625 -10,-6.390625 z"
                 id="CMR17-54"
                 inkscape:connector-curvature="0"
                 style="stroke-linecap:butt;stroke-linejoin:round" />
              <path
                 d="m 26.296875,24.703125 c 0,7.171875 -0.703125,19.3125 -6.703125,32.15625 -4.796875,10.375 -13,17.640625 -14.1875,17.640625 -0.3125,0 -0.703125,-0.109375 -0.703125,-0.609375 0,-0.1875 0.09375,-0.296875 0.203125,-0.5 4.796875,-4.984375 17,-17.640625 17,-48.640625 0,-31.109375 -12.109375,-43.765625 -17,-48.765625 C 4.796875,-24.203125 4.703125,-24.3125 4.703125,-24.5 c 0,-0.5 0.390625,-0.5 0.703125,-0.5 1.09375,0 9.59375,7.375 14.5,18.34375 5,11.046875 6.390625,21.796875 6.390625,31.359375 z"
                 id="CMR17-41"
                 inkscape:connector-curvature="0"
                 style="stroke-linecap:butt;stroke-linejoin:round" />
            </defs>
            <g
               transform="matrix(0.25,0,0,-0.25,270.60012,277.65753)"
               id="g74"
               style="stroke-linecap:butt;stroke-linejoin:round">
              <use
                 transform="scale(0.996264)"
                 xlink:href="#CMR17-70"
                 id="use76"
                 style="stroke-linecap:butt;stroke-linejoin:round"
                 x="0"
                 y="0"
                 width="100%"
                 height="100%" />
              <use
                 transform="matrix(0.996264,0,0,0.996264,52.176591,0)"
                 xlink:href="#CMR17-111"
                 id="use78"
                 style="stroke-linecap:butt;stroke-linejoin:round"
                 x="0"
                 y="0"
                 width="100%"
                 height="100%" />
              <use
                 transform="matrix(0.996264,0,0,0.996264,97.867068,0)"
                 xlink:href="#CMR17-114"
                 id="use80"
                 style="stroke-linecap:butt;stroke-linejoin:round"
                 x="0"
                 y="0"
                 width="100%"
                 height="100%" />
              <use
                 transform="matrix(0.996264,0,0,0.996264,133.14784,0)"
                 xlink:href="#CMR17-115"
                 id="use82"
                 style="stroke-linecap:butt;stroke-linejoin:round"
                 x="0"
                 y="0"
                 width="100%"
                 height="100%" />
              <use
                 transform="matrix(0.996264,0,0,0.996264,168.94917,0)"
                 xlink:href="#CMR17-121"
                 id="use84"
                 style="stroke-linecap:butt;stroke-linejoin:round"
                 x="0"
                 y="0"
                 width="100%"
                 height="100%" />
              <use
                 transform="matrix(0.996264,0,0,0.996264,217.24209,0)"
                 xlink:href="#CMR17-116"
                 id="use86"
                 style="stroke-linecap:butt;stroke-linejoin:round"
                 x="0"
                 y="0"
                 width="100%"
                 height="100%" />
              <use
                 transform="matrix(0.996264,0,0,0.996264,252.52286,0)"
                 xlink:href="#CMR17-104"
                 id="use88"
                 style="stroke-linecap:butt;stroke-linejoin:round"
                 x="0"
                 y="0"
                 width="100%"
                 height="100%" />
              <use
                 transform="matrix(0.996264,0,0,0.996264,334.64734,0)"
                 xlink:href="#CMR17-101"
                 id="use90"
                 style="stroke-linecap:butt;stroke-linejoin:round"
                 x="0"
                 y="0"
                 width="100%"
                 height="100%" />
              <use
                 transform="matrix(0.996264,0,0,0.996264,375.133,0)"
                 xlink:href="#CMR17-116"
                 id="use92"
                 style="stroke-linecap:butt;stroke-linejoin:round"
                 x="0"
                 y="0"
                 width="100%"
                 height="100%" />
              <use
                 transform="matrix(0.996264,0,0,0.996264,441.64288,0)"
                 xlink:href="#CMR17-97"
                 id="use94"
                 style="stroke-linecap:butt;stroke-linejoin:round"
                 x="0"
                 y="0"
                 width="100%"
                 height="100%" />
              <use
                 transform="matrix(0.996264,0,0,0.996264,487.33336,0)"
                 xlink:href="#CMR17-108"
                 id="use96"
                 style="stroke-linecap:butt;stroke-linejoin:round"
                 x="0"
                 y="0"
                 width="100%"
                 height="100%" />
              <use
                 transform="matrix(0.996264,0,0,0.996264,512.20442,0)"
                 xlink:href="#CMMI12-58"
                 id="use98"
                 style="stroke-linecap:butt;stroke-linejoin:round"
                 x="0"
                 y="0"
                 width="100%"
                 height="100%" />
              <use
                 transform="matrix(0.996264,0,0,0.996264,570.53071,0)"
                 xlink:href="#CMR17-40"
                 id="use100"
                 style="stroke-linecap:butt;stroke-linejoin:round"
                 x="0"
                 y="0"
                 width="100%"
                 height="100%" />
              <use
                 transform="matrix(0.996264,0,0,0.996264,605.81147,0)"
                 xlink:href="#CMR17-49"
                 id="use102"
                 style="stroke-linecap:butt;stroke-linejoin:round"
                 x="0"
                 y="0"
                 width="100%"
                 height="100%" />
              <use
                 transform="matrix(0.996264,0,0,0.996264,651.50195,0)"
                 xlink:href="#CMR17-57"
                 id="use104"
                 style="stroke-linecap:butt;stroke-linejoin:round"
                 x="0"
                 y="0"
                 width="100%"
                 height="100%" />
              <use
                 transform="matrix(0.996264,0,0,0.996264,697.19243,0)"
                 xlink:href="#CMR17-54"
                 id="use106"
                 style="stroke-linecap:butt;stroke-linejoin:round"
                 x="0"
                 y="0"
                 width="100%"
                 height="100%" />
              <use
                 transform="matrix(0.996264,0,0,0.996264,742.88291,0)"
                 xlink:href="#CMR17-54"
                 id="use108"
                 style="stroke-linecap:butt;stroke-linejoin:round"
                 x="0"
                 y="0"
                 width="100%"
                 height="100%" />
              <use
                 transform="matrix(0.996264,0,0,0.996264,788.57338,0)"
                 xlink:href="#CMR17-41"
                 id="use110"
                 style="stroke-linecap:butt;stroke-linejoin:round"
                 x="0"
                 y="0"
                 width="100%"
                 height="100%" />
            </g>
          </g>
        </g>
      </g>
      <g
         id="matplotlib.axis_2"
         style="stroke-linecap:butt;stroke-linejoin:round">
        <g
           id="ytick_1"
           style="stroke-linecap:butt;stroke-linejoin:round">
          <g
             id="line2d_3"
             style="stroke-linecap:butt;stroke-linejoin:round">
            <defs
               id="defs115">
              <path
                 d="M 0,0 H -3.5"
                 id="mcfdc5ee1ee"
                 style="stroke:#000000;stroke-width:0.80000001;stroke-linecap:butt;stroke-linejoin:round"
                 inkscape:connector-curvature="0" />
            </defs>
            <g
               id="g118"
               style="stroke-linecap:butt;stroke-linejoin:round">
              <use
                 style="stroke:#000000;stroke-width:0.80000001;stroke-linecap:butt;stroke-linejoin:round"
                 x="54"
                 xlink:href="#mcfdc5ee1ee"
                 y="252"
                 id="use120"
                 width="100%"
                 height="100%" />
            </g>
          </g>
          <g
             id="text_3"
             style="stroke-linecap:butt;stroke-linejoin:round">
            <!-- $0.15$ -->
            <defs
               id="defs123">
              <path
                 d="M 42,31.640625 C 42,37.75 41.90625,48.125 37.703125,56.109375 34,63.109375 28.09375,65.59375 22.90625,65.59375 18.09375,65.59375 12,63.40625 8.203125,56.203125 4.203125,48.71875 3.796875,39.4375 3.796875,31.640625 3.796875,25.953125 3.90625,17.28125 7,9.671875 11.296875,-0.609375 19,-2 22.90625,-2 27.5,-2 34.5,-0.109375 38.59375,9.375 41.59375,16.28125 42,24.359375 42,31.640625 Z M 22.90625,-0.40625 c -6.40625,0 -10.203125,5.484375 -11.609375,13.09375 -1.09375,5.875 -1.09375,14.46875 -1.09375,20.0625 0,7.6875 0,14.078125 1.296875,20.171875 C 13.40625,61.390625 19,64 22.90625,64 27,64 32.296875,61.296875 34.203125,53.125 35.5,47.4375 35.59375,40.734375 35.59375,32.75 c 0,-6.5 0,-14.484375 -1.1875,-20.375 -2.109375,-10.890625 -8,-12.78125 -11.5,-12.78125 z"
                 id="CMR17-48"
                 inkscape:connector-curvature="0"
                 style="stroke-linecap:butt;stroke-linejoin:round" />
              <path
                 d="M 11.40625,57.6875 C 12.40625,57.28125 16.5,56 20.703125,56 30,56 35.09375,61.109375 38,64.0625 38,64.953125 38,65.5 37.40625,65.5 c -0.109375,0 -0.3125,0 -1.109375,-0.453125 -3.5,-1.640625 -7.59375,-2.96875 -12.59375,-2.96875 -3,0 -7.5,0.40625 -12.40625,2.59375 -1.09375,0.5 -1.296875,0.5 -1.390625,0.5 -0.5,0 -0.609375,-0.109375 -0.609375,-2.09375 v -28.65625 c 0,-1.78125 0,-2.28125 1,-2.28125 0.5,0 0.703125,0.203125 1.203125,0.890625 3.203125,4.484375 7.59375,6.375 12.59375,6.375 3.5,0 11,-2.1875 11,-19.265625 0,-3.1875 0,-8.96875 -3,-13.5625 -2.5,-4.09375 -6.390625,-6.1875 -10.6875,-6.1875 C 14.796875,0.390625 8.09375,5 6.296875,12.71875 6.703125,12.609375 7.5,12.421875 7.90625,12.421875 c 1.296875,0 3.796875,0.703125 3.796875,3.796875 C 11.703125,18.90625 9.796875,20 7.90625,20 5.59375,20 4.09375,18.59375 4.09375,15.796875 4.09375,7.09375 11,-2 21.59375,-2 c 10.3125,0 20.109375,8.875 20.109375,21.75 0,11.96875 -7.796875,21.25 -17.5,21.25 -5.109375,0 -9.40625,-1.890625 -12.796875,-5.46875 z"
                 id="CMR17-53"
                 inkscape:connector-curvature="0"
                 style="stroke-linecap:butt;stroke-linejoin:round" />
            </defs>
            <g
               transform="matrix(0.25,0,0,-0.25,5.957848,260.64813)"
               id="g127"
               style="stroke-linecap:butt;stroke-linejoin:round">
              <use
                 transform="scale(0.996264)"
                 xlink:href="#CMR17-48"
                 id="use129"
                 style="stroke-linecap:butt;stroke-linejoin:round"
                 x="0"
                 y="0"
                 width="100%"
                 height="100%" />
              <use
                 transform="matrix(0.996264,0,0,0.996264,45.690477,0)"
                 xlink:href="#CMMI12-58"
                 id="use131"
                 style="stroke-linecap:butt;stroke-linejoin:round"
                 x="0"
                 y="0"
                 width="100%"
                 height="100%" />
              <use
                 transform="matrix(0.996264,0,0,0.996264,72.787654,0)"
                 xlink:href="#CMR17-49"
                 id="use133"
                 style="stroke-linecap:butt;stroke-linejoin:round"
                 x="0"
                 y="0"
                 width="100%"
                 height="100%" />
              <use
                 transform="matrix(0.996264,0,0,0.996264,118.47813,0)"
                 xlink:href="#CMR17-53"
                 id="use135"
                 style="stroke-linecap:butt;stroke-linejoin:round"
                 x="0"
                 y="0"
                 width="100%"
                 height="100%" />
            </g>
          </g>
        </g>
        <g
           id="ytick_2"
           style="stroke-linecap:butt;stroke-linejoin:round">
          <g
             id="line2d_4"
             style="stroke-linecap:butt;stroke-linejoin:round">
            <g
               id="g139"
               style="stroke-linecap:butt;stroke-linejoin:round">
              <use
                 style="stroke:#000000;stroke-width:0.80000001;stroke-linecap:butt;stroke-linejoin:round"
                 x="54"
                 xlink:href="#mcfdc5ee1ee"
                 y="179.52"
                 id="use141"
                 width="100%"
                 height="100%" />
            </g>
          </g>
          <g
             id="text_4"
             style="stroke-linecap:butt;stroke-linejoin:round">
            <!-- $0.20$ -->
            <defs
               id="defs144">
              <path
                 d="M 41.703125,15.453125 H 39.90625 C 38.90625,8.375 38.09375,7.171875 37.703125,6.5625 37.203125,5.765625 30,5.765625 28.59375,5.765625 H 9.40625 C 13,9.671875 20,16.75 28.5,24.953125 34.59375,30.734375 41.703125,37.53125 41.703125,47.421875 41.703125,59.21875 32.296875,66 21.796875,66 10.796875,66 4.09375,56.3125 4.09375,47.34375 4.09375,43.4375 7,42.9375 8.203125,42.9375 c 1,0 4,0.609375 4,4.09375 0,3.078125 -2.609375,3.96875 -4,3.96875 C 7.59375,51 7,50.90625 6.59375,50.703125 8.5,59.21875 14.296875,63.40625 20.40625,63.40625 c 8.6875,0 14.390625,-6.890625 14.390625,-15.984375 C 34.796875,38.734375 29.703125,31.25 24,24.75 L 4.09375,2.28125 V 0 h 35.203125 z"
                 id="CMR17-50"
                 inkscape:connector-curvature="0"
                 style="stroke-linecap:butt;stroke-linejoin:round" />
            </defs>
            <g
               transform="matrix(0.25,0,0,-0.25,5.957848,188.16813)"
               id="g147"
               style="stroke-linecap:butt;stroke-linejoin:round">
              <use
                 transform="scale(0.996264)"
                 xlink:href="#CMR17-48"
                 id="use149"
                 style="stroke-linecap:butt;stroke-linejoin:round"
                 x="0"
                 y="0"
                 width="100%"
                 height="100%" />
              <use
                 transform="matrix(0.996264,0,0,0.996264,45.690477,0)"
                 xlink:href="#CMMI12-58"
                 id="use151"
                 style="stroke-linecap:butt;stroke-linejoin:round"
                 x="0"
                 y="0"
                 width="100%"
                 height="100%" />
              <use
                 transform="matrix(0.996264,0,0,0.996264,72.787654,0)"
                 xlink:href="#CMR17-50"
                 id="use153"
                 style="stroke-linecap:butt;stroke-linejoin:round"
                 x="0"
                 y="0"
                 width="100%"
                 height="100%" />
              <use
                 transform="matrix(0.996264,0,0,0.996264,118.47813,0)"
                 xlink:href="#CMR17-48"
                 id="use155"
                 style="stroke-linecap:butt;stroke-linejoin:round"
                 x="0"
                 y="0"
                 width="100%"
                 height="100%" />
            </g>
          </g>
        </g>
        <g
           id="ytick_3"
           style="stroke-linecap:butt;stroke-linejoin:round">
          <g
             id="line2d_5"
             style="stroke-linecap:butt;stroke-linejoin:round">
            <g
               id="g159"
               style="stroke-linecap:butt;stroke-linejoin:round">
              <use
                 style="stroke:#000000;stroke-width:0.80000001;stroke-linecap:butt;stroke-linejoin:round"
                 x="54"
                 xlink:href="#mcfdc5ee1ee"
                 y="107.04"
                 id="use161"
                 width="100%"
                 height="100%" />
            </g>
          </g>
          <g
             id="text_5"
             style="stroke-linecap:butt;stroke-linejoin:round">
            <!-- $0.25$ -->
            <g
               transform="matrix(0.25,0,0,-0.25,5.957848,115.68813)"
               id="g164"
               style="stroke-linecap:butt;stroke-linejoin:round">
              <use
                 transform="scale(0.996264)"
                 xlink:href="#CMR17-48"
                 id="use166"
                 style="stroke-linecap:butt;stroke-linejoin:round"
                 x="0"
                 y="0"
                 width="100%"
                 height="100%" />
              <use
                 transform="matrix(0.996264,0,0,0.996264,45.690477,0)"
                 xlink:href="#CMMI12-58"
                 id="use168"
                 style="stroke-linecap:butt;stroke-linejoin:round"
                 x="0"
                 y="0"
                 width="100%"
                 height="100%" />
              <use
                 transform="matrix(0.996264,0,0,0.996264,72.787654,0)"
                 xlink:href="#CMR17-50"
                 id="use170"
                 style="stroke-linecap:butt;stroke-linejoin:round"
                 x="0"
                 y="0"
                 width="100%"
                 height="100%" />
              <use
                 transform="matrix(0.996264,0,0,0.996264,118.47813,0)"
                 xlink:href="#CMR17-53"
                 id="use172"
                 style="stroke-linecap:butt;stroke-linejoin:round"
                 x="0"
                 y="0"
                 width="100%"
                 height="100%" />
            </g>
          </g>
        </g>
        <g
           id="ytick_4"
           style="stroke-linecap:butt;stroke-linejoin:round">
          <g
             id="line2d_6"
             style="stroke-linecap:butt;stroke-linejoin:round">
            <g
               id="g176"
               style="stroke-linecap:butt;stroke-linejoin:round">
              <use
                 style="stroke:#000000;stroke-width:0.80000001;stroke-linecap:butt;stroke-linejoin:round"
                 x="54"
                 xlink:href="#mcfdc5ee1ee"
                 y="34.560001"
                 id="use178"
                 width="100%"
                 height="100%" />
            </g>
          </g>
          <g
             id="text_6"
             style="stroke-linecap:butt;stroke-linejoin:round">
            <!-- $0.30$ -->
            <defs
               id="defs181">
              <path
                 d="M 22.09375,33.703125 C 31,33.703125 34.90625,25.96875 34.90625,17.03125 34.90625,5 28.5,0.390625 22.703125,0.390625 c -5.296875,0 -13.90625,2.640625 -16.609375,10.4375 0.5,-0.203125 1,-0.203125 1.5,-0.203125 2.40625,0 4.203125,1.59375 4.203125,4.1875 C 11.796875,17.703125 9.59375,19 7.59375,19 5.90625,19 3.296875,18.203125 3.296875,14.46875 3.296875,5.234375 12.296875,-2 22.90625,-2 34,-2 42.5,6.71875 42.5,16.953125 c 0,9.71875 -8,16.75 -17.5,17.84375 C 32.59375,36.375 39.90625,43.0625 39.90625,52.015625 39.90625,59.6875 32,65.296875 23,65.296875 c -9.09375,0 -17.09375,-5.46875 -17.09375,-13.28125 C 5.90625,48.59375 8.5,48 9.796875,48 c 2.109375,0 3.90625,1.296875 3.90625,3.890625 0,2.578125 -1.796875,3.875 -3.90625,3.875 -0.390625,0 -0.890625,0 -1.296875,-0.1875 C 11.40625,61.859375 19.296875,63 22.796875,63 c 3.5,0 10.109375,-1.671875 10.109375,-11.125 0,-2.765625 -0.40625,-7.6875 -3.8125,-12.03125 C 26.09375,36 22.703125,36 19.40625,35.6875 c -0.5,0 -2.8125,-0.234375 -3.203125,-0.234375 C 15.5,35.359375 15.09375,35.265625 15.09375,34.5 c 0,-0.703125 0.109375,-0.796875 2.109375,-0.796875 z"
                 id="CMR17-51"
                 inkscape:connector-curvature="0"
                 style="stroke-linecap:butt;stroke-linejoin:round" />
            </defs>
            <g
               transform="matrix(0.25,0,0,-0.25,5.957848,43.208127)"
               id="g184"
               style="stroke-linecap:butt;stroke-linejoin:round">
              <use
                 transform="scale(0.996264)"
                 xlink:href="#CMR17-48"
                 id="use186"
                 style="stroke-linecap:butt;stroke-linejoin:round"
                 x="0"
                 y="0"
                 width="100%"
                 height="100%" />
              <use
                 transform="matrix(0.996264,0,0,0.996264,45.690477,0)"
                 xlink:href="#CMMI12-58"
                 id="use188"
                 style="stroke-linecap:butt;stroke-linejoin:round"
                 x="0"
                 y="0"
                 width="100%"
                 height="100%" />
              <use
                 transform="matrix(0.996264,0,0,0.996264,72.787654,0)"
                 xlink:href="#CMR17-51"
                 id="use190"
                 style="stroke-linecap:butt;stroke-linejoin:round"
                 x="0"
                 y="0"
                 width="100%"
                 height="100%" />
              <use
                 transform="matrix(0.996264,0,0,0.996264,118.47813,0)"
                 xlink:href="#CMR17-48"
                 id="use192"
                 style="stroke-linecap:butt;stroke-linejoin:round"
                 x="0"
                 y="0"
                 width="100%"
                 height="100%" />
            </g>
          </g>
        </g>
        <g
           id="text_7"
           style="stroke-linecap:butt;stroke-linejoin:round">
          <!-- $\omega \gamma\ (eV)$ -->
          <defs
             id="defs195">
            <path
               d="M 59.40625,37.421875 C 59.40625,40.3125 58.59375,44 55.09375,44 c -2,0 -4.296875,-2.484375 -4.296875,-4.484375 0,-0.890625 0.40625,-1.484375 1.203125,-2.390625 1.5,-1.6875 3.40625,-4.375 3.40625,-9.046875 0,-3.59375 -2.203125,-9.265625 -3.8125,-12.34375 C 48.796875,10.25 44.203125,5.578125 39,5.578125 c -6.296875,0 -8.703125,4.03125 -9.796875,9.65625 1.09375,2.625 3.390625,9.140625 3.390625,11.765625 0,1.09375 -0.390625,2 -1.6875,2 -0.703125,0 -1.5,-0.390625 -2,-1.203125 C 27.5,25.59375 26.203125,17.640625 26.296875,15.53125 24.40625,11.8125 19,5.578125 12.59375,5.578125 c -6.6875,0 -8.5,5.875 -8.5,11.546875 0,10.34375 6.5,19.40625 8.3125,21.890625 1,1.5 1.6875,2.5 1.6875,2.6875 0,0.703125 -0.390625,1.796875 -1.296875,1.796875 -1.59375,0 -2.09375,-1.296875 -2.890625,-2.484375 C 4.796875,33.140625 1.203125,22.09375 1.203125,12.546875 1.203125,6.375 3.5,-1 11,-1 19.296875,-1 24.5,6.109375 26.59375,9.90625 27.40625,4.296875 30.40625,-1 37.703125,-1 c 7.59375,0 12.390625,6.671875 16,14.734375 2.59375,5.78125 5.703125,18.21875 5.703125,23.6875 z"
               id="CMMI12-33"
               inkscape:connector-curvature="0"
               style="stroke-linecap:butt;stroke-linejoin:round" />
            <path
               d="m 37.796875,11.875 c -0.203125,4.859375 -0.390625,12.515625 -4.203125,21.453125 -2,4.984375 -5.390625,10.234375 -12.6875,10.234375 -12.3125,0 -19,-15.59375 -19,-18.171875 0,-0.90625 0.6875,-0.90625 1,-0.90625 0.890625,0 0.890625,0.203125 1.390625,1.5 C 6.40625,32.140625 12.796875,37 19.703125,37 33.59375,37 35.59375,21.609375 35.59375,11.78125 35.59375,5.5 34.90625,3.4375 34.296875,1.4375 32.40625,-4.71875 29.09375,-17.03125 29.09375,-19.8125 c 0,-0.796875 0.3125,-1.6875 1.109375,-1.6875 1.5,0 2.390625,3.28125 3.5,7.25 2.390625,8.734375 3,13.109375 3.5,17.078125 0.296875,2.390625 6,18.796875 13.890625,34.390625 0.703125,1.578125 2.109375,4.265625 2.109375,4.5625 0,0.09375 -0.109375,0.796875 -1,0.796875 -0.203125,0 -0.703125,0 -0.90625,-0.40625 -0.203125,-0.1875 -3.703125,-6.953125 -6.703125,-13.703125 -1.5,-3.375 -3.5,-7.84375 -6.796875,-16.59375 z"
               id="CMMI12-13"
               inkscape:connector-curvature="0"
               style="stroke-linecap:butt;stroke-linejoin:round" />
            <path
               d="m 17.90625,23.109375 c 2.6875,0 9.5,0 14.296875,1.8125 C 39.796875,27.859375 40.5,33.71875 40.5,35.53125 40.5,39.96875 36.703125,44 30.09375,44 19.59375,44 4.5,34.53125 4.5,16.765625 4.5,6.28125 10.5,-1 19.59375,-1 c 13.609375,0 22.203125,10.515625 22.203125,11.8125 0,0.59375 -0.59375,1.09375 -1,1.09375 C 40.5,11.90625 40.40625,11.8125 39.5,10.921875 33.09375,2.484375 23.59375,1 19.796875,1 14.09375,1 11.09375,5.46875 11.09375,12.84375 c 0,1.390625 0,3.890625 1.5,10.265625 z M 13.09375,25 c 4.3125,15.5 13.8125,17.015625 17,17.015625 C 34.5,42.015625 37.5,39.40625 37.5,35.578125 37.5,25 21.5,25 17.296875,25 Z"
               id="CMMI12-101"
               inkscape:connector-curvature="0"
               style="stroke-linecap:butt;stroke-linejoin:round" />
            <path
               d="m 61.90625,56.875 c 3.390625,5.375 6.5,7.75 11.59375,8.15625 1,0.09375 1.796875,0.09375 1.796875,1.875 0,0.40625 -0.203125,1 -1.09375,1 -1.796875,0 -6.109375,0 -7.90625,0 -2.890625,0 -5.890625,0 -8.703125,0 -0.796875,0 -1.796875,0 -1.796875,-1.875 0,-0.90625 0.90625,-1 1.296875,-1 3.703125,-0.296875 4.109375,-2.078125 4.109375,-3.28125 0,-1.484375 -1.40625,-3.78125 -1.5,-3.875 l -31.40625,-49.4375 -7,53.578125 C 21.296875,65 26.5,65 27.59375,65 29.09375,65 30,65 30,66.90625 c 0,1 -1.09375,1 -1.40625,1 -1.6875,0 -3.6875,0 -5.390625,0 H 17.59375 c -7.296875,0 -10.296875,0 -10.390625,0 -0.609375,0 -1.796875,0 -1.796875,-1.8125 C 5.40625,65 6.09375,65 7.703125,65 c 5.09375,0 5.390625,-0.90625 5.703125,-3.375 l 8,-61.25 C 21.703125,-1.703125 21.703125,-2 23.09375,-2 c 1.203125,0 1.703125,0.296875 2.703125,1.875 z"
               id="CMMI12-86"
               inkscape:connector-curvature="0"
               style="stroke-linecap:butt;stroke-linejoin:round" />
          </defs>
          <g
             transform="matrix(0,-0.25,-0.25,0,-4.247961,186.51583)"
             id="g201"
             style="stroke-linecap:butt;stroke-linejoin:round">
            <use
               transform="scale(0.996264)"
               xlink:href="#CMMI12-33"
               id="use203"
               style="stroke-linecap:butt;stroke-linejoin:round"
               x="0"
               y="0"
               width="100%"
               height="100%" />
            <use
               transform="matrix(0.996264,0,0,0.996264,64.318346,0)"
               xlink:href="#CMMI12-13"
               id="use205"
               style="stroke-linecap:butt;stroke-linejoin:round"
               x="0"
               y="0"
               width="100%"
               height="100%" />
            <use
               transform="matrix(0.996264,0,0,0.996264,151.56603,0)"
               xlink:href="#CMR17-40"
               id="use207"
               style="stroke-linecap:butt;stroke-linejoin:round"
               x="0"
               y="0"
               width="100%"
               height="100%" />
            <use
               transform="matrix(0.996264,0,0,0.996264,186.84679,0)"
               xlink:href="#CMMI12-101"
               id="use209"
               style="stroke-linecap:butt;stroke-linejoin:round"
               x="0"
               y="0"
               width="100%"
               height="100%" />
            <use
               transform="matrix(0.996264,0,0,0.996264,232.0588,0)"
               xlink:href="#CMMI12-86"
               id="use211"
               style="stroke-linecap:butt;stroke-linejoin:round"
               x="0"
               y="0"
               width="100%"
               height="100%" />
            <use
               transform="matrix(0.996264,0,0,0.996264,310.60612,0)"
               xlink:href="#CMR17-41"
               id="use213"
               style="stroke-linecap:butt;stroke-linejoin:round"
               x="0"
               y="0"
               width="100%"
               height="100%" />
          </g>
        </g>
      </g>
      <g
         id="g3588"
         transform="translate(191.25947,23.04)"
         style="stroke-linecap:butt;stroke-linejoin:round">
        <g
           transform="translate(65.28,-23.04)"
           style="fill:#b90f22;fill-opacity:1;stroke:#b90f22;stroke-linecap:butt;stroke-linejoin:round;stroke-opacity:1"
           id="LineCollection_1">
          <path
             inkscape:connector-curvature="0"
             id="path216"
             style="fill:#b90f22;fill-opacity:1;stroke:#b90f22;stroke-width:1.5;stroke-linecap:butt;stroke-linejoin:round;stroke-opacity:1"
             d="m 69.218182,86.7456 v 123.216"
             clip-path="url(#p903bf2cf95)" />
        </g>
        <circle
           style="fill:#b90f22;fill-opacity:1;fill-rule:evenodd;stroke:#b90f22;stroke-width:0.80000001px;stroke-linecap:butt;stroke-linejoin:miter;stroke-opacity:1"
           id="path3607"
           cx="134.47499"
           cy="120.24577"
           r="2.0945454" />
        <g
           style="stroke-linecap:butt;stroke-linejoin:round"
           transform="translate(-248.90225,-156.05075)"
           id="g1121">
          <g
             style="font-style:normal;font-variant:normal;font-weight:normal;font-stretch:normal;letter-spacing:normal;word-spacing:normal;text-anchor:start;fill:none;fill-opacity:1;fill-rule:evenodd;stroke:#000000;stroke-linecap:butt;stroke-linejoin:round;stroke-miterlimit:10.43299961;stroke-dasharray:none;stroke-dashoffset:0;stroke-opacity:1"
             id="content"
             transform="matrix(0.41142857,0,0,-0.41142857,-72,324)"
             xml:space="preserve"
             stroke-miterlimit="10.433"
             font-style="normal"
             font-variant="normal"
             font-weight="normal"
             font-stretch="normal"
             font-size-adjust="none"
             letter-spacing="normal"
             word-spacing="normal"><path
               style="fill:#000000;stroke-width:0;stroke-linecap:butt;stroke-linejoin:round"
               inkscape:connector-curvature="0"
               d="m 460.75,435.59 0.01,0.53 0.01,0.53 0.01,0.52 0.03,0.51 0.04,0.5 0.05,0.5 0.06,0.49 0.08,0.48 0.09,0.47 0.11,0.46 0.13,0.45 0.14,0.45 0.08,0.21 0.09,0.22 0.09,0.21 0.1,0.21 0.1,0.21 0.11,0.21 0.11,0.2 0.13,0.2 c 1.18,1.89 3.06,3.17 5.29,3.17 1.05,0 2.44,-0.28 3.14,-1.21 -0.87,-0.07 -1.61,-0.66 -1.61,-1.68 0,-0.87 0.6,-1.64 1.65,-1.64 1.04,0 1.67,0.71 1.67,1.71 0,2.03 -1.47,3.84 -4.92,3.84 -5.02,0 -10.15,-4.61 -10.15,-12.09 0,-9.04 4.25,-11.75 8.1,-11.75 4.25,0 7.94,3.25 7.94,7.81 0,4.42 -3.52,7.7 -7.6,7.7 l -0.17,-0.98 c 1.61,0 2.69,-0.63 3.55,-1.91 0.84,-1.33 0.87,-2.8 0.87,-4.81 0,-1.99 0,-3.45 -0.94,-4.81 -0.84,-1.22 -1.95,-1.88 -3.65,-1.88 v 0 c -1.75,0 -3.11,1 -3.85,2.55 -0.51,1.03 -0.79,2.78 -0.79,4.87 0,3.38 2.03,5.99 4.81,5.99 l 0.17,0.98 c -2.78,0 -4.31,-1.84 -5.08,-3.42 z"
               id="path1096" /><path
               style="fill:#000000;stroke-width:0;stroke-linecap:butt;stroke-linejoin:round"
               inkscape:connector-curvature="0"
               d="m 506.96,419.06 h -1.25 c -0.55,-5.1 -1.25,-11.31 -10.01,-11.31 h -4.08 c -2.35,0 -2.46,0.34 -2.46,1.98 v 26.56 c 0,1.69 0,2.39 4.74,2.39 h 1.65 v 1.55 c -1.79,-0.16 -6.32,-0.16 -8.37,-0.16 -1.94,0 -5.83,0 -7.58,0.16 v -1.55 h 1.2 c 3.83,0 3.94,-0.54 3.94,-2.34 v -26.25 c 0,-1.8 -0.11,-2.34 -3.94,-2.34 h -1.2 v -1.55 h 25.95 z"
               id="path1098" /><path
               style="fill:#000000;stroke-width:0;stroke-linecap:butt;stroke-linejoin:round"
               inkscape:connector-curvature="0"
               d="m 517.85,428.21 -6.97,-0.54 v -1.55 c 3.24,0 3.69,-0.3 3.69,-2.73 v -13.41 c 0,-2.23 -0.55,-2.23 -3.89,-2.23 v -1.55 c 1.59,0.05 4.28,0.16 5.48,0.16 1.75,0 3.49,-0.11 5.19,-0.16 v 1.55 c -3.3,0 -3.5,0.25 -3.5,2.18 z"
               id="path1100" /><path
               style="fill:#000000;stroke-width:0;stroke-linecap:butt;stroke-linejoin:round"
               inkscape:connector-curvature="0"
               d="m 518.05,436.89 v 0.14 l -0.01,0.15 -0.02,0.14 -0.02,0.14 -0.03,0.13 -0.04,0.13 -0.04,0.13 -0.05,0.12 -0.06,0.12 -0.06,0.12 -0.06,0.11 -0.07,0.1 -0.08,0.1 -0.08,0.1 -0.08,0.1 -0.09,0.08 -0.1,0.09 -0.09,0.08 -0.1,0.07 -0.11,0.07 -0.11,0.07 -0.11,0.06 -0.11,0.05 -0.12,0.05 -0.12,0.04 -0.12,0.04 -0.12,0.03 -0.12,0.03 -0.13,0.02 -0.13,0.01 -0.13,0.01 -0.13,0.01 c -1.54,0 -2.64,-1.35 -2.64,-2.64 0,-1.35 1.1,-2.64 2.64,-2.64 1.39,0 2.64,1.04 2.64,2.64 z"
               id="path1102" /><path
               style="fill:#000000;stroke-width:0;stroke-linecap:butt;stroke-linejoin:round"
               inkscape:connector-curvature="0"
               d="m 539.32,394.25 v 0.02 0.03 0.01 l -0.01,0.02 v 0.01 0.02 l -0.01,0.01 -0.01,0.02 v 0.02 l -0.01,0.02 -0.02,0.02 -0.01,0.03 -0.02,0.02 -0.02,0.03 -0.02,0.03 -0.02,0.03 -0.03,0.03 -0.03,0.04 -0.01,0.02 -0.02,0.02 -0.02,0.02 -0.01,0.02 -0.02,0.02 -0.02,0.03 -0.02,0.02 -0.03,0.02 -0.02,0.03 -0.02,0.02 -0.03,0.03 -0.02,0.03 -0.03,0.03 -0.03,0.03 -0.03,0.03 -0.02,0.03 -0.04,0.03 -0.03,0.03 -0.03,0.04 -0.03,0.03 -0.04,0.04 -0.04,0.03 -0.03,0.04 -0.04,0.04 c -6.22,6.28 -7.82,15.69 -7.82,23.31 0,8.67 1.89,17.35 8.02,23.56 0.64,0.61 0.64,0.71 0.64,0.86 0,0.35 -0.19,0.49 -0.48,0.49 -0.5,0 -4.99,-3.38 -7.93,-9.7 -2.54,-5.49 -3.14,-11.02 -3.14,-15.21 0,-3.89 0.55,-9.9 3.28,-15.54 2.99,-6.13 7.29,-9.36 7.79,-9.36 0.29,0 0.48,0.14 0.48,0.5 z"
               id="path1104" /><path
               style="fill:#000000;stroke-width:0;stroke-linecap:butt;stroke-linejoin:round"
               inkscape:connector-curvature="0"
               d="m 565.92,417.96 -0.01,0.37 -0.01,0.35 -0.01,0.35 -0.02,0.34 -0.07,0.65 -0.09,0.63 -0.11,0.59 -0.13,0.57 -0.16,0.54 -0.17,0.51 -0.2,0.49 -0.21,0.45 -0.23,0.44 -0.24,0.4 -0.26,0.38 -0.28,0.36 -0.28,0.33 -0.3,0.31 -0.31,0.29 -0.32,0.26 -0.33,0.24 -0.33,0.22 -0.35,0.2 -0.34,0.18 -0.36,0.16 -0.35,0.14 -0.36,0.12 -0.36,0.11 -0.36,0.09 -0.36,0.06 -0.36,0.06 -0.36,0.04 -0.35,0.02 h -0.35 l -0.05,-1.09 c 4.94,0 4.94,-6.53 4.94,-10.41 0,-1.84 0,-4.73 0.09,-5.57 v 0 c -4.37,-3.85 -8.22,-4.39 -10.2,-4.39 -3,0 -4.48,2.25 -4.48,5.43 0,2.44 1.29,7.82 2.89,10.36 2.32,3.64 5.03,4.58 6.76,4.58 l 0.05,1.09 c -6.81,0 -13.39,-7.12 -13.39,-14.14 0,-4.64 2.98,-8.42 8.06,-8.42 3.14,0 6.74,1.14 10.52,4.19 0.65,-2.64 2.29,-4.19 4.53,-4.19 2.64,0 4.19,2.74 4.19,3.53 0,0.36 -0.3,0.5 -0.6,0.5 -0.36,0 -0.5,-0.14 -0.65,-0.5 -0.9,-2.43 -2.69,-2.43 -2.78,-2.43 -1.55,0 -1.55,3.89 -1.55,5.07 0,1.05 0,1.16 0.5,1.75 4.68,5.88 5.73,11.66 5.73,11.71 0,0.11 -0.06,0.5 -0.61,0.5 -0.5,0 -0.5,-0.14 -0.75,-1.05 -0.89,-3.14 -2.53,-6.92 -4.87,-9.86 z"
               id="path1106" /><path
               style="fill:#000000;stroke-width:0;stroke-linecap:butt;stroke-linejoin:round"
               inkscape:connector-curvature="0"
               d="m 584.42,406.25 -0.01,0.3 -0.01,0.3 -0.01,0.29 -0.03,0.28 -0.03,0.27 -0.04,0.26 -0.04,0.26 -0.06,0.24 -0.05,0.24 -0.07,0.23 -0.07,0.22 -0.08,0.21 -0.08,0.2 -0.09,0.19 -0.09,0.19 -0.1,0.17 -0.11,0.16 -0.11,0.16 -0.12,0.14 -0.12,0.13 -0.13,0.13 -0.13,0.11 -0.14,0.1 -0.15,0.1 -0.15,0.08 -0.15,0.07 -0.16,0.06 -0.16,0.05 -0.17,0.04 -0.17,0.03 -0.18,0.01 -0.18,0.01 c -1.64,0 -2.64,-1.25 -2.64,-2.64 0,-1.34 1,-2.64 2.64,-2.64 0.59,0 1.25,0.2 1.75,0.64 0.14,0.11 0.2,0.16 0.25,0.16 0.05,0 0.09,-0.05 0.09,-0.75 0,-3.69 -1.73,-6.68 -3.39,-8.32 -0.54,-0.54 -0.54,-0.65 -0.54,-0.79 0,-0.36 0.25,-0.55 0.5,-0.55 0.54,0 4.53,3.83 4.53,9.66 z"
               id="path1108" /><path
               style="fill:#000000;stroke-width:0;stroke-linecap:butt;stroke-linejoin:round"
               inkscape:connector-curvature="0"
               d="m 598.43,418.86 0.1,0.26 0.1,0.26 0.1,0.24 0.11,0.25 0.11,0.23 0.11,0.22 0.12,0.22 0.13,0.21 0.13,0.2 0.13,0.2 0.13,0.19 0.14,0.18 0.28,0.34 0.29,0.32 0.3,0.29 0.31,0.27 0.31,0.24 0.32,0.22 0.32,0.21 0.31,0.18 0.32,0.16 0.32,0.15 0.31,0.13 0.3,0.11 0.3,0.1 0.29,0.08 0.28,0.07 0.27,0.06 0.25,0.05 0.24,0.04 0.22,0.03 0.21,0.02 0.18,0.02 0.17,0.01 0.14,0.01 0.12,0.01 h 0.09 0.06 c 7.52,0 8.07,-8.72 8.07,-12.66 0,-3.05 -0.25,-3.89 -0.6,-4.89 -1.09,-3.63 -2.59,-9.41 -2.59,-10.7 0,-0.55 0.25,-0.91 0.66,-0.91 0.64,0 1.04,1.11 1.59,3 1.14,4.19 1.64,7.02 1.84,8.56 0.1,0.66 0.19,1.3 0.4,1.96 1.59,4.92 4.78,12.34 6.78,16.28 0.34,0.59 0.93,1.7 0.93,1.89 0,0.5 -0.48,0.5 -0.59,0.5 -0.14,0 -0.45,0 -0.59,-0.35 -2.6,-4.73 -4.58,-9.71 -6.58,-14.75 -0.05,1.55 -0.1,5.33 -2.05,10.18 -1.19,3.03 -3.19,5.46 -6.62,5.46 -6.22,0 -9.72,-7.56 -9.72,-9.1 0,-0.5 0.45,-0.5 0.95,-0.5 z"
               id="path1110" /><path
               style="fill:#000000;stroke-width:0;stroke-linecap:butt;stroke-linejoin:round"
               inkscape:connector-curvature="0"
               d="m 639.33,418.65 v 0.37 0.39 l -0.01,0.39 -0.02,0.41 -0.04,0.84 -0.06,0.88 -0.08,0.92 -0.11,0.95 -0.13,0.97 -0.16,1.01 -0.2,1.02 -0.23,1.03 -0.27,1.05 -0.3,1.06 -0.35,1.07 -0.39,1.07 -0.22,0.53 -0.22,0.53 -0.24,0.53 -0.25,0.53 c -2.98,6.12 -7.27,9.36 -7.77,9.36 -0.29,0 -0.5,-0.19 -0.5,-0.49 0,-0.15 0,-0.25 0.94,-1.15 4.89,-4.92 7.74,-12.85 7.74,-23.27 0,-8.51 -1.85,-17.28 -8.03,-23.56 -0.65,-0.59 -0.65,-0.7 -0.65,-0.84 0,-0.3 0.21,-0.5 0.5,-0.5 0.5,0 4.97,3.39 7.93,9.71 2.53,5.47 3.12,11 3.12,15.19 z"
               id="path1112" /><path
               style="fill:#000000;stroke-width:0;stroke-linecap:butt;stroke-linejoin:round"
               inkscape:connector-curvature="0"
               d="m 655.95,446.36 v 0.04 0.04 0.04 0.04 0.04 0.04 0.04 0.03 0.04 0.03 l -0.01,0.03 v 0.03 0.03 0.03 l -0.01,0.03 v 0.02 l -0.01,0.03 v 0.02 l -0.01,0.02 v 0.03 l -0.01,0.04 -0.02,0.04 -0.02,0.03 -0.01,0.03 -0.03,0.03 -0.02,0.03 -0.03,0.02 -0.03,0.02 -0.03,0.01 -0.04,0.02 -0.04,0.01 -0.04,0.01 -0.03,0.01 h -0.02 l -0.03,0.01 h -0.02 -0.03 l -0.03,0.01 h -0.03 -0.03 -0.03 -0.04 l -0.03,0.01 h -0.04 -0.03 -0.04 -0.04 -0.04 -0.04 -0.04 -0.05 -0.04 c -2.24,-2.2 -5.39,-2.23 -6.83,-2.23 v -1.25 c 0.84,0 3.14,0 5.04,0.96 v -17.76 c 0,-1.16 0,-1.61 -3.48,-1.61 h -1.31 v -1.25 c 0.62,0.03 4.9,0.14 6.2,0.14 1.08,0 5.47,-0.11 6.24,-0.14 v 1.25 h -1.33 c -3.49,0 -3.49,0.45 -3.49,1.61 z"
               id="path1114" /><path
               style="fill:#000000;stroke-width:0;stroke-linecap:butt;stroke-linejoin:round"
               inkscape:connector-curvature="0"
               d="m 682.06,435.31 v 0.71 l -0.02,0.68 -0.03,0.66 -0.04,0.64 -0.06,0.62 -0.08,0.59 -0.09,0.58 -0.11,0.56 -0.12,0.55 -0.15,0.52 -0.17,0.52 -0.19,0.5 -0.21,0.49 -0.24,0.48 -0.26,0.47 -0.14,0.23 -0.15,0.23 c -1.08,1.61 -3.23,3 -6.03,3 -8.08,0 -8.08,-9.52 -8.08,-12.03 0,-2.5 0,-11.81 8.08,-11.81 v 0.98 c -1.59,0 -3.72,0.94 -4.42,3.8 -0.49,2.04 -0.49,4.9 -0.49,7.48 0,2.55 0,5.2 0.52,7.11 0.73,2.75 2.97,3.49 4.39,3.49 1.89,0 3.7,-1.15 4.33,-3.18 0.56,-1.87 0.59,-4.39 0.59,-7.42 0,-2.58 0,-5.15 -0.45,-7.34 -0.71,-3.17 -3.06,-3.94 -4.47,-3.94 v 0 -0.98 c 8.09,0 8.09,9.31 8.09,11.81 z"
               id="path1116" /><path
               style="fill:#000000;stroke-width:0;stroke-linecap:butt;stroke-linejoin:round"
               inkscape:connector-curvature="0"
               d="m 709.33,423.98 0.45,0.1 0.44,0.1 0.44,0.13 0.42,0.13 0.41,0.14 0.4,0.16 0.4,0.17 0.38,0.18 0.37,0.19 0.36,0.2 0.35,0.21 0.33,0.21 0.32,0.23 0.31,0.24 0.3,0.25 0.28,0.25 0.27,0.26 0.25,0.27 0.24,0.28 0.22,0.28 0.21,0.29 0.19,0.3 0.17,0.3 0.16,0.31 0.14,0.32 0.12,0.32 0.11,0.32 0.09,0.33 0.06,0.34 0.05,0.33 0.03,0.34 0.01,0.35 c 0,4.33 -4.59,8.42 -11.06,8.42 l -0.36,-1.55 c 4.84,0 6.58,-4.23 6.58,-6.87 0,-3.19 -2.44,-7.38 -7.97,-7.38 h -7.22 v -1.09 h 9.36 c 4.94,0 7.03,-4.64 7.03,-7.97 0,-3.55 -2.59,-7.62 -7.72,-7.62 v 0 h -6.23 c -2.34,0 -2.44,0.34 -2.44,1.98 v 13.61 1.09 12.25 c 0,1.66 0.1,2 2.44,2 h 6.17 l 0.36,1.55 h -18.23 v -1.55 h 1.18 c 3.85,0 3.94,-0.54 3.94,-2.34 v -26.25 c 0,-1.8 -0.09,-2.34 -3.94,-2.34 h -1.18 v -1.55 h 19.53 c 6.62,0 11.11,4.44 11.11,9.12 0,4.33 -4.1,8.07 -9.63,8.66 z"
               id="path1118" /></g>        </g>
        <g
           id="g1148"
           transform="translate(-52.788119,-156.43955)"
           style="stroke-linecap:butt;stroke-linejoin:round">
          <g
             word-spacing="normal"
             letter-spacing="normal"
             font-size-adjust="none"
             font-stretch="normal"
             font-weight="normal"
             font-variant="normal"
             font-style="normal"
             stroke-miterlimit="10.433"
             xml:space="preserve"
             transform="matrix(0.41142857,0,0,-0.41142857,-72,324)"
             id="g1146"
             style="font-style:normal;font-variant:normal;font-weight:normal;font-stretch:normal;letter-spacing:normal;word-spacing:normal;text-anchor:start;fill:none;fill-opacity:1;fill-rule:evenodd;stroke:#000000;stroke-linecap:butt;stroke-linejoin:round;stroke-miterlimit:10.43299961;stroke-dasharray:none;stroke-dashoffset:0;stroke-opacity:1"><path
               id="path1124"
               d="m 462.3,410.09 v -0.16 -0.16 -0.15 l -0.01,-0.15 -0.01,-0.13 -0.01,-0.13 -0.02,-0.13 -0.03,-0.11 -0.03,-0.12 -0.03,-0.1 -0.04,-0.1 -0.06,-0.09 -0.06,-0.09 -0.06,-0.08 -0.08,-0.08 -0.09,-0.07 -0.1,-0.06 -0.12,-0.06 -0.06,-0.03 -0.06,-0.03 -0.07,-0.02 -0.07,-0.03 -0.07,-0.02 -0.08,-0.02 -0.08,-0.02 -0.09,-0.02 -0.09,-0.02 -0.09,-0.02 -0.1,-0.02 -0.1,-0.01 -0.1,-0.01 -0.11,-0.02 -0.11,-0.01 -0.12,-0.01 -0.12,-0.01 -0.13,-0.01 -0.13,-0.01 -0.14,-0.01 h -0.14 l -0.15,-0.01 h -0.15 l -0.15,-0.01 h -0.16 -0.17 -0.17 -0.18 -1.2 v -1.55 h 28.75 l 2.09,12.86 h -1.25 c -1.23,-7.67 -2.39,-11.31 -10.95,-11.31 h -6.62 c -2.35,0 -2.46,0.34 -2.46,1.98 v 13.31 h 4.49 c 4.84,0 5.39,-1.59 5.39,-5.83 h 1.23 v 13.21 h -1.23 c 0,-4.3 -0.55,-5.83 -5.39,-5.83 h -4.49 v 11.95 c 0,1.64 0.11,1.99 2.46,1.99 h 6.42 c 7.62,0 8.97,-2.74 9.76,-9.66 h 1.25 l -1.4,11.2 h -28.05 v -1.54 h 1.2 c 3.83,0 3.94,-0.55 3.94,-2.33 z"
               inkscape:connector-curvature="0"
               style="fill:#000000;stroke-width:0;stroke-linecap:butt;stroke-linejoin:round" /><path
               id="path1126"
               d="m 497.67,405.79 v 0.02 0.01 l 0.01,0.02 v 0.03 l 0.01,0.03 0.01,0.03 v 0.03 l 0.01,0.04 0.01,0.04 0.01,0.05 0.02,0.04 0.01,0.06 0.01,0.05 0.01,0.05 0.03,0.12 0.04,0.13 0.03,0.13 0.03,0.15 0.04,0.14 0.04,0.15 0.04,0.15 0.08,0.32 0.08,0.31 0.04,0.15 0.04,0.15 0.04,0.14 0.03,0.14 0.04,0.14 0.03,0.12 0.03,0.12 0.02,0.05 0.01,0.05 0.01,0.05 0.02,0.05 0.01,0.04 0.01,0.04 0.01,0.04 0.01,0.03 0.01,0.03 v 0.03 l 0.01,0.02 0.01,0.02 v 0.01 0.01 c 0.08,0.29 1.08,2.02 2.21,2.86 0.37,0.27 1.31,0.97 2.81,0.97 0.34,0 1.22,-0.03 1.92,-0.48 -1.12,-0.31 -1.53,-1.3 -1.53,-1.92 0,-0.77 0.59,-1.29 1.39,-1.29 0.8,0 1.95,0.66 1.95,2.13 0,1.81 -1.92,2.53 -3.7,2.53 -1.81,0 -3.37,-0.72 -4.91,-2.47 -0.62,2.13 -2.75,2.47 -3.59,2.47 -1.28,0 -2.16,-0.8 -2.72,-1.76 -0.79,-1.36 -1.28,-3.4 -1.28,-3.57 0,-0.45 0.49,-0.45 0.59,-0.45 0.49,0 0.52,0.11 0.77,1.05 0.52,2.12 1.19,3.76 2.55,3.76 0.9,0 1.14,-0.76 1.14,-1.7 0,-0.67 -0.31,-1.95 -0.56,-2.89 -0.24,-0.95 -0.58,-2.38 -0.77,-3.14 l -1.11,-4.47 c -0.14,-0.44 -0.34,-1.31 -0.34,-1.42 0,-0.77 0.62,-1.11 1.18,-1.11 0.52,0 1.22,0.31 1.49,1 0.08,0.22 0.45,1.75 0.67,2.62 z"
               inkscape:connector-curvature="0"
               style="fill:#000000;stroke-width:0;stroke-linecap:butt;stroke-linejoin:round" /><path
               id="path1128"
               d="m 545.79,422.5 h 0.14 0.15 0.14 l 0.07,0.01 h 0.08 l 0.07,0.01 0.07,0.01 0.07,0.01 0.07,0.01 0.07,0.01 0.06,0.02 0.07,0.02 0.06,0.02 0.06,0.02 0.06,0.03 0.06,0.03 0.05,0.04 0.05,0.03 0.05,0.05 0.04,0.04 0.04,0.05 0.02,0.03 0.02,0.03 0.01,0.02 0.02,0.03 0.01,0.03 0.01,0.04 0.02,0.03 0.01,0.04 0.01,0.03 0.01,0.04 v 0.04 l 0.01,0.04 v 0.04 l 0.01,0.04 v 0.04 0.05 c 0,1 -0.95,1 -1.64,1 H 516 c -0.71,0 -1.65,0 -1.65,-1 0,-0.98 0.94,-0.98 1.69,-0.98 z"
               inkscape:connector-curvature="0"
               style="fill:#000000;stroke-width:0;stroke-linecap:butt;stroke-linejoin:round" /><path
               id="path1130"
               d="m 545.84,412.82 h 0.07 0.06 l 0.14,0.01 h 0.14 0.07 l 0.07,0.01 0.07,0.01 h 0.06 l 0.07,0.01 0.07,0.02 0.07,0.01 0.06,0.02 0.07,0.02 0.06,0.02 0.06,0.02 0.05,0.03 0.06,0.03 0.05,0.04 0.05,0.04 0.05,0.04 0.04,0.05 0.02,0.02 0.02,0.03 0.02,0.02 0.02,0.03 0.01,0.03 0.02,0.03 0.01,0.03 0.01,0.03 0.02,0.04 0.01,0.03 0.01,0.04 0.01,0.04 v 0.04 l 0.01,0.04 v 0.04 l 0.01,0.04 v 0.05 0.04 c 0,1 -0.95,1 -1.69,1 h -29.75 c -0.75,0 -1.69,0 -1.69,-1 0,-1 0.94,-1 1.65,-1 z"
               inkscape:connector-curvature="0"
               style="fill:#000000;stroke-width:0;stroke-linecap:butt;stroke-linejoin:round" /><path
               id="path1132"
               d="m 581.52,438.09 v 0.05 0.06 0.05 0.05 0.05 0.05 0.04 0.05 0.04 0.04 l -0.01,0.04 v 0.04 0.04 0.03 0.04 l -0.01,0.03 -0.01,0.07 v 0.06 l -0.02,0.05 -0.01,0.05 -0.02,0.05 -0.02,0.04 -0.02,0.04 -0.02,0.03 -0.03,0.03 -0.03,0.03 -0.04,0.03 -0.04,0.02 -0.04,0.02 -0.03,0.01 -0.02,0.01 h -0.03 l -0.02,0.01 -0.03,0.01 h -0.03 l -0.03,0.01 h -0.03 l -0.04,0.01 h -0.03 -0.04 l -0.04,0.01 h -0.03 -0.04 -0.05 -0.04 -0.04 l -0.05,0.01 h -0.05 -0.05 -0.05 -0.05 c -3.1,-3.19 -7.47,-3.19 -9.06,-3.19 v -1.55 c 1,0 3.93,0 6.51,1.3 v -25.81 c 0,-1.8 -0.14,-2.39 -4.62,-2.39 h -1.6 v -1.55 c 1.75,0.16 6.08,0.16 8.07,0.16 2,0 6.32,0 8.07,-0.16 v 1.55 h -1.59 c -4.48,0 -4.64,0.54 -4.64,2.39 z"
               inkscape:connector-curvature="0"
               style="fill:#000000;stroke-width:0;stroke-linecap:butt;stroke-linejoin:round" /><path
               id="path1134"
               d="m 606.48,414.42 v -4.33 c 0,-1.8 -0.1,-2.34 -3.78,-2.34 h -1.05 v -1.55 c 2.05,0.16 4.64,0.16 6.73,0.16 2.1,0 4.74,0 6.77,-0.16 v 1.55 h -1.05 c -3.69,0 -3.78,0.54 -3.78,2.34 v 4.33 h 4.98 v 1.54 h -4.98 v 22.68 c 0,1 0,1.29 -0.8,1.29 -0.45,0 -0.59,0 -1,-0.61 l -15.29,-23.36 h 1.4 l 12.16,18.58 v -18.58 h -12.16 -1.4 v -1.54 z"
               inkscape:connector-curvature="0"
               style="fill:#000000;stroke-width:0;stroke-linecap:butt;stroke-linejoin:round" /><path
               id="path1136"
               d="m 639.17,416.21 -0.01,0.56 -0.04,0.54 -0.06,0.54 -0.08,0.53 -0.1,0.53 -0.13,0.51 -0.14,0.5 -0.17,0.5 -0.18,0.48 -0.21,0.47 -0.22,0.46 -0.24,0.44 -0.26,0.43 -0.28,0.41 -0.29,0.4 -0.31,0.38 -0.33,0.36 -0.34,0.35 -0.35,0.32 -0.37,0.31 -0.39,0.29 -0.39,0.26 -0.41,0.25 -0.42,0.22 -0.44,0.2 -0.44,0.17 -0.46,0.15 -0.46,0.13 -0.48,0.09 -0.48,0.07 -0.49,0.05 -0.5,0.01 c -2.39,0 -4.53,-0.8 -6.33,-2.53 v 9.7 c 1,-0.29 2.64,-0.64 4.23,-0.64 6.13,0 9.62,4.53 9.62,5.19 0,0.3 -0.15,0.55 -0.5,0.55 -0.05,0 -0.15,0 -0.4,-0.16 -1,-0.45 -3.43,-1.44 -6.78,-1.44 -1.98,0 -4.28,0.35 -6.62,1.39 -0.39,0.14 -0.5,0.14 -0.6,0.14 -0.5,0 -0.5,-0.39 -0.5,-1.18 v -14.75 c 0,-0.89 0,-1.3 0.71,-1.3 0.34,0 0.44,0.16 0.64,0.45 0.55,0.8 2.39,3.49 6.42,3.49 2.59,0 3.84,-2.3 4.23,-3.19 0.82,-1.84 0.91,-3.78 0.91,-6.28 0,-1.74 0,-4.74 -1.2,-6.83 -1.19,-1.94 -3.03,-3.23 -5.33,-3.23 -3.64,0 -6.47,2.64 -7.33,5.57 0.16,-0.04 0.31,-0.09 0.86,-0.09 1.64,0 2.49,1.25 2.49,2.44 0,1.2 -0.85,2.44 -2.49,2.44 -0.7,0 -2.45,-0.35 -2.45,-2.65 0,-4.28 3.44,-9.1 9.03,-9.1 5.76,0 10.86,4.78 10.86,11.1 z"
               inkscape:connector-curvature="0"
               style="fill:#000000;stroke-width:0;stroke-linecap:butt;stroke-linejoin:round" /><path
               id="path1138"
               d="m 660.03,422.04 v -1.59 c 0,-11.66 -5.17,-13.95 -8.06,-13.95 -0.86,0 -3.55,0.11 -4.89,1.79 2.19,0 2.59,1.44 2.59,2.3 0,1.53 -1.2,2.28 -2.29,2.28 -0.8,0 -2.29,-0.44 -2.29,-2.39 0,-3.33 2.69,-5.37 6.93,-5.37 6.42,0 12.5,6.76 12.5,17.48 0,13.41 -5.74,16.8 -10.16,16.8 -2.75,0 -5.19,-0.91 -7.33,-3.14 -2.05,-2.25 -3.19,-4.35 -3.19,-8.08 0,-6.22 4.39,-11.11 9.97,-11.11 l 0.05,1.14 c -0.8,0 -3.09,0 -4.64,3.14 -0.89,1.84 -0.89,4.34 -0.89,6.78 0,2.69 0,5.03 1.05,6.88 1.34,2.48 3.23,3.14 4.98,3.14 2.28,0 3.94,-1.71 4.78,-3.94 0.59,-1.59 0.8,-4.74 0.8,-7.03 0,-4.13 -1.71,-8.97 -6.08,-8.97 v 0 l -0.05,-1.14 c 3.03,0 5.08,2.09 6.22,4.98 z"
               inkscape:connector-curvature="0"
               style="fill:#000000;stroke-width:0;stroke-linecap:butt;stroke-linejoin:round" /><path
               id="path1140"
               d="m 688.43,409.98 v -0.1 l -0.01,-0.1 v -0.19 l -0.01,-0.18 -0.01,-0.17 -0.02,-0.15 -0.03,-0.15 -0.03,-0.13 -0.03,-0.12 -0.04,-0.11 -0.05,-0.11 -0.06,-0.09 -0.06,-0.09 -0.08,-0.08 -0.08,-0.07 -0.09,-0.06 -0.1,-0.05 -0.1,-0.05 -0.12,-0.05 -0.13,-0.03 -0.14,-0.04 -0.16,-0.02 -0.16,-0.03 -0.18,-0.01 -0.09,-0.01 -0.1,-0.01 -0.1,-0.01 h -0.1 l -0.1,-0.01 h -0.11 -0.12 l -0.11,-0.01 h -0.12 -0.13 -0.13 -0.13 -0.13 -0.14 -0.14 -0.15 -0.15 -0.16 v -1.55 c 1.66,0.05 3.99,0.16 5.44,0.16 1.49,0 3.49,-0.07 5.49,-0.16 v 1.55 c -3.35,0 -3.89,0 -3.89,2.23 v 5.14 l 3.18,2.74 c 3.83,-5.29 5.93,-8.07 5.93,-8.97 0,-0.94 -0.85,-1.14 -1.78,-1.14 v -1.55 c 1.38,0.05 4.32,0.16 5.37,0.16 1.44,0 2.89,-0.07 4.33,-0.16 v 1.55 c -1.85,0 -2.94,0 -4.83,2.64 l -6.33,8.92 c -0.04,0.09 -0.29,0.39 -0.29,0.55 0,0.18 3.53,3.18 4.03,3.57 3.14,2.55 5.23,2.64 6.28,2.69 v 1.55 c -1.44,-0.14 -2.1,-0.14 -3.49,-0.14 -1.79,0 -4.89,0.09 -5.57,0.14 v -1.55 c 0.93,-0.05 1.43,-0.59 1.43,-1.23 0,-1 -0.68,-1.6 -1.09,-1.96 l -7.03,-6.07 v 23.92 l -7.18,-0.55 v -1.55 c 3.49,0 3.9,-0.34 3.9,-2.79 z"
               inkscape:connector-curvature="0"
               style="fill:#000000;stroke-width:0;stroke-linecap:butt;stroke-linejoin:round" /><path
               id="path1142"
               d="m 713.52,417.71 0.04,1.05 c 0.3,7.42 4.49,8.66 6.19,8.66 5.13,0 5.63,-6.72 5.63,-8.66 h -11.82 l -0.04,-1.05 h 13.9 c 1.1,0 1.24,0 1.24,1.05 0,4.92 -2.69,9.75 -8.91,9.75 -5.78,0 -10.37,-5.12 -10.37,-11.36 0,-6.67 5.23,-11.5 10.96,-11.5 6.08,0 8.32,5.53 8.32,6.47 0,0.5 -0.39,0.61 -0.64,0.61 -0.46,0 -0.55,-0.3 -0.66,-0.7 -1.74,-5.13 -6.22,-5.13 -6.72,-5.13 -2.5,0 -4.48,1.49 -5.62,3.33 -1.5,2.39 -1.5,5.69 -1.5,7.48 z"
               inkscape:connector-curvature="0"
               style="fill:#000000;stroke-width:0;stroke-linecap:butt;stroke-linejoin:round" /><path
               id="path1144"
               d="m 761,435.34 0.07,0.17 0.07,0.17 0.08,0.17 0.08,0.16 0.08,0.16 0.09,0.16 0.1,0.15 0.1,0.15 0.11,0.15 0.11,0.14 0.12,0.14 0.13,0.14 0.13,0.13 0.14,0.12 0.15,0.12 0.15,0.12 0.16,0.11 0.17,0.1 0.18,0.1 0.19,0.09 0.2,0.09 0.21,0.08 0.21,0.07 0.23,0.07 0.23,0.06 0.25,0.06 0.25,0.04 0.27,0.04 0.28,0.03 0.29,0.03 0.3,0.02 h 0.31 v 1.55 c -1.55,-0.11 -3.55,-0.16 -4.85,-0.16 -1.48,0 -4.37,0.11 -5.67,0.16 v -1.55 c 2.6,-0.04 3.64,-1.34 3.64,-2.48 0,-0.41 -0.15,-0.7 -0.25,-1 l -9.12,-24.02 -9.52,25.16 c -0.29,0.7 -0.29,0.8 -0.29,0.89 0,1.45 2.84,1.45 4.07,1.45 v 1.55 c -1.78,-0.16 -5.22,-0.16 -7.11,-0.16 -2.4,0 -4.54,0.11 -6.32,0.16 v -1.55 c 3.23,0 4.17,0 4.87,-1.89 l 11.56,-30.59 c 0.35,-0.95 0.6,-1.09 1.25,-1.09 0.85,0 0.94,0.25 1.19,0.93 z"
               inkscape:connector-curvature="0"
               style="fill:#000000;stroke-width:0;stroke-linecap:butt;stroke-linejoin:round" /></g>        </g>
      </g>
      <g
         id="line2d_8"
         style="stroke-linecap:butt;stroke-linejoin:round">
        <defs
           id="defs230">
          <path
             d="M 0,1.5 C 0.397805,1.5 0.77937,1.341951 1.06066,1.06066 1.341951,0.77937 1.5,0.397805 1.5,0 1.5,-0.397805 1.341951,-0.77937 1.06066,-1.06066 0.77937,-1.341951 0.397805,-1.5 0,-1.5 c -0.397805,0 -0.77937,0.158049 -1.06066,0.43934 C -1.341951,-0.77937 -1.5,-0.397805 -1.5,0 c 0,0.397805 0.158049,0.77937 0.43934,1.06066 C -0.77937,1.341951 -0.397805,1.5 0,1.5 Z"
             id="madd7f1aa9f"
             style="stroke:#000000;stroke-linecap:butt;stroke-linejoin:round"
             inkscape:connector-curvature="0" />
        </defs>
        <g
           id="g3601"
           transform="translate(-219.22909)"
           style="stroke-linecap:butt;stroke-linejoin:round">
          <g
             style="stroke-linecap:butt;stroke-linejoin:round"
             id="LineCollection_2">
            <path
               inkscape:connector-curvature="0"
               id="path219"
               style="fill:none;stroke:#000000;stroke-width:1.5;stroke-linecap:butt;stroke-linejoin:round"
               d="M 373.58182,194.016 V 83.8464"
               clip-path="url(#p903bf2cf95)" />
          </g>
          <g
             style="stroke-linecap:butt;stroke-linejoin:round"
             id="g233"
             clip-path="url(#p903bf2cf95)">
            <use
               height="100%"
               width="100%"
               id="use235"
               y="138.9312"
               xlink:href="#madd7f1aa9f"
               x="373.58182"
               style="stroke:#000000;stroke-linecap:butt;stroke-linejoin:round" />
          </g>
        </g>
      </g>
      <g
         id="patch_3"
         style="stroke-linecap:butt;stroke-linejoin:round">
        <path
           d="M 54,252 V 34.56"
           style="fill:none;stroke:#000000;stroke-width:0.80000001;stroke-linecap:square;stroke-linejoin:miter"
           id="path238"
           inkscape:connector-curvature="0" />
      </g>
      <g
         id="patch_4"
         style="stroke-linecap:butt;stroke-linejoin:round">
        <path
           d="M 388.8,252 V 34.56"
           style="fill:none;stroke:#000000;stroke-width:0.80000001;stroke-linecap:square;stroke-linejoin:miter"
           id="path241"
           inkscape:connector-curvature="0" />
      </g>
      <g
         id="patch_5"
         style="stroke-linecap:butt;stroke-linejoin:round">
        <path
           d="M 54,252 H 388.8"
           style="fill:none;stroke:#000000;stroke-width:0.80000001;stroke-linecap:square;stroke-linejoin:miter"
           id="path244"
           inkscape:connector-curvature="0" />
      </g>
      <g
         id="patch_6"
         style="stroke-linecap:butt;stroke-linejoin:round">
        <path
           d="M 54,34.56 H 388.8"
           style="fill:none;stroke:#000000;stroke-width:0.80000001;stroke-linecap:square;stroke-linejoin:miter"
           id="path247"
           inkscape:connector-curvature="0" />
      </g>
    </g>
  </g>
  <defs
     id="defs249">
    <clipPath
       id="p903bf2cf95"
       style="stroke-linecap:butt;stroke-linejoin:round">
      <rect
         height="217.44"
         width="334.79999"
         x="54"
         y="34.560001"
         id="rect252"
         style="stroke-linecap:butt;stroke-linejoin:round" />
    </clipPath>
  </defs>
</svg>
