<?xml version="1.0" encoding="utf-8" standalone="no"?>
<!DOCTYPE svg PUBLIC "-//W3C//DTD SVG 1.1//EN"
  "http://www.w3.org/Graphics/SVG/1.1/DTD/svg11.dtd">
<!-- Created with matplotlib (https://matplotlib.org/) -->
<svg height="267.12pt" version="1.1" viewBox="0 0 432 267.12" width="432pt" xmlns="http://www.w3.org/2000/svg" xmlns:xlink="http://www.w3.org/1999/xlink">
 <metadata>
  <rdf:RDF xmlns:cc="http://creativecommons.org/ns#" xmlns:dc="http://purl.org/dc/elements/1.1/" xmlns:rdf="http://www.w3.org/1999/02/22-rdf-syntax-ns#">
   <cc:Work>
    <dc:type rdf:resource="http://purl.org/dc/dcmitype/StillImage"/>
    <dc:date>2023-09-09T19:16:59.406922</dc:date>
    <dc:format>image/svg+xml</dc:format>
    <dc:creator>
     <cc:Agent>
      <dc:title>Matplotlib v3.3.4, https://matplotlib.org/</dc:title>
     </cc:Agent>
    </dc:creator>
   </cc:Work>
  </rdf:RDF>
 </metadata>
 <defs>
  <style type="text/css">*{stroke-linecap:butt;stroke-linejoin:round;}</style>
 </defs>
 <g id="figure_1">
  <g id="patch_1">
   <path d="M 0 267.12 
L 432 267.12 
L 432 0 
L 0 0 
z
" style="fill:#ffffff;"/>
  </g>
  <g id="axes_1">
   <g id="patch_2">
    <path d="M 65.053392 208.297271 
L 404.335714 208.297271 
L 404.335714 19.44 
L 65.053392 19.44 
z
" style="fill:#ffffff;"/>
   </g>
   <g id="matplotlib.axis_1">
    <g id="xtick_1">
     <g id="line2d_1">
      <defs>
       <path d="M 0 0 
L 0 -3.5 
" id="m55fe8ba45f" style="stroke:#000000;stroke-width:0.8;"/>
      </defs>
      <g>
       <use style="stroke:#000000;stroke-width:0.8;" x="95.897239" xlink:href="#m55fe8ba45f" y="208.297271"/>
      </g>
     </g>
     <g id="line2d_2">
      <defs>
       <path d="M 0 0 
L 0 3.5 
" id="md038a00a68" style="stroke:#000000;stroke-width:0.8;"/>
      </defs>
      <g>
       <use style="stroke:#000000;stroke-width:0.8;" x="95.897239" xlink:href="#md038a00a68" y="19.44"/>
      </g>
     </g>
     <g id="text_1">
      <!-- $\mathdefault{38}$ -->
      <g transform="translate(87.672954 224.250572)scale(0.18 -0.18)">
       <defs>
        <path d="M 22.09375 33.703125 
C 31 33.703125 34.90625 25.96875 34.90625 17.03125 
C 34.90625 5 28.5 0.390625 22.703125 0.390625 
C 17.40625 0.390625 8.796875 3.03125 6.09375 10.828125 
C 6.59375 10.625 7.09375 10.625 7.59375 10.625 
C 10 10.625 11.796875 12.21875 11.796875 14.8125 
C 11.796875 17.703125 9.59375 19 7.59375 19 
C 5.90625 19 3.296875 18.203125 3.296875 14.46875 
C 3.296875 5.234375 12.296875 -2 22.90625 -2 
C 34 -2 42.5 6.71875 42.5 16.953125 
C 42.5 26.671875 34.5 33.703125 25 34.796875 
C 32.59375 36.375 39.90625 43.0625 39.90625 52.015625 
C 39.90625 59.6875 32 65.296875 23 65.296875 
C 13.90625 65.296875 5.90625 59.828125 5.90625 52.015625 
C 5.90625 48.59375 8.5 48 9.796875 48 
C 11.90625 48 13.703125 49.296875 13.703125 51.890625 
C 13.703125 54.46875 11.90625 55.765625 9.796875 55.765625 
C 9.40625 55.765625 8.90625 55.765625 8.5 55.578125 
C 11.40625 61.859375 19.296875 63 22.796875 63 
C 26.296875 63 32.90625 61.328125 32.90625 51.875 
C 32.90625 49.109375 32.5 44.1875 29.09375 39.84375 
C 26.09375 36 22.703125 36 19.40625 35.6875 
C 18.90625 35.6875 16.59375 35.453125 16.203125 35.453125 
C 15.5 35.359375 15.09375 35.265625 15.09375 34.5 
C 15.09375 33.796875 15.203125 33.703125 17.203125 33.703125 
z
" id="CMR17-51"/>
        <path d="M 27.203125 35.375 
C 33.5 38.546875 39.90625 43.328125 39.90625 50.984375 
C 39.90625 60.015625 31.09375 65.296875 23 65.296875 
C 13.90625 65.296875 5.90625 58.734375 5.90625 49.6875 
C 5.90625 47.203125 6.5 42.921875 10.40625 39.140625 
C 11.40625 38.15625 15.59375 35.171875 18.296875 33.28125 
C 13.796875 30.984375 3.296875 25.53125 3.296875 14.59375 
C 3.296875 4.359375 13.09375 -2 22.796875 -2 
C 33.5 -2 42.5 5.65625 42.5 15.78125 
C 42.5 24.84375 36.40625 29.015625 32.40625 31.703125 
z
M 14.09375 44.09375 
C 13.296875 44.59375 9.296875 47.671875 9.296875 52.359375 
C 9.296875 58.421875 15.59375 63 22.796875 63 
C 30.703125 63 36.5 57.4375 36.5 50.96875 
C 36.5 41.703125 26.09375 36.421875 25.59375 36.421875 
C 25.5 36.421875 25.40625 36.421875 24.59375 37.03125 
z
M 32.5 23.734375 
C 34 22.640625 38.796875 19.375 38.796875 13.296875 
C 38.796875 5.953125 31.40625 0.390625 23 0.390625 
C 13.90625 0.390625 7 6.84375 7 14.6875 
C 7 22.546875 13.09375 29.09375 20 32.1875 
z
" id="CMR17-56"/>
       </defs>
       <use transform="scale(0.996264)" xlink:href="#CMR17-51"/>
       <use transform="translate(45.690477 0)scale(0.996264)" xlink:href="#CMR17-56"/>
      </g>
     </g>
    </g>
    <g id="xtick_2">
     <g id="line2d_3">
      <g>
       <use style="stroke:#000000;stroke-width:0.8;" x="157.584934" xlink:href="#m55fe8ba45f" y="208.297271"/>
      </g>
     </g>
     <g id="line2d_4">
      <g>
       <use style="stroke:#000000;stroke-width:0.8;" x="157.584934" xlink:href="#md038a00a68" y="19.44"/>
      </g>
     </g>
     <g id="text_2">
      <!-- $\mathdefault{40}$ -->
      <g transform="translate(149.360648 224.250572)scale(0.18 -0.18)">
       <defs>
        <path d="M 33.59375 64.40625 
C 33.59375 66.5 33.5 66.5 31.703125 66.5 
L 2 19.59375 
L 2 17 
L 27.796875 17 
L 27.796875 7.140625 
C 27.796875 3.5 27.59375 2.5 20.59375 2.5 
L 18.703125 2.5 
L 18.703125 0 
C 21.90625 0 27.296875 0 30.703125 0 
C 34.09375 0 39.5 0 42.703125 0 
L 42.703125 2.5 
L 40.796875 2.5 
C 33.796875 2.5 33.59375 3.5 33.59375 7.140625 
L 33.59375 17 
L 43.796875 17 
L 43.796875 19.59375 
L 33.59375 19.59375 
z
M 28.09375 57.859375 
L 28.09375 19.59375 
L 4 19.59375 
z
" id="CMR17-52"/>
        <path d="M 42 31.640625 
C 42 37.75 41.90625 48.125 37.703125 56.109375 
C 34 63.109375 28.09375 65.59375 22.90625 65.59375 
C 18.09375 65.59375 12 63.40625 8.203125 56.203125 
C 4.203125 48.71875 3.796875 39.4375 3.796875 31.640625 
C 3.796875 25.953125 3.90625 17.28125 7 9.671875 
C 11.296875 -0.609375 19 -2 22.90625 -2 
C 27.5 -2 34.5 -0.109375 38.59375 9.375 
C 41.59375 16.28125 42 24.359375 42 31.640625 
z
M 22.90625 -0.40625 
C 16.5 -0.40625 12.703125 5.078125 11.296875 12.6875 
C 10.203125 18.5625 10.203125 27.15625 10.203125 32.75 
C 10.203125 40.4375 10.203125 46.828125 11.5 52.921875 
C 13.40625 61.390625 19 64 22.90625 64 
C 27 64 32.296875 61.296875 34.203125 53.125 
C 35.5 47.4375 35.59375 40.734375 35.59375 32.75 
C 35.59375 26.25 35.59375 18.265625 34.40625 12.375 
C 32.296875 1.484375 26.40625 -0.40625 22.90625 -0.40625 
z
" id="CMR17-48"/>
       </defs>
       <use transform="scale(0.996264)" xlink:href="#CMR17-52"/>
       <use transform="translate(45.690477 0)scale(0.996264)" xlink:href="#CMR17-48"/>
      </g>
     </g>
    </g>
    <g id="xtick_3">
     <g id="line2d_5">
      <g>
       <use style="stroke:#000000;stroke-width:0.8;" x="219.272629" xlink:href="#m55fe8ba45f" y="208.297271"/>
      </g>
     </g>
     <g id="line2d_6">
      <g>
       <use style="stroke:#000000;stroke-width:0.8;" x="219.272629" xlink:href="#md038a00a68" y="19.44"/>
      </g>
     </g>
     <g id="text_3">
      <!-- $\mathdefault{42}$ -->
      <g transform="translate(211.048343 224.250572)scale(0.18 -0.18)">
       <defs>
        <path d="M 41.703125 15.453125 
L 39.90625 15.453125 
C 38.90625 8.375 38.09375 7.171875 37.703125 6.5625 
C 37.203125 5.765625 30 5.765625 28.59375 5.765625 
L 9.40625 5.765625 
C 13 9.671875 20 16.75 28.5 24.953125 
C 34.59375 30.734375 41.703125 37.53125 41.703125 47.421875 
C 41.703125 59.21875 32.296875 66 21.796875 66 
C 10.796875 66 4.09375 56.3125 4.09375 47.34375 
C 4.09375 43.4375 7 42.9375 8.203125 42.9375 
C 9.203125 42.9375 12.203125 43.546875 12.203125 47.03125 
C 12.203125 50.109375 9.59375 51 8.203125 51 
C 7.59375 51 7 50.90625 6.59375 50.703125 
C 8.5 59.21875 14.296875 63.40625 20.40625 63.40625 
C 29.09375 63.40625 34.796875 56.515625 34.796875 47.421875 
C 34.796875 38.734375 29.703125 31.25 24 24.75 
L 4.09375 2.28125 
L 4.09375 0 
L 39.296875 0 
z
" id="CMR17-50"/>
       </defs>
       <use transform="scale(0.996264)" xlink:href="#CMR17-52"/>
       <use transform="translate(45.690477 0)scale(0.996264)" xlink:href="#CMR17-50"/>
      </g>
     </g>
    </g>
    <g id="xtick_4">
     <g id="line2d_7">
      <g>
       <use style="stroke:#000000;stroke-width:0.8;" x="280.960324" xlink:href="#m55fe8ba45f" y="208.297271"/>
      </g>
     </g>
     <g id="line2d_8">
      <g>
       <use style="stroke:#000000;stroke-width:0.8;" x="280.960324" xlink:href="#md038a00a68" y="19.44"/>
      </g>
     </g>
     <g id="text_4">
      <!-- $\mathdefault{44}$ -->
      <g transform="translate(272.736038 224.250572)scale(0.18 -0.18)">
       <use transform="scale(0.996264)" xlink:href="#CMR17-52"/>
       <use transform="translate(45.690477 0)scale(0.996264)" xlink:href="#CMR17-52"/>
      </g>
     </g>
    </g>
    <g id="xtick_5">
     <g id="line2d_9">
      <g>
       <use style="stroke:#000000;stroke-width:0.8;" x="342.648019" xlink:href="#m55fe8ba45f" y="208.297271"/>
      </g>
     </g>
     <g id="line2d_10">
      <g>
       <use style="stroke:#000000;stroke-width:0.8;" x="342.648019" xlink:href="#md038a00a68" y="19.44"/>
      </g>
     </g>
     <g id="text_5">
      <!-- $\mathdefault{46}$ -->
      <g transform="translate(334.423733 224.250572)scale(0.18 -0.18)">
       <defs>
        <path d="M 10.59375 34 
C 10.59375 57.65625 21.796875 63 28.296875 63 
C 30.40625 63 35.5 62.640625 37.5 59 
C 35.90625 59 32.90625 59 32.90625 55.515625 
C 32.90625 52.828125 35.09375 51.921875 36.5 51.921875 
C 37.40625 51.921875 40.09375 52.3125 40.09375 55.625 
C 40.09375 61.78125 35.09375 65.296875 28.203125 65.296875 
C 16.296875 65.296875 3.796875 52.96875 3.796875 31 
C 3.796875 3.953125 15.09375 -2 23.09375 -2 
C 32.796875 -2 42 6.671875 42 20.046875 
C 42 32.515625 33.90625 41.59375 23.703125 41.59375 
C 17.59375 41.59375 13.09375 37.609375 10.59375 30.625 
z
M 23.09375 0.390625 
C 10.796875 0.390625 10.796875 18.75 10.796875 22.4375 
C 10.796875 29.625 14.203125 40 23.5 40 
C 25.203125 40 30.09375 40 33.40625 33.125 
C 35.203125 29.21875 35.203125 25.140625 35.203125 20.140625 
C 35.203125 14.75 35.203125 10.78125 33.09375 6.78125 
C 30.90625 2.671875 27.703125 0.390625 23.09375 0.390625 
z
" id="CMR17-54"/>
       </defs>
       <use transform="scale(0.996264)" xlink:href="#CMR17-52"/>
       <use transform="translate(45.690477 0)scale(0.996264)" xlink:href="#CMR17-54"/>
      </g>
     </g>
    </g>
    <g id="xtick_6">
     <g id="line2d_11">
      <g>
       <use style="stroke:#000000;stroke-width:0.8;" x="404.335714" xlink:href="#m55fe8ba45f" y="208.297271"/>
      </g>
     </g>
     <g id="line2d_12">
      <g>
       <use style="stroke:#000000;stroke-width:0.8;" x="404.335714" xlink:href="#md038a00a68" y="19.44"/>
      </g>
     </g>
     <g id="text_6">
      <!-- $\mathdefault{48}$ -->
      <g transform="translate(396.111428 224.250572)scale(0.18 -0.18)">
       <use transform="scale(0.996264)" xlink:href="#CMR17-52"/>
       <use transform="translate(45.690477 0)scale(0.996264)" xlink:href="#CMR17-56"/>
      </g>
     </g>
    </g>
    <g id="xtick_7">
     <g id="line2d_13">
      <defs>
       <path d="M 0 0 
L 0 -2 
" id="m05c577d069" style="stroke:#000000;stroke-width:0.6;"/>
      </defs>
      <g>
       <use style="stroke:#000000;stroke-width:0.6;" x="80.475316" xlink:href="#m05c577d069" y="208.297271"/>
      </g>
     </g>
     <g id="line2d_14">
      <defs>
       <path d="M 0 0 
L 0 2 
" id="ma41df3b34b" style="stroke:#000000;stroke-width:0.6;"/>
      </defs>
      <g>
       <use style="stroke:#000000;stroke-width:0.6;" x="80.475316" xlink:href="#ma41df3b34b" y="19.44"/>
      </g>
     </g>
    </g>
    <g id="xtick_8">
     <g id="line2d_15">
      <g>
       <use style="stroke:#000000;stroke-width:0.6;" x="111.319163" xlink:href="#m05c577d069" y="208.297271"/>
      </g>
     </g>
     <g id="line2d_16">
      <g>
       <use style="stroke:#000000;stroke-width:0.6;" x="111.319163" xlink:href="#ma41df3b34b" y="19.44"/>
      </g>
     </g>
    </g>
    <g id="xtick_9">
     <g id="line2d_17">
      <g>
       <use style="stroke:#000000;stroke-width:0.6;" x="126.741087" xlink:href="#m05c577d069" y="208.297271"/>
      </g>
     </g>
     <g id="line2d_18">
      <g>
       <use style="stroke:#000000;stroke-width:0.6;" x="126.741087" xlink:href="#ma41df3b34b" y="19.44"/>
      </g>
     </g>
    </g>
    <g id="xtick_10">
     <g id="line2d_19">
      <g>
       <use style="stroke:#000000;stroke-width:0.6;" x="142.163011" xlink:href="#m05c577d069" y="208.297271"/>
      </g>
     </g>
     <g id="line2d_20">
      <g>
       <use style="stroke:#000000;stroke-width:0.6;" x="142.163011" xlink:href="#ma41df3b34b" y="19.44"/>
      </g>
     </g>
    </g>
    <g id="xtick_11">
     <g id="line2d_21">
      <g>
       <use style="stroke:#000000;stroke-width:0.6;" x="173.006858" xlink:href="#m05c577d069" y="208.297271"/>
      </g>
     </g>
     <g id="line2d_22">
      <g>
       <use style="stroke:#000000;stroke-width:0.6;" x="173.006858" xlink:href="#ma41df3b34b" y="19.44"/>
      </g>
     </g>
    </g>
    <g id="xtick_12">
     <g id="line2d_23">
      <g>
       <use style="stroke:#000000;stroke-width:0.6;" x="188.428782" xlink:href="#m05c577d069" y="208.297271"/>
      </g>
     </g>
     <g id="line2d_24">
      <g>
       <use style="stroke:#000000;stroke-width:0.6;" x="188.428782" xlink:href="#ma41df3b34b" y="19.44"/>
      </g>
     </g>
    </g>
    <g id="xtick_13">
     <g id="line2d_25">
      <g>
       <use style="stroke:#000000;stroke-width:0.6;" x="203.850706" xlink:href="#m05c577d069" y="208.297271"/>
      </g>
     </g>
     <g id="line2d_26">
      <g>
       <use style="stroke:#000000;stroke-width:0.6;" x="203.850706" xlink:href="#ma41df3b34b" y="19.44"/>
      </g>
     </g>
    </g>
    <g id="xtick_14">
     <g id="line2d_27">
      <g>
       <use style="stroke:#000000;stroke-width:0.6;" x="234.694553" xlink:href="#m05c577d069" y="208.297271"/>
      </g>
     </g>
     <g id="line2d_28">
      <g>
       <use style="stroke:#000000;stroke-width:0.6;" x="234.694553" xlink:href="#ma41df3b34b" y="19.44"/>
      </g>
     </g>
    </g>
    <g id="xtick_15">
     <g id="line2d_29">
      <g>
       <use style="stroke:#000000;stroke-width:0.6;" x="250.116477" xlink:href="#m05c577d069" y="208.297271"/>
      </g>
     </g>
     <g id="line2d_30">
      <g>
       <use style="stroke:#000000;stroke-width:0.6;" x="250.116477" xlink:href="#ma41df3b34b" y="19.44"/>
      </g>
     </g>
    </g>
    <g id="xtick_16">
     <g id="line2d_31">
      <g>
       <use style="stroke:#000000;stroke-width:0.6;" x="265.5384" xlink:href="#m05c577d069" y="208.297271"/>
      </g>
     </g>
     <g id="line2d_32">
      <g>
       <use style="stroke:#000000;stroke-width:0.6;" x="265.5384" xlink:href="#ma41df3b34b" y="19.44"/>
      </g>
     </g>
    </g>
    <g id="xtick_17">
     <g id="line2d_33">
      <g>
       <use style="stroke:#000000;stroke-width:0.6;" x="296.382248" xlink:href="#m05c577d069" y="208.297271"/>
      </g>
     </g>
     <g id="line2d_34">
      <g>
       <use style="stroke:#000000;stroke-width:0.6;" x="296.382248" xlink:href="#ma41df3b34b" y="19.44"/>
      </g>
     </g>
    </g>
    <g id="xtick_18">
     <g id="line2d_35">
      <g>
       <use style="stroke:#000000;stroke-width:0.6;" x="311.804172" xlink:href="#m05c577d069" y="208.297271"/>
      </g>
     </g>
     <g id="line2d_36">
      <g>
       <use style="stroke:#000000;stroke-width:0.6;" x="311.804172" xlink:href="#ma41df3b34b" y="19.44"/>
      </g>
     </g>
    </g>
    <g id="xtick_19">
     <g id="line2d_37">
      <g>
       <use style="stroke:#000000;stroke-width:0.6;" x="327.226095" xlink:href="#m05c577d069" y="208.297271"/>
      </g>
     </g>
     <g id="line2d_38">
      <g>
       <use style="stroke:#000000;stroke-width:0.6;" x="327.226095" xlink:href="#ma41df3b34b" y="19.44"/>
      </g>
     </g>
    </g>
    <g id="xtick_20">
     <g id="line2d_39">
      <g>
       <use style="stroke:#000000;stroke-width:0.6;" x="358.069943" xlink:href="#m05c577d069" y="208.297271"/>
      </g>
     </g>
     <g id="line2d_40">
      <g>
       <use style="stroke:#000000;stroke-width:0.6;" x="358.069943" xlink:href="#ma41df3b34b" y="19.44"/>
      </g>
     </g>
    </g>
    <g id="xtick_21">
     <g id="line2d_41">
      <g>
       <use style="stroke:#000000;stroke-width:0.6;" x="373.491867" xlink:href="#m05c577d069" y="208.297271"/>
      </g>
     </g>
     <g id="line2d_42">
      <g>
       <use style="stroke:#000000;stroke-width:0.6;" x="373.491867" xlink:href="#ma41df3b34b" y="19.44"/>
      </g>
     </g>
    </g>
    <g id="xtick_22">
     <g id="line2d_43">
      <g>
       <use style="stroke:#000000;stroke-width:0.6;" x="388.91379" xlink:href="#m05c577d069" y="208.297271"/>
      </g>
     </g>
     <g id="line2d_44">
      <g>
       <use style="stroke:#000000;stroke-width:0.6;" x="388.91379" xlink:href="#ma41df3b34b" y="19.44"/>
      </g>
     </g>
    </g>
    <g id="text_7">
     <!-- Atomic Number, Z -->
     <g transform="translate(166.799501 244.191936)scale(0.18 -0.18)">
      <defs>
       <path d="M 36.296875 68.40625 
C 35.796875 69.703125 35.59375 70 34.59375 70 
C 33.59375 70 33.40625 69.703125 32.90625 68.40625 
L 11.703125 8.84375 
C 9.796875 3.484375 5.796875 2.390625 2.296875 2.390625 
L 2.296875 -0.203125 
C 4.09375 0 8.09375 0 10 0 
C 12.5 0 16.5 0 18.90625 -0.203125 
L 18.90625 2.390625 
C 14.203125 2.390625 13.5 5.640625 13.5 6.859375 
C 13.5 7.765625 13.703125 8.28125 13.90625 8.890625 
L 19.203125 24 
L 45.40625 24 
L 51.40625 6.90625 
C 51.90625 5.703125 51.90625 5.5 51.90625 5.109375 
C 51.90625 2.390625 47.59375 2.390625 45.703125 2.390625 
L 45.703125 0 
C 48.59375 0 53.796875 0 56.90625 0 
C 59.5 0 64.5 0 66.90625 -0.203125 
L 66.90625 2.390625 
C 61.59375 2.390625 59.796875 2.390625 58.5 6.046875 
z
M 32.296875 60.828125 
L 44.5 26.59375 
L 20.09375 26.59375 
z
" id="CMR17-65"/>
       <path d="M 15.09375 40 
L 29.09375 40 
L 29.09375 42.578125 
L 15.09375 42.578125 
L 15.09375 61 
L 13.296875 61 
C 13.09375 50.703125 9.59375 41.6875 1.09375 41.6875 
L 1.09375 40 
L 9.796875 40 
L 9.796875 12.046875 
C 9.796875 10.15625 9.796875 -1 21.40625 -1 
C 27.296875 -1 30.703125 4.78125 30.703125 12.140625 
L 30.703125 17.8125 
L 28.90625 17.8125 
L 28.90625 12.234375 
C 28.90625 5.375 26.203125 0.796875 22 0.796875 
C 19.09375 0.796875 15.09375 2.78125 15.09375 11.84375 
z
" id="CMR17-116"/>
       <path d="M 43.09375 21.1875 
C 43.09375 34 33.796875 44 22.90625 44 
C 12 44 2.703125 34 2.703125 21.1875 
C 2.703125 8.609375 12 -1 22.90625 -1 
C 33.796875 -1 43.09375 8.609375 43.09375 21.1875 
z
M 22.90625 0.796875 
C 18.203125 0.796875 14.203125 3.59375 11.90625 7.5 
C 9.40625 11.984375 9.09375 17.59375 9.09375 22 
C 9.09375 26.203125 9.296875 31.40625 11.90625 35.90625 
C 13.90625 39.203125 17.796875 42.40625 22.90625 42.40625 
C 27.40625 42.40625 31.203125 39.90625 33.59375 36.40625 
C 36.703125 31.703125 36.703125 25.109375 36.703125 22 
C 36.703125 18.09375 36.5 12.109375 33.796875 7.296875 
C 31 2.703125 26.703125 0.796875 22.90625 0.796875 
z
" id="CMR17-111"/>
       <path d="M 67.59375 30.203125 
C 67.59375 35.1875 66.703125 43.59375 54.796875 43.59375 
C 48 43.59375 43.296875 39 41.5 33.609375 
L 41.40625 33.609375 
C 40.203125 41.8125 34.296875 43.59375 28.703125 43.59375 
C 20.796875 43.59375 16.703125 37.5 15.203125 33.5 
L 15.09375 33.5 
L 15.09375 43.59375 
L 3.296875 42.5 
L 3.296875 39.90625 
C 9.203125 39.90625 10.09375 39.296875 10.09375 34.5 
L 10.09375 6.6875 
C 10.09375 2.875 9.703125 2.390625 3.296875 2.390625 
L 3.296875 -0.203125 
C 5.703125 0 10.09375 0 12.703125 0 
C 15.296875 0 19.796875 0 22.203125 -0.203125 
L 22.203125 2.390625 
C 15.796875 2.390625 15.40625 2.78125 15.40625 6.6875 
L 15.40625 25.90625 
C 15.40625 35.109375 21 42 28 42 
C 35.40625 42 36.203125 35.40625 36.203125 30.59375 
L 36.203125 6.6875 
C 36.203125 2.875 35.796875 2.390625 29.40625 2.390625 
L 29.40625 -0.203125 
C 31.796875 0 36.203125 0 38.796875 0 
C 41.40625 0 45.90625 0 48.296875 -0.203125 
L 48.296875 2.390625 
C 41.90625 2.390625 41.5 2.78125 41.5 6.6875 
L 41.5 25.90625 
C 41.5 35.109375 47.09375 42 54.09375 42 
C 61.5 42 62.296875 35.40625 62.296875 30.59375 
L 62.296875 6.6875 
C 62.296875 2.875 61.90625 2.390625 55.5 2.390625 
L 55.5 -0.203125 
C 57.90625 0 62.296875 0 64.90625 0 
C 67.5 0 72 0 74.40625 -0.203125 
L 74.40625 2.390625 
C 68 2.390625 67.59375 2.78125 67.59375 6.6875 
z
" id="CMR17-109"/>
       <path d="M 15.5 61.078125 
C 15.5 63.265625 13.703125 65.15625 11.40625 65.15625 
C 9.203125 65.15625 7.296875 63.375 7.296875 61.078125 
C 7.296875 58.890625 9.09375 57 11.40625 57 
C 13.59375 57 15.5 58.796875 15.5 61.078125 
z
M 3.796875 42.28125 
L 3.796875 39.703125 
C 9.40625 39.703125 10.203125 39.09375 10.203125 34.328125 
L 10.203125 6.671875 
C 10.203125 2.875 9.796875 2.390625 3.40625 2.390625 
L 3.40625 -0.203125 
C 5.796875 0 10.09375 0 12.59375 0 
C 15 0 19.09375 0 21.40625 -0.203125 
L 21.40625 2.390625 
C 15.5 2.390625 15.296875 2.984375 15.296875 6.5625 
L 15.296875 43.375 
z
" id="CMR17-105"/>
       <path d="M 34.90625 35 
C 33 35 30.203125 35 30.203125 31.515625 
C 30.203125 28.71875 32.5 27.921875 33.796875 27.921875 
C 34.5 27.921875 37.40625 28.234375 37.40625 31.625 
C 37.40625 38.546875 30.59375 43.796875 22.90625 43.796875 
C 12.296875 43.796875 3.296875 34.03125 3.296875 21.296875 
C 3.296875 8.0625 12.703125 -1 22.90625 -1 
C 35.296875 -1 38.40625 10.578125 38.40625 11.6875 
C 38.40625 12.09375 38.296875 12.390625 37.59375 12.390625 
C 36.90625 12.390625 36.796875 12.296875 36.40625 10.984375 
C 33.796875 2.8125 28.09375 0.796875 23.796875 0.796875 
C 17.40625 0.796875 9.703125 6.671875 9.703125 21.390625 
C 9.703125 36.53125 17.09375 42 23 42 
C 26.90625 42 32.703125 40.203125 34.90625 35 
z
" id="CMR17-99"/>
       <path d="M 20.5 66.40625 
C 19.796875 67.5 19.703125 67.5 17.796875 67.5 
L 5.09375 67.5 
L 5.09375 65 
L 7 65 
C 11 65 12.796875 64.515625 13.09375 64.40625 
L 13.09375 9.53125 
C 13.09375 7.046875 13.09375 2.390625 5.09375 2.390625 
L 5.09375 -0.203125 
C 7.40625 0 11.59375 0 14.09375 0 
C 16.59375 0 20.796875 0 23.09375 -0.203125 
L 23.09375 2.390625 
C 15.09375 2.390625 15.09375 7.046875 15.09375 9.53125 
L 15.09375 63.015625 
C 15.796875 62.421875 15.796875 62.21875 16.5 61.234375 
L 53.59375 1.1875 
C 54.296875 0 54.59375 0 55.09375 0 
C 56.09375 0 56.09375 0.296875 56.09375 2.171875 
L 56.09375 57.890625 
C 56.09375 60.359375 56.09375 65 64.09375 65 
L 64.09375 67.59375 
C 61.796875 67.5 57.59375 67.5 55.09375 67.5 
C 52.59375 67.5 48.40625 67.5 46.09375 67.59375 
L 46.09375 65 
C 54.09375 65 54.09375 60.34375 54.09375 57.859375 
L 54.09375 11.921875 
z
" id="CMR17-78"/>
       <path d="M 29.40625 42.078125 
L 29.40625 39.5 
C 35.296875 39.5 36.203125 38.890625 36.203125 34.15625 
L 36.203125 16.125 
C 36.203125 7.8125 31.703125 0.59375 24.296875 0.59375 
C 16.09375 0.59375 15.40625 5.4375 15.40625 10.59375 
L 15.40625 43.171875 
L 3.296875 42.078125 
L 3.296875 39.5 
C 7.296875 39.5 10 39.5 10.09375 35.53125 
L 10.09375 16.53125 
C 10.09375 9.890625 10.09375 5.640625 12.703125 2.859375 
C 14 1.578125 16.5 -1 23.703125 -1 
C 32.203125 -1 35.5 5.890625 36.296875 7.90625 
L 36.40625 7.90625 
L 36.40625 -0.984375 
L 48.296875 -0.984375 
L 48.296875 2 
C 42.40625 2 41.5 2.59375 41.5 7.390625 
L 41.5 43.171875 
z
" id="CMR17-117"/>
       <path d="M 15 68.6875 
L 3.09375 67.59375 
L 3.09375 65 
C 9 65 9.90625 64.40625 9.90625 59.640625 
L 9.90625 -0.203125 
L 11.703125 -0.203125 
L 14.59375 6.890625 
C 17.5 2.203125 21.796875 -1 27.59375 -1 
C 37.59375 -1 47.703125 7.8125 47.703125 21.40625 
C 47.703125 34.1875 38.703125 43.59375 28.59375 43.59375 
C 22.40625 43.59375 18 40.296875 15 36.40625 
z
M 15.203125 31.3125 
C 15.203125 33.09375 15.203125 33.40625 16.59375 35.5 
C 20.5 41.515625 26.09375 42 28 42 
C 31 42 41.296875 40.390625 41.296875 21.5 
C 41.296875 1.6875 29.5 0.59375 27.09375 0.59375 
C 24 0.59375 19.5 1.78125 16.296875 7.59375 
C 15.203125 9.5 15.203125 9.703125 15.203125 11.484375 
z
" id="CMR17-98"/>
       <path d="M 38.09375 23 
C 38.5 23.40625 38.5 23.609375 38.5 24.625 
C 38.5 34.96875 33.09375 44 21.703125 44 
C 11.09375 44 2.703125 33.890625 2.703125 21.609375 
C 2.703125 8.609375 12.203125 -1 22.796875 -1 
C 34 -1 38.40625 9.484375 38.40625 11.5625 
C 38.40625 12.25 37.796875 12.25 37.59375 12.25 
C 36.90625 12.25 36.796875 12.046875 36.40625 10.875 
C 34.203125 4.140625 28.703125 0.796875 23.5 0.796875 
C 19.203125 0.796875 14.90625 3.171875 12.203125 7.5 
C 9.09375 12.546875 9.09375 18.375 9.09375 23 
z
M 9.203125 24.5 
C 9.90625 39.140625 17.59375 42.40625 21.59375 42.40625 
C 28.40625 42.40625 33 35.890625 33.09375 24.5 
z
" id="CMR17-101"/>
       <path d="M 15 23.390625 
C 15 33 19.09375 42 26.59375 42 
C 27.296875 42 28 41.90625 28.703125 41.59375 
C 28.703125 41.59375 26.5 40.890625 26.5 38.3125 
C 26.5 35.90625 28.40625 34.90625 29.90625 34.90625 
C 31.09375 34.90625 33.296875 35.609375 33.296875 38.40625 
C 33.296875 41.609375 30.09375 43.59375 26.703125 43.59375 
C 19.09375 43.59375 15.796875 36.203125 14.796875 32.703125 
L 14.703125 32.703125 
L 14.703125 43.59375 
L 3.09375 42.5 
L 3.09375 39.90625 
C 9 39.90625 9.90625 39.296875 9.90625 34.5 
L 9.90625 6.6875 
C 9.90625 2.875 9.5 2.390625 3.09375 2.390625 
L 3.09375 -0.203125 
C 5.5 0 10.09375 0 12.703125 0 
C 15.59375 0 20.703125 0 23.40625 -0.203125 
L 23.40625 2.390625 
C 16.203125 2.390625 15 2.390625 15 6.875 
z
" id="CMR17-114"/>
       <path d="M 15.796875 1.59375 
C 16 0.703125 16 0.390625 16 -1.203125 
C 16 -7.234375 14 -12.765625 9.796875 -17.796875 
C 9.296875 -18.28125 9.296875 -18.484375 9.296875 -18.703125 
C 9.296875 -19.09375 9.703125 -19.5 10.09375 -19.5 
C 10.703125 -19.5 17.59375 -12.484375 17.59375 -1.359375 
C 17.59375 1.9375 17.203125 8.15625 12.5 8.15625 
C 10.296875 8.15625 8.40625 6.671875 8.40625 4.078125 
C 8.40625 1.5 10.296875 0 12.5 0 
C 13.703125 0 15 0.5 15.796875 1.59375 
z
" id="CMR17-44"/>
       <path d="M 51.59375 66.09375 
C 51.59375 68 51.5 68 49.40625 68 
L 6.90625 68 
L 5.90625 46.0625 
L 7.703125 46.0625 
C 8.296875 57.421875 11.296875 65.5 27.5 65.5 
L 44 65.5 
L 5.296875 3.1875 
C 4.59375 2.09375 4.59375 1.984375 4.59375 1.296875 
C 4.59375 0 4.796875 0 6.796875 0 
L 50.703125 0 
L 52.09375 26.03125 
L 50.296875 26.03125 
C 49.40625 12.953125 48.703125 2.78125 29.59375 2.78125 
L 12.203125 2.78125 
z
" id="CMR17-90"/>
      </defs>
      <use transform="scale(0.996264)" xlink:href="#CMR17-65"/>
      <use transform="translate(66.469976 0)scale(0.996264)" xlink:href="#CMR17-116"/>
      <use transform="translate(101.750744 0)scale(0.996264)" xlink:href="#CMR17-111"/>
      <use transform="translate(147.441221 0)scale(0.996264)" xlink:href="#CMR17-109"/>
      <use transform="translate(224.360811 0)scale(0.996264)" xlink:href="#CMR17-105"/>
      <use transform="translate(249.231869 0)scale(0.996264)" xlink:href="#CMR17-99"/>
      <use transform="translate(319.793496 0)scale(0.996264)" xlink:href="#CMR17-78"/>
      <use transform="translate(388.865926 0)scale(0.996264)" xlink:href="#CMR17-117"/>
      <use transform="translate(439.761296 0)scale(0.996264)" xlink:href="#CMR17-109"/>
      <use transform="translate(514.078431 0)scale(0.996264)" xlink:href="#CMR17-98"/>
      <use transform="translate(567.57624 0)scale(0.996264)" xlink:href="#CMR17-101"/>
      <use transform="translate(608.0619 0)scale(0.996264)" xlink:href="#CMR17-114"/>
      <use transform="translate(643.342668 0)scale(0.996264)" xlink:href="#CMR17-44"/>
      <use transform="translate(698.289693 0)scale(0.996264)" xlink:href="#CMR17-90"/>
     </g>
    </g>
   </g>
   <g id="matplotlib.axis_2">
    <g id="ytick_1">
     <g id="line2d_45">
      <defs>
       <path d="M 0 0 
L 3.5 0 
" id="mfe579d008c" style="stroke:#000000;stroke-width:0.8;"/>
      </defs>
      <g>
       <use style="stroke:#000000;stroke-width:0.8;" x="65.053392" xlink:href="#mfe579d008c" y="178.788323"/>
      </g>
     </g>
     <g id="line2d_46">
      <defs>
       <path d="M 0 0 
L -3.5 0 
" id="m0775602799" style="stroke:#000000;stroke-width:0.8;"/>
      </defs>
      <g>
       <use style="stroke:#000000;stroke-width:0.8;" x="404.335714" xlink:href="#m0775602799" y="178.788323"/>
      </g>
     </g>
     <g id="text_8">
      <!-- $\mathdefault{−2}$ -->
      <g transform="translate(39.381364 185.014973)scale(0.18 -0.18)">
       <defs>
        <path d="M 65.90625 23 
C 67.59375 23 69.40625 23 69.40625 25 
C 69.40625 27 67.59375 27 65.90625 27 
L 11.796875 27 
C 10.09375 27 8.296875 27 8.296875 25 
C 8.296875 23 10.09375 23 11.796875 23 
z
" id="CMSY10-0"/>
       </defs>
       <use transform="scale(0.996264)" xlink:href="#CMSY10-0"/>
       <use transform="translate(77.487468 0)scale(0.996264)" xlink:href="#CMR17-50"/>
      </g>
     </g>
    </g>
    <g id="ytick_2">
     <g id="line2d_47">
      <g>
       <use style="stroke:#000000;stroke-width:0.8;" x="65.053392" xlink:href="#mfe579d008c" y="119.770425"/>
      </g>
     </g>
     <g id="line2d_48">
      <g>
       <use style="stroke:#000000;stroke-width:0.8;" x="404.335714" xlink:href="#m0775602799" y="119.770425"/>
      </g>
     </g>
     <g id="text_9">
      <!-- $\mathdefault{−1}$ -->
      <g transform="translate(39.381364 125.997076)scale(0.18 -0.18)">
       <defs>
        <path d="M 26.59375 63.40625 
C 26.59375 65.5 26.5 65.5 25.09375 65.5 
C 21.203125 61.1875 15.296875 59.796875 9.703125 59.796875 
C 9.40625 59.796875 8.90625 59.796875 8.796875 59.5 
C 8.703125 59.296875 8.703125 59.09375 8.703125 57 
C 11.796875 57 17 57.59375 21 59.984375 
L 21 7.203125 
C 21 3.6875 20.796875 2.5 12.203125 2.5 
L 9.203125 2.5 
L 9.203125 0 
C 14 0 19 0 23.796875 0 
C 28.59375 0 33.59375 0 38.40625 0 
L 38.40625 2.5 
L 35.40625 2.5 
C 26.796875 2.5 26.59375 3.59375 26.59375 7.15625 
z
" id="CMR17-49"/>
       </defs>
       <use transform="scale(0.996264)" xlink:href="#CMSY10-0"/>
       <use transform="translate(77.487468 0)scale(0.996264)" xlink:href="#CMR17-49"/>
      </g>
     </g>
    </g>
    <g id="ytick_3">
     <g id="line2d_49">
      <g>
       <use style="stroke:#000000;stroke-width:0.8;" x="65.053392" xlink:href="#mfe579d008c" y="60.752528"/>
      </g>
     </g>
     <g id="line2d_50">
      <g>
       <use style="stroke:#000000;stroke-width:0.8;" x="404.335714" xlink:href="#m0775602799" y="60.752528"/>
      </g>
     </g>
     <g id="text_10">
      <!-- $\mathdefault{0}$ -->
      <g transform="translate(53.329106 66.979178)scale(0.18 -0.18)">
       <use transform="scale(0.996264)" xlink:href="#CMR17-48"/>
      </g>
     </g>
    </g>
    <g id="ytick_4">
     <g id="line2d_51">
      <defs>
       <path d="M 0 0 
L 2 0 
" id="mec62727c3d" style="stroke:#000000;stroke-width:0.6;"/>
      </defs>
      <g>
       <use style="stroke:#000000;stroke-width:0.6;" x="65.053392" xlink:href="#mec62727c3d" y="202.395482"/>
      </g>
     </g>
     <g id="line2d_52">
      <defs>
       <path d="M 0 0 
L -2 0 
" id="m653817dde7" style="stroke:#000000;stroke-width:0.6;"/>
      </defs>
      <g>
       <use style="stroke:#000000;stroke-width:0.6;" x="404.335714" xlink:href="#m653817dde7" y="202.395482"/>
      </g>
     </g>
    </g>
    <g id="ytick_5">
     <g id="line2d_53">
      <g>
       <use style="stroke:#000000;stroke-width:0.6;" x="65.053392" xlink:href="#mec62727c3d" y="190.591902"/>
      </g>
     </g>
     <g id="line2d_54">
      <g>
       <use style="stroke:#000000;stroke-width:0.6;" x="404.335714" xlink:href="#m653817dde7" y="190.591902"/>
      </g>
     </g>
    </g>
    <g id="ytick_6">
     <g id="line2d_55">
      <g>
       <use style="stroke:#000000;stroke-width:0.6;" x="65.053392" xlink:href="#mec62727c3d" y="166.984743"/>
      </g>
     </g>
     <g id="line2d_56">
      <g>
       <use style="stroke:#000000;stroke-width:0.6;" x="404.335714" xlink:href="#m653817dde7" y="166.984743"/>
      </g>
     </g>
    </g>
    <g id="ytick_7">
     <g id="line2d_57">
      <g>
       <use style="stroke:#000000;stroke-width:0.6;" x="65.053392" xlink:href="#mec62727c3d" y="155.181164"/>
      </g>
     </g>
     <g id="line2d_58">
      <g>
       <use style="stroke:#000000;stroke-width:0.6;" x="404.335714" xlink:href="#m653817dde7" y="155.181164"/>
      </g>
     </g>
    </g>
    <g id="ytick_8">
     <g id="line2d_59">
      <g>
       <use style="stroke:#000000;stroke-width:0.6;" x="65.053392" xlink:href="#mec62727c3d" y="143.377584"/>
      </g>
     </g>
     <g id="line2d_60">
      <g>
       <use style="stroke:#000000;stroke-width:0.6;" x="404.335714" xlink:href="#m653817dde7" y="143.377584"/>
      </g>
     </g>
    </g>
    <g id="ytick_9">
     <g id="line2d_61">
      <g>
       <use style="stroke:#000000;stroke-width:0.6;" x="65.053392" xlink:href="#mec62727c3d" y="131.574005"/>
      </g>
     </g>
     <g id="line2d_62">
      <g>
       <use style="stroke:#000000;stroke-width:0.6;" x="404.335714" xlink:href="#m653817dde7" y="131.574005"/>
      </g>
     </g>
    </g>
    <g id="ytick_10">
     <g id="line2d_63">
      <g>
       <use style="stroke:#000000;stroke-width:0.6;" x="65.053392" xlink:href="#mec62727c3d" y="107.966846"/>
      </g>
     </g>
     <g id="line2d_64">
      <g>
       <use style="stroke:#000000;stroke-width:0.6;" x="404.335714" xlink:href="#m653817dde7" y="107.966846"/>
      </g>
     </g>
    </g>
    <g id="ytick_11">
     <g id="line2d_65">
      <g>
       <use style="stroke:#000000;stroke-width:0.6;" x="65.053392" xlink:href="#mec62727c3d" y="96.163267"/>
      </g>
     </g>
     <g id="line2d_66">
      <g>
       <use style="stroke:#000000;stroke-width:0.6;" x="404.335714" xlink:href="#m653817dde7" y="96.163267"/>
      </g>
     </g>
    </g>
    <g id="ytick_12">
     <g id="line2d_67">
      <g>
       <use style="stroke:#000000;stroke-width:0.6;" x="65.053392" xlink:href="#mec62727c3d" y="84.359687"/>
      </g>
     </g>
     <g id="line2d_68">
      <g>
       <use style="stroke:#000000;stroke-width:0.6;" x="404.335714" xlink:href="#m653817dde7" y="84.359687"/>
      </g>
     </g>
    </g>
    <g id="ytick_13">
     <g id="line2d_69">
      <g>
       <use style="stroke:#000000;stroke-width:0.6;" x="65.053392" xlink:href="#mec62727c3d" y="72.556108"/>
      </g>
     </g>
     <g id="line2d_70">
      <g>
       <use style="stroke:#000000;stroke-width:0.6;" x="404.335714" xlink:href="#m653817dde7" y="72.556108"/>
      </g>
     </g>
    </g>
    <g id="ytick_14">
     <g id="line2d_71">
      <g>
       <use style="stroke:#000000;stroke-width:0.6;" x="65.053392" xlink:href="#mec62727c3d" y="48.948949"/>
      </g>
     </g>
     <g id="line2d_72">
      <g>
       <use style="stroke:#000000;stroke-width:0.6;" x="404.335714" xlink:href="#m653817dde7" y="48.948949"/>
      </g>
     </g>
    </g>
    <g id="ytick_15">
     <g id="line2d_73">
      <g>
       <use style="stroke:#000000;stroke-width:0.6;" x="65.053392" xlink:href="#mec62727c3d" y="37.145369"/>
      </g>
     </g>
     <g id="line2d_74">
      <g>
       <use style="stroke:#000000;stroke-width:0.6;" x="404.335714" xlink:href="#m653817dde7" y="37.145369"/>
      </g>
     </g>
    </g>
    <g id="ytick_16">
     <g id="line2d_75">
      <g>
       <use style="stroke:#000000;stroke-width:0.6;" x="65.053392" xlink:href="#mec62727c3d" y="25.34179"/>
      </g>
     </g>
     <g id="line2d_76">
      <g>
       <use style="stroke:#000000;stroke-width:0.6;" x="404.335714" xlink:href="#m653817dde7" y="25.34179"/>
      </g>
     </g>
    </g>
    <g id="text_11">
     <!-- Abundance in $\log\epsilon$ -->
     <g transform="translate(31.8933 182.239427)rotate(-90)scale(0.18 -0.18)">
      <defs>
       <path d="M 41.5 30.203125 
C 41.5 35.296875 40.5 43.59375 28.703125 43.59375 
C 20.796875 43.59375 16.703125 37.5 15.203125 33.5 
L 15.09375 33.5 
L 15.09375 43.59375 
L 3.296875 42.5 
L 3.296875 39.90625 
C 9.203125 39.90625 10.09375 39.296875 10.09375 34.5 
L 10.09375 6.6875 
C 10.09375 2.875 9.703125 2.390625 3.296875 2.390625 
L 3.296875 -0.203125 
C 5.703125 0 10.09375 0 12.703125 0 
C 15.296875 0 19.796875 0 22.203125 -0.203125 
L 22.203125 2.390625 
C 15.796875 2.390625 15.40625 2.78125 15.40625 6.6875 
L 15.40625 25.90625 
C 15.40625 35.109375 21 42 28 42 
C 35.40625 42 36.203125 35.40625 36.203125 30.59375 
L 36.203125 6.6875 
C 36.203125 2.875 35.796875 2.390625 29.40625 2.390625 
L 29.40625 -0.203125 
C 31.796875 0 36.203125 0 38.796875 0 
C 41.40625 0 45.90625 0 48.296875 -0.203125 
L 48.296875 2.390625 
C 41.90625 2.390625 41.5 2.78125 41.5 6.6875 
z
" id="CMR17-110"/>
       <path d="M 29.203125 67.59375 
L 29.203125 65 
C 35.09375 65 36 64.40625 36 59.6875 
L 36 36.640625 
C 35.59375 37.140625 31.5 43.59375 23.40625 43.59375 
C 13.203125 43.59375 3.296875 34.5 3.296875 21.3125 
C 3.296875 8.203125 12.59375 -1 22.40625 -1 
C 30.90625 -1 35.296875 5.265625 35.796875 5.9375 
L 35.796875 -0.984375 
L 47.90625 -0.984375 
L 47.90625 2 
C 42 2 41.09375 2.59375 41.09375 7.390625 
L 41.09375 68.6875 
z
M 35.796875 11.796875 
C 35.796875 8.796875 34 6.09375 31.703125 4.09375 
C 28.296875 1.09375 24.90625 0.59375 23 0.59375 
C 20.09375 0.59375 9.703125 2.09375 9.703125 21.1875 
C 9.703125 40.8125 21.296875 42 23.90625 42 
C 28.5 42 32.203125 39.40625 34.5 35.796875 
C 35.796875 33.703125 35.796875 33.40625 35.796875 31.609375 
z
" id="CMR17-100"/>
       <path d="M 36 25.828125 
C 36 32.375 36 35.84375 31.796875 39.734375 
C 28.09375 43 23.796875 44 20.40625 44 
C 12.5 44 6.796875 37.609375 6.796875 30.796875 
C 6.796875 27 9.796875 27 10.40625 27 
C 11.703125 27 14 27.78125 14 30.53125 
C 14 33 12.09375 34.078125 10.40625 34.078125 
C 10 34.078125 9.5 33.96875 9.203125 33.875 
C 11.296875 40.5 16.703125 42.40625 20.203125 42.40625 
C 25.203125 42.40625 30.703125 37.953125 30.703125 29.453125 
L 30.703125 25 
C 24.796875 25 17.703125 24.203125 12.09375 21.203125 
C 5.796875 17.703125 4 12.703125 4 8.90625 
C 4 1.203125 13 -1 18.296875 -1 
C 23.796875 -1 28.90625 2.171875 31.09375 7.984375 
C 31.296875 3.640625 34.09375 -0.28125 38.5 -0.28125 
C 40.59375 -0.28125 45.90625 1.09375 45.90625 8.859375 
L 45.90625 14.375 
L 44.09375 14.375 
L 44.09375 8.78125 
C 44.09375 2.78125 41.40625 2 40.09375 2 
C 36 2 36 7.15625 36 11.53125 
z
M 30.703125 13.59375 
C 30.703125 4.953125 24.5 0.59375 19 0.59375 
C 14 0.59375 10.09375 4.296875 10.09375 8.90625 
C 10.09375 11.890625 11.40625 17.1875 17.203125 20.390625 
C 22 23.09375 27.5 23.5 30.703125 23.5 
z
" id="CMR17-97"/>
       <path d="M 15.296875 68.6875 
L 3.40625 67.59375 
L 3.40625 65 
C 9.296875 65 10.203125 64.40625 10.203125 59.640625 
L 10.203125 6.65625 
C 10.203125 2.875 9.796875 2.390625 3.40625 2.390625 
L 3.40625 -0.203125 
C 5.796875 0 10.203125 0 12.703125 0 
C 15.296875 0 19.703125 0 22.09375 -0.203125 
L 22.09375 2.390625 
C 15.703125 2.390625 15.296875 2.78125 15.296875 6.65625 
z
" id="CMR17-108"/>
       <path d="M 11.09375 18.1875 
C 13 16.6875 16.296875 15 20.296875 15 
C 28.203125 15 35 21.203125 35 29.5 
C 35 32.09375 34.203125 36.09375 31.203125 39.203125 
C 34 42.0625 38.09375 43 40.40625 43 
C 40.796875 43 41.40625 43 41.90625 42.71875 
C 41.5 42.625 40.59375 42.234375 40.59375 40.703125 
C 40.59375 39.484375 41.5 38.609375 42.796875 38.609375 
C 44.296875 38.609375 45.09375 39.578125 45.09375 40.84375 
C 45.09375 42.671875 43.59375 44.59375 40.40625 44.59375 
C 36.40625 44.59375 32.90625 42.78125 30.09375 40.3125 
C 27.09375 43.015625 23.5 44 20.296875 44 
C 12.40625 44 5.59375 37.796875 5.59375 29.5 
C 5.59375 23.78125 8.90625 20.1875 9.90625 19.1875 
C 6.90625 15.6875 6.90625 11.609375 6.90625 11.109375 
C 6.90625 8.515625 7.90625 4.71875 11.296875 2.625 
C 6.09375 1.328125 2 -2.640625 2 -7.59375 
C 2 -14.734375 11.5 -20 22.90625 -20 
C 33.90625 -20 43.796875 -14.9375 43.796875 -7.484375 
C 43.796875 6 29 6 21.296875 6 
C 19 6 14.90625 6 14.40625 6.109375 
C 11.296875 6.609375 9.203125 9.40625 9.203125 12.90625 
C 9.203125 13.796875 9.203125 16 11.09375 18.1875 
z
M 20.296875 16.6875 
C 11.5 16.6875 11.5 27.5 11.5 29.515625 
C 11.5 31.5 11.5 42.3125 20.296875 42.3125 
C 29.09375 42.3125 29.09375 31.5 29.09375 29.515625 
C 29.09375 27.5 29.09375 16.6875 20.296875 16.6875 
z
M 22.90625 -18.296875 
C 12.90625 -18.296875 6 -13.046875 6 -7.59375 
C 6 -4.515625 7.703125 -1.640625 9.90625 -0.0625 
C 12.40625 1.625 13.40625 1.625 20.203125 1.625 
C 28.40625 1.625 39.796875 1.625 39.796875 -7.59375 
C 39.796875 -13.046875 32.90625 -18.296875 22.90625 -18.296875 
z
" id="CMR17-103"/>
       <path d="M 29.09375 22.921875 
C 30.59375 22.921875 32.296875 22.921875 32.296875 24.515625 
C 32.296875 25.8125 31.296875 25.8125 29.5 25.8125 
L 13.296875 25.8125 
C 15.796875 34.78125 21.703125 40.203125 30.59375 40.203125 
L 33.5 40.203125 
C 35.203125 40.203125 36.703125 40.203125 36.703125 41.796875 
C 36.703125 43.09375 35.59375 43.09375 33.796875 43.09375 
L 30.40625 43.09375 
C 18.09375 43.09375 4.59375 33.296875 4.59375 17.59375 
C 4.59375 6.5 12.09375 -1 22 -1 
C 28.40625 -1 34.703125 3.03125 34.703125 4.03125 
C 34.703125 4.625 34.40625 5.25 33.796875 5.25 
C 33.5 5.25 33.296875 5.140625 32.796875 4.75 
C 29 2.21875 25.296875 1 22.296875 1 
C 17 1 11.40625 4.53125 11.40625 14.34375 
C 11.40625 16.25 11.59375 18.875 12.5 22.921875 
z
" id="CMMI12-15"/>
      </defs>
      <use transform="scale(0.996264)" xlink:href="#CMR17-65"/>
      <use transform="translate(69.07243 0)scale(0.996264)" xlink:href="#CMR17-98"/>
      <use transform="translate(119.9678 0)scale(0.996264)" xlink:href="#CMR17-117"/>
      <use transform="translate(170.863169 0)scale(0.996264)" xlink:href="#CMR17-110"/>
      <use transform="translate(221.758539 0)scale(0.996264)" xlink:href="#CMR17-100"/>
      <use transform="translate(272.653909 0)scale(0.996264)" xlink:href="#CMR17-97"/>
      <use transform="translate(318.344386 0)scale(0.996264)" xlink:href="#CMR17-110"/>
      <use transform="translate(369.239756 0)scale(0.996264)" xlink:href="#CMR17-99"/>
      <use transform="translate(409.725416 0)scale(0.996264)" xlink:href="#CMR17-101"/>
      <use transform="translate(480.287043 0)scale(0.996264)" xlink:href="#CMR17-105"/>
      <use transform="translate(505.158102 0)scale(0.996264)" xlink:href="#CMR17-110"/>
      <use transform="translate(586.129438 0)scale(0.996264)" xlink:href="#CMR17-108"/>
      <use transform="translate(611.000496 0)scale(0.996264)" xlink:href="#CMR17-111"/>
      <use transform="translate(656.690973 0)scale(0.996264)" xlink:href="#CMR17-103"/>
      <use transform="translate(720.287022 0)scale(0.996264)" xlink:href="#CMMI12-15"/>
     </g>
    </g>
   </g>
   <g id="line2d_77">
    <path clip-path="url(#p78f253fbdb)" d="M 34.209544 159.937073 
L 65.053392 185.797977 
L 95.897239 177.632453 
L 126.741087 224.932288 
L 157.584934 162.988156 
L 188.428782 200.306367 
L 219.272629 155.001857 
M 280.960324 133.02054 
L 311.804172 163.886464 
L 342.648019 89.990106 
L 373.491867 103.099029 
L 404.335714 113.165825 
" style="fill:none;stroke:#011959;stroke-linecap:square;stroke-opacity:0.5;stroke-width:1.5;"/>
   </g>
   <g id="line2d_78">
    <path clip-path="url(#p78f253fbdb)" d="M 34.209544 160.177202 
L 65.053392 178.513681 
L 95.897239 186.091327 
L 126.741087 160.648778 
L 157.584934 115.071217 
L 188.428782 164.679758 
L 219.272629 82.628294 
M 280.960324 88.419975 
L 311.804172 134.229588 
L 342.648019 126.847984 
L 373.491867 146.58758 
L 404.335714 193.896293 
" style="fill:none;stroke:#06215b;stroke-linecap:square;stroke-opacity:0.5;stroke-width:1.5;"/>
   </g>
   <g id="line2d_79">
    <path clip-path="url(#p78f253fbdb)" d="M 34.209544 169.962552 
L 65.053392 192.817685 
L 95.897239 177.795784 
L 126.741087 205.449601 
L 157.584934 150.139825 
L 188.428782 186.042954 
L 219.272629 113.163684 
M 280.960324 101.821456 
L 311.804172 129.523407 
L 342.648019 94.854647 
L 373.491867 112.137236 
L 404.335714 143.717716 
" style="fill:none;stroke:#0a2a5c;stroke-linecap:square;stroke-opacity:0.5;stroke-width:1.5;"/>
   </g>
   <g id="line2d_80">
    <path clip-path="url(#p78f253fbdb)" d="M 34.209544 58.982076 
L 65.053392 106.472051 
L 95.897239 82.551086 
L 126.741087 102.58521 
L 157.584934 70.984409 
L 188.428782 174.107511 
L 219.272629 134.758611 
M 280.960324 246.161955 
L 291.260341 268.12 
" style="fill:none;stroke:#0d315d;stroke-linecap:square;stroke-opacity:0.5;stroke-width:1.5;"/>
   </g>
   <g id="line2d_81">
    <path clip-path="url(#p78f253fbdb)" d="M 34.209544 45.198728 
L 65.053392 105.468864 
L 95.897239 110.761057 
L 126.741087 104.566019 
L 157.584934 69.511177 
L 188.428782 183.717912 
L 219.272629 150.323443 
" style="fill:none;stroke:#0f385f;stroke-linecap:square;stroke-opacity:0.5;stroke-width:1.5;"/>
   </g>
   <g id="line2d_82">
    <path clip-path="url(#p78f253fbdb)" d="M 34.209544 73.930554 
L 65.053392 138.935109 
L 95.897239 138.295459 
L 126.741087 108.821657 
L 157.584934 36.970143 
L 188.428782 96.262436 
L 219.272629 116.464706 
M 280.960324 124.129667 
L 311.804172 193.067087 
L 342.648019 178.668015 
L 373.491867 258.791718 
L 386.135364 268.12 
" style="fill:none;stroke:#103e5f;stroke-linecap:square;stroke-opacity:0.5;stroke-width:1.5;"/>
   </g>
   <g id="line2d_83">
    <path clip-path="url(#p78f253fbdb)" d="M 34.209544 78.541252 
L 65.053392 120.391317 
L 95.897239 112.27735 
L 126.741087 167.295559 
L 157.584934 144.118319 
L 188.182894 268.12 
" style="fill:none;stroke:#114460;stroke-linecap:square;stroke-opacity:0.5;stroke-width:1.5;"/>
   </g>
   <g id="line2d_84">
    <path clip-path="url(#p78f253fbdb)" d="M 34.209544 79.470876 
L 65.053392 105.364424 
L 95.897239 60.583438 
L 126.741087 109.977682 
L 157.584934 65.99282 
L 188.428782 153.045747 
L 219.272629 124.77997 
M 280.960324 233.178384 
L 311.804172 246.116813 
L 333.827856 268.12 
" style="fill:none;stroke:#134961;stroke-linecap:square;stroke-opacity:0.5;stroke-width:1.5;"/>
   </g>
   <g id="line2d_85">
    <path clip-path="url(#p78f253fbdb)" d="M 34.209544 101.305748 
L 65.053392 153.039648 
L 95.897239 111.427599 
L 126.741087 114.292684 
L 157.584934 57.694305 
L 188.428782 89.518614 
L 219.272629 67.90731 
M 280.960324 107.436769 
L 311.804172 121.481657 
L 342.648019 146.416734 
L 373.491867 175.339318 
L 404.335714 221.420414 
" style="fill:none;stroke:#154f62;stroke-linecap:square;stroke-opacity:0.5;stroke-width:1.5;"/>
   </g>
   <g id="line2d_86">
    <path clip-path="url(#p78f253fbdb)" d="M 34.209544 80.018331 
L 65.053392 167.590115 
L 95.897239 136.303574 
L 126.741087 109.022413 
L 157.584934 49.279517 
L 188.428782 90.192572 
L 219.272629 67.926437 
M 280.960324 112.729686 
L 311.804172 131.457429 
L 342.648019 171.121189 
L 373.491867 188.771716 
L 404.335714 245.372639 
" style="fill:none;stroke:#185462;stroke-linecap:square;stroke-opacity:0.5;stroke-width:1.5;"/>
   </g>
   <g id="line2d_87">
    <path clip-path="url(#p78f253fbdb)" d="M 34.209544 159.282682 
L 65.053392 172.558023 
L 95.897239 124.268934 
L 126.741087 171.759463 
L 157.584934 108.925659 
L 188.428782 185.641029 
L 219.272629 71.455056 
M 280.960324 87.929344 
L 311.804172 126.113729 
L 342.648019 129.753792 
L 373.491867 165.64468 
L 404.335714 200.356034 
" style="fill:none;stroke:#1b5862;stroke-linecap:square;stroke-opacity:0.5;stroke-width:1.5;"/>
   </g>
   <g id="line2d_88">
    <path clip-path="url(#p78f253fbdb)" d="M 34.209544 81.620884 
L 65.053392 123.373992 
L 95.897239 146.928893 
L 126.741087 139.018868 
L 157.584934 94.277537 
L 188.428782 189.982647 
L 219.272629 184.106536 
" style="fill:none;stroke:#1f5d61;stroke-linecap:square;stroke-opacity:0.5;stroke-width:1.5;"/>
   </g>
   <g id="line2d_89">
    <path clip-path="url(#p78f253fbdb)" d="M 34.209544 43.61139 
L 65.053392 93.480795 
L 95.897239 112.598071 
L 126.741087 123.823276 
L 157.584934 68.875262 
L 188.428782 192.573656 
L 219.272629 173.243892 
" style="fill:none;stroke:#246160;stroke-linecap:square;stroke-opacity:0.5;stroke-width:1.5;"/>
   </g>
   <g id="line2d_90">
    <path clip-path="url(#p78f253fbdb)" d="M 34.209544 189.121557 
L 65.053392 186.562646 
L 95.897239 42.587825 
L 126.741087 96.936083 
L 157.584934 99.157126 
L 177.926515 268.12 
" style="fill:none;stroke:#2b655e;stroke-linecap:square;stroke-opacity:0.5;stroke-width:1.5;"/>
   </g>
   <g id="line2d_91">
    <path clip-path="url(#p78f253fbdb)" d="M 34.209544 129.893546 
L 65.053392 128.244341 
L 95.897239 68.403176 
L 126.741087 147.130921 
L 157.584934 152.140413 
L 188.428782 267.069449 
L 189.557027 268.12 
" style="fill:none;stroke:#31695b;stroke-linecap:square;stroke-opacity:0.5;stroke-width:1.5;"/>
   </g>
   <g id="line2d_92">
    <path clip-path="url(#p78f253fbdb)" d="M 34.209544 109.607872 
L 65.053392 153.848496 
L 95.897239 172.885956 
L 126.741087 148.88616 
L 157.584934 117.017168 
L 188.428782 204.304642 
L 219.272629 198.724885 
" style="fill:none;stroke:#3a6c57;stroke-linecap:square;stroke-opacity:0.5;stroke-width:1.5;"/>
   </g>
   <g id="line2d_93">
    <path clip-path="url(#p78f253fbdb)" d="M 34.209544 169.379275 
L 65.053392 196.150709 
L 95.897239 177.209457 
L 126.741087 238.898601 
L 157.584934 140.502517 
L 188.428782 172.858869 
L 219.272629 102.658235 
M 280.960324 104.535111 
L 311.804172 130.506039 
L 342.648019 104.380968 
L 373.491867 126.451572 
L 404.335714 168.328692 
" style="fill:none;stroke:#426f52;stroke-linecap:square;stroke-opacity:0.5;stroke-width:1.5;"/>
   </g>
   <g id="line2d_94">
    <path clip-path="url(#p78f253fbdb)" d="M 34.209544 171.385116 
L 65.053392 175.838373 
L 95.897239 128.184752 
L 126.741087 160.810796 
L 157.584934 97.085592 
L 188.428782 144.833562 
L 219.272629 75.894926 
M 280.960324 112.928528 
L 311.804172 131.691296 
L 342.648019 150.930983 
L 373.491867 179.186162 
L 404.335714 223.924066 
" style="fill:none;stroke:#4a724e;stroke-linecap:square;stroke-opacity:0.5;stroke-width:1.5;"/>
   </g>
   <g id="line2d_95">
    <path clip-path="url(#p78f253fbdb)" d="M 34.209544 158.244731 
L 65.053392 181.727344 
L 95.897239 164.331449 
L 126.741087 214.388955 
L 157.584934 98.261297 
L 188.428782 140.439409 
L 219.272629 71.443947 
M 280.960324 79.937568 
L 311.804172 114.002738 
L 342.648019 80.913211 
L 373.491867 104.498203 
L 404.335714 140.826476 
" style="fill:none;stroke:#537549;stroke-linecap:square;stroke-opacity:0.5;stroke-width:1.5;"/>
   </g>
   <g id="line2d_96">
    <path clip-path="url(#p78f253fbdb)" d="M 34.209544 36.686701 
L 65.053392 80.520221 
L 95.897239 68.991053 
L 126.741087 105.355931 
L 157.584934 84.124151 
L 188.428782 196.107864 
L 219.272629 175.385497 
" style="fill:none;stroke:#5b7745;stroke-linecap:square;stroke-opacity:0.5;stroke-width:1.5;"/>
   </g>
   <g id="line2d_97">
    <path clip-path="url(#p78f253fbdb)" d="M 34.209544 49.625166 
L 65.053392 78.334264 
L 95.897239 49.999405 
L 126.741087 106.634846 
L 157.584934 77.974181 
L 188.428782 168.989053 
L 219.272629 157.865043 
" style="fill:none;stroke:#657a3f;stroke-linecap:square;stroke-opacity:0.5;stroke-width:1.5;"/>
   </g>
   <g id="line2d_98">
    <path clip-path="url(#p78f253fbdb)" d="M 34.209544 58.495355 
L 65.053392 94.274958 
L 95.897239 63.051969 
L 126.741087 104.038022 
L 157.584934 47.518599 
L 188.428782 146.561202 
L 219.272629 144.756832 
M 280.960324 186.82411 
L 311.804172 265.490503 
L 342.648019 235.113702 
L 352.343532 268.12 
" style="fill:none;stroke:#6d7c3b;stroke-linecap:square;stroke-opacity:0.5;stroke-width:1.5;"/>
   </g>
   <g id="line2d_99">
    <path clip-path="url(#p78f253fbdb)" d="M 34.209544 75.168291 
L 65.053392 102.461657 
L 95.897239 63.802187 
L 126.741087 106.257721 
L 157.584934 44.971453 
L 188.428782 141.737902 
L 219.272629 126.087914 
M 280.960324 167.599202 
L 311.804172 239.294929 
L 342.648019 207.079673 
L 361.674598 268.12 
" style="fill:none;stroke:#787f36;stroke-linecap:square;stroke-opacity:0.5;stroke-width:1.5;"/>
   </g>
   <g id="line2d_100">
    <path clip-path="url(#p78f253fbdb)" d="M 34.209544 83.807267 
L 65.053392 101.821764 
L 95.897239 56.247457 
L 126.741087 112.237877 
L 157.584934 63.926174 
L 188.428782 145.577488 
L 219.272629 123.249075 
M 280.960324 235.454261 
L 311.804172 235.444764 
L 342.648019 261.611761 
L 346.025867 268.12 
" style="fill:none;stroke:#828231;stroke-linecap:square;stroke-opacity:0.5;stroke-width:1.5;"/>
   </g>
   <g id="line2d_101">
    <path clip-path="url(#p78f253fbdb)" d="M 34.209544 100.256673 
L 65.053392 121.769764 
L 95.897239 73.563695 
L 126.741087 121.683929 
L 157.584934 78.384859 
L 188.428782 162.69424 
L 219.272629 134.511619 
M 280.960324 249.45596 
L 311.804172 250.684441 
L 326.688545 268.12 
" style="fill:none;stroke:#8c852e;stroke-linecap:square;stroke-opacity:0.5;stroke-width:1.5;"/>
   </g>
   <g id="line2d_102">
    <path clip-path="url(#p78f253fbdb)" d="M 34.209544 83.694759 
L 65.053392 89.840633 
L 95.897239 116.338664 
L 126.741087 89.095194 
L 157.584934 52.583968 
L 188.428782 126.219027 
L 219.272629 96.89268 
M 280.960324 126.427367 
L 311.804172 190.637883 
L 342.648019 193.645139 
L 373.491867 231.774541 
L 402.255672 268.12 
" style="fill:none;stroke:#97882c;stroke-linecap:square;stroke-opacity:0.5;stroke-width:1.5;"/>
   </g>
   <g id="line2d_103">
    <path clip-path="url(#p78f253fbdb)" d="M 34.209544 158.086904 
L 65.053392 159.655594 
L 95.897239 105.127745 
L 126.741087 160.630842 
L 157.584934 96.119558 
L 188.428782 168.364067 
L 219.272629 60.029528 
M 280.960324 84.276256 
L 311.804172 119.390715 
L 342.648019 125.688849 
L 373.491867 156.295707 
L 404.335714 196.337266 
" style="fill:none;stroke:#a18a2b;stroke-linecap:square;stroke-opacity:0.5;stroke-width:1.5;"/>
   </g>
   <g id="line2d_104">
    <path clip-path="url(#p78f253fbdb)" d="M 34.209544 170.38005 
L 65.053392 179.38188 
L 95.897239 132.825497 
L 126.741087 183.002365 
L 157.584934 111.474594 
L 188.428782 178.76094 
L 219.272629 77.971192 
M 280.960324 105.60735 
L 311.804172 135.949855 
L 342.648019 149.090091 
L 373.491867 182.144975 
L 404.335714 224.415548 
" style="fill:none;stroke:#ad8c2d;stroke-linecap:square;stroke-opacity:0.5;stroke-width:1.5;"/>
   </g>
   <g id="line2d_105">
    <path clip-path="url(#p78f253fbdb)" d="M 34.209544 84.792272 
L 65.053392 179.215507 
L 95.897239 153.61021 
L 126.741087 112.214505 
L 157.584934 46.508073 
L 188.428782 91.899476 
L 219.272629 75.00067 
M 280.960324 114.933991 
L 311.804172 139.165399 
L 342.648019 171.321111 
L 373.491867 204.793172 
L 404.335714 251.441568 
" style="fill:none;stroke:#b78e31;stroke-linecap:square;stroke-opacity:0.5;stroke-width:1.5;"/>
   </g>
   <g id="line2d_106">
    <path clip-path="url(#p78f253fbdb)" d="M 34.209544 103.514814 
L 65.053392 115.060347 
L 95.897239 70.784819 
L 126.741087 117.945613 
L 157.584934 53.777043 
L 188.428782 148.425267 
L 219.272629 121.013514 
M 280.960324 175.929607 
L 311.804172 230.464315 
L 342.648019 204.868338 
L 363.480293 268.12 
" style="fill:none;stroke:#c29037;stroke-linecap:square;stroke-opacity:0.5;stroke-width:1.5;"/>
   </g>
   <g id="line2d_107">
    <path clip-path="url(#p78f253fbdb)" d="M 34.209544 100.712584 
L 65.053392 186.192264 
L 95.897239 152.184322 
L 126.741087 116.944087 
L 157.584934 61.620919 
L 188.428782 95.091957 
L 219.272629 76.641087 
M 280.960324 125.476554 
L 311.804172 136.343831 
L 342.648019 183.396121 
L 373.491867 200.517715 
L 404.335714 259.015007 
" style="fill:none;stroke:#cb923e;stroke-linecap:square;stroke-opacity:0.5;stroke-width:1.5;"/>
   </g>
   <g id="line2d_108">
    <path clip-path="url(#p78f253fbdb)" d="M 34.209544 158.494213 
L 65.053392 184.647553 
L 95.897239 166.950352 
L 126.741087 229.04408 
L 157.584934 117.085473 
L 188.428782 146.194237 
L 219.272629 84.995827 
M 280.960324 87.076171 
L 311.804172 113.560132 
L 342.648019 85.708743 
L 373.491867 108.317695 
L 404.335714 145.602439 
" style="fill:none;stroke:#d69446;stroke-linecap:square;stroke-opacity:0.5;stroke-width:1.5;"/>
   </g>
   <g id="line2d_109">
    <path clip-path="url(#p78f253fbdb)" d="M 34.209544 206.585621 
L 65.053392 234.418751 
L 95.897239 214.383595 
L 124.082526 268.12 
M 128.594471 268.12 
L 157.584934 188.836569 
L 188.428782 246.47078 
L 219.272629 137.247767 
M 280.960324 140.463096 
L 311.804172 175.619483 
L 342.648019 147.871859 
L 373.491867 171.161695 
L 404.335714 222.944847 
" style="fill:none;stroke:#e09651;stroke-linecap:square;stroke-opacity:0.5;stroke-width:1.5;"/>
   </g>
   <g id="line2d_110">
    <path clip-path="url(#p78f253fbdb)" d="M 34.209544 27.505806 
L 65.053392 71.279804 
L 95.897239 99.827856 
L 126.741087 150.858705 
L 157.584934 152.704648 
L 185.346734 268.12 
" style="fill:none;stroke:#e7985a;stroke-linecap:square;stroke-opacity:0.5;stroke-width:1.5;"/>
   </g>
   <g id="line2d_111">
    <path clip-path="url(#p78f253fbdb)" d="M 34.209544 49.302537 
L 65.053392 87.747461 
L 95.897239 86.053232 
L 126.741087 120.33748 
L 157.584934 72.98817 
L 188.428782 203.975419 
L 219.272629 184.08896 
" style="fill:none;stroke:#ef9b67;stroke-linecap:square;stroke-opacity:0.5;stroke-width:1.5;"/>
   </g>
   <g id="line2d_112">
    <path clip-path="url(#p78f253fbdb)" d="M 34.209544 31.954824 
L 65.053392 77.929921 
L 95.897239 207.408779 
L 126.741087 253.371803 
L 157.584934 221.712884 
L 164.192891 268.12 
" style="fill:none;stroke:#f49f72;stroke-linecap:square;stroke-opacity:0.5;stroke-width:1.5;"/>
   </g>
   <g id="line2d_113">
    <path clip-path="url(#p78f253fbdb)" d="M 34.209544 184.960052 
L 65.053392 228.382024 
L 95.897239 188.741331 
L 126.741087 221.533138 
L 157.584934 206.886776 
L 188.428782 244.679884 
L 219.272629 207.538432 
M 280.960324 216.310886 
L 301.155895 268.12 
M 337.01183 268.12 
L 342.648019 262.012233 
L 345.30765 268.12 
" style="fill:none;stroke:#f9a380;stroke-linecap:square;stroke-opacity:0.5;stroke-width:1.5;"/>
   </g>
   <g id="line2d_114">
    <path clip-path="url(#p78f253fbdb)" d="M 34.209544 199.510603 
L 65.053392 233.158423 
L 95.897239 205.618782 
L 126.741087 233.160389 
L 157.584934 223.057788 
L 188.428782 257.178236 
L 219.272629 233.72094 
M 280.960324 240.896411 
L 291.337701 268.12 
" style="fill:none;stroke:#fba68c;stroke-linecap:square;stroke-opacity:0.5;stroke-width:1.5;"/>
   </g>
   <g id="line2d_115">
    <path clip-path="url(#p78f253fbdb)" d="M 34.209544 179.941753 
L 65.053392 223.606672 
L 95.897239 183.109512 
L 126.741087 216.21168 
L 157.584934 200.558157 
L 188.428782 238.136855 
L 219.272629 199.569564 
M 280.960324 206.440862 
L 305.484816 268.12 
M 325.890063 268.12 
L 342.648019 249.211902 
L 350.981718 268.12 
" style="fill:none;stroke:#fdab9a;stroke-linecap:square;stroke-opacity:0.5;stroke-width:1.5;"/>
   </g>
   <g id="line2d_116">
    <path clip-path="url(#p78f253fbdb)" d="M 34.209544 236.609543 
L 65.053392 261.8634 
L 95.897239 242.323663 
L 118.487224 268.12 
M 140.074244 268.12 
L 157.584934 255.741453 
L 163.596267 268.12 
M 217.646918 268.12 
L 219.272629 265.274815 
" style="fill:none;stroke:#fdafa7;stroke-linecap:square;stroke-opacity:0.5;stroke-width:1.5;"/>
   </g>
   <g id="line2d_117">
    <path clip-path="url(#p78f253fbdb)" d="M 34.209544 204.07061 
L 65.053392 237.857485 
L 95.897239 207.598021 
L 126.741087 236.440849 
L 157.584934 219.535272 
L 188.428782 254.793697 
L 219.272629 227.532799 
M 280.960324 229.521773 
L 297.656675 268.12 
" style="fill:none;stroke:#fdb3b1;stroke-linecap:square;stroke-opacity:0.5;stroke-width:1.5;"/>
   </g>
   <g id="line2d_118">
    <path clip-path="url(#p78f253fbdb)" d="M 34.209544 191.501745 
L 65.053392 220.949165 
L 95.897239 189.68923 
L 126.741087 213.613503 
L 157.584934 194.722146 
L 188.428782 224.108934 
L 219.272629 196.100216 
M 280.960324 187.280675 
L 311.804172 256.921799 
L 342.648019 209.715595 
L 373.491867 246.867514 
L 404.335714 243.73212 
" style="fill:none;stroke:#fdb7be;stroke-linecap:square;stroke-opacity:0.5;stroke-width:1.5;"/>
   </g>
   <g id="line2d_119">
    <path clip-path="url(#p78f253fbdb)" d="M 34.209544 202.268045 
L 65.053392 227.220114 
L 95.897239 201.173407 
L 126.741087 228.962241 
L 157.584934 203.947404 
L 188.428782 256.172531 
L 219.272629 199.554015 
M 280.960324 195.429893 
L 311.804172 243.509262 
L 342.648019 208.096151 
L 373.491867 246.238725 
L 404.335714 215.165377 
" style="fill:none;stroke:#fdbbc9;stroke-linecap:square;stroke-opacity:0.5;stroke-width:1.5;"/>
   </g>
   <g id="line2d_120">
    <path clip-path="url(#p78f253fbdb)" d="M 34.209544 215.87393 
L 65.053392 241.030058 
L 95.897239 204.137965 
L 126.741087 226.269509 
L 157.584934 202.035566 
L 188.428782 239.635387 
L 219.272629 191.94907 
M 280.960324 178.758437 
L 311.804172 230.393666 
L 342.648019 182.561824 
L 373.491867 218.336297 
L 404.335714 185.441088 
" style="fill:none;stroke:#fcbfd6;stroke-linecap:square;stroke-opacity:0.5;stroke-width:1.5;"/>
   </g>
   <g id="line2d_121">
    <path clip-path="url(#p78f253fbdb)" d="M 74.461648 268.12 
L 95.897239 249.314977 
L 126.741087 258.509499 
L 157.584934 229.096069 
L 178.574823 268.12 
M 196.35904 268.12 
L 219.272629 215.18567 
M 280.960324 206.345781 
L 311.804172 251.790206 
L 342.648019 197.930276 
L 373.491867 230.1126 
L 404.335714 180.814496 
" style="fill:none;stroke:#fcc3e1;stroke-linecap:square;stroke-opacity:0.5;stroke-width:1.5;"/>
   </g>
   <g id="line2d_122">
    <path clip-path="url(#p78f253fbdb)" d="M 219.115889 268.12 
L 219.272629 267.709485 
M 280.960324 252.784024 
L 291.648834 268.12 
M 323.717508 268.12 
L 342.648019 222.167063 
L 373.491867 254.052125 
L 404.335714 193.900869 
" style="fill:none;stroke:#fbc8ef;stroke-linecap:square;stroke-opacity:0.5;stroke-width:1.5;"/>
   </g>
   <g id="line2d_123">
    <path clip-path="url(#p78f253fbdb)" style="fill:none;stroke:#000000;stroke-dasharray:5.55,2.4;stroke-dashoffset:0;stroke-width:1.5;"/>
   </g>
   <g id="patch_3">
    <path d="M 65.053392 208.297271 
L 65.053392 19.44 
" style="fill:none;stroke:#000000;stroke-linecap:square;stroke-linejoin:miter;stroke-width:0.8;"/>
   </g>
   <g id="patch_4">
    <path d="M 404.335714 208.297271 
L 404.335714 19.44 
" style="fill:none;stroke:#000000;stroke-linecap:square;stroke-linejoin:miter;stroke-width:0.8;"/>
   </g>
   <g id="patch_5">
    <path d="M 65.053392 208.297271 
L 404.335714 208.297271 
" style="fill:none;stroke:#000000;stroke-linecap:square;stroke-linejoin:miter;stroke-width:0.8;"/>
   </g>
   <g id="patch_6">
    <path d="M 65.053392 19.44 
L 404.335714 19.44 
" style="fill:none;stroke:#000000;stroke-linecap:square;stroke-linejoin:miter;stroke-width:0.8;"/>
   </g>
   <g id="text_12">
    <!-- HD122563 -->
    <g transform="translate(311.804172 48.948949)scale(0.18 -0.18)">
     <defs>
      <path d="M 56.09375 61.015625 
C 56.09375 65.5 57.203125 65.5 64.09375 65.5 
L 64.09375 68 
C 61.203125 68 55.90625 68 52.796875 68 
C 49.703125 68 44.40625 68 41.5 68 
L 41.5 65.5 
C 48.40625 65.5 49.5 65.5 49.5 61 
L 49.5 36.578125 
L 19.703125 36.578125 
L 19.703125 61 
C 19.703125 65.5 20.796875 65.5 27.703125 65.5 
L 27.703125 68 
C 24.796875 68 19.5 68 16.40625 68 
C 13.296875 68 8 68 5.09375 68 
L 5.09375 65.5 
C 12 65.5 13.09375 65.5 13.09375 61.015625 
L 13.09375 6.984375 
C 13.09375 2.5 12 2.5 5.09375 2.5 
L 5.09375 0 
C 8 0 13.296875 0 16.40625 0 
C 19.5 0 24.796875 0 27.703125 0 
L 27.703125 2.5 
C 20.796875 2.5 19.703125 2.5 19.703125 6.96875 
L 19.703125 34 
L 49.5 34 
L 49.5 6.96875 
C 49.5 2.5 48.40625 2.5 41.5 2.5 
L 41.5 0 
C 44.40625 0 49.703125 0 52.796875 0 
C 55.90625 0 61.203125 0 64.09375 0 
L 64.09375 2.5 
C 57.203125 2.5 56.09375 2.5 56.09375 6.984375 
z
" id="CMR17-72"/>
      <path d="M 5.203125 68 
L 5.203125 65.40625 
C 12.09375 65.40625 13.203125 65.40625 13.203125 60.9375 
L 13.203125 7.0625 
C 13.203125 2.59375 12.09375 2.59375 5.203125 2.59375 
L 5.203125 0 
L 37 0 
C 53.09375 0 66 14.734375 66 33.453125 
C 66 52.28125 53.296875 68 37 68 
z
M 23.796875 2.59375 
C 19.796875 2.59375 19.59375 3.078125 19.59375 6.46875 
L 19.59375 61.53125 
C 19.59375 64.921875 19.796875 65.40625 23.796875 65.40625 
L 35 65.40625 
C 43.296875 65.40625 58.59375 60.53125 58.59375 33.453125 
C 58.59375 19.40625 54.5 13.734375 52.59375 11.046875 
C 50.203125 7.96875 44.5 2.59375 35 2.59375 
z
" id="CMR17-68"/>
      <path d="M 11.40625 57.6875 
C 12.40625 57.28125 16.5 56 20.703125 56 
C 30 56 35.09375 61.109375 38 64.0625 
C 38 64.953125 38 65.5 37.40625 65.5 
C 37.296875 65.5 37.09375 65.5 36.296875 65.046875 
C 32.796875 63.40625 28.703125 62.078125 23.703125 62.078125 
C 20.703125 62.078125 16.203125 62.484375 11.296875 64.671875 
C 10.203125 65.171875 10 65.171875 9.90625 65.171875 
C 9.40625 65.171875 9.296875 65.0625 9.296875 63.078125 
L 9.296875 34.421875 
C 9.296875 32.640625 9.296875 32.140625 10.296875 32.140625 
C 10.796875 32.140625 11 32.34375 11.5 33.03125 
C 14.703125 37.515625 19.09375 39.40625 24.09375 39.40625 
C 27.59375 39.40625 35.09375 37.21875 35.09375 20.140625 
C 35.09375 16.953125 35.09375 11.171875 32.09375 6.578125 
C 29.59375 2.484375 25.703125 0.390625 21.40625 0.390625 
C 14.796875 0.390625 8.09375 5 6.296875 12.71875 
C 6.703125 12.609375 7.5 12.421875 7.90625 12.421875 
C 9.203125 12.421875 11.703125 13.125 11.703125 16.21875 
C 11.703125 18.90625 9.796875 20 7.90625 20 
C 5.59375 20 4.09375 18.59375 4.09375 15.796875 
C 4.09375 7.09375 11 -2 21.59375 -2 
C 31.90625 -2 41.703125 6.875 41.703125 19.75 
C 41.703125 31.71875 33.90625 41 24.203125 41 
C 19.09375 41 14.796875 39.109375 11.40625 35.53125 
z
" id="CMR17-53"/>
     </defs>
     <use transform="scale(0.996264)" xlink:href="#CMR17-72"/>
     <use transform="translate(69.07243 0)scale(0.996264)" xlink:href="#CMR17-68"/>
     <use transform="translate(139.465986 0)scale(0.996264)" xlink:href="#CMR17-49"/>
     <use transform="translate(185.156463 0)scale(0.996264)" xlink:href="#CMR17-50"/>
     <use transform="translate(230.84694 0)scale(0.996264)" xlink:href="#CMR17-50"/>
     <use transform="translate(276.537417 0)scale(0.996264)" xlink:href="#CMR17-53"/>
     <use transform="translate(322.227894 0)scale(0.996264)" xlink:href="#CMR17-54"/>
     <use transform="translate(367.918371 0)scale(0.996264)" xlink:href="#CMR17-51"/>
    </g>
   </g>
   <g id="legend_1"/>
   <g id="LineCollection_1">
    <path clip-path="url(#p78f253fbdb)" d="M 95.897239 75.507002 
L 95.897239 58.981991 
" style="fill:none;stroke:#000000;stroke-width:1.5;"/>
    <path clip-path="url(#p78f253fbdb)" d="M 126.741087 127.442752 
L 126.741087 103.835593 
" style="fill:none;stroke:#000000;stroke-width:1.5;"/>
    <path clip-path="url(#p78f253fbdb)" d="M 157.584934 86.130224 
L 157.584934 68.424855 
" style="fill:none;stroke:#000000;stroke-width:1.5;"/>
    <path clip-path="url(#p78f253fbdb)" d="M 188.428782 156.361522 
L 188.428782 139.836511 
" style="fill:none;stroke:#000000;stroke-width:1.5;"/>
    <path clip-path="url(#p78f253fbdb)" d="M 219.272629 123.311499 
L 219.272629 100.884698 
" style="fill:none;stroke:#000000;stroke-width:1.5;"/>
    <path clip-path="url(#p78f253fbdb)" d="M 280.960324 123.311499 
L 280.960324 99.70434 
" style="fill:none;stroke:#000000;stroke-width:1.5;"/>
    <path clip-path="url(#p78f253fbdb)" d="M 342.648019 153.410627 
L 342.648019 128.62311 
" style="fill:none;stroke:#000000;stroke-width:1.5;"/>
    <path clip-path="url(#p78f253fbdb)" d="M 373.491867 183.509755 
L 373.491867 159.902596 
" style="fill:none;stroke:#000000;stroke-width:1.5;"/>
   </g>
   <g id="line2d_124">
    <defs>
     <path d="M 0 2 
C 0.530406 2 1.03916 1.789267 1.414214 1.414214 
C 1.789267 1.03916 2 0.530406 2 0 
C 2 -0.530406 1.789267 -1.03916 1.414214 -1.414214 
C 1.03916 -1.789267 0.530406 -2 0 -2 
C -0.530406 -2 -1.03916 -1.789267 -1.414214 -1.414214 
C -1.789267 -1.03916 -2 -0.530406 -2 0 
C -2 0.530406 -1.789267 1.03916 -1.414214 1.414214 
C -1.03916 1.789267 -0.530406 2 0 2 
z
" id="mc87a3843e1" style="stroke:#000000;"/>
    </defs>
    <g clip-path="url(#p78f253fbdb)">
     <use style="stroke:#000000;" x="95.897239" xlink:href="#mc87a3843e1" y="67.244497"/>
     <use style="stroke:#000000;" x="126.741087" xlink:href="#mc87a3843e1" y="115.639173"/>
     <use style="stroke:#000000;" x="157.584934" xlink:href="#mc87a3843e1" y="77.277539"/>
     <use style="stroke:#000000;" x="188.428782" xlink:href="#mc87a3843e1" y="148.099016"/>
     <use style="stroke:#000000;" x="219.272629" xlink:href="#mc87a3843e1" y="112.098099"/>
     <use style="stroke:#000000;" x="280.960324" xlink:href="#mc87a3843e1" y="111.50792"/>
     <use style="stroke:#000000;" x="342.648019" xlink:href="#mc87a3843e1" y="141.016868"/>
     <use style="stroke:#000000;" x="373.491867" xlink:href="#mc87a3843e1" y="171.706175"/>
    </g>
   </g>
  </g>
 </g>
 <defs>
  <clipPath id="p78f253fbdb">
   <rect height="188.857271" width="339.282322" x="65.053392" y="19.44"/>
  </clipPath>
 </defs>
</svg>
